G04 MADE WITH FRITZING*
G04 WWW.FRITZING.ORG*
G04 DOUBLE SIDED*
G04 HOLES PLATED*
G04 CONTOUR ON CENTER OF CONTOUR VECTOR*
%ASAXBY*%
%FSLAX23Y23*%
%MOIN*%
%OFA0B0*%
%SFA1.0B1.0*%
%ADD10C,0.075000*%
%ADD11C,0.078000*%
%ADD12C,0.039370*%
%ADD13C,0.082677*%
%ADD14C,0.066000*%
%ADD15C,0.138425*%
%ADD16C,0.070000*%
%ADD17R,0.078000X0.078000*%
%ADD18R,0.051517X0.055213*%
%ADD19R,0.063043X0.098756*%
%ADD20R,0.066622X0.134746*%
%ADD21R,0.048416X0.072855*%
%ADD22R,0.175184X0.053350*%
%ADD23C,0.016000*%
%ADD24C,0.024000*%
%LNCOPPER0*%
G90*
G70*
G54D10*
X3603Y2369D03*
G54D11*
X3162Y1183D03*
X3062Y1183D03*
X2962Y1183D03*
X2862Y1183D03*
X2762Y1183D03*
X2662Y1183D03*
X2562Y1183D03*
G54D12*
X2437Y983D03*
X2437Y833D03*
G54D13*
X3262Y908D03*
X2139Y546D03*
X3102Y908D03*
X1981Y546D03*
X2942Y908D03*
X1254Y545D03*
X1824Y545D03*
X3419Y908D03*
X3262Y817D03*
X2295Y545D03*
X2942Y817D03*
X1410Y547D03*
X3102Y817D03*
X1566Y547D03*
G54D14*
X3500Y1933D03*
X3500Y2033D03*
X3500Y2133D03*
X3500Y1733D03*
X3400Y1733D03*
X3300Y1733D03*
X3200Y1733D03*
G54D15*
X3500Y2283D03*
G54D14*
X3100Y1733D03*
X3000Y1733D03*
X2900Y1733D03*
X2800Y1733D03*
X2700Y1733D03*
X2600Y1733D03*
X2500Y1733D03*
G54D15*
X2500Y2283D03*
G54D16*
X887Y358D03*
X887Y458D03*
G54D15*
X187Y358D03*
G54D16*
X887Y558D03*
X887Y658D03*
X887Y758D03*
X887Y858D03*
X887Y958D03*
X887Y1058D03*
X887Y1158D03*
G54D15*
X187Y1158D03*
G54D11*
X587Y2358D03*
X487Y2358D03*
X387Y2358D03*
G54D12*
X1887Y1783D03*
X562Y1958D03*
X562Y1108D03*
X487Y2058D03*
X387Y2008D03*
X1662Y1558D03*
X1462Y1258D03*
X1262Y995D03*
X1262Y1258D03*
G54D17*
X587Y2358D03*
G54D18*
X3587Y883D03*
G54D19*
X3700Y1108D03*
G54D20*
X3526Y1102D03*
G54D21*
X3587Y995D03*
G54D22*
X3612Y1183D03*
G54D23*
X3262Y996D02*
X3262Y934D01*
D02*
X3062Y1108D02*
X3262Y996D01*
D02*
X3062Y1164D02*
X3062Y1108D01*
D02*
X2437Y975D02*
X2437Y841D01*
D02*
X1163Y270D02*
X1038Y358D01*
D02*
X1038Y358D02*
X907Y358D01*
D02*
X3363Y384D02*
X3249Y270D01*
D02*
X3249Y270D02*
X1163Y270D01*
D02*
X3279Y798D02*
X3362Y707D01*
D02*
X3362Y707D02*
X3363Y384D01*
D02*
X568Y1102D02*
X874Y772D01*
D02*
X412Y1858D02*
X556Y1954D01*
D02*
X413Y833D02*
X412Y1858D01*
D02*
X873Y372D02*
X413Y833D01*
G54D24*
D02*
X487Y2066D02*
X487Y2339D01*
D02*
X1713Y2009D02*
X395Y2008D01*
D02*
X3188Y1934D02*
X1911Y1934D01*
D02*
X1911Y1934D02*
X1713Y2009D01*
D02*
X3480Y1933D02*
X3188Y1934D01*
G54D23*
D02*
X1724Y1608D02*
X1668Y1563D01*
D02*
X2962Y1608D02*
X1724Y1608D01*
D02*
X3085Y1720D02*
X2962Y1608D01*
D02*
X1412Y670D02*
X1412Y1132D01*
D02*
X1412Y1132D02*
X1459Y1251D01*
D02*
X1410Y572D02*
X1412Y670D01*
D02*
X1262Y1003D02*
X1262Y1250D01*
D02*
X2661Y1044D02*
X2662Y1164D01*
D02*
X2922Y833D02*
X2661Y1044D01*
D02*
X3274Y1183D02*
X3337Y1120D01*
D02*
X3337Y821D02*
X3288Y818D01*
D02*
X3337Y1120D02*
X3337Y821D01*
D02*
X3181Y1183D02*
X3274Y1183D01*
D02*
X1663Y558D02*
X1592Y550D01*
D02*
X1712Y608D02*
X1663Y558D01*
D02*
X1712Y1159D02*
X1712Y608D01*
D02*
X2300Y1220D02*
X1786Y1220D01*
D02*
X1786Y1220D02*
X1712Y1159D01*
D02*
X2754Y1200D02*
X2713Y1282D01*
D02*
X2713Y1282D02*
X2349Y1282D01*
D02*
X2349Y1282D02*
X2300Y1220D01*
D02*
X2762Y1058D02*
X2762Y1164D01*
D02*
X3025Y1007D02*
X2825Y1007D01*
D02*
X2825Y1007D02*
X2762Y1058D01*
D02*
X3077Y818D02*
X3025Y820D01*
D02*
X3025Y820D02*
X3025Y1007D01*
G36*
X2702Y1156D02*
X2702Y1154D01*
X2700Y1154D01*
X2700Y1150D01*
X2698Y1150D01*
X2698Y1148D01*
X2696Y1148D01*
X2696Y1146D01*
X2694Y1146D01*
X2694Y1144D01*
X2690Y1144D01*
X2690Y1142D01*
X2688Y1142D01*
X2688Y1140D01*
X2684Y1140D01*
X2684Y1138D01*
X2680Y1138D01*
X2680Y1052D01*
X2682Y1052D01*
X2682Y1050D01*
X2684Y1050D01*
X2684Y1048D01*
X2686Y1048D01*
X2686Y1046D01*
X2688Y1046D01*
X2688Y1044D01*
X2692Y1044D01*
X2692Y1042D01*
X2694Y1042D01*
X2694Y1040D01*
X2696Y1040D01*
X2696Y1038D01*
X2698Y1038D01*
X2698Y1036D01*
X2702Y1036D01*
X2702Y1034D01*
X2704Y1034D01*
X2704Y1032D01*
X2706Y1032D01*
X2706Y1030D01*
X2708Y1030D01*
X2708Y1028D01*
X2710Y1028D01*
X2710Y1026D01*
X2714Y1026D01*
X2714Y1024D01*
X2716Y1024D01*
X2716Y1022D01*
X2718Y1022D01*
X2718Y1020D01*
X2720Y1020D01*
X2720Y1018D01*
X2724Y1018D01*
X2724Y1016D01*
X2726Y1016D01*
X2726Y1014D01*
X2728Y1014D01*
X2728Y1012D01*
X2730Y1012D01*
X2730Y1010D01*
X2734Y1010D01*
X2734Y1008D01*
X2736Y1008D01*
X2736Y1006D01*
X2738Y1006D01*
X2738Y1004D01*
X2740Y1004D01*
X2740Y1002D01*
X2744Y1002D01*
X2744Y1000D01*
X2746Y1000D01*
X2746Y998D01*
X2748Y998D01*
X2748Y996D01*
X2750Y996D01*
X2750Y994D01*
X2752Y994D01*
X2752Y992D01*
X2756Y992D01*
X2756Y990D01*
X2758Y990D01*
X2758Y988D01*
X2760Y988D01*
X2760Y986D01*
X2762Y986D01*
X2762Y984D01*
X2766Y984D01*
X2766Y982D01*
X2768Y982D01*
X2768Y980D01*
X2770Y980D01*
X2770Y978D01*
X2772Y978D01*
X2772Y976D01*
X2776Y976D01*
X2776Y974D01*
X2778Y974D01*
X2778Y972D01*
X2780Y972D01*
X2780Y970D01*
X2782Y970D01*
X2782Y968D01*
X2786Y968D01*
X2786Y966D01*
X2788Y966D01*
X2788Y964D01*
X2790Y964D01*
X2790Y962D01*
X2792Y962D01*
X2792Y960D01*
X2794Y960D01*
X2794Y958D01*
X2956Y958D01*
X2956Y956D01*
X2962Y956D01*
X2962Y954D01*
X2966Y954D01*
X2966Y952D01*
X2970Y952D01*
X2970Y950D01*
X2972Y950D01*
X2972Y948D01*
X2974Y948D01*
X2974Y946D01*
X2978Y946D01*
X2978Y944D01*
X2980Y944D01*
X2980Y940D01*
X2982Y940D01*
X2982Y938D01*
X2984Y938D01*
X2984Y936D01*
X2986Y936D01*
X2986Y932D01*
X2988Y932D01*
X2988Y928D01*
X3008Y928D01*
X3008Y988D01*
X2822Y988D01*
X2822Y990D01*
X2816Y990D01*
X2816Y992D01*
X2814Y992D01*
X2814Y994D01*
X2810Y994D01*
X2810Y996D01*
X2808Y996D01*
X2808Y998D01*
X2806Y998D01*
X2806Y1000D01*
X2804Y1000D01*
X2804Y1002D01*
X2800Y1002D01*
X2800Y1004D01*
X2798Y1004D01*
X2798Y1006D01*
X2796Y1006D01*
X2796Y1008D01*
X2794Y1008D01*
X2794Y1010D01*
X2790Y1010D01*
X2790Y1012D01*
X2788Y1012D01*
X2788Y1014D01*
X2786Y1014D01*
X2786Y1016D01*
X2784Y1016D01*
X2784Y1018D01*
X2782Y1018D01*
X2782Y1020D01*
X2778Y1020D01*
X2778Y1022D01*
X2776Y1022D01*
X2776Y1024D01*
X2774Y1024D01*
X2774Y1026D01*
X2772Y1026D01*
X2772Y1028D01*
X2768Y1028D01*
X2768Y1030D01*
X2766Y1030D01*
X2766Y1032D01*
X2764Y1032D01*
X2764Y1034D01*
X2762Y1034D01*
X2762Y1036D01*
X2760Y1036D01*
X2760Y1038D01*
X2756Y1038D01*
X2756Y1040D01*
X2754Y1040D01*
X2754Y1042D01*
X2752Y1042D01*
X2752Y1044D01*
X2750Y1044D01*
X2750Y1046D01*
X2748Y1046D01*
X2748Y1048D01*
X2746Y1048D01*
X2746Y1052D01*
X2744Y1052D01*
X2744Y1138D01*
X2740Y1138D01*
X2740Y1140D01*
X2736Y1140D01*
X2736Y1142D01*
X2734Y1142D01*
X2734Y1144D01*
X2732Y1144D01*
X2732Y1146D01*
X2728Y1146D01*
X2728Y1148D01*
X2726Y1148D01*
X2726Y1152D01*
X2724Y1152D01*
X2724Y1154D01*
X2722Y1154D01*
X2722Y1156D01*
X2702Y1156D01*
G37*
D02*
G36*
X2798Y958D02*
X2798Y956D01*
X2800Y956D01*
X2800Y954D01*
X2802Y954D01*
X2802Y952D01*
X2804Y952D01*
X2804Y950D01*
X2808Y950D01*
X2808Y948D01*
X2810Y948D01*
X2810Y946D01*
X2812Y946D01*
X2812Y944D01*
X2814Y944D01*
X2814Y942D01*
X2818Y942D01*
X2818Y940D01*
X2820Y940D01*
X2820Y938D01*
X2822Y938D01*
X2822Y936D01*
X2824Y936D01*
X2824Y934D01*
X2828Y934D01*
X2828Y932D01*
X2830Y932D01*
X2830Y930D01*
X2832Y930D01*
X2832Y928D01*
X2834Y928D01*
X2834Y926D01*
X2836Y926D01*
X2836Y924D01*
X2840Y924D01*
X2840Y922D01*
X2842Y922D01*
X2842Y920D01*
X2844Y920D01*
X2844Y918D01*
X2846Y918D01*
X2846Y916D01*
X2850Y916D01*
X2850Y914D01*
X2852Y914D01*
X2852Y912D01*
X2854Y912D01*
X2854Y910D01*
X2856Y910D01*
X2856Y908D01*
X2860Y908D01*
X2860Y906D01*
X2862Y906D01*
X2862Y904D01*
X2864Y904D01*
X2864Y902D01*
X2866Y902D01*
X2866Y900D01*
X2868Y900D01*
X2868Y898D01*
X2872Y898D01*
X2872Y896D01*
X2892Y896D01*
X2892Y904D01*
X2890Y904D01*
X2890Y910D01*
X2892Y910D01*
X2892Y922D01*
X2894Y922D01*
X2894Y928D01*
X2896Y928D01*
X2896Y932D01*
X2898Y932D01*
X2898Y936D01*
X2900Y936D01*
X2900Y938D01*
X2902Y938D01*
X2902Y940D01*
X2904Y940D01*
X2904Y942D01*
X2906Y942D01*
X2906Y944D01*
X2908Y944D01*
X2908Y946D01*
X2910Y946D01*
X2910Y948D01*
X2912Y948D01*
X2912Y950D01*
X2916Y950D01*
X2916Y952D01*
X2918Y952D01*
X2918Y954D01*
X2922Y954D01*
X2922Y956D01*
X2928Y956D01*
X2928Y958D01*
X2798Y958D01*
G37*
D02*
G36*
X3208Y1164D02*
X3208Y1162D01*
X3206Y1162D01*
X3206Y1160D01*
X3204Y1160D01*
X3204Y1156D01*
X3202Y1156D01*
X3202Y1154D01*
X3200Y1154D01*
X3200Y1150D01*
X3198Y1150D01*
X3198Y1148D01*
X3196Y1148D01*
X3196Y1146D01*
X3194Y1146D01*
X3194Y1144D01*
X3190Y1144D01*
X3190Y1142D01*
X3188Y1142D01*
X3188Y1140D01*
X3184Y1140D01*
X3184Y1138D01*
X3180Y1138D01*
X3180Y1136D01*
X3174Y1136D01*
X3174Y1134D01*
X3296Y1134D01*
X3296Y1136D01*
X3294Y1136D01*
X3294Y1138D01*
X3292Y1138D01*
X3292Y1140D01*
X3290Y1140D01*
X3290Y1142D01*
X3288Y1142D01*
X3288Y1144D01*
X3286Y1144D01*
X3286Y1146D01*
X3284Y1146D01*
X3284Y1148D01*
X3282Y1148D01*
X3282Y1150D01*
X3280Y1150D01*
X3280Y1152D01*
X3278Y1152D01*
X3278Y1154D01*
X3276Y1154D01*
X3276Y1156D01*
X3274Y1156D01*
X3274Y1158D01*
X3272Y1158D01*
X3272Y1160D01*
X3270Y1160D01*
X3270Y1162D01*
X3268Y1162D01*
X3268Y1164D01*
X3208Y1164D01*
G37*
D02*
G36*
X3102Y1156D02*
X3102Y1154D01*
X3100Y1154D01*
X3100Y1150D01*
X3098Y1150D01*
X3098Y1148D01*
X3096Y1148D01*
X3096Y1146D01*
X3094Y1146D01*
X3094Y1144D01*
X3090Y1144D01*
X3090Y1142D01*
X3088Y1142D01*
X3088Y1140D01*
X3084Y1140D01*
X3084Y1138D01*
X3080Y1138D01*
X3080Y1134D01*
X3152Y1134D01*
X3152Y1136D01*
X3144Y1136D01*
X3144Y1138D01*
X3140Y1138D01*
X3140Y1140D01*
X3136Y1140D01*
X3136Y1142D01*
X3134Y1142D01*
X3134Y1144D01*
X3132Y1144D01*
X3132Y1146D01*
X3128Y1146D01*
X3128Y1148D01*
X3126Y1148D01*
X3126Y1152D01*
X3124Y1152D01*
X3124Y1154D01*
X3122Y1154D01*
X3122Y1156D01*
X3102Y1156D01*
G37*
D02*
G36*
X3080Y1134D02*
X3080Y1132D01*
X3298Y1132D01*
X3298Y1134D01*
X3080Y1134D01*
G37*
D02*
G36*
X3080Y1134D02*
X3080Y1132D01*
X3298Y1132D01*
X3298Y1134D01*
X3080Y1134D01*
G37*
D02*
G36*
X3080Y1132D02*
X3080Y1118D01*
X3082Y1118D01*
X3082Y1116D01*
X3086Y1116D01*
X3086Y1114D01*
X3090Y1114D01*
X3090Y1112D01*
X3092Y1112D01*
X3092Y1110D01*
X3096Y1110D01*
X3096Y1108D01*
X3100Y1108D01*
X3100Y1106D01*
X3104Y1106D01*
X3104Y1104D01*
X3106Y1104D01*
X3106Y1102D01*
X3110Y1102D01*
X3110Y1100D01*
X3114Y1100D01*
X3114Y1098D01*
X3118Y1098D01*
X3118Y1096D01*
X3122Y1096D01*
X3122Y1094D01*
X3124Y1094D01*
X3124Y1092D01*
X3128Y1092D01*
X3128Y1090D01*
X3132Y1090D01*
X3132Y1088D01*
X3136Y1088D01*
X3136Y1086D01*
X3138Y1086D01*
X3138Y1084D01*
X3142Y1084D01*
X3142Y1082D01*
X3146Y1082D01*
X3146Y1080D01*
X3150Y1080D01*
X3150Y1078D01*
X3154Y1078D01*
X3154Y1076D01*
X3156Y1076D01*
X3156Y1074D01*
X3160Y1074D01*
X3160Y1072D01*
X3164Y1072D01*
X3164Y1070D01*
X3168Y1070D01*
X3168Y1068D01*
X3170Y1068D01*
X3170Y1066D01*
X3174Y1066D01*
X3174Y1064D01*
X3178Y1064D01*
X3178Y1062D01*
X3182Y1062D01*
X3182Y1060D01*
X3186Y1060D01*
X3186Y1058D01*
X3188Y1058D01*
X3188Y1056D01*
X3192Y1056D01*
X3192Y1054D01*
X3196Y1054D01*
X3196Y1052D01*
X3200Y1052D01*
X3200Y1050D01*
X3202Y1050D01*
X3202Y1048D01*
X3206Y1048D01*
X3206Y1046D01*
X3210Y1046D01*
X3210Y1044D01*
X3214Y1044D01*
X3214Y1042D01*
X3218Y1042D01*
X3218Y1040D01*
X3220Y1040D01*
X3220Y1038D01*
X3224Y1038D01*
X3224Y1036D01*
X3228Y1036D01*
X3228Y1034D01*
X3232Y1034D01*
X3232Y1032D01*
X3234Y1032D01*
X3234Y1030D01*
X3238Y1030D01*
X3238Y1028D01*
X3242Y1028D01*
X3242Y1026D01*
X3246Y1026D01*
X3246Y1024D01*
X3250Y1024D01*
X3250Y1022D01*
X3252Y1022D01*
X3252Y1020D01*
X3256Y1020D01*
X3256Y1018D01*
X3260Y1018D01*
X3260Y1016D01*
X3264Y1016D01*
X3264Y1014D01*
X3266Y1014D01*
X3266Y1012D01*
X3270Y1012D01*
X3270Y1010D01*
X3274Y1010D01*
X3274Y1008D01*
X3276Y1008D01*
X3276Y1004D01*
X3278Y1004D01*
X3278Y1000D01*
X3280Y1000D01*
X3280Y956D01*
X3282Y956D01*
X3282Y954D01*
X3286Y954D01*
X3286Y952D01*
X3290Y952D01*
X3290Y950D01*
X3292Y950D01*
X3292Y948D01*
X3294Y948D01*
X3294Y946D01*
X3298Y946D01*
X3298Y944D01*
X3300Y944D01*
X3300Y940D01*
X3320Y940D01*
X3320Y1112D01*
X3318Y1112D01*
X3318Y1114D01*
X3316Y1114D01*
X3316Y1116D01*
X3314Y1116D01*
X3314Y1118D01*
X3312Y1118D01*
X3312Y1120D01*
X3310Y1120D01*
X3310Y1122D01*
X3308Y1122D01*
X3308Y1124D01*
X3306Y1124D01*
X3306Y1126D01*
X3304Y1126D01*
X3304Y1128D01*
X3302Y1128D01*
X3302Y1130D01*
X3300Y1130D01*
X3300Y1132D01*
X3080Y1132D01*
G37*
D02*
G36*
X152Y2428D02*
X152Y2408D01*
X154Y2408D01*
X154Y2406D01*
X636Y2406D01*
X636Y2362D01*
X3510Y2362D01*
X3510Y2360D01*
X3520Y2360D01*
X3520Y2358D01*
X3526Y2358D01*
X3526Y2356D01*
X3532Y2356D01*
X3532Y2354D01*
X3536Y2354D01*
X3536Y2352D01*
X3540Y2352D01*
X3540Y2350D01*
X3542Y2350D01*
X3542Y2348D01*
X3546Y2348D01*
X3546Y2346D01*
X3548Y2346D01*
X3548Y2344D01*
X3550Y2344D01*
X3550Y2342D01*
X3554Y2342D01*
X3554Y2340D01*
X3556Y2340D01*
X3556Y2338D01*
X3558Y2338D01*
X3558Y2334D01*
X3560Y2334D01*
X3560Y2332D01*
X3562Y2332D01*
X3562Y2330D01*
X3564Y2330D01*
X3564Y2328D01*
X3566Y2328D01*
X3566Y2324D01*
X3568Y2324D01*
X3568Y2320D01*
X3570Y2320D01*
X3570Y2316D01*
X3572Y2316D01*
X3572Y2312D01*
X3574Y2312D01*
X3574Y2306D01*
X3576Y2306D01*
X3576Y2300D01*
X3578Y2300D01*
X3578Y2284D01*
X3868Y2284D01*
X3868Y2286D01*
X3856Y2286D01*
X3856Y2288D01*
X3850Y2288D01*
X3850Y2290D01*
X3844Y2290D01*
X3844Y2292D01*
X3840Y2292D01*
X3840Y2294D01*
X3838Y2294D01*
X3838Y2296D01*
X3834Y2296D01*
X3834Y2298D01*
X3830Y2298D01*
X3830Y2300D01*
X3828Y2300D01*
X3828Y2302D01*
X3826Y2302D01*
X3826Y2304D01*
X3824Y2304D01*
X3824Y2306D01*
X3822Y2306D01*
X3822Y2308D01*
X3820Y2308D01*
X3820Y2310D01*
X3818Y2310D01*
X3818Y2312D01*
X3816Y2312D01*
X3816Y2316D01*
X3814Y2316D01*
X3814Y2318D01*
X3812Y2318D01*
X3812Y2322D01*
X3810Y2322D01*
X3810Y2326D01*
X3808Y2326D01*
X3808Y2330D01*
X3806Y2330D01*
X3806Y2334D01*
X3804Y2334D01*
X3804Y2342D01*
X3802Y2342D01*
X3802Y2372D01*
X3804Y2372D01*
X3804Y2380D01*
X3806Y2380D01*
X3806Y2386D01*
X3808Y2386D01*
X3808Y2390D01*
X3810Y2390D01*
X3810Y2394D01*
X3812Y2394D01*
X3812Y2398D01*
X3814Y2398D01*
X3814Y2400D01*
X3816Y2400D01*
X3816Y2402D01*
X3818Y2402D01*
X3818Y2406D01*
X3820Y2406D01*
X3820Y2408D01*
X3822Y2408D01*
X3822Y2428D01*
X152Y2428D01*
G37*
D02*
G36*
X156Y2406D02*
X156Y2402D01*
X158Y2402D01*
X158Y2400D01*
X160Y2400D01*
X160Y2396D01*
X162Y2396D01*
X162Y2394D01*
X164Y2394D01*
X164Y2390D01*
X166Y2390D01*
X166Y2386D01*
X168Y2386D01*
X168Y2380D01*
X170Y2380D01*
X170Y2372D01*
X172Y2372D01*
X172Y2342D01*
X170Y2342D01*
X170Y2336D01*
X168Y2336D01*
X168Y2330D01*
X166Y2330D01*
X166Y2326D01*
X164Y2326D01*
X164Y2322D01*
X162Y2322D01*
X162Y2318D01*
X160Y2318D01*
X160Y2316D01*
X158Y2316D01*
X158Y2312D01*
X156Y2312D01*
X156Y2310D01*
X154Y2310D01*
X154Y2308D01*
X382Y2308D01*
X382Y2310D01*
X372Y2310D01*
X372Y2312D01*
X368Y2312D01*
X368Y2314D01*
X364Y2314D01*
X364Y2316D01*
X360Y2316D01*
X360Y2318D01*
X358Y2318D01*
X358Y2320D01*
X354Y2320D01*
X354Y2322D01*
X352Y2322D01*
X352Y2324D01*
X350Y2324D01*
X350Y2328D01*
X348Y2328D01*
X348Y2330D01*
X346Y2330D01*
X346Y2334D01*
X344Y2334D01*
X344Y2336D01*
X342Y2336D01*
X342Y2342D01*
X340Y2342D01*
X340Y2350D01*
X338Y2350D01*
X338Y2366D01*
X340Y2366D01*
X340Y2374D01*
X342Y2374D01*
X342Y2378D01*
X344Y2378D01*
X344Y2382D01*
X346Y2382D01*
X346Y2386D01*
X348Y2386D01*
X348Y2388D01*
X350Y2388D01*
X350Y2390D01*
X352Y2390D01*
X352Y2392D01*
X354Y2392D01*
X354Y2394D01*
X356Y2394D01*
X356Y2396D01*
X358Y2396D01*
X358Y2398D01*
X362Y2398D01*
X362Y2400D01*
X364Y2400D01*
X364Y2402D01*
X368Y2402D01*
X368Y2404D01*
X376Y2404D01*
X376Y2406D01*
X156Y2406D01*
G37*
D02*
G36*
X398Y2406D02*
X398Y2404D01*
X406Y2404D01*
X406Y2402D01*
X410Y2402D01*
X410Y2400D01*
X412Y2400D01*
X412Y2398D01*
X416Y2398D01*
X416Y2396D01*
X418Y2396D01*
X418Y2394D01*
X420Y2394D01*
X420Y2392D01*
X422Y2392D01*
X422Y2390D01*
X424Y2390D01*
X424Y2388D01*
X426Y2388D01*
X426Y2386D01*
X448Y2386D01*
X448Y2388D01*
X450Y2388D01*
X450Y2390D01*
X452Y2390D01*
X452Y2392D01*
X454Y2392D01*
X454Y2394D01*
X456Y2394D01*
X456Y2396D01*
X458Y2396D01*
X458Y2398D01*
X462Y2398D01*
X462Y2400D01*
X464Y2400D01*
X464Y2402D01*
X468Y2402D01*
X468Y2404D01*
X476Y2404D01*
X476Y2406D01*
X398Y2406D01*
G37*
D02*
G36*
X498Y2406D02*
X498Y2404D01*
X506Y2404D01*
X506Y2402D01*
X510Y2402D01*
X510Y2400D01*
X512Y2400D01*
X512Y2398D01*
X516Y2398D01*
X516Y2396D01*
X518Y2396D01*
X518Y2394D01*
X538Y2394D01*
X538Y2406D01*
X498Y2406D01*
G37*
D02*
G36*
X636Y2362D02*
X636Y2308D01*
X2426Y2308D01*
X2426Y2314D01*
X2428Y2314D01*
X2428Y2318D01*
X2430Y2318D01*
X2430Y2322D01*
X2432Y2322D01*
X2432Y2326D01*
X2434Y2326D01*
X2434Y2328D01*
X2436Y2328D01*
X2436Y2330D01*
X2438Y2330D01*
X2438Y2334D01*
X2440Y2334D01*
X2440Y2336D01*
X2442Y2336D01*
X2442Y2338D01*
X2444Y2338D01*
X2444Y2340D01*
X2446Y2340D01*
X2446Y2342D01*
X2448Y2342D01*
X2448Y2344D01*
X2452Y2344D01*
X2452Y2346D01*
X2454Y2346D01*
X2454Y2348D01*
X2456Y2348D01*
X2456Y2350D01*
X2460Y2350D01*
X2460Y2352D01*
X2464Y2352D01*
X2464Y2354D01*
X2468Y2354D01*
X2468Y2356D01*
X2472Y2356D01*
X2472Y2358D01*
X2480Y2358D01*
X2480Y2360D01*
X2490Y2360D01*
X2490Y2362D01*
X636Y2362D01*
G37*
D02*
G36*
X2510Y2362D02*
X2510Y2360D01*
X2520Y2360D01*
X2520Y2358D01*
X2526Y2358D01*
X2526Y2356D01*
X2532Y2356D01*
X2532Y2354D01*
X2536Y2354D01*
X2536Y2352D01*
X2540Y2352D01*
X2540Y2350D01*
X2542Y2350D01*
X2542Y2348D01*
X2546Y2348D01*
X2546Y2346D01*
X2548Y2346D01*
X2548Y2344D01*
X2550Y2344D01*
X2550Y2342D01*
X2554Y2342D01*
X2554Y2340D01*
X2556Y2340D01*
X2556Y2338D01*
X2558Y2338D01*
X2558Y2334D01*
X2560Y2334D01*
X2560Y2332D01*
X2562Y2332D01*
X2562Y2330D01*
X2564Y2330D01*
X2564Y2328D01*
X2566Y2328D01*
X2566Y2324D01*
X2568Y2324D01*
X2568Y2320D01*
X2570Y2320D01*
X2570Y2316D01*
X2572Y2316D01*
X2572Y2312D01*
X2574Y2312D01*
X2574Y2306D01*
X2576Y2306D01*
X2576Y2300D01*
X2578Y2300D01*
X2578Y2266D01*
X2576Y2266D01*
X2576Y2258D01*
X2574Y2258D01*
X2574Y2252D01*
X2572Y2252D01*
X2572Y2248D01*
X2570Y2248D01*
X2570Y2244D01*
X2568Y2244D01*
X2568Y2242D01*
X2566Y2242D01*
X2566Y2238D01*
X2564Y2238D01*
X2564Y2236D01*
X2562Y2236D01*
X2562Y2232D01*
X2560Y2232D01*
X2560Y2230D01*
X2558Y2230D01*
X2558Y2228D01*
X2556Y2228D01*
X2556Y2226D01*
X2554Y2226D01*
X2554Y2224D01*
X2552Y2224D01*
X2552Y2222D01*
X2550Y2222D01*
X2550Y2220D01*
X2546Y2220D01*
X2546Y2218D01*
X2544Y2218D01*
X2544Y2216D01*
X2540Y2216D01*
X2540Y2214D01*
X2538Y2214D01*
X2538Y2212D01*
X2534Y2212D01*
X2534Y2210D01*
X2528Y2210D01*
X2528Y2208D01*
X2524Y2208D01*
X2524Y2206D01*
X2516Y2206D01*
X2516Y2204D01*
X3484Y2204D01*
X3484Y2206D01*
X3476Y2206D01*
X3476Y2208D01*
X3470Y2208D01*
X3470Y2210D01*
X3466Y2210D01*
X3466Y2212D01*
X3462Y2212D01*
X3462Y2214D01*
X3458Y2214D01*
X3458Y2216D01*
X3456Y2216D01*
X3456Y2218D01*
X3452Y2218D01*
X3452Y2220D01*
X3450Y2220D01*
X3450Y2222D01*
X3448Y2222D01*
X3448Y2224D01*
X3446Y2224D01*
X3446Y2226D01*
X3444Y2226D01*
X3444Y2228D01*
X3442Y2228D01*
X3442Y2230D01*
X3440Y2230D01*
X3440Y2232D01*
X3438Y2232D01*
X3438Y2234D01*
X3436Y2234D01*
X3436Y2238D01*
X3434Y2238D01*
X3434Y2240D01*
X3432Y2240D01*
X3432Y2244D01*
X3430Y2244D01*
X3430Y2248D01*
X3428Y2248D01*
X3428Y2252D01*
X3426Y2252D01*
X3426Y2256D01*
X3424Y2256D01*
X3424Y2264D01*
X3422Y2264D01*
X3422Y2274D01*
X3420Y2274D01*
X3420Y2292D01*
X3422Y2292D01*
X3422Y2302D01*
X3424Y2302D01*
X3424Y2308D01*
X3426Y2308D01*
X3426Y2314D01*
X3428Y2314D01*
X3428Y2318D01*
X3430Y2318D01*
X3430Y2322D01*
X3432Y2322D01*
X3432Y2326D01*
X3434Y2326D01*
X3434Y2328D01*
X3436Y2328D01*
X3436Y2330D01*
X3438Y2330D01*
X3438Y2334D01*
X3440Y2334D01*
X3440Y2336D01*
X3442Y2336D01*
X3442Y2338D01*
X3444Y2338D01*
X3444Y2340D01*
X3446Y2340D01*
X3446Y2342D01*
X3448Y2342D01*
X3448Y2344D01*
X3452Y2344D01*
X3452Y2346D01*
X3454Y2346D01*
X3454Y2348D01*
X3456Y2348D01*
X3456Y2350D01*
X3460Y2350D01*
X3460Y2352D01*
X3464Y2352D01*
X3464Y2354D01*
X3468Y2354D01*
X3468Y2356D01*
X3472Y2356D01*
X3472Y2358D01*
X3480Y2358D01*
X3480Y2360D01*
X3490Y2360D01*
X3490Y2362D01*
X2510Y2362D01*
G37*
D02*
G36*
X426Y2330D02*
X426Y2326D01*
X424Y2326D01*
X424Y2324D01*
X422Y2324D01*
X422Y2322D01*
X420Y2322D01*
X420Y2320D01*
X416Y2320D01*
X416Y2318D01*
X414Y2318D01*
X414Y2316D01*
X410Y2316D01*
X410Y2314D01*
X408Y2314D01*
X408Y2312D01*
X402Y2312D01*
X402Y2310D01*
X392Y2310D01*
X392Y2308D01*
X482Y2308D01*
X482Y2310D01*
X472Y2310D01*
X472Y2312D01*
X468Y2312D01*
X468Y2314D01*
X464Y2314D01*
X464Y2316D01*
X460Y2316D01*
X460Y2318D01*
X458Y2318D01*
X458Y2320D01*
X454Y2320D01*
X454Y2322D01*
X452Y2322D01*
X452Y2324D01*
X450Y2324D01*
X450Y2328D01*
X448Y2328D01*
X448Y2330D01*
X426Y2330D01*
G37*
D02*
G36*
X516Y2320D02*
X516Y2318D01*
X514Y2318D01*
X514Y2316D01*
X510Y2316D01*
X510Y2314D01*
X508Y2314D01*
X508Y2312D01*
X502Y2312D01*
X502Y2310D01*
X492Y2310D01*
X492Y2308D01*
X538Y2308D01*
X538Y2320D01*
X516Y2320D01*
G37*
D02*
G36*
X152Y2308D02*
X152Y2306D01*
X2424Y2306D01*
X2424Y2308D01*
X152Y2308D01*
G37*
D02*
G36*
X152Y2308D02*
X152Y2306D01*
X2424Y2306D01*
X2424Y2308D01*
X152Y2308D01*
G37*
D02*
G36*
X152Y2308D02*
X152Y2306D01*
X2424Y2306D01*
X2424Y2308D01*
X152Y2308D01*
G37*
D02*
G36*
X152Y2308D02*
X152Y2306D01*
X2424Y2306D01*
X2424Y2308D01*
X152Y2308D01*
G37*
D02*
G36*
X150Y2306D02*
X150Y2304D01*
X148Y2304D01*
X148Y2302D01*
X146Y2302D01*
X146Y2300D01*
X142Y2300D01*
X142Y2298D01*
X140Y2298D01*
X140Y2296D01*
X136Y2296D01*
X136Y2294D01*
X134Y2294D01*
X134Y2292D01*
X130Y2292D01*
X130Y2290D01*
X124Y2290D01*
X124Y2288D01*
X118Y2288D01*
X118Y2286D01*
X106Y2286D01*
X106Y2284D01*
X2420Y2284D01*
X2420Y2292D01*
X2422Y2292D01*
X2422Y2302D01*
X2424Y2302D01*
X2424Y2306D01*
X150Y2306D01*
G37*
D02*
G36*
X40Y2298D02*
X40Y2284D01*
X92Y2284D01*
X92Y2286D01*
X82Y2286D01*
X82Y2288D01*
X76Y2288D01*
X76Y2290D01*
X70Y2290D01*
X70Y2292D01*
X66Y2292D01*
X66Y2294D01*
X62Y2294D01*
X62Y2296D01*
X60Y2296D01*
X60Y2298D01*
X40Y2298D01*
G37*
D02*
G36*
X3904Y2292D02*
X3904Y2290D01*
X3898Y2290D01*
X3898Y2288D01*
X3892Y2288D01*
X3892Y2286D01*
X3882Y2286D01*
X3882Y2284D01*
X3926Y2284D01*
X3926Y2292D01*
X3904Y2292D01*
G37*
D02*
G36*
X40Y2284D02*
X40Y2282D01*
X2420Y2282D01*
X2420Y2284D01*
X40Y2284D01*
G37*
D02*
G36*
X40Y2284D02*
X40Y2282D01*
X2420Y2282D01*
X2420Y2284D01*
X40Y2284D01*
G37*
D02*
G36*
X3578Y2284D02*
X3578Y2282D01*
X3926Y2282D01*
X3926Y2284D01*
X3578Y2284D01*
G37*
D02*
G36*
X3578Y2284D02*
X3578Y2282D01*
X3926Y2282D01*
X3926Y2284D01*
X3578Y2284D01*
G37*
D02*
G36*
X40Y2282D02*
X40Y2204D01*
X2484Y2204D01*
X2484Y2206D01*
X2476Y2206D01*
X2476Y2208D01*
X2470Y2208D01*
X2470Y2210D01*
X2466Y2210D01*
X2466Y2212D01*
X2462Y2212D01*
X2462Y2214D01*
X2458Y2214D01*
X2458Y2216D01*
X2456Y2216D01*
X2456Y2218D01*
X2452Y2218D01*
X2452Y2220D01*
X2450Y2220D01*
X2450Y2222D01*
X2448Y2222D01*
X2448Y2224D01*
X2446Y2224D01*
X2446Y2226D01*
X2444Y2226D01*
X2444Y2228D01*
X2442Y2228D01*
X2442Y2230D01*
X2440Y2230D01*
X2440Y2232D01*
X2438Y2232D01*
X2438Y2234D01*
X2436Y2234D01*
X2436Y2238D01*
X2434Y2238D01*
X2434Y2240D01*
X2432Y2240D01*
X2432Y2244D01*
X2430Y2244D01*
X2430Y2248D01*
X2428Y2248D01*
X2428Y2252D01*
X2426Y2252D01*
X2426Y2256D01*
X2424Y2256D01*
X2424Y2264D01*
X2422Y2264D01*
X2422Y2274D01*
X2420Y2274D01*
X2420Y2282D01*
X40Y2282D01*
G37*
D02*
G36*
X3578Y2282D02*
X3578Y2266D01*
X3576Y2266D01*
X3576Y2258D01*
X3574Y2258D01*
X3574Y2252D01*
X3572Y2252D01*
X3572Y2248D01*
X3570Y2248D01*
X3570Y2244D01*
X3568Y2244D01*
X3568Y2242D01*
X3566Y2242D01*
X3566Y2238D01*
X3564Y2238D01*
X3564Y2236D01*
X3562Y2236D01*
X3562Y2232D01*
X3560Y2232D01*
X3560Y2230D01*
X3558Y2230D01*
X3558Y2228D01*
X3556Y2228D01*
X3556Y2226D01*
X3554Y2226D01*
X3554Y2224D01*
X3552Y2224D01*
X3552Y2222D01*
X3550Y2222D01*
X3550Y2220D01*
X3546Y2220D01*
X3546Y2218D01*
X3544Y2218D01*
X3544Y2216D01*
X3540Y2216D01*
X3540Y2214D01*
X3538Y2214D01*
X3538Y2212D01*
X3534Y2212D01*
X3534Y2210D01*
X3528Y2210D01*
X3528Y2208D01*
X3524Y2208D01*
X3524Y2206D01*
X3516Y2206D01*
X3516Y2204D01*
X3926Y2204D01*
X3926Y2282D01*
X3578Y2282D01*
G37*
D02*
G36*
X40Y2204D02*
X40Y2202D01*
X3926Y2202D01*
X3926Y2204D01*
X40Y2204D01*
G37*
D02*
G36*
X40Y2204D02*
X40Y2202D01*
X3926Y2202D01*
X3926Y2204D01*
X40Y2204D01*
G37*
D02*
G36*
X40Y2204D02*
X40Y2202D01*
X3926Y2202D01*
X3926Y2204D01*
X40Y2204D01*
G37*
D02*
G36*
X40Y2202D02*
X40Y2176D01*
X3506Y2176D01*
X3506Y2174D01*
X3514Y2174D01*
X3514Y2172D01*
X3518Y2172D01*
X3518Y2170D01*
X3522Y2170D01*
X3522Y2168D01*
X3526Y2168D01*
X3526Y2166D01*
X3528Y2166D01*
X3528Y2164D01*
X3530Y2164D01*
X3530Y2162D01*
X3532Y2162D01*
X3532Y2160D01*
X3534Y2160D01*
X3534Y2156D01*
X3536Y2156D01*
X3536Y2154D01*
X3538Y2154D01*
X3538Y2150D01*
X3540Y2150D01*
X3540Y2144D01*
X3542Y2144D01*
X3542Y2122D01*
X3540Y2122D01*
X3540Y2116D01*
X3538Y2116D01*
X3538Y2112D01*
X3536Y2112D01*
X3536Y2108D01*
X3534Y2108D01*
X3534Y2106D01*
X3532Y2106D01*
X3532Y2104D01*
X3530Y2104D01*
X3530Y2102D01*
X3528Y2102D01*
X3528Y2100D01*
X3526Y2100D01*
X3526Y2098D01*
X3524Y2098D01*
X3524Y2096D01*
X3520Y2096D01*
X3520Y2094D01*
X3516Y2094D01*
X3516Y2092D01*
X3514Y2092D01*
X3514Y2072D01*
X3518Y2072D01*
X3518Y2070D01*
X3522Y2070D01*
X3522Y2068D01*
X3526Y2068D01*
X3526Y2066D01*
X3528Y2066D01*
X3528Y2064D01*
X3530Y2064D01*
X3530Y2062D01*
X3532Y2062D01*
X3532Y2060D01*
X3534Y2060D01*
X3534Y2056D01*
X3536Y2056D01*
X3536Y2054D01*
X3538Y2054D01*
X3538Y2050D01*
X3540Y2050D01*
X3540Y2044D01*
X3542Y2044D01*
X3542Y2022D01*
X3540Y2022D01*
X3540Y2016D01*
X3538Y2016D01*
X3538Y2012D01*
X3536Y2012D01*
X3536Y2008D01*
X3534Y2008D01*
X3534Y2006D01*
X3532Y2006D01*
X3532Y2004D01*
X3530Y2004D01*
X3530Y2002D01*
X3528Y2002D01*
X3528Y2000D01*
X3526Y2000D01*
X3526Y1998D01*
X3524Y1998D01*
X3524Y1996D01*
X3520Y1996D01*
X3520Y1994D01*
X3516Y1994D01*
X3516Y1992D01*
X3514Y1992D01*
X3514Y1972D01*
X3518Y1972D01*
X3518Y1970D01*
X3522Y1970D01*
X3522Y1968D01*
X3526Y1968D01*
X3526Y1966D01*
X3528Y1966D01*
X3528Y1964D01*
X3530Y1964D01*
X3530Y1962D01*
X3532Y1962D01*
X3532Y1960D01*
X3534Y1960D01*
X3534Y1956D01*
X3536Y1956D01*
X3536Y1954D01*
X3538Y1954D01*
X3538Y1950D01*
X3540Y1950D01*
X3540Y1944D01*
X3542Y1944D01*
X3542Y1922D01*
X3540Y1922D01*
X3540Y1916D01*
X3538Y1916D01*
X3538Y1912D01*
X3536Y1912D01*
X3536Y1908D01*
X3534Y1908D01*
X3534Y1906D01*
X3532Y1906D01*
X3532Y1904D01*
X3530Y1904D01*
X3530Y1902D01*
X3528Y1902D01*
X3528Y1900D01*
X3526Y1900D01*
X3526Y1898D01*
X3524Y1898D01*
X3524Y1896D01*
X3520Y1896D01*
X3520Y1894D01*
X3516Y1894D01*
X3516Y1892D01*
X3510Y1892D01*
X3510Y1890D01*
X3926Y1890D01*
X3926Y2202D01*
X40Y2202D01*
G37*
D02*
G36*
X40Y2176D02*
X40Y2088D01*
X490Y2088D01*
X490Y2086D01*
X498Y2086D01*
X498Y2084D01*
X502Y2084D01*
X502Y2082D01*
X506Y2082D01*
X506Y2080D01*
X508Y2080D01*
X508Y2078D01*
X510Y2078D01*
X510Y2076D01*
X512Y2076D01*
X512Y2072D01*
X514Y2072D01*
X514Y2068D01*
X516Y2068D01*
X516Y2030D01*
X1720Y2030D01*
X1720Y2028D01*
X1726Y2028D01*
X1726Y2026D01*
X1732Y2026D01*
X1732Y2024D01*
X1736Y2024D01*
X1736Y2022D01*
X1742Y2022D01*
X1742Y2020D01*
X1748Y2020D01*
X1748Y2018D01*
X1752Y2018D01*
X1752Y2016D01*
X1758Y2016D01*
X1758Y2014D01*
X1764Y2014D01*
X1764Y2012D01*
X1768Y2012D01*
X1768Y2010D01*
X1774Y2010D01*
X1774Y2008D01*
X1780Y2008D01*
X1780Y2006D01*
X1784Y2006D01*
X1784Y2004D01*
X1790Y2004D01*
X1790Y2002D01*
X1794Y2002D01*
X1794Y2000D01*
X1800Y2000D01*
X1800Y1998D01*
X1806Y1998D01*
X1806Y1996D01*
X1810Y1996D01*
X1810Y1994D01*
X1816Y1994D01*
X1816Y1992D01*
X1822Y1992D01*
X1822Y1990D01*
X1826Y1990D01*
X1826Y1988D01*
X1832Y1988D01*
X1832Y1986D01*
X1838Y1986D01*
X1838Y1984D01*
X1842Y1984D01*
X1842Y1982D01*
X1848Y1982D01*
X1848Y1980D01*
X1852Y1980D01*
X1852Y1978D01*
X1858Y1978D01*
X1858Y1976D01*
X1864Y1976D01*
X1864Y1974D01*
X1868Y1974D01*
X1868Y1972D01*
X1874Y1972D01*
X1874Y1970D01*
X1880Y1970D01*
X1880Y1968D01*
X1884Y1968D01*
X1884Y1966D01*
X1890Y1966D01*
X1890Y1964D01*
X1896Y1964D01*
X1896Y1962D01*
X1900Y1962D01*
X1900Y1960D01*
X1906Y1960D01*
X1906Y1958D01*
X1910Y1958D01*
X1910Y1956D01*
X3300Y1956D01*
X3300Y1954D01*
X3464Y1954D01*
X3464Y1958D01*
X3466Y1958D01*
X3466Y1960D01*
X3468Y1960D01*
X3468Y1962D01*
X3470Y1962D01*
X3470Y1964D01*
X3472Y1964D01*
X3472Y1966D01*
X3474Y1966D01*
X3474Y1968D01*
X3478Y1968D01*
X3478Y1970D01*
X3480Y1970D01*
X3480Y1972D01*
X3486Y1972D01*
X3486Y1992D01*
X3482Y1992D01*
X3482Y1994D01*
X3480Y1994D01*
X3480Y1996D01*
X3476Y1996D01*
X3476Y1998D01*
X3474Y1998D01*
X3474Y2000D01*
X3470Y2000D01*
X3470Y2002D01*
X3468Y2002D01*
X3468Y2004D01*
X3466Y2004D01*
X3466Y2008D01*
X3464Y2008D01*
X3464Y2010D01*
X3462Y2010D01*
X3462Y2014D01*
X3460Y2014D01*
X3460Y2020D01*
X3458Y2020D01*
X3458Y2028D01*
X3456Y2028D01*
X3456Y2038D01*
X3458Y2038D01*
X3458Y2046D01*
X3460Y2046D01*
X3460Y2052D01*
X3462Y2052D01*
X3462Y2054D01*
X3464Y2054D01*
X3464Y2058D01*
X3466Y2058D01*
X3466Y2060D01*
X3468Y2060D01*
X3468Y2062D01*
X3470Y2062D01*
X3470Y2064D01*
X3472Y2064D01*
X3472Y2066D01*
X3474Y2066D01*
X3474Y2068D01*
X3478Y2068D01*
X3478Y2070D01*
X3480Y2070D01*
X3480Y2072D01*
X3486Y2072D01*
X3486Y2092D01*
X3482Y2092D01*
X3482Y2094D01*
X3480Y2094D01*
X3480Y2096D01*
X3476Y2096D01*
X3476Y2098D01*
X3474Y2098D01*
X3474Y2100D01*
X3470Y2100D01*
X3470Y2102D01*
X3468Y2102D01*
X3468Y2104D01*
X3466Y2104D01*
X3466Y2108D01*
X3464Y2108D01*
X3464Y2110D01*
X3462Y2110D01*
X3462Y2114D01*
X3460Y2114D01*
X3460Y2120D01*
X3458Y2120D01*
X3458Y2128D01*
X3456Y2128D01*
X3456Y2138D01*
X3458Y2138D01*
X3458Y2146D01*
X3460Y2146D01*
X3460Y2152D01*
X3462Y2152D01*
X3462Y2154D01*
X3464Y2154D01*
X3464Y2158D01*
X3466Y2158D01*
X3466Y2160D01*
X3468Y2160D01*
X3468Y2162D01*
X3470Y2162D01*
X3470Y2164D01*
X3472Y2164D01*
X3472Y2166D01*
X3474Y2166D01*
X3474Y2168D01*
X3478Y2168D01*
X3478Y2170D01*
X3480Y2170D01*
X3480Y2172D01*
X3486Y2172D01*
X3486Y2174D01*
X3494Y2174D01*
X3494Y2176D01*
X40Y2176D01*
G37*
D02*
G36*
X40Y2088D02*
X40Y2038D01*
X390Y2038D01*
X390Y2036D01*
X398Y2036D01*
X398Y2034D01*
X402Y2034D01*
X402Y2032D01*
X406Y2032D01*
X406Y2030D01*
X458Y2030D01*
X458Y2066D01*
X460Y2066D01*
X460Y2072D01*
X462Y2072D01*
X462Y2074D01*
X464Y2074D01*
X464Y2078D01*
X466Y2078D01*
X466Y2080D01*
X470Y2080D01*
X470Y2082D01*
X472Y2082D01*
X472Y2084D01*
X476Y2084D01*
X476Y2086D01*
X484Y2086D01*
X484Y2088D01*
X40Y2088D01*
G37*
D02*
G36*
X40Y2038D02*
X40Y1978D01*
X380Y1978D01*
X380Y1980D01*
X374Y1980D01*
X374Y1982D01*
X370Y1982D01*
X370Y1984D01*
X368Y1984D01*
X368Y1986D01*
X366Y1986D01*
X366Y1988D01*
X364Y1988D01*
X364Y1990D01*
X362Y1990D01*
X362Y1994D01*
X360Y1994D01*
X360Y1998D01*
X358Y1998D01*
X358Y2016D01*
X360Y2016D01*
X360Y2022D01*
X362Y2022D01*
X362Y2024D01*
X364Y2024D01*
X364Y2028D01*
X366Y2028D01*
X366Y2030D01*
X370Y2030D01*
X370Y2032D01*
X372Y2032D01*
X372Y2034D01*
X376Y2034D01*
X376Y2036D01*
X384Y2036D01*
X384Y2038D01*
X40Y2038D01*
G37*
D02*
G36*
X406Y1986D02*
X406Y1984D01*
X404Y1984D01*
X404Y1982D01*
X400Y1982D01*
X400Y1980D01*
X394Y1980D01*
X394Y1978D01*
X534Y1978D01*
X534Y1986D01*
X406Y1986D01*
G37*
D02*
G36*
X590Y1986D02*
X590Y1964D01*
X592Y1964D01*
X592Y1952D01*
X590Y1952D01*
X590Y1946D01*
X588Y1946D01*
X588Y1942D01*
X586Y1942D01*
X586Y1938D01*
X584Y1938D01*
X584Y1936D01*
X582Y1936D01*
X582Y1934D01*
X578Y1934D01*
X578Y1932D01*
X576Y1932D01*
X576Y1930D01*
X570Y1930D01*
X570Y1928D01*
X548Y1928D01*
X548Y1926D01*
X546Y1926D01*
X546Y1924D01*
X542Y1924D01*
X542Y1922D01*
X540Y1922D01*
X540Y1920D01*
X536Y1920D01*
X536Y1918D01*
X534Y1918D01*
X534Y1916D01*
X530Y1916D01*
X530Y1914D01*
X528Y1914D01*
X528Y1912D01*
X524Y1912D01*
X524Y1910D01*
X522Y1910D01*
X522Y1908D01*
X518Y1908D01*
X518Y1906D01*
X516Y1906D01*
X516Y1904D01*
X512Y1904D01*
X512Y1902D01*
X510Y1902D01*
X510Y1900D01*
X506Y1900D01*
X506Y1898D01*
X504Y1898D01*
X504Y1896D01*
X500Y1896D01*
X500Y1894D01*
X498Y1894D01*
X498Y1892D01*
X494Y1892D01*
X494Y1890D01*
X3490Y1890D01*
X3490Y1892D01*
X3482Y1892D01*
X3482Y1894D01*
X3480Y1894D01*
X3480Y1896D01*
X3476Y1896D01*
X3476Y1898D01*
X3474Y1898D01*
X3474Y1900D01*
X3470Y1900D01*
X3470Y1902D01*
X3468Y1902D01*
X3468Y1904D01*
X3466Y1904D01*
X3466Y1908D01*
X3464Y1908D01*
X3464Y1910D01*
X3294Y1910D01*
X3294Y1912D01*
X1902Y1912D01*
X1902Y1914D01*
X1898Y1914D01*
X1898Y1916D01*
X1892Y1916D01*
X1892Y1918D01*
X1886Y1918D01*
X1886Y1920D01*
X1882Y1920D01*
X1882Y1922D01*
X1876Y1922D01*
X1876Y1924D01*
X1872Y1924D01*
X1872Y1926D01*
X1866Y1926D01*
X1866Y1928D01*
X1860Y1928D01*
X1860Y1930D01*
X1856Y1930D01*
X1856Y1932D01*
X1850Y1932D01*
X1850Y1934D01*
X1844Y1934D01*
X1844Y1936D01*
X1840Y1936D01*
X1840Y1938D01*
X1834Y1938D01*
X1834Y1940D01*
X1828Y1940D01*
X1828Y1942D01*
X1824Y1942D01*
X1824Y1944D01*
X1818Y1944D01*
X1818Y1946D01*
X1814Y1946D01*
X1814Y1948D01*
X1808Y1948D01*
X1808Y1950D01*
X1802Y1950D01*
X1802Y1952D01*
X1798Y1952D01*
X1798Y1954D01*
X1792Y1954D01*
X1792Y1956D01*
X1786Y1956D01*
X1786Y1958D01*
X1782Y1958D01*
X1782Y1960D01*
X1776Y1960D01*
X1776Y1962D01*
X1770Y1962D01*
X1770Y1964D01*
X1766Y1964D01*
X1766Y1966D01*
X1760Y1966D01*
X1760Y1968D01*
X1756Y1968D01*
X1756Y1970D01*
X1750Y1970D01*
X1750Y1972D01*
X1744Y1972D01*
X1744Y1974D01*
X1740Y1974D01*
X1740Y1976D01*
X1734Y1976D01*
X1734Y1978D01*
X1728Y1978D01*
X1728Y1980D01*
X1724Y1980D01*
X1724Y1982D01*
X1718Y1982D01*
X1718Y1984D01*
X1712Y1984D01*
X1712Y1986D01*
X590Y1986D01*
G37*
D02*
G36*
X40Y1978D02*
X40Y1976D01*
X534Y1976D01*
X534Y1978D01*
X40Y1978D01*
G37*
D02*
G36*
X40Y1978D02*
X40Y1976D01*
X534Y1976D01*
X534Y1978D01*
X40Y1978D01*
G37*
D02*
G36*
X40Y1976D02*
X40Y1236D01*
X204Y1236D01*
X204Y1234D01*
X212Y1234D01*
X212Y1232D01*
X216Y1232D01*
X216Y1230D01*
X222Y1230D01*
X222Y1228D01*
X226Y1228D01*
X226Y1226D01*
X228Y1226D01*
X228Y1224D01*
X232Y1224D01*
X232Y1222D01*
X234Y1222D01*
X234Y1220D01*
X238Y1220D01*
X238Y1218D01*
X240Y1218D01*
X240Y1216D01*
X242Y1216D01*
X242Y1214D01*
X244Y1214D01*
X244Y1212D01*
X246Y1212D01*
X246Y1210D01*
X248Y1210D01*
X248Y1206D01*
X250Y1206D01*
X250Y1204D01*
X252Y1204D01*
X252Y1202D01*
X254Y1202D01*
X254Y1198D01*
X256Y1198D01*
X256Y1194D01*
X258Y1194D01*
X258Y1190D01*
X260Y1190D01*
X260Y1186D01*
X262Y1186D01*
X262Y1180D01*
X264Y1180D01*
X264Y1172D01*
X266Y1172D01*
X266Y1144D01*
X264Y1144D01*
X264Y1134D01*
X262Y1134D01*
X262Y1130D01*
X260Y1130D01*
X260Y1124D01*
X258Y1124D01*
X258Y1120D01*
X256Y1120D01*
X256Y1116D01*
X254Y1116D01*
X254Y1114D01*
X252Y1114D01*
X252Y1110D01*
X250Y1110D01*
X250Y1108D01*
X248Y1108D01*
X248Y1106D01*
X246Y1106D01*
X246Y1104D01*
X244Y1104D01*
X244Y1102D01*
X242Y1102D01*
X242Y1100D01*
X240Y1100D01*
X240Y1098D01*
X238Y1098D01*
X238Y1096D01*
X236Y1096D01*
X236Y1094D01*
X232Y1094D01*
X232Y1092D01*
X230Y1092D01*
X230Y1090D01*
X226Y1090D01*
X226Y1088D01*
X222Y1088D01*
X222Y1086D01*
X218Y1086D01*
X218Y1084D01*
X214Y1084D01*
X214Y1082D01*
X206Y1082D01*
X206Y1080D01*
X196Y1080D01*
X196Y1078D01*
X394Y1078D01*
X394Y1862D01*
X396Y1862D01*
X396Y1866D01*
X398Y1866D01*
X398Y1870D01*
X400Y1870D01*
X400Y1872D01*
X404Y1872D01*
X404Y1874D01*
X406Y1874D01*
X406Y1876D01*
X410Y1876D01*
X410Y1878D01*
X412Y1878D01*
X412Y1880D01*
X416Y1880D01*
X416Y1882D01*
X418Y1882D01*
X418Y1884D01*
X422Y1884D01*
X422Y1886D01*
X424Y1886D01*
X424Y1888D01*
X426Y1888D01*
X426Y1890D01*
X430Y1890D01*
X430Y1892D01*
X432Y1892D01*
X432Y1894D01*
X436Y1894D01*
X436Y1896D01*
X438Y1896D01*
X438Y1898D01*
X442Y1898D01*
X442Y1900D01*
X444Y1900D01*
X444Y1902D01*
X448Y1902D01*
X448Y1904D01*
X450Y1904D01*
X450Y1906D01*
X454Y1906D01*
X454Y1908D01*
X456Y1908D01*
X456Y1910D01*
X460Y1910D01*
X460Y1912D01*
X462Y1912D01*
X462Y1914D01*
X466Y1914D01*
X466Y1916D01*
X468Y1916D01*
X468Y1918D01*
X472Y1918D01*
X472Y1920D01*
X474Y1920D01*
X474Y1922D01*
X478Y1922D01*
X478Y1924D01*
X480Y1924D01*
X480Y1926D01*
X484Y1926D01*
X484Y1928D01*
X486Y1928D01*
X486Y1930D01*
X490Y1930D01*
X490Y1932D01*
X492Y1932D01*
X492Y1934D01*
X496Y1934D01*
X496Y1936D01*
X498Y1936D01*
X498Y1938D01*
X502Y1938D01*
X502Y1940D01*
X504Y1940D01*
X504Y1942D01*
X508Y1942D01*
X508Y1944D01*
X510Y1944D01*
X510Y1946D01*
X514Y1946D01*
X514Y1948D01*
X516Y1948D01*
X516Y1950D01*
X520Y1950D01*
X520Y1952D01*
X522Y1952D01*
X522Y1954D01*
X526Y1954D01*
X526Y1956D01*
X528Y1956D01*
X528Y1958D01*
X532Y1958D01*
X532Y1962D01*
X534Y1962D01*
X534Y1976D01*
X40Y1976D01*
G37*
D02*
G36*
X492Y1890D02*
X492Y1888D01*
X3926Y1888D01*
X3926Y1890D01*
X492Y1890D01*
G37*
D02*
G36*
X492Y1890D02*
X492Y1888D01*
X3926Y1888D01*
X3926Y1890D01*
X492Y1890D01*
G37*
D02*
G36*
X488Y1888D02*
X488Y1886D01*
X486Y1886D01*
X486Y1884D01*
X482Y1884D01*
X482Y1882D01*
X480Y1882D01*
X480Y1880D01*
X476Y1880D01*
X476Y1878D01*
X474Y1878D01*
X474Y1876D01*
X470Y1876D01*
X470Y1874D01*
X468Y1874D01*
X468Y1872D01*
X464Y1872D01*
X464Y1870D01*
X462Y1870D01*
X462Y1868D01*
X458Y1868D01*
X458Y1866D01*
X456Y1866D01*
X456Y1864D01*
X452Y1864D01*
X452Y1862D01*
X450Y1862D01*
X450Y1860D01*
X446Y1860D01*
X446Y1858D01*
X444Y1858D01*
X444Y1856D01*
X440Y1856D01*
X440Y1854D01*
X438Y1854D01*
X438Y1852D01*
X434Y1852D01*
X434Y1850D01*
X432Y1850D01*
X432Y1848D01*
X430Y1848D01*
X430Y1812D01*
X1896Y1812D01*
X1896Y1810D01*
X1900Y1810D01*
X1900Y1808D01*
X1904Y1808D01*
X1904Y1806D01*
X1906Y1806D01*
X1906Y1804D01*
X1908Y1804D01*
X1908Y1802D01*
X1910Y1802D01*
X1910Y1800D01*
X1912Y1800D01*
X1912Y1796D01*
X1914Y1796D01*
X1914Y1792D01*
X1916Y1792D01*
X1916Y1776D01*
X3506Y1776D01*
X3506Y1774D01*
X3514Y1774D01*
X3514Y1772D01*
X3518Y1772D01*
X3518Y1770D01*
X3522Y1770D01*
X3522Y1768D01*
X3526Y1768D01*
X3526Y1766D01*
X3528Y1766D01*
X3528Y1764D01*
X3530Y1764D01*
X3530Y1762D01*
X3532Y1762D01*
X3532Y1760D01*
X3534Y1760D01*
X3534Y1756D01*
X3536Y1756D01*
X3536Y1754D01*
X3538Y1754D01*
X3538Y1750D01*
X3540Y1750D01*
X3540Y1744D01*
X3542Y1744D01*
X3542Y1722D01*
X3540Y1722D01*
X3540Y1716D01*
X3538Y1716D01*
X3538Y1712D01*
X3536Y1712D01*
X3536Y1708D01*
X3534Y1708D01*
X3534Y1706D01*
X3532Y1706D01*
X3532Y1704D01*
X3530Y1704D01*
X3530Y1702D01*
X3528Y1702D01*
X3528Y1700D01*
X3526Y1700D01*
X3526Y1698D01*
X3524Y1698D01*
X3524Y1696D01*
X3520Y1696D01*
X3520Y1694D01*
X3516Y1694D01*
X3516Y1692D01*
X3510Y1692D01*
X3510Y1690D01*
X3926Y1690D01*
X3926Y1888D01*
X488Y1888D01*
G37*
D02*
G36*
X430Y1812D02*
X430Y1752D01*
X1886Y1752D01*
X1886Y1754D01*
X1876Y1754D01*
X1876Y1756D01*
X1872Y1756D01*
X1872Y1758D01*
X1870Y1758D01*
X1870Y1760D01*
X1866Y1760D01*
X1866Y1764D01*
X1864Y1764D01*
X1864Y1766D01*
X1862Y1766D01*
X1862Y1768D01*
X1860Y1768D01*
X1860Y1774D01*
X1858Y1774D01*
X1858Y1792D01*
X1860Y1792D01*
X1860Y1796D01*
X1862Y1796D01*
X1862Y1800D01*
X1864Y1800D01*
X1864Y1802D01*
X1866Y1802D01*
X1866Y1804D01*
X1868Y1804D01*
X1868Y1806D01*
X1870Y1806D01*
X1870Y1808D01*
X1874Y1808D01*
X1874Y1810D01*
X1880Y1810D01*
X1880Y1812D01*
X430Y1812D01*
G37*
D02*
G36*
X1916Y1776D02*
X1916Y1772D01*
X1914Y1772D01*
X1914Y1768D01*
X1912Y1768D01*
X1912Y1766D01*
X1910Y1766D01*
X1910Y1762D01*
X1908Y1762D01*
X1908Y1760D01*
X1904Y1760D01*
X1904Y1758D01*
X1902Y1758D01*
X1902Y1756D01*
X1898Y1756D01*
X1898Y1754D01*
X1888Y1754D01*
X1888Y1752D01*
X2462Y1752D01*
X2462Y1754D01*
X2464Y1754D01*
X2464Y1758D01*
X2466Y1758D01*
X2466Y1760D01*
X2468Y1760D01*
X2468Y1762D01*
X2470Y1762D01*
X2470Y1764D01*
X2472Y1764D01*
X2472Y1766D01*
X2474Y1766D01*
X2474Y1768D01*
X2478Y1768D01*
X2478Y1770D01*
X2480Y1770D01*
X2480Y1772D01*
X2486Y1772D01*
X2486Y1774D01*
X2494Y1774D01*
X2494Y1776D01*
X1916Y1776D01*
G37*
D02*
G36*
X2506Y1776D02*
X2506Y1774D01*
X2514Y1774D01*
X2514Y1772D01*
X2518Y1772D01*
X2518Y1770D01*
X2522Y1770D01*
X2522Y1768D01*
X2526Y1768D01*
X2526Y1766D01*
X2528Y1766D01*
X2528Y1764D01*
X2530Y1764D01*
X2530Y1762D01*
X2532Y1762D01*
X2532Y1760D01*
X2534Y1760D01*
X2534Y1756D01*
X2536Y1756D01*
X2536Y1754D01*
X2538Y1754D01*
X2538Y1750D01*
X2540Y1750D01*
X2540Y1746D01*
X2560Y1746D01*
X2560Y1752D01*
X2562Y1752D01*
X2562Y1754D01*
X2564Y1754D01*
X2564Y1758D01*
X2566Y1758D01*
X2566Y1760D01*
X2568Y1760D01*
X2568Y1762D01*
X2570Y1762D01*
X2570Y1764D01*
X2572Y1764D01*
X2572Y1766D01*
X2574Y1766D01*
X2574Y1768D01*
X2578Y1768D01*
X2578Y1770D01*
X2580Y1770D01*
X2580Y1772D01*
X2586Y1772D01*
X2586Y1774D01*
X2594Y1774D01*
X2594Y1776D01*
X2506Y1776D01*
G37*
D02*
G36*
X2606Y1776D02*
X2606Y1774D01*
X2614Y1774D01*
X2614Y1772D01*
X2618Y1772D01*
X2618Y1770D01*
X2622Y1770D01*
X2622Y1768D01*
X2626Y1768D01*
X2626Y1766D01*
X2628Y1766D01*
X2628Y1764D01*
X2630Y1764D01*
X2630Y1762D01*
X2632Y1762D01*
X2632Y1760D01*
X2634Y1760D01*
X2634Y1756D01*
X2636Y1756D01*
X2636Y1754D01*
X2638Y1754D01*
X2638Y1750D01*
X2640Y1750D01*
X2640Y1746D01*
X2660Y1746D01*
X2660Y1752D01*
X2662Y1752D01*
X2662Y1754D01*
X2664Y1754D01*
X2664Y1758D01*
X2666Y1758D01*
X2666Y1760D01*
X2668Y1760D01*
X2668Y1762D01*
X2670Y1762D01*
X2670Y1764D01*
X2672Y1764D01*
X2672Y1766D01*
X2674Y1766D01*
X2674Y1768D01*
X2678Y1768D01*
X2678Y1770D01*
X2680Y1770D01*
X2680Y1772D01*
X2686Y1772D01*
X2686Y1774D01*
X2694Y1774D01*
X2694Y1776D01*
X2606Y1776D01*
G37*
D02*
G36*
X2706Y1776D02*
X2706Y1774D01*
X2714Y1774D01*
X2714Y1772D01*
X2718Y1772D01*
X2718Y1770D01*
X2722Y1770D01*
X2722Y1768D01*
X2726Y1768D01*
X2726Y1766D01*
X2728Y1766D01*
X2728Y1764D01*
X2730Y1764D01*
X2730Y1762D01*
X2732Y1762D01*
X2732Y1760D01*
X2734Y1760D01*
X2734Y1756D01*
X2736Y1756D01*
X2736Y1754D01*
X2738Y1754D01*
X2738Y1750D01*
X2740Y1750D01*
X2740Y1746D01*
X2760Y1746D01*
X2760Y1752D01*
X2762Y1752D01*
X2762Y1754D01*
X2764Y1754D01*
X2764Y1758D01*
X2766Y1758D01*
X2766Y1760D01*
X2768Y1760D01*
X2768Y1762D01*
X2770Y1762D01*
X2770Y1764D01*
X2772Y1764D01*
X2772Y1766D01*
X2774Y1766D01*
X2774Y1768D01*
X2778Y1768D01*
X2778Y1770D01*
X2780Y1770D01*
X2780Y1772D01*
X2786Y1772D01*
X2786Y1774D01*
X2794Y1774D01*
X2794Y1776D01*
X2706Y1776D01*
G37*
D02*
G36*
X2806Y1776D02*
X2806Y1774D01*
X2814Y1774D01*
X2814Y1772D01*
X2818Y1772D01*
X2818Y1770D01*
X2822Y1770D01*
X2822Y1768D01*
X2826Y1768D01*
X2826Y1766D01*
X2828Y1766D01*
X2828Y1764D01*
X2830Y1764D01*
X2830Y1762D01*
X2832Y1762D01*
X2832Y1760D01*
X2834Y1760D01*
X2834Y1756D01*
X2836Y1756D01*
X2836Y1754D01*
X2838Y1754D01*
X2838Y1750D01*
X2840Y1750D01*
X2840Y1746D01*
X2860Y1746D01*
X2860Y1752D01*
X2862Y1752D01*
X2862Y1754D01*
X2864Y1754D01*
X2864Y1758D01*
X2866Y1758D01*
X2866Y1760D01*
X2868Y1760D01*
X2868Y1762D01*
X2870Y1762D01*
X2870Y1764D01*
X2872Y1764D01*
X2872Y1766D01*
X2874Y1766D01*
X2874Y1768D01*
X2878Y1768D01*
X2878Y1770D01*
X2880Y1770D01*
X2880Y1772D01*
X2886Y1772D01*
X2886Y1774D01*
X2894Y1774D01*
X2894Y1776D01*
X2806Y1776D01*
G37*
D02*
G36*
X2906Y1776D02*
X2906Y1774D01*
X2914Y1774D01*
X2914Y1772D01*
X2918Y1772D01*
X2918Y1770D01*
X2922Y1770D01*
X2922Y1768D01*
X2926Y1768D01*
X2926Y1766D01*
X2928Y1766D01*
X2928Y1764D01*
X2930Y1764D01*
X2930Y1762D01*
X2932Y1762D01*
X2932Y1760D01*
X2934Y1760D01*
X2934Y1756D01*
X2936Y1756D01*
X2936Y1754D01*
X2938Y1754D01*
X2938Y1750D01*
X2940Y1750D01*
X2940Y1746D01*
X2960Y1746D01*
X2960Y1752D01*
X2962Y1752D01*
X2962Y1754D01*
X2964Y1754D01*
X2964Y1758D01*
X2966Y1758D01*
X2966Y1760D01*
X2968Y1760D01*
X2968Y1762D01*
X2970Y1762D01*
X2970Y1764D01*
X2972Y1764D01*
X2972Y1766D01*
X2974Y1766D01*
X2974Y1768D01*
X2978Y1768D01*
X2978Y1770D01*
X2980Y1770D01*
X2980Y1772D01*
X2986Y1772D01*
X2986Y1774D01*
X2994Y1774D01*
X2994Y1776D01*
X2906Y1776D01*
G37*
D02*
G36*
X3006Y1776D02*
X3006Y1774D01*
X3014Y1774D01*
X3014Y1772D01*
X3018Y1772D01*
X3018Y1770D01*
X3022Y1770D01*
X3022Y1768D01*
X3026Y1768D01*
X3026Y1766D01*
X3028Y1766D01*
X3028Y1764D01*
X3030Y1764D01*
X3030Y1762D01*
X3032Y1762D01*
X3032Y1760D01*
X3034Y1760D01*
X3034Y1756D01*
X3036Y1756D01*
X3036Y1754D01*
X3038Y1754D01*
X3038Y1750D01*
X3040Y1750D01*
X3040Y1746D01*
X3060Y1746D01*
X3060Y1752D01*
X3062Y1752D01*
X3062Y1754D01*
X3064Y1754D01*
X3064Y1758D01*
X3066Y1758D01*
X3066Y1760D01*
X3068Y1760D01*
X3068Y1762D01*
X3070Y1762D01*
X3070Y1764D01*
X3072Y1764D01*
X3072Y1766D01*
X3074Y1766D01*
X3074Y1768D01*
X3078Y1768D01*
X3078Y1770D01*
X3080Y1770D01*
X3080Y1772D01*
X3086Y1772D01*
X3086Y1774D01*
X3094Y1774D01*
X3094Y1776D01*
X3006Y1776D01*
G37*
D02*
G36*
X3106Y1776D02*
X3106Y1774D01*
X3114Y1774D01*
X3114Y1772D01*
X3118Y1772D01*
X3118Y1770D01*
X3122Y1770D01*
X3122Y1768D01*
X3126Y1768D01*
X3126Y1766D01*
X3128Y1766D01*
X3128Y1764D01*
X3130Y1764D01*
X3130Y1762D01*
X3132Y1762D01*
X3132Y1760D01*
X3134Y1760D01*
X3134Y1756D01*
X3136Y1756D01*
X3136Y1754D01*
X3138Y1754D01*
X3138Y1750D01*
X3140Y1750D01*
X3140Y1746D01*
X3160Y1746D01*
X3160Y1752D01*
X3162Y1752D01*
X3162Y1754D01*
X3164Y1754D01*
X3164Y1758D01*
X3166Y1758D01*
X3166Y1760D01*
X3168Y1760D01*
X3168Y1762D01*
X3170Y1762D01*
X3170Y1764D01*
X3172Y1764D01*
X3172Y1766D01*
X3174Y1766D01*
X3174Y1768D01*
X3178Y1768D01*
X3178Y1770D01*
X3180Y1770D01*
X3180Y1772D01*
X3186Y1772D01*
X3186Y1774D01*
X3194Y1774D01*
X3194Y1776D01*
X3106Y1776D01*
G37*
D02*
G36*
X3206Y1776D02*
X3206Y1774D01*
X3214Y1774D01*
X3214Y1772D01*
X3218Y1772D01*
X3218Y1770D01*
X3222Y1770D01*
X3222Y1768D01*
X3226Y1768D01*
X3226Y1766D01*
X3228Y1766D01*
X3228Y1764D01*
X3230Y1764D01*
X3230Y1762D01*
X3232Y1762D01*
X3232Y1760D01*
X3234Y1760D01*
X3234Y1756D01*
X3236Y1756D01*
X3236Y1754D01*
X3238Y1754D01*
X3238Y1750D01*
X3240Y1750D01*
X3240Y1746D01*
X3260Y1746D01*
X3260Y1752D01*
X3262Y1752D01*
X3262Y1754D01*
X3264Y1754D01*
X3264Y1758D01*
X3266Y1758D01*
X3266Y1760D01*
X3268Y1760D01*
X3268Y1762D01*
X3270Y1762D01*
X3270Y1764D01*
X3272Y1764D01*
X3272Y1766D01*
X3274Y1766D01*
X3274Y1768D01*
X3278Y1768D01*
X3278Y1770D01*
X3280Y1770D01*
X3280Y1772D01*
X3286Y1772D01*
X3286Y1774D01*
X3294Y1774D01*
X3294Y1776D01*
X3206Y1776D01*
G37*
D02*
G36*
X3306Y1776D02*
X3306Y1774D01*
X3314Y1774D01*
X3314Y1772D01*
X3318Y1772D01*
X3318Y1770D01*
X3322Y1770D01*
X3322Y1768D01*
X3326Y1768D01*
X3326Y1766D01*
X3328Y1766D01*
X3328Y1764D01*
X3330Y1764D01*
X3330Y1762D01*
X3332Y1762D01*
X3332Y1760D01*
X3334Y1760D01*
X3334Y1756D01*
X3336Y1756D01*
X3336Y1754D01*
X3338Y1754D01*
X3338Y1750D01*
X3340Y1750D01*
X3340Y1746D01*
X3360Y1746D01*
X3360Y1752D01*
X3362Y1752D01*
X3362Y1754D01*
X3364Y1754D01*
X3364Y1758D01*
X3366Y1758D01*
X3366Y1760D01*
X3368Y1760D01*
X3368Y1762D01*
X3370Y1762D01*
X3370Y1764D01*
X3372Y1764D01*
X3372Y1766D01*
X3374Y1766D01*
X3374Y1768D01*
X3378Y1768D01*
X3378Y1770D01*
X3380Y1770D01*
X3380Y1772D01*
X3386Y1772D01*
X3386Y1774D01*
X3394Y1774D01*
X3394Y1776D01*
X3306Y1776D01*
G37*
D02*
G36*
X3406Y1776D02*
X3406Y1774D01*
X3414Y1774D01*
X3414Y1772D01*
X3418Y1772D01*
X3418Y1770D01*
X3422Y1770D01*
X3422Y1768D01*
X3426Y1768D01*
X3426Y1766D01*
X3428Y1766D01*
X3428Y1764D01*
X3430Y1764D01*
X3430Y1762D01*
X3432Y1762D01*
X3432Y1760D01*
X3434Y1760D01*
X3434Y1756D01*
X3436Y1756D01*
X3436Y1754D01*
X3438Y1754D01*
X3438Y1750D01*
X3440Y1750D01*
X3440Y1746D01*
X3460Y1746D01*
X3460Y1752D01*
X3462Y1752D01*
X3462Y1754D01*
X3464Y1754D01*
X3464Y1758D01*
X3466Y1758D01*
X3466Y1760D01*
X3468Y1760D01*
X3468Y1762D01*
X3470Y1762D01*
X3470Y1764D01*
X3472Y1764D01*
X3472Y1766D01*
X3474Y1766D01*
X3474Y1768D01*
X3478Y1768D01*
X3478Y1770D01*
X3480Y1770D01*
X3480Y1772D01*
X3486Y1772D01*
X3486Y1774D01*
X3494Y1774D01*
X3494Y1776D01*
X3406Y1776D01*
G37*
D02*
G36*
X430Y1752D02*
X430Y1750D01*
X2460Y1750D01*
X2460Y1752D01*
X430Y1752D01*
G37*
D02*
G36*
X430Y1752D02*
X430Y1750D01*
X2460Y1750D01*
X2460Y1752D01*
X430Y1752D01*
G37*
D02*
G36*
X430Y1750D02*
X430Y1690D01*
X2490Y1690D01*
X2490Y1692D01*
X2482Y1692D01*
X2482Y1694D01*
X2480Y1694D01*
X2480Y1696D01*
X2476Y1696D01*
X2476Y1698D01*
X2474Y1698D01*
X2474Y1700D01*
X2470Y1700D01*
X2470Y1702D01*
X2468Y1702D01*
X2468Y1704D01*
X2466Y1704D01*
X2466Y1708D01*
X2464Y1708D01*
X2464Y1710D01*
X2462Y1710D01*
X2462Y1714D01*
X2460Y1714D01*
X2460Y1720D01*
X2458Y1720D01*
X2458Y1728D01*
X2456Y1728D01*
X2456Y1738D01*
X2458Y1738D01*
X2458Y1746D01*
X2460Y1746D01*
X2460Y1750D01*
X430Y1750D01*
G37*
D02*
G36*
X2540Y1720D02*
X2540Y1716D01*
X2538Y1716D01*
X2538Y1712D01*
X2536Y1712D01*
X2536Y1708D01*
X2534Y1708D01*
X2534Y1706D01*
X2532Y1706D01*
X2532Y1704D01*
X2530Y1704D01*
X2530Y1702D01*
X2528Y1702D01*
X2528Y1700D01*
X2526Y1700D01*
X2526Y1698D01*
X2524Y1698D01*
X2524Y1696D01*
X2520Y1696D01*
X2520Y1694D01*
X2516Y1694D01*
X2516Y1692D01*
X2510Y1692D01*
X2510Y1690D01*
X2590Y1690D01*
X2590Y1692D01*
X2582Y1692D01*
X2582Y1694D01*
X2580Y1694D01*
X2580Y1696D01*
X2576Y1696D01*
X2576Y1698D01*
X2574Y1698D01*
X2574Y1700D01*
X2570Y1700D01*
X2570Y1702D01*
X2568Y1702D01*
X2568Y1704D01*
X2566Y1704D01*
X2566Y1708D01*
X2564Y1708D01*
X2564Y1710D01*
X2562Y1710D01*
X2562Y1714D01*
X2560Y1714D01*
X2560Y1720D01*
X2540Y1720D01*
G37*
D02*
G36*
X2640Y1720D02*
X2640Y1716D01*
X2638Y1716D01*
X2638Y1712D01*
X2636Y1712D01*
X2636Y1708D01*
X2634Y1708D01*
X2634Y1706D01*
X2632Y1706D01*
X2632Y1704D01*
X2630Y1704D01*
X2630Y1702D01*
X2628Y1702D01*
X2628Y1700D01*
X2626Y1700D01*
X2626Y1698D01*
X2624Y1698D01*
X2624Y1696D01*
X2620Y1696D01*
X2620Y1694D01*
X2616Y1694D01*
X2616Y1692D01*
X2610Y1692D01*
X2610Y1690D01*
X2690Y1690D01*
X2690Y1692D01*
X2682Y1692D01*
X2682Y1694D01*
X2680Y1694D01*
X2680Y1696D01*
X2676Y1696D01*
X2676Y1698D01*
X2674Y1698D01*
X2674Y1700D01*
X2670Y1700D01*
X2670Y1702D01*
X2668Y1702D01*
X2668Y1704D01*
X2666Y1704D01*
X2666Y1708D01*
X2664Y1708D01*
X2664Y1710D01*
X2662Y1710D01*
X2662Y1714D01*
X2660Y1714D01*
X2660Y1720D01*
X2640Y1720D01*
G37*
D02*
G36*
X2740Y1720D02*
X2740Y1716D01*
X2738Y1716D01*
X2738Y1712D01*
X2736Y1712D01*
X2736Y1708D01*
X2734Y1708D01*
X2734Y1706D01*
X2732Y1706D01*
X2732Y1704D01*
X2730Y1704D01*
X2730Y1702D01*
X2728Y1702D01*
X2728Y1700D01*
X2726Y1700D01*
X2726Y1698D01*
X2724Y1698D01*
X2724Y1696D01*
X2720Y1696D01*
X2720Y1694D01*
X2716Y1694D01*
X2716Y1692D01*
X2710Y1692D01*
X2710Y1690D01*
X2790Y1690D01*
X2790Y1692D01*
X2782Y1692D01*
X2782Y1694D01*
X2780Y1694D01*
X2780Y1696D01*
X2776Y1696D01*
X2776Y1698D01*
X2774Y1698D01*
X2774Y1700D01*
X2770Y1700D01*
X2770Y1702D01*
X2768Y1702D01*
X2768Y1704D01*
X2766Y1704D01*
X2766Y1708D01*
X2764Y1708D01*
X2764Y1710D01*
X2762Y1710D01*
X2762Y1714D01*
X2760Y1714D01*
X2760Y1720D01*
X2740Y1720D01*
G37*
D02*
G36*
X2840Y1720D02*
X2840Y1716D01*
X2838Y1716D01*
X2838Y1712D01*
X2836Y1712D01*
X2836Y1708D01*
X2834Y1708D01*
X2834Y1706D01*
X2832Y1706D01*
X2832Y1704D01*
X2830Y1704D01*
X2830Y1702D01*
X2828Y1702D01*
X2828Y1700D01*
X2826Y1700D01*
X2826Y1698D01*
X2824Y1698D01*
X2824Y1696D01*
X2820Y1696D01*
X2820Y1694D01*
X2816Y1694D01*
X2816Y1692D01*
X2810Y1692D01*
X2810Y1690D01*
X2890Y1690D01*
X2890Y1692D01*
X2882Y1692D01*
X2882Y1694D01*
X2880Y1694D01*
X2880Y1696D01*
X2876Y1696D01*
X2876Y1698D01*
X2874Y1698D01*
X2874Y1700D01*
X2870Y1700D01*
X2870Y1702D01*
X2868Y1702D01*
X2868Y1704D01*
X2866Y1704D01*
X2866Y1708D01*
X2864Y1708D01*
X2864Y1710D01*
X2862Y1710D01*
X2862Y1714D01*
X2860Y1714D01*
X2860Y1720D01*
X2840Y1720D01*
G37*
D02*
G36*
X2940Y1720D02*
X2940Y1716D01*
X2938Y1716D01*
X2938Y1712D01*
X2936Y1712D01*
X2936Y1708D01*
X2934Y1708D01*
X2934Y1706D01*
X2932Y1706D01*
X2932Y1704D01*
X2930Y1704D01*
X2930Y1702D01*
X2928Y1702D01*
X2928Y1700D01*
X2926Y1700D01*
X2926Y1698D01*
X2924Y1698D01*
X2924Y1696D01*
X2920Y1696D01*
X2920Y1694D01*
X2916Y1694D01*
X2916Y1692D01*
X2910Y1692D01*
X2910Y1690D01*
X2990Y1690D01*
X2990Y1692D01*
X2982Y1692D01*
X2982Y1694D01*
X2980Y1694D01*
X2980Y1696D01*
X2976Y1696D01*
X2976Y1698D01*
X2974Y1698D01*
X2974Y1700D01*
X2970Y1700D01*
X2970Y1702D01*
X2968Y1702D01*
X2968Y1704D01*
X2966Y1704D01*
X2966Y1708D01*
X2964Y1708D01*
X2964Y1710D01*
X2962Y1710D01*
X2962Y1714D01*
X2960Y1714D01*
X2960Y1720D01*
X2940Y1720D01*
G37*
D02*
G36*
X3140Y1720D02*
X3140Y1716D01*
X3138Y1716D01*
X3138Y1712D01*
X3136Y1712D01*
X3136Y1708D01*
X3134Y1708D01*
X3134Y1706D01*
X3132Y1706D01*
X3132Y1704D01*
X3130Y1704D01*
X3130Y1702D01*
X3128Y1702D01*
X3128Y1700D01*
X3126Y1700D01*
X3126Y1698D01*
X3124Y1698D01*
X3124Y1696D01*
X3120Y1696D01*
X3120Y1694D01*
X3116Y1694D01*
X3116Y1692D01*
X3110Y1692D01*
X3110Y1690D01*
X3190Y1690D01*
X3190Y1692D01*
X3182Y1692D01*
X3182Y1694D01*
X3180Y1694D01*
X3180Y1696D01*
X3176Y1696D01*
X3176Y1698D01*
X3174Y1698D01*
X3174Y1700D01*
X3170Y1700D01*
X3170Y1702D01*
X3168Y1702D01*
X3168Y1704D01*
X3166Y1704D01*
X3166Y1708D01*
X3164Y1708D01*
X3164Y1710D01*
X3162Y1710D01*
X3162Y1714D01*
X3160Y1714D01*
X3160Y1720D01*
X3140Y1720D01*
G37*
D02*
G36*
X3240Y1720D02*
X3240Y1716D01*
X3238Y1716D01*
X3238Y1712D01*
X3236Y1712D01*
X3236Y1708D01*
X3234Y1708D01*
X3234Y1706D01*
X3232Y1706D01*
X3232Y1704D01*
X3230Y1704D01*
X3230Y1702D01*
X3228Y1702D01*
X3228Y1700D01*
X3226Y1700D01*
X3226Y1698D01*
X3224Y1698D01*
X3224Y1696D01*
X3220Y1696D01*
X3220Y1694D01*
X3216Y1694D01*
X3216Y1692D01*
X3210Y1692D01*
X3210Y1690D01*
X3290Y1690D01*
X3290Y1692D01*
X3282Y1692D01*
X3282Y1694D01*
X3280Y1694D01*
X3280Y1696D01*
X3276Y1696D01*
X3276Y1698D01*
X3274Y1698D01*
X3274Y1700D01*
X3270Y1700D01*
X3270Y1702D01*
X3268Y1702D01*
X3268Y1704D01*
X3266Y1704D01*
X3266Y1708D01*
X3264Y1708D01*
X3264Y1710D01*
X3262Y1710D01*
X3262Y1714D01*
X3260Y1714D01*
X3260Y1720D01*
X3240Y1720D01*
G37*
D02*
G36*
X3340Y1720D02*
X3340Y1716D01*
X3338Y1716D01*
X3338Y1712D01*
X3336Y1712D01*
X3336Y1708D01*
X3334Y1708D01*
X3334Y1706D01*
X3332Y1706D01*
X3332Y1704D01*
X3330Y1704D01*
X3330Y1702D01*
X3328Y1702D01*
X3328Y1700D01*
X3326Y1700D01*
X3326Y1698D01*
X3324Y1698D01*
X3324Y1696D01*
X3320Y1696D01*
X3320Y1694D01*
X3316Y1694D01*
X3316Y1692D01*
X3310Y1692D01*
X3310Y1690D01*
X3390Y1690D01*
X3390Y1692D01*
X3382Y1692D01*
X3382Y1694D01*
X3380Y1694D01*
X3380Y1696D01*
X3376Y1696D01*
X3376Y1698D01*
X3374Y1698D01*
X3374Y1700D01*
X3370Y1700D01*
X3370Y1702D01*
X3368Y1702D01*
X3368Y1704D01*
X3366Y1704D01*
X3366Y1708D01*
X3364Y1708D01*
X3364Y1710D01*
X3362Y1710D01*
X3362Y1714D01*
X3360Y1714D01*
X3360Y1720D01*
X3340Y1720D01*
G37*
D02*
G36*
X3440Y1720D02*
X3440Y1716D01*
X3438Y1716D01*
X3438Y1712D01*
X3436Y1712D01*
X3436Y1708D01*
X3434Y1708D01*
X3434Y1706D01*
X3432Y1706D01*
X3432Y1704D01*
X3430Y1704D01*
X3430Y1702D01*
X3428Y1702D01*
X3428Y1700D01*
X3426Y1700D01*
X3426Y1698D01*
X3424Y1698D01*
X3424Y1696D01*
X3420Y1696D01*
X3420Y1694D01*
X3416Y1694D01*
X3416Y1692D01*
X3410Y1692D01*
X3410Y1690D01*
X3490Y1690D01*
X3490Y1692D01*
X3482Y1692D01*
X3482Y1694D01*
X3480Y1694D01*
X3480Y1696D01*
X3476Y1696D01*
X3476Y1698D01*
X3474Y1698D01*
X3474Y1700D01*
X3470Y1700D01*
X3470Y1702D01*
X3468Y1702D01*
X3468Y1704D01*
X3466Y1704D01*
X3466Y1708D01*
X3464Y1708D01*
X3464Y1710D01*
X3462Y1710D01*
X3462Y1714D01*
X3460Y1714D01*
X3460Y1720D01*
X3440Y1720D01*
G37*
D02*
G36*
X430Y1690D02*
X430Y1688D01*
X3004Y1688D01*
X3004Y1690D01*
X430Y1690D01*
G37*
D02*
G36*
X430Y1690D02*
X430Y1688D01*
X3004Y1688D01*
X3004Y1690D01*
X430Y1690D01*
G37*
D02*
G36*
X430Y1690D02*
X430Y1688D01*
X3004Y1688D01*
X3004Y1690D01*
X430Y1690D01*
G37*
D02*
G36*
X430Y1690D02*
X430Y1688D01*
X3004Y1688D01*
X3004Y1690D01*
X430Y1690D01*
G37*
D02*
G36*
X430Y1690D02*
X430Y1688D01*
X3004Y1688D01*
X3004Y1690D01*
X430Y1690D01*
G37*
D02*
G36*
X430Y1690D02*
X430Y1688D01*
X3004Y1688D01*
X3004Y1690D01*
X430Y1690D01*
G37*
D02*
G36*
X3078Y1690D02*
X3078Y1688D01*
X3926Y1688D01*
X3926Y1690D01*
X3078Y1690D01*
G37*
D02*
G36*
X3078Y1690D02*
X3078Y1688D01*
X3926Y1688D01*
X3926Y1690D01*
X3078Y1690D01*
G37*
D02*
G36*
X3078Y1690D02*
X3078Y1688D01*
X3926Y1688D01*
X3926Y1690D01*
X3078Y1690D01*
G37*
D02*
G36*
X3078Y1690D02*
X3078Y1688D01*
X3926Y1688D01*
X3926Y1690D01*
X3078Y1690D01*
G37*
D02*
G36*
X3078Y1690D02*
X3078Y1688D01*
X3926Y1688D01*
X3926Y1690D01*
X3078Y1690D01*
G37*
D02*
G36*
X430Y1688D02*
X430Y1528D01*
X1654Y1528D01*
X1654Y1530D01*
X1650Y1530D01*
X1650Y1532D01*
X1646Y1532D01*
X1646Y1534D01*
X1644Y1534D01*
X1644Y1536D01*
X1640Y1536D01*
X1640Y1540D01*
X1638Y1540D01*
X1638Y1542D01*
X1636Y1542D01*
X1636Y1546D01*
X1634Y1546D01*
X1634Y1552D01*
X1632Y1552D01*
X1632Y1562D01*
X1634Y1562D01*
X1634Y1570D01*
X1636Y1570D01*
X1636Y1574D01*
X1638Y1574D01*
X1638Y1576D01*
X1640Y1576D01*
X1640Y1578D01*
X1642Y1578D01*
X1642Y1580D01*
X1644Y1580D01*
X1644Y1582D01*
X1648Y1582D01*
X1648Y1584D01*
X1650Y1584D01*
X1650Y1586D01*
X1660Y1586D01*
X1660Y1588D01*
X1672Y1588D01*
X1672Y1590D01*
X1676Y1590D01*
X1676Y1592D01*
X1678Y1592D01*
X1678Y1594D01*
X1680Y1594D01*
X1680Y1596D01*
X1682Y1596D01*
X1682Y1598D01*
X1686Y1598D01*
X1686Y1600D01*
X1688Y1600D01*
X1688Y1602D01*
X1690Y1602D01*
X1690Y1604D01*
X1692Y1604D01*
X1692Y1606D01*
X1696Y1606D01*
X1696Y1608D01*
X1698Y1608D01*
X1698Y1610D01*
X1700Y1610D01*
X1700Y1612D01*
X1702Y1612D01*
X1702Y1614D01*
X1706Y1614D01*
X1706Y1616D01*
X1708Y1616D01*
X1708Y1618D01*
X1710Y1618D01*
X1710Y1620D01*
X1712Y1620D01*
X1712Y1622D01*
X1716Y1622D01*
X1716Y1624D01*
X1722Y1624D01*
X1722Y1626D01*
X2956Y1626D01*
X2956Y1628D01*
X2958Y1628D01*
X2958Y1630D01*
X2960Y1630D01*
X2960Y1632D01*
X2964Y1632D01*
X2964Y1634D01*
X2966Y1634D01*
X2966Y1636D01*
X2968Y1636D01*
X2968Y1638D01*
X2970Y1638D01*
X2970Y1640D01*
X2972Y1640D01*
X2972Y1642D01*
X2974Y1642D01*
X2974Y1644D01*
X2976Y1644D01*
X2976Y1646D01*
X2978Y1646D01*
X2978Y1648D01*
X2980Y1648D01*
X2980Y1650D01*
X2982Y1650D01*
X2982Y1652D01*
X2986Y1652D01*
X2986Y1654D01*
X2988Y1654D01*
X2988Y1656D01*
X2990Y1656D01*
X2990Y1658D01*
X2992Y1658D01*
X2992Y1660D01*
X2994Y1660D01*
X2994Y1662D01*
X2996Y1662D01*
X2996Y1664D01*
X2998Y1664D01*
X2998Y1666D01*
X3000Y1666D01*
X3000Y1668D01*
X3002Y1668D01*
X3002Y1670D01*
X3004Y1670D01*
X3004Y1688D01*
X430Y1688D01*
G37*
D02*
G36*
X3076Y1688D02*
X3076Y1686D01*
X3074Y1686D01*
X3074Y1684D01*
X3072Y1684D01*
X3072Y1682D01*
X3070Y1682D01*
X3070Y1680D01*
X3068Y1680D01*
X3068Y1678D01*
X3066Y1678D01*
X3066Y1676D01*
X3062Y1676D01*
X3062Y1674D01*
X3060Y1674D01*
X3060Y1672D01*
X3058Y1672D01*
X3058Y1670D01*
X3056Y1670D01*
X3056Y1668D01*
X3054Y1668D01*
X3054Y1666D01*
X3052Y1666D01*
X3052Y1664D01*
X3050Y1664D01*
X3050Y1662D01*
X3048Y1662D01*
X3048Y1660D01*
X3046Y1660D01*
X3046Y1658D01*
X3044Y1658D01*
X3044Y1656D01*
X3040Y1656D01*
X3040Y1654D01*
X3038Y1654D01*
X3038Y1652D01*
X3036Y1652D01*
X3036Y1650D01*
X3034Y1650D01*
X3034Y1648D01*
X3032Y1648D01*
X3032Y1646D01*
X3030Y1646D01*
X3030Y1644D01*
X3028Y1644D01*
X3028Y1642D01*
X3026Y1642D01*
X3026Y1640D01*
X3024Y1640D01*
X3024Y1638D01*
X3022Y1638D01*
X3022Y1636D01*
X3018Y1636D01*
X3018Y1634D01*
X3016Y1634D01*
X3016Y1632D01*
X3014Y1632D01*
X3014Y1630D01*
X3012Y1630D01*
X3012Y1628D01*
X3010Y1628D01*
X3010Y1626D01*
X3008Y1626D01*
X3008Y1624D01*
X3006Y1624D01*
X3006Y1622D01*
X3004Y1622D01*
X3004Y1620D01*
X3002Y1620D01*
X3002Y1618D01*
X3000Y1618D01*
X3000Y1616D01*
X2996Y1616D01*
X2996Y1614D01*
X2994Y1614D01*
X2994Y1612D01*
X2992Y1612D01*
X2992Y1610D01*
X2990Y1610D01*
X2990Y1608D01*
X2988Y1608D01*
X2988Y1606D01*
X2986Y1606D01*
X2986Y1604D01*
X2984Y1604D01*
X2984Y1602D01*
X2982Y1602D01*
X2982Y1600D01*
X2980Y1600D01*
X2980Y1598D01*
X2976Y1598D01*
X2976Y1596D01*
X2974Y1596D01*
X2974Y1594D01*
X2972Y1594D01*
X2972Y1592D01*
X2968Y1592D01*
X2968Y1590D01*
X1730Y1590D01*
X1730Y1588D01*
X1728Y1588D01*
X1728Y1586D01*
X1726Y1586D01*
X1726Y1584D01*
X1722Y1584D01*
X1722Y1582D01*
X1720Y1582D01*
X1720Y1580D01*
X1718Y1580D01*
X1718Y1578D01*
X1716Y1578D01*
X1716Y1576D01*
X1712Y1576D01*
X1712Y1574D01*
X1710Y1574D01*
X1710Y1572D01*
X1708Y1572D01*
X1708Y1570D01*
X1706Y1570D01*
X1706Y1568D01*
X1702Y1568D01*
X1702Y1566D01*
X1700Y1566D01*
X1700Y1564D01*
X1698Y1564D01*
X1698Y1562D01*
X1696Y1562D01*
X1696Y1560D01*
X1692Y1560D01*
X1692Y1552D01*
X1690Y1552D01*
X1690Y1546D01*
X1688Y1546D01*
X1688Y1542D01*
X1686Y1542D01*
X1686Y1538D01*
X1684Y1538D01*
X1684Y1536D01*
X1682Y1536D01*
X1682Y1534D01*
X1678Y1534D01*
X1678Y1532D01*
X1676Y1532D01*
X1676Y1530D01*
X1670Y1530D01*
X1670Y1528D01*
X3926Y1528D01*
X3926Y1688D01*
X3076Y1688D01*
G37*
D02*
G36*
X430Y1528D02*
X430Y1526D01*
X3926Y1526D01*
X3926Y1528D01*
X430Y1528D01*
G37*
D02*
G36*
X430Y1528D02*
X430Y1526D01*
X3926Y1526D01*
X3926Y1528D01*
X430Y1528D01*
G37*
D02*
G36*
X430Y1526D02*
X430Y1300D01*
X2718Y1300D01*
X2718Y1298D01*
X2722Y1298D01*
X2722Y1296D01*
X2726Y1296D01*
X2726Y1292D01*
X2728Y1292D01*
X2728Y1290D01*
X2730Y1290D01*
X2730Y1286D01*
X2732Y1286D01*
X2732Y1282D01*
X2734Y1282D01*
X2734Y1278D01*
X2736Y1278D01*
X2736Y1274D01*
X2738Y1274D01*
X2738Y1270D01*
X2740Y1270D01*
X2740Y1266D01*
X2742Y1266D01*
X2742Y1262D01*
X2744Y1262D01*
X2744Y1258D01*
X2746Y1258D01*
X2746Y1254D01*
X2748Y1254D01*
X2748Y1250D01*
X2750Y1250D01*
X2750Y1246D01*
X2752Y1246D01*
X2752Y1242D01*
X2754Y1242D01*
X2754Y1238D01*
X2756Y1238D01*
X2756Y1234D01*
X2758Y1234D01*
X2758Y1232D01*
X3168Y1232D01*
X3168Y1230D01*
X3178Y1230D01*
X3178Y1228D01*
X3182Y1228D01*
X3182Y1226D01*
X3186Y1226D01*
X3186Y1224D01*
X3190Y1224D01*
X3190Y1222D01*
X3192Y1222D01*
X3192Y1220D01*
X3710Y1220D01*
X3710Y1166D01*
X3742Y1166D01*
X3742Y1048D01*
X3926Y1048D01*
X3926Y1526D01*
X430Y1526D01*
G37*
D02*
G36*
X430Y1300D02*
X430Y1288D01*
X1464Y1288D01*
X1464Y1286D01*
X1474Y1286D01*
X1474Y1284D01*
X1478Y1284D01*
X1478Y1282D01*
X1480Y1282D01*
X1480Y1280D01*
X1482Y1280D01*
X1482Y1278D01*
X1484Y1278D01*
X1484Y1276D01*
X1486Y1276D01*
X1486Y1274D01*
X1488Y1274D01*
X1488Y1270D01*
X1490Y1270D01*
X1490Y1264D01*
X1492Y1264D01*
X1492Y1252D01*
X1490Y1252D01*
X1490Y1246D01*
X1488Y1246D01*
X1488Y1242D01*
X1486Y1242D01*
X1486Y1238D01*
X1484Y1238D01*
X1484Y1236D01*
X1482Y1236D01*
X1482Y1234D01*
X1478Y1234D01*
X1478Y1232D01*
X1476Y1232D01*
X1476Y1230D01*
X1470Y1230D01*
X1470Y1226D01*
X1468Y1226D01*
X1468Y1220D01*
X1466Y1220D01*
X1466Y1216D01*
X1464Y1216D01*
X1464Y1210D01*
X1462Y1210D01*
X1462Y1206D01*
X1460Y1206D01*
X1460Y1200D01*
X1458Y1200D01*
X1458Y1196D01*
X1456Y1196D01*
X1456Y1190D01*
X1454Y1190D01*
X1454Y1186D01*
X1452Y1186D01*
X1452Y1180D01*
X1450Y1180D01*
X1450Y1176D01*
X1448Y1176D01*
X1448Y1170D01*
X1446Y1170D01*
X1446Y1166D01*
X1444Y1166D01*
X1444Y1160D01*
X1442Y1160D01*
X1442Y1156D01*
X1440Y1156D01*
X1440Y1150D01*
X1438Y1150D01*
X1438Y1146D01*
X1436Y1146D01*
X1436Y1140D01*
X1434Y1140D01*
X1434Y1136D01*
X1432Y1136D01*
X1432Y1130D01*
X1430Y1130D01*
X1430Y598D01*
X1576Y598D01*
X1576Y596D01*
X1584Y596D01*
X1584Y594D01*
X1588Y594D01*
X1588Y592D01*
X1592Y592D01*
X1592Y590D01*
X1594Y590D01*
X1594Y588D01*
X1598Y588D01*
X1598Y586D01*
X1600Y586D01*
X1600Y584D01*
X1602Y584D01*
X1602Y582D01*
X1604Y582D01*
X1604Y580D01*
X1606Y580D01*
X1606Y578D01*
X1608Y578D01*
X1608Y574D01*
X1610Y574D01*
X1610Y572D01*
X1638Y572D01*
X1638Y574D01*
X1654Y574D01*
X1654Y576D01*
X1656Y576D01*
X1656Y578D01*
X1658Y578D01*
X1658Y580D01*
X1660Y580D01*
X1660Y582D01*
X1662Y582D01*
X1662Y584D01*
X1664Y584D01*
X1664Y586D01*
X1666Y586D01*
X1666Y588D01*
X1668Y588D01*
X1668Y590D01*
X1670Y590D01*
X1670Y592D01*
X1672Y592D01*
X1672Y594D01*
X1674Y594D01*
X1674Y596D01*
X1676Y596D01*
X1676Y598D01*
X1678Y598D01*
X1678Y600D01*
X1680Y600D01*
X1680Y602D01*
X1682Y602D01*
X1682Y604D01*
X1684Y604D01*
X1684Y606D01*
X1686Y606D01*
X1686Y608D01*
X1688Y608D01*
X1688Y610D01*
X1690Y610D01*
X1690Y612D01*
X1692Y612D01*
X1692Y614D01*
X1694Y614D01*
X1694Y1164D01*
X1696Y1164D01*
X1696Y1168D01*
X1698Y1168D01*
X1698Y1170D01*
X1700Y1170D01*
X1700Y1172D01*
X1702Y1172D01*
X1702Y1174D01*
X1704Y1174D01*
X1704Y1176D01*
X1706Y1176D01*
X1706Y1178D01*
X1708Y1178D01*
X1708Y1180D01*
X1712Y1180D01*
X1712Y1182D01*
X1714Y1182D01*
X1714Y1184D01*
X1716Y1184D01*
X1716Y1186D01*
X1718Y1186D01*
X1718Y1188D01*
X1720Y1188D01*
X1720Y1190D01*
X1724Y1190D01*
X1724Y1192D01*
X1726Y1192D01*
X1726Y1194D01*
X1728Y1194D01*
X1728Y1196D01*
X1730Y1196D01*
X1730Y1198D01*
X1732Y1198D01*
X1732Y1200D01*
X1736Y1200D01*
X1736Y1202D01*
X1738Y1202D01*
X1738Y1204D01*
X1740Y1204D01*
X1740Y1206D01*
X1742Y1206D01*
X1742Y1208D01*
X1744Y1208D01*
X1744Y1210D01*
X1748Y1210D01*
X1748Y1212D01*
X1750Y1212D01*
X1750Y1214D01*
X1752Y1214D01*
X1752Y1216D01*
X1754Y1216D01*
X1754Y1218D01*
X1756Y1218D01*
X1756Y1220D01*
X1760Y1220D01*
X1760Y1222D01*
X1762Y1222D01*
X1762Y1224D01*
X1764Y1224D01*
X1764Y1226D01*
X1766Y1226D01*
X1766Y1228D01*
X1768Y1228D01*
X1768Y1230D01*
X1772Y1230D01*
X1772Y1232D01*
X1774Y1232D01*
X1774Y1234D01*
X1776Y1234D01*
X1776Y1236D01*
X1780Y1236D01*
X1780Y1238D01*
X2292Y1238D01*
X2292Y1240D01*
X2294Y1240D01*
X2294Y1242D01*
X2296Y1242D01*
X2296Y1246D01*
X2298Y1246D01*
X2298Y1248D01*
X2300Y1248D01*
X2300Y1250D01*
X2302Y1250D01*
X2302Y1254D01*
X2304Y1254D01*
X2304Y1256D01*
X2306Y1256D01*
X2306Y1258D01*
X2308Y1258D01*
X2308Y1260D01*
X2310Y1260D01*
X2310Y1264D01*
X2312Y1264D01*
X2312Y1266D01*
X2314Y1266D01*
X2314Y1268D01*
X2316Y1268D01*
X2316Y1270D01*
X2318Y1270D01*
X2318Y1274D01*
X2320Y1274D01*
X2320Y1276D01*
X2322Y1276D01*
X2322Y1278D01*
X2324Y1278D01*
X2324Y1282D01*
X2326Y1282D01*
X2326Y1284D01*
X2328Y1284D01*
X2328Y1286D01*
X2330Y1286D01*
X2330Y1288D01*
X2332Y1288D01*
X2332Y1292D01*
X2334Y1292D01*
X2334Y1294D01*
X2336Y1294D01*
X2336Y1296D01*
X2338Y1296D01*
X2338Y1298D01*
X2342Y1298D01*
X2342Y1300D01*
X430Y1300D01*
G37*
D02*
G36*
X430Y1288D02*
X430Y1202D01*
X898Y1202D01*
X898Y1200D01*
X904Y1200D01*
X904Y1198D01*
X908Y1198D01*
X908Y1196D01*
X912Y1196D01*
X912Y1194D01*
X914Y1194D01*
X914Y1192D01*
X918Y1192D01*
X918Y1190D01*
X920Y1190D01*
X920Y1186D01*
X922Y1186D01*
X922Y1184D01*
X924Y1184D01*
X924Y1182D01*
X926Y1182D01*
X926Y1178D01*
X928Y1178D01*
X928Y1174D01*
X930Y1174D01*
X930Y1168D01*
X932Y1168D01*
X932Y1148D01*
X930Y1148D01*
X930Y1142D01*
X928Y1142D01*
X928Y1138D01*
X926Y1138D01*
X926Y1134D01*
X924Y1134D01*
X924Y1130D01*
X922Y1130D01*
X922Y1128D01*
X920Y1128D01*
X920Y1126D01*
X918Y1126D01*
X918Y1124D01*
X916Y1124D01*
X916Y1122D01*
X914Y1122D01*
X914Y1120D01*
X910Y1120D01*
X910Y1118D01*
X906Y1118D01*
X906Y1098D01*
X908Y1098D01*
X908Y1096D01*
X912Y1096D01*
X912Y1094D01*
X914Y1094D01*
X914Y1092D01*
X918Y1092D01*
X918Y1090D01*
X920Y1090D01*
X920Y1086D01*
X922Y1086D01*
X922Y1084D01*
X924Y1084D01*
X924Y1082D01*
X926Y1082D01*
X926Y1078D01*
X928Y1078D01*
X928Y1074D01*
X930Y1074D01*
X930Y1068D01*
X932Y1068D01*
X932Y1048D01*
X930Y1048D01*
X930Y1042D01*
X928Y1042D01*
X928Y1038D01*
X926Y1038D01*
X926Y1034D01*
X924Y1034D01*
X924Y1030D01*
X922Y1030D01*
X922Y1028D01*
X920Y1028D01*
X920Y1026D01*
X918Y1026D01*
X918Y1024D01*
X916Y1024D01*
X916Y1022D01*
X914Y1022D01*
X914Y1020D01*
X910Y1020D01*
X910Y1018D01*
X906Y1018D01*
X906Y998D01*
X908Y998D01*
X908Y996D01*
X912Y996D01*
X912Y994D01*
X914Y994D01*
X914Y992D01*
X918Y992D01*
X918Y990D01*
X920Y990D01*
X920Y986D01*
X922Y986D01*
X922Y984D01*
X924Y984D01*
X924Y982D01*
X926Y982D01*
X926Y978D01*
X928Y978D01*
X928Y974D01*
X930Y974D01*
X930Y968D01*
X932Y968D01*
X932Y966D01*
X1254Y966D01*
X1254Y968D01*
X1248Y968D01*
X1248Y970D01*
X1246Y970D01*
X1246Y972D01*
X1242Y972D01*
X1242Y974D01*
X1240Y974D01*
X1240Y976D01*
X1238Y976D01*
X1238Y980D01*
X1236Y980D01*
X1236Y984D01*
X1234Y984D01*
X1234Y990D01*
X1232Y990D01*
X1232Y1000D01*
X1234Y1000D01*
X1234Y1006D01*
X1236Y1006D01*
X1236Y1010D01*
X1238Y1010D01*
X1238Y1014D01*
X1240Y1014D01*
X1240Y1016D01*
X1242Y1016D01*
X1242Y1018D01*
X1244Y1018D01*
X1244Y1236D01*
X1240Y1236D01*
X1240Y1240D01*
X1238Y1240D01*
X1238Y1242D01*
X1236Y1242D01*
X1236Y1246D01*
X1234Y1246D01*
X1234Y1252D01*
X1232Y1252D01*
X1232Y1262D01*
X1234Y1262D01*
X1234Y1270D01*
X1236Y1270D01*
X1236Y1274D01*
X1238Y1274D01*
X1238Y1276D01*
X1240Y1276D01*
X1240Y1278D01*
X1242Y1278D01*
X1242Y1280D01*
X1244Y1280D01*
X1244Y1282D01*
X1248Y1282D01*
X1248Y1284D01*
X1250Y1284D01*
X1250Y1286D01*
X1260Y1286D01*
X1260Y1288D01*
X430Y1288D01*
G37*
D02*
G36*
X1264Y1288D02*
X1264Y1286D01*
X1274Y1286D01*
X1274Y1284D01*
X1278Y1284D01*
X1278Y1282D01*
X1280Y1282D01*
X1280Y1280D01*
X1282Y1280D01*
X1282Y1278D01*
X1284Y1278D01*
X1284Y1276D01*
X1286Y1276D01*
X1286Y1274D01*
X1288Y1274D01*
X1288Y1270D01*
X1290Y1270D01*
X1290Y1264D01*
X1292Y1264D01*
X1292Y1252D01*
X1290Y1252D01*
X1290Y1246D01*
X1288Y1246D01*
X1288Y1242D01*
X1286Y1242D01*
X1286Y1238D01*
X1284Y1238D01*
X1284Y1236D01*
X1282Y1236D01*
X1282Y1234D01*
X1280Y1234D01*
X1280Y1018D01*
X1282Y1018D01*
X1282Y1016D01*
X1284Y1016D01*
X1284Y1014D01*
X1286Y1014D01*
X1286Y1012D01*
X1288Y1012D01*
X1288Y1008D01*
X1290Y1008D01*
X1290Y1002D01*
X1292Y1002D01*
X1292Y988D01*
X1290Y988D01*
X1290Y982D01*
X1288Y982D01*
X1288Y980D01*
X1286Y980D01*
X1286Y976D01*
X1284Y976D01*
X1284Y974D01*
X1282Y974D01*
X1282Y972D01*
X1280Y972D01*
X1280Y970D01*
X1276Y970D01*
X1276Y968D01*
X1272Y968D01*
X1272Y966D01*
X1394Y966D01*
X1394Y1136D01*
X1396Y1136D01*
X1396Y1142D01*
X1398Y1142D01*
X1398Y1146D01*
X1400Y1146D01*
X1400Y1152D01*
X1402Y1152D01*
X1402Y1158D01*
X1404Y1158D01*
X1404Y1162D01*
X1406Y1162D01*
X1406Y1168D01*
X1408Y1168D01*
X1408Y1172D01*
X1410Y1172D01*
X1410Y1178D01*
X1412Y1178D01*
X1412Y1182D01*
X1414Y1182D01*
X1414Y1188D01*
X1416Y1188D01*
X1416Y1192D01*
X1418Y1192D01*
X1418Y1198D01*
X1420Y1198D01*
X1420Y1202D01*
X1422Y1202D01*
X1422Y1208D01*
X1424Y1208D01*
X1424Y1212D01*
X1426Y1212D01*
X1426Y1218D01*
X1428Y1218D01*
X1428Y1222D01*
X1430Y1222D01*
X1430Y1228D01*
X1432Y1228D01*
X1432Y1232D01*
X1434Y1232D01*
X1434Y1252D01*
X1432Y1252D01*
X1432Y1262D01*
X1434Y1262D01*
X1434Y1270D01*
X1436Y1270D01*
X1436Y1274D01*
X1438Y1274D01*
X1438Y1276D01*
X1440Y1276D01*
X1440Y1278D01*
X1442Y1278D01*
X1442Y1280D01*
X1444Y1280D01*
X1444Y1282D01*
X1448Y1282D01*
X1448Y1284D01*
X1450Y1284D01*
X1450Y1286D01*
X1460Y1286D01*
X1460Y1288D01*
X1264Y1288D01*
G37*
D02*
G36*
X2356Y1264D02*
X2356Y1262D01*
X2354Y1262D01*
X2354Y1258D01*
X2352Y1258D01*
X2352Y1256D01*
X2350Y1256D01*
X2350Y1254D01*
X2348Y1254D01*
X2348Y1250D01*
X2346Y1250D01*
X2346Y1248D01*
X2344Y1248D01*
X2344Y1246D01*
X2342Y1246D01*
X2342Y1244D01*
X2340Y1244D01*
X2340Y1240D01*
X2338Y1240D01*
X2338Y1238D01*
X2336Y1238D01*
X2336Y1236D01*
X2334Y1236D01*
X2334Y1232D01*
X2668Y1232D01*
X2668Y1230D01*
X2678Y1230D01*
X2678Y1228D01*
X2682Y1228D01*
X2682Y1226D01*
X2686Y1226D01*
X2686Y1224D01*
X2690Y1224D01*
X2690Y1222D01*
X2692Y1222D01*
X2692Y1220D01*
X2694Y1220D01*
X2694Y1218D01*
X2696Y1218D01*
X2696Y1216D01*
X2698Y1216D01*
X2698Y1214D01*
X2700Y1214D01*
X2700Y1212D01*
X2720Y1212D01*
X2720Y1228D01*
X2718Y1228D01*
X2718Y1232D01*
X2716Y1232D01*
X2716Y1238D01*
X2714Y1238D01*
X2714Y1242D01*
X2712Y1242D01*
X2712Y1246D01*
X2710Y1246D01*
X2710Y1250D01*
X2708Y1250D01*
X2708Y1254D01*
X2706Y1254D01*
X2706Y1258D01*
X2704Y1258D01*
X2704Y1262D01*
X2702Y1262D01*
X2702Y1264D01*
X2356Y1264D01*
G37*
D02*
G36*
X40Y1236D02*
X40Y1078D01*
X178Y1078D01*
X178Y1080D01*
X168Y1080D01*
X168Y1082D01*
X160Y1082D01*
X160Y1084D01*
X156Y1084D01*
X156Y1086D01*
X152Y1086D01*
X152Y1088D01*
X148Y1088D01*
X148Y1090D01*
X144Y1090D01*
X144Y1092D01*
X142Y1092D01*
X142Y1094D01*
X138Y1094D01*
X138Y1096D01*
X136Y1096D01*
X136Y1098D01*
X134Y1098D01*
X134Y1100D01*
X132Y1100D01*
X132Y1102D01*
X130Y1102D01*
X130Y1104D01*
X128Y1104D01*
X128Y1106D01*
X126Y1106D01*
X126Y1108D01*
X124Y1108D01*
X124Y1112D01*
X122Y1112D01*
X122Y1114D01*
X120Y1114D01*
X120Y1118D01*
X118Y1118D01*
X118Y1122D01*
X116Y1122D01*
X116Y1126D01*
X114Y1126D01*
X114Y1130D01*
X112Y1130D01*
X112Y1136D01*
X110Y1136D01*
X110Y1146D01*
X108Y1146D01*
X108Y1170D01*
X110Y1170D01*
X110Y1178D01*
X112Y1178D01*
X112Y1186D01*
X114Y1186D01*
X114Y1190D01*
X116Y1190D01*
X116Y1194D01*
X118Y1194D01*
X118Y1198D01*
X120Y1198D01*
X120Y1200D01*
X122Y1200D01*
X122Y1204D01*
X124Y1204D01*
X124Y1206D01*
X126Y1206D01*
X126Y1208D01*
X128Y1208D01*
X128Y1212D01*
X130Y1212D01*
X130Y1214D01*
X132Y1214D01*
X132Y1216D01*
X134Y1216D01*
X134Y1218D01*
X138Y1218D01*
X138Y1220D01*
X140Y1220D01*
X140Y1222D01*
X142Y1222D01*
X142Y1224D01*
X146Y1224D01*
X146Y1226D01*
X150Y1226D01*
X150Y1228D01*
X154Y1228D01*
X154Y1230D01*
X158Y1230D01*
X158Y1232D01*
X164Y1232D01*
X164Y1234D01*
X170Y1234D01*
X170Y1236D01*
X40Y1236D01*
G37*
D02*
G36*
X2332Y1232D02*
X2332Y1230D01*
X2330Y1230D01*
X2330Y1228D01*
X2328Y1228D01*
X2328Y1226D01*
X2326Y1226D01*
X2326Y1222D01*
X2324Y1222D01*
X2324Y1220D01*
X2322Y1220D01*
X2322Y1218D01*
X2320Y1218D01*
X2320Y1216D01*
X2318Y1216D01*
X2318Y1212D01*
X2316Y1212D01*
X2316Y1210D01*
X2314Y1210D01*
X2314Y1208D01*
X2312Y1208D01*
X2312Y1206D01*
X2310Y1206D01*
X2310Y1204D01*
X2306Y1204D01*
X2306Y1202D01*
X1792Y1202D01*
X1792Y1200D01*
X1790Y1200D01*
X1790Y1198D01*
X1786Y1198D01*
X1786Y1196D01*
X1784Y1196D01*
X1784Y1194D01*
X1782Y1194D01*
X1782Y1192D01*
X1780Y1192D01*
X1780Y1190D01*
X1778Y1190D01*
X1778Y1188D01*
X1774Y1188D01*
X1774Y1186D01*
X1772Y1186D01*
X1772Y1184D01*
X1770Y1184D01*
X1770Y1182D01*
X1768Y1182D01*
X1768Y1180D01*
X1766Y1180D01*
X1766Y1178D01*
X1762Y1178D01*
X1762Y1176D01*
X1760Y1176D01*
X1760Y1174D01*
X1758Y1174D01*
X1758Y1172D01*
X1756Y1172D01*
X1756Y1170D01*
X1754Y1170D01*
X1754Y1168D01*
X1750Y1168D01*
X1750Y1166D01*
X1748Y1166D01*
X1748Y1164D01*
X1746Y1164D01*
X1746Y1162D01*
X1744Y1162D01*
X1744Y1160D01*
X1742Y1160D01*
X1742Y1158D01*
X1738Y1158D01*
X1738Y1156D01*
X1736Y1156D01*
X1736Y1154D01*
X1734Y1154D01*
X1734Y1152D01*
X1732Y1152D01*
X1732Y1150D01*
X1730Y1150D01*
X1730Y1134D01*
X2552Y1134D01*
X2552Y1136D01*
X2544Y1136D01*
X2544Y1138D01*
X2540Y1138D01*
X2540Y1140D01*
X2536Y1140D01*
X2536Y1142D01*
X2534Y1142D01*
X2534Y1144D01*
X2532Y1144D01*
X2532Y1146D01*
X2528Y1146D01*
X2528Y1148D01*
X2526Y1148D01*
X2526Y1152D01*
X2524Y1152D01*
X2524Y1154D01*
X2522Y1154D01*
X2522Y1156D01*
X2520Y1156D01*
X2520Y1160D01*
X2518Y1160D01*
X2518Y1164D01*
X2516Y1164D01*
X2516Y1170D01*
X2514Y1170D01*
X2514Y1194D01*
X2516Y1194D01*
X2516Y1202D01*
X2518Y1202D01*
X2518Y1206D01*
X2520Y1206D01*
X2520Y1208D01*
X2522Y1208D01*
X2522Y1212D01*
X2524Y1212D01*
X2524Y1214D01*
X2526Y1214D01*
X2526Y1216D01*
X2528Y1216D01*
X2528Y1218D01*
X2530Y1218D01*
X2530Y1220D01*
X2532Y1220D01*
X2532Y1222D01*
X2534Y1222D01*
X2534Y1224D01*
X2538Y1224D01*
X2538Y1226D01*
X2542Y1226D01*
X2542Y1228D01*
X2548Y1228D01*
X2548Y1230D01*
X2556Y1230D01*
X2556Y1232D01*
X2332Y1232D01*
G37*
D02*
G36*
X2568Y1232D02*
X2568Y1230D01*
X2578Y1230D01*
X2578Y1228D01*
X2582Y1228D01*
X2582Y1226D01*
X2586Y1226D01*
X2586Y1224D01*
X2590Y1224D01*
X2590Y1222D01*
X2592Y1222D01*
X2592Y1220D01*
X2594Y1220D01*
X2594Y1218D01*
X2596Y1218D01*
X2596Y1216D01*
X2598Y1216D01*
X2598Y1214D01*
X2600Y1214D01*
X2600Y1212D01*
X2602Y1212D01*
X2602Y1210D01*
X2622Y1210D01*
X2622Y1212D01*
X2624Y1212D01*
X2624Y1214D01*
X2626Y1214D01*
X2626Y1216D01*
X2628Y1216D01*
X2628Y1218D01*
X2630Y1218D01*
X2630Y1220D01*
X2632Y1220D01*
X2632Y1222D01*
X2634Y1222D01*
X2634Y1224D01*
X2638Y1224D01*
X2638Y1226D01*
X2642Y1226D01*
X2642Y1228D01*
X2648Y1228D01*
X2648Y1230D01*
X2656Y1230D01*
X2656Y1232D01*
X2568Y1232D01*
G37*
D02*
G36*
X2768Y1232D02*
X2768Y1230D01*
X2778Y1230D01*
X2778Y1228D01*
X2782Y1228D01*
X2782Y1226D01*
X2786Y1226D01*
X2786Y1224D01*
X2790Y1224D01*
X2790Y1222D01*
X2792Y1222D01*
X2792Y1220D01*
X2794Y1220D01*
X2794Y1218D01*
X2796Y1218D01*
X2796Y1216D01*
X2798Y1216D01*
X2798Y1214D01*
X2800Y1214D01*
X2800Y1212D01*
X2802Y1212D01*
X2802Y1210D01*
X2822Y1210D01*
X2822Y1212D01*
X2824Y1212D01*
X2824Y1214D01*
X2826Y1214D01*
X2826Y1216D01*
X2828Y1216D01*
X2828Y1218D01*
X2830Y1218D01*
X2830Y1220D01*
X2832Y1220D01*
X2832Y1222D01*
X2834Y1222D01*
X2834Y1224D01*
X2838Y1224D01*
X2838Y1226D01*
X2842Y1226D01*
X2842Y1228D01*
X2848Y1228D01*
X2848Y1230D01*
X2856Y1230D01*
X2856Y1232D01*
X2768Y1232D01*
G37*
D02*
G36*
X2868Y1232D02*
X2868Y1230D01*
X2878Y1230D01*
X2878Y1228D01*
X2882Y1228D01*
X2882Y1226D01*
X2886Y1226D01*
X2886Y1224D01*
X2890Y1224D01*
X2890Y1222D01*
X2892Y1222D01*
X2892Y1220D01*
X2894Y1220D01*
X2894Y1218D01*
X2896Y1218D01*
X2896Y1216D01*
X2898Y1216D01*
X2898Y1214D01*
X2900Y1214D01*
X2900Y1212D01*
X2902Y1212D01*
X2902Y1210D01*
X2922Y1210D01*
X2922Y1212D01*
X2924Y1212D01*
X2924Y1214D01*
X2926Y1214D01*
X2926Y1216D01*
X2928Y1216D01*
X2928Y1218D01*
X2930Y1218D01*
X2930Y1220D01*
X2932Y1220D01*
X2932Y1222D01*
X2934Y1222D01*
X2934Y1224D01*
X2938Y1224D01*
X2938Y1226D01*
X2942Y1226D01*
X2942Y1228D01*
X2948Y1228D01*
X2948Y1230D01*
X2956Y1230D01*
X2956Y1232D01*
X2868Y1232D01*
G37*
D02*
G36*
X2968Y1232D02*
X2968Y1230D01*
X2978Y1230D01*
X2978Y1228D01*
X2982Y1228D01*
X2982Y1226D01*
X2986Y1226D01*
X2986Y1224D01*
X2990Y1224D01*
X2990Y1222D01*
X2992Y1222D01*
X2992Y1220D01*
X2994Y1220D01*
X2994Y1218D01*
X2996Y1218D01*
X2996Y1216D01*
X2998Y1216D01*
X2998Y1214D01*
X3000Y1214D01*
X3000Y1212D01*
X3002Y1212D01*
X3002Y1210D01*
X3022Y1210D01*
X3022Y1212D01*
X3024Y1212D01*
X3024Y1214D01*
X3026Y1214D01*
X3026Y1216D01*
X3028Y1216D01*
X3028Y1218D01*
X3030Y1218D01*
X3030Y1220D01*
X3032Y1220D01*
X3032Y1222D01*
X3034Y1222D01*
X3034Y1224D01*
X3038Y1224D01*
X3038Y1226D01*
X3042Y1226D01*
X3042Y1228D01*
X3048Y1228D01*
X3048Y1230D01*
X3056Y1230D01*
X3056Y1232D01*
X2968Y1232D01*
G37*
D02*
G36*
X3068Y1232D02*
X3068Y1230D01*
X3078Y1230D01*
X3078Y1228D01*
X3082Y1228D01*
X3082Y1226D01*
X3086Y1226D01*
X3086Y1224D01*
X3090Y1224D01*
X3090Y1222D01*
X3092Y1222D01*
X3092Y1220D01*
X3094Y1220D01*
X3094Y1218D01*
X3096Y1218D01*
X3096Y1216D01*
X3098Y1216D01*
X3098Y1214D01*
X3100Y1214D01*
X3100Y1212D01*
X3102Y1212D01*
X3102Y1210D01*
X3122Y1210D01*
X3122Y1212D01*
X3124Y1212D01*
X3124Y1214D01*
X3126Y1214D01*
X3126Y1216D01*
X3128Y1216D01*
X3128Y1218D01*
X3130Y1218D01*
X3130Y1220D01*
X3132Y1220D01*
X3132Y1222D01*
X3134Y1222D01*
X3134Y1224D01*
X3138Y1224D01*
X3138Y1226D01*
X3142Y1226D01*
X3142Y1228D01*
X3148Y1228D01*
X3148Y1230D01*
X3156Y1230D01*
X3156Y1232D01*
X3068Y1232D01*
G37*
D02*
G36*
X3194Y1220D02*
X3194Y1218D01*
X3196Y1218D01*
X3196Y1216D01*
X3198Y1216D01*
X3198Y1214D01*
X3200Y1214D01*
X3200Y1212D01*
X3202Y1212D01*
X3202Y1210D01*
X3204Y1210D01*
X3204Y1206D01*
X3206Y1206D01*
X3206Y1202D01*
X3208Y1202D01*
X3208Y1200D01*
X3282Y1200D01*
X3282Y1198D01*
X3286Y1198D01*
X3286Y1196D01*
X3288Y1196D01*
X3288Y1194D01*
X3290Y1194D01*
X3290Y1192D01*
X3292Y1192D01*
X3292Y1190D01*
X3294Y1190D01*
X3294Y1188D01*
X3296Y1188D01*
X3296Y1186D01*
X3298Y1186D01*
X3298Y1184D01*
X3300Y1184D01*
X3300Y1182D01*
X3302Y1182D01*
X3302Y1180D01*
X3304Y1180D01*
X3304Y1178D01*
X3306Y1178D01*
X3306Y1176D01*
X3308Y1176D01*
X3308Y1174D01*
X3310Y1174D01*
X3310Y1172D01*
X3312Y1172D01*
X3312Y1170D01*
X3314Y1170D01*
X3314Y1168D01*
X3316Y1168D01*
X3316Y1166D01*
X3318Y1166D01*
X3318Y1164D01*
X3320Y1164D01*
X3320Y1162D01*
X3322Y1162D01*
X3322Y1160D01*
X3324Y1160D01*
X3324Y1158D01*
X3326Y1158D01*
X3326Y1156D01*
X3328Y1156D01*
X3328Y1154D01*
X3330Y1154D01*
X3330Y1152D01*
X3332Y1152D01*
X3332Y1150D01*
X3334Y1150D01*
X3334Y1148D01*
X3336Y1148D01*
X3336Y1146D01*
X3338Y1146D01*
X3338Y1144D01*
X3340Y1144D01*
X3340Y1142D01*
X3342Y1142D01*
X3342Y1140D01*
X3344Y1140D01*
X3344Y1138D01*
X3346Y1138D01*
X3346Y1136D01*
X3348Y1136D01*
X3348Y1134D01*
X3350Y1134D01*
X3350Y1132D01*
X3352Y1132D01*
X3352Y1128D01*
X3354Y1128D01*
X3354Y1122D01*
X3356Y1122D01*
X3356Y958D01*
X3432Y958D01*
X3432Y956D01*
X3438Y956D01*
X3438Y954D01*
X3442Y954D01*
X3442Y952D01*
X3446Y952D01*
X3446Y950D01*
X3450Y950D01*
X3450Y948D01*
X3554Y948D01*
X3554Y1024D01*
X3484Y1024D01*
X3484Y1180D01*
X3514Y1180D01*
X3514Y1218D01*
X3516Y1218D01*
X3516Y1220D01*
X3194Y1220D01*
G37*
D02*
G36*
X430Y1202D02*
X430Y1138D01*
X564Y1138D01*
X564Y1136D01*
X574Y1136D01*
X574Y1134D01*
X578Y1134D01*
X578Y1132D01*
X580Y1132D01*
X580Y1130D01*
X582Y1130D01*
X582Y1128D01*
X584Y1128D01*
X584Y1126D01*
X586Y1126D01*
X586Y1124D01*
X588Y1124D01*
X588Y1120D01*
X590Y1120D01*
X590Y1114D01*
X592Y1114D01*
X592Y1100D01*
X594Y1100D01*
X594Y1098D01*
X596Y1098D01*
X596Y1096D01*
X598Y1096D01*
X598Y1094D01*
X600Y1094D01*
X600Y1092D01*
X602Y1092D01*
X602Y1090D01*
X604Y1090D01*
X604Y1088D01*
X606Y1088D01*
X606Y1086D01*
X608Y1086D01*
X608Y1084D01*
X610Y1084D01*
X610Y1082D01*
X612Y1082D01*
X612Y1080D01*
X614Y1080D01*
X614Y1078D01*
X616Y1078D01*
X616Y1074D01*
X618Y1074D01*
X618Y1072D01*
X620Y1072D01*
X620Y1070D01*
X622Y1070D01*
X622Y1068D01*
X624Y1068D01*
X624Y1066D01*
X626Y1066D01*
X626Y1064D01*
X628Y1064D01*
X628Y1062D01*
X630Y1062D01*
X630Y1060D01*
X632Y1060D01*
X632Y1058D01*
X634Y1058D01*
X634Y1056D01*
X636Y1056D01*
X636Y1054D01*
X638Y1054D01*
X638Y1052D01*
X640Y1052D01*
X640Y1050D01*
X642Y1050D01*
X642Y1046D01*
X644Y1046D01*
X644Y1044D01*
X646Y1044D01*
X646Y1042D01*
X648Y1042D01*
X648Y1040D01*
X650Y1040D01*
X650Y1038D01*
X652Y1038D01*
X652Y1036D01*
X654Y1036D01*
X654Y1034D01*
X656Y1034D01*
X656Y1032D01*
X658Y1032D01*
X658Y1030D01*
X660Y1030D01*
X660Y1028D01*
X662Y1028D01*
X662Y1026D01*
X664Y1026D01*
X664Y1024D01*
X666Y1024D01*
X666Y1022D01*
X668Y1022D01*
X668Y1018D01*
X670Y1018D01*
X670Y1016D01*
X672Y1016D01*
X672Y1014D01*
X674Y1014D01*
X674Y1012D01*
X676Y1012D01*
X676Y1010D01*
X678Y1010D01*
X678Y1008D01*
X680Y1008D01*
X680Y1006D01*
X682Y1006D01*
X682Y1004D01*
X684Y1004D01*
X684Y1002D01*
X686Y1002D01*
X686Y1000D01*
X688Y1000D01*
X688Y998D01*
X690Y998D01*
X690Y996D01*
X692Y996D01*
X692Y994D01*
X694Y994D01*
X694Y990D01*
X696Y990D01*
X696Y988D01*
X698Y988D01*
X698Y986D01*
X700Y986D01*
X700Y984D01*
X702Y984D01*
X702Y982D01*
X704Y982D01*
X704Y980D01*
X706Y980D01*
X706Y978D01*
X708Y978D01*
X708Y976D01*
X710Y976D01*
X710Y974D01*
X712Y974D01*
X712Y972D01*
X714Y972D01*
X714Y970D01*
X716Y970D01*
X716Y968D01*
X718Y968D01*
X718Y966D01*
X720Y966D01*
X720Y962D01*
X722Y962D01*
X722Y960D01*
X724Y960D01*
X724Y958D01*
X726Y958D01*
X726Y956D01*
X728Y956D01*
X728Y954D01*
X730Y954D01*
X730Y952D01*
X732Y952D01*
X732Y950D01*
X734Y950D01*
X734Y948D01*
X736Y948D01*
X736Y946D01*
X738Y946D01*
X738Y944D01*
X740Y944D01*
X740Y942D01*
X742Y942D01*
X742Y940D01*
X744Y940D01*
X744Y938D01*
X746Y938D01*
X746Y934D01*
X748Y934D01*
X748Y932D01*
X750Y932D01*
X750Y930D01*
X752Y930D01*
X752Y928D01*
X754Y928D01*
X754Y926D01*
X756Y926D01*
X756Y924D01*
X758Y924D01*
X758Y922D01*
X760Y922D01*
X760Y920D01*
X762Y920D01*
X762Y918D01*
X764Y918D01*
X764Y916D01*
X766Y916D01*
X766Y914D01*
X768Y914D01*
X768Y912D01*
X770Y912D01*
X770Y910D01*
X772Y910D01*
X772Y906D01*
X774Y906D01*
X774Y904D01*
X776Y904D01*
X776Y902D01*
X778Y902D01*
X778Y900D01*
X780Y900D01*
X780Y898D01*
X782Y898D01*
X782Y896D01*
X784Y896D01*
X784Y894D01*
X786Y894D01*
X786Y892D01*
X788Y892D01*
X788Y890D01*
X790Y890D01*
X790Y888D01*
X792Y888D01*
X792Y886D01*
X794Y886D01*
X794Y884D01*
X796Y884D01*
X796Y882D01*
X798Y882D01*
X798Y878D01*
X800Y878D01*
X800Y876D01*
X802Y876D01*
X802Y874D01*
X804Y874D01*
X804Y872D01*
X806Y872D01*
X806Y870D01*
X808Y870D01*
X808Y868D01*
X810Y868D01*
X810Y866D01*
X812Y866D01*
X812Y864D01*
X814Y864D01*
X814Y862D01*
X816Y862D01*
X816Y860D01*
X818Y860D01*
X818Y858D01*
X820Y858D01*
X820Y856D01*
X822Y856D01*
X822Y854D01*
X842Y854D01*
X842Y866D01*
X844Y866D01*
X844Y872D01*
X846Y872D01*
X846Y878D01*
X848Y878D01*
X848Y882D01*
X850Y882D01*
X850Y884D01*
X852Y884D01*
X852Y886D01*
X854Y886D01*
X854Y888D01*
X856Y888D01*
X856Y890D01*
X858Y890D01*
X858Y892D01*
X860Y892D01*
X860Y894D01*
X862Y894D01*
X862Y896D01*
X866Y896D01*
X866Y898D01*
X868Y898D01*
X868Y918D01*
X864Y918D01*
X864Y920D01*
X862Y920D01*
X862Y922D01*
X858Y922D01*
X858Y924D01*
X856Y924D01*
X856Y926D01*
X854Y926D01*
X854Y928D01*
X852Y928D01*
X852Y932D01*
X850Y932D01*
X850Y934D01*
X848Y934D01*
X848Y938D01*
X846Y938D01*
X846Y942D01*
X844Y942D01*
X844Y950D01*
X842Y950D01*
X842Y966D01*
X844Y966D01*
X844Y972D01*
X846Y972D01*
X846Y978D01*
X848Y978D01*
X848Y982D01*
X850Y982D01*
X850Y984D01*
X852Y984D01*
X852Y986D01*
X854Y986D01*
X854Y988D01*
X856Y988D01*
X856Y990D01*
X858Y990D01*
X858Y992D01*
X860Y992D01*
X860Y994D01*
X862Y994D01*
X862Y996D01*
X866Y996D01*
X866Y998D01*
X868Y998D01*
X868Y1018D01*
X864Y1018D01*
X864Y1020D01*
X862Y1020D01*
X862Y1022D01*
X858Y1022D01*
X858Y1024D01*
X856Y1024D01*
X856Y1026D01*
X854Y1026D01*
X854Y1028D01*
X852Y1028D01*
X852Y1032D01*
X850Y1032D01*
X850Y1034D01*
X848Y1034D01*
X848Y1038D01*
X846Y1038D01*
X846Y1042D01*
X844Y1042D01*
X844Y1050D01*
X842Y1050D01*
X842Y1066D01*
X844Y1066D01*
X844Y1072D01*
X846Y1072D01*
X846Y1078D01*
X848Y1078D01*
X848Y1082D01*
X850Y1082D01*
X850Y1084D01*
X852Y1084D01*
X852Y1086D01*
X854Y1086D01*
X854Y1088D01*
X856Y1088D01*
X856Y1090D01*
X858Y1090D01*
X858Y1092D01*
X860Y1092D01*
X860Y1094D01*
X862Y1094D01*
X862Y1096D01*
X866Y1096D01*
X866Y1098D01*
X868Y1098D01*
X868Y1118D01*
X864Y1118D01*
X864Y1120D01*
X862Y1120D01*
X862Y1122D01*
X858Y1122D01*
X858Y1124D01*
X856Y1124D01*
X856Y1126D01*
X854Y1126D01*
X854Y1128D01*
X852Y1128D01*
X852Y1132D01*
X850Y1132D01*
X850Y1134D01*
X848Y1134D01*
X848Y1138D01*
X846Y1138D01*
X846Y1142D01*
X844Y1142D01*
X844Y1150D01*
X842Y1150D01*
X842Y1166D01*
X844Y1166D01*
X844Y1172D01*
X846Y1172D01*
X846Y1178D01*
X848Y1178D01*
X848Y1182D01*
X850Y1182D01*
X850Y1184D01*
X852Y1184D01*
X852Y1186D01*
X854Y1186D01*
X854Y1188D01*
X856Y1188D01*
X856Y1190D01*
X858Y1190D01*
X858Y1192D01*
X860Y1192D01*
X860Y1194D01*
X862Y1194D01*
X862Y1196D01*
X866Y1196D01*
X866Y1198D01*
X870Y1198D01*
X870Y1200D01*
X876Y1200D01*
X876Y1202D01*
X430Y1202D01*
G37*
D02*
G36*
X2602Y1156D02*
X2602Y1154D01*
X2600Y1154D01*
X2600Y1150D01*
X2598Y1150D01*
X2598Y1148D01*
X2596Y1148D01*
X2596Y1146D01*
X2594Y1146D01*
X2594Y1144D01*
X2590Y1144D01*
X2590Y1142D01*
X2588Y1142D01*
X2588Y1140D01*
X2584Y1140D01*
X2584Y1138D01*
X2580Y1138D01*
X2580Y1136D01*
X2574Y1136D01*
X2574Y1134D01*
X2644Y1134D01*
X2644Y1138D01*
X2640Y1138D01*
X2640Y1140D01*
X2636Y1140D01*
X2636Y1142D01*
X2634Y1142D01*
X2634Y1144D01*
X2632Y1144D01*
X2632Y1146D01*
X2628Y1146D01*
X2628Y1148D01*
X2626Y1148D01*
X2626Y1152D01*
X2624Y1152D01*
X2624Y1154D01*
X2622Y1154D01*
X2622Y1156D01*
X2602Y1156D01*
G37*
D02*
G36*
X2802Y1156D02*
X2802Y1154D01*
X2800Y1154D01*
X2800Y1150D01*
X2798Y1150D01*
X2798Y1148D01*
X2796Y1148D01*
X2796Y1146D01*
X2794Y1146D01*
X2794Y1144D01*
X2790Y1144D01*
X2790Y1142D01*
X2788Y1142D01*
X2788Y1140D01*
X2784Y1140D01*
X2784Y1138D01*
X2780Y1138D01*
X2780Y1134D01*
X2852Y1134D01*
X2852Y1136D01*
X2844Y1136D01*
X2844Y1138D01*
X2840Y1138D01*
X2840Y1140D01*
X2836Y1140D01*
X2836Y1142D01*
X2834Y1142D01*
X2834Y1144D01*
X2832Y1144D01*
X2832Y1146D01*
X2828Y1146D01*
X2828Y1148D01*
X2826Y1148D01*
X2826Y1152D01*
X2824Y1152D01*
X2824Y1154D01*
X2822Y1154D01*
X2822Y1156D01*
X2802Y1156D01*
G37*
D02*
G36*
X2902Y1156D02*
X2902Y1154D01*
X2900Y1154D01*
X2900Y1150D01*
X2898Y1150D01*
X2898Y1148D01*
X2896Y1148D01*
X2896Y1146D01*
X2894Y1146D01*
X2894Y1144D01*
X2890Y1144D01*
X2890Y1142D01*
X2888Y1142D01*
X2888Y1140D01*
X2884Y1140D01*
X2884Y1138D01*
X2880Y1138D01*
X2880Y1136D01*
X2874Y1136D01*
X2874Y1134D01*
X2952Y1134D01*
X2952Y1136D01*
X2944Y1136D01*
X2944Y1138D01*
X2940Y1138D01*
X2940Y1140D01*
X2936Y1140D01*
X2936Y1142D01*
X2934Y1142D01*
X2934Y1144D01*
X2932Y1144D01*
X2932Y1146D01*
X2928Y1146D01*
X2928Y1148D01*
X2926Y1148D01*
X2926Y1152D01*
X2924Y1152D01*
X2924Y1154D01*
X2922Y1154D01*
X2922Y1156D01*
X2902Y1156D01*
G37*
D02*
G36*
X3002Y1156D02*
X3002Y1154D01*
X3000Y1154D01*
X3000Y1150D01*
X2998Y1150D01*
X2998Y1148D01*
X2996Y1148D01*
X2996Y1146D01*
X2994Y1146D01*
X2994Y1144D01*
X2990Y1144D01*
X2990Y1142D01*
X2988Y1142D01*
X2988Y1140D01*
X2984Y1140D01*
X2984Y1138D01*
X2980Y1138D01*
X2980Y1136D01*
X2974Y1136D01*
X2974Y1134D01*
X3044Y1134D01*
X3044Y1138D01*
X3040Y1138D01*
X3040Y1140D01*
X3036Y1140D01*
X3036Y1142D01*
X3034Y1142D01*
X3034Y1144D01*
X3032Y1144D01*
X3032Y1146D01*
X3028Y1146D01*
X3028Y1148D01*
X3026Y1148D01*
X3026Y1152D01*
X3024Y1152D01*
X3024Y1154D01*
X3022Y1154D01*
X3022Y1156D01*
X3002Y1156D01*
G37*
D02*
G36*
X3570Y1146D02*
X3570Y1048D01*
X3658Y1048D01*
X3658Y1146D01*
X3570Y1146D01*
G37*
D02*
G36*
X430Y1138D02*
X430Y840D01*
X432Y840D01*
X432Y838D01*
X434Y838D01*
X434Y836D01*
X436Y836D01*
X436Y834D01*
X438Y834D01*
X438Y832D01*
X440Y832D01*
X440Y830D01*
X442Y830D01*
X442Y828D01*
X444Y828D01*
X444Y826D01*
X446Y826D01*
X446Y824D01*
X448Y824D01*
X448Y822D01*
X450Y822D01*
X450Y820D01*
X452Y820D01*
X452Y818D01*
X454Y818D01*
X454Y816D01*
X456Y816D01*
X456Y814D01*
X458Y814D01*
X458Y812D01*
X460Y812D01*
X460Y810D01*
X462Y810D01*
X462Y808D01*
X464Y808D01*
X464Y806D01*
X466Y806D01*
X466Y804D01*
X468Y804D01*
X468Y802D01*
X470Y802D01*
X470Y800D01*
X472Y800D01*
X472Y798D01*
X474Y798D01*
X474Y796D01*
X476Y796D01*
X476Y794D01*
X478Y794D01*
X478Y792D01*
X480Y792D01*
X480Y790D01*
X482Y790D01*
X482Y788D01*
X484Y788D01*
X484Y786D01*
X486Y786D01*
X486Y784D01*
X488Y784D01*
X488Y782D01*
X490Y782D01*
X490Y780D01*
X492Y780D01*
X492Y778D01*
X494Y778D01*
X494Y776D01*
X496Y776D01*
X496Y774D01*
X498Y774D01*
X498Y772D01*
X500Y772D01*
X500Y770D01*
X502Y770D01*
X502Y768D01*
X504Y768D01*
X504Y766D01*
X506Y766D01*
X506Y764D01*
X508Y764D01*
X508Y762D01*
X510Y762D01*
X510Y760D01*
X512Y760D01*
X512Y758D01*
X514Y758D01*
X514Y756D01*
X516Y756D01*
X516Y754D01*
X518Y754D01*
X518Y752D01*
X520Y752D01*
X520Y750D01*
X522Y750D01*
X522Y748D01*
X524Y748D01*
X524Y746D01*
X526Y746D01*
X526Y744D01*
X528Y744D01*
X528Y742D01*
X530Y742D01*
X530Y740D01*
X532Y740D01*
X532Y738D01*
X534Y738D01*
X534Y736D01*
X536Y736D01*
X536Y734D01*
X538Y734D01*
X538Y732D01*
X540Y732D01*
X540Y730D01*
X542Y730D01*
X542Y728D01*
X544Y728D01*
X544Y726D01*
X546Y726D01*
X546Y724D01*
X548Y724D01*
X548Y722D01*
X550Y722D01*
X550Y720D01*
X552Y720D01*
X552Y718D01*
X554Y718D01*
X554Y716D01*
X556Y716D01*
X556Y714D01*
X558Y714D01*
X558Y712D01*
X560Y712D01*
X560Y710D01*
X562Y710D01*
X562Y708D01*
X564Y708D01*
X564Y706D01*
X566Y706D01*
X566Y704D01*
X568Y704D01*
X568Y702D01*
X570Y702D01*
X570Y700D01*
X572Y700D01*
X572Y698D01*
X574Y698D01*
X574Y696D01*
X576Y696D01*
X576Y694D01*
X578Y694D01*
X578Y692D01*
X580Y692D01*
X580Y690D01*
X582Y690D01*
X582Y688D01*
X584Y688D01*
X584Y686D01*
X586Y686D01*
X586Y684D01*
X588Y684D01*
X588Y682D01*
X590Y682D01*
X590Y680D01*
X592Y680D01*
X592Y678D01*
X594Y678D01*
X594Y676D01*
X596Y676D01*
X596Y674D01*
X598Y674D01*
X598Y672D01*
X600Y672D01*
X600Y670D01*
X602Y670D01*
X602Y668D01*
X604Y668D01*
X604Y666D01*
X606Y666D01*
X606Y664D01*
X608Y664D01*
X608Y662D01*
X610Y662D01*
X610Y660D01*
X612Y660D01*
X612Y658D01*
X614Y658D01*
X614Y656D01*
X616Y656D01*
X616Y654D01*
X618Y654D01*
X618Y652D01*
X620Y652D01*
X620Y650D01*
X622Y650D01*
X622Y648D01*
X624Y648D01*
X624Y646D01*
X626Y646D01*
X626Y644D01*
X628Y644D01*
X628Y642D01*
X630Y642D01*
X630Y640D01*
X632Y640D01*
X632Y638D01*
X634Y638D01*
X634Y636D01*
X636Y636D01*
X636Y634D01*
X638Y634D01*
X638Y632D01*
X640Y632D01*
X640Y630D01*
X642Y630D01*
X642Y628D01*
X644Y628D01*
X644Y626D01*
X646Y626D01*
X646Y624D01*
X648Y624D01*
X648Y622D01*
X650Y622D01*
X650Y620D01*
X652Y620D01*
X652Y618D01*
X654Y618D01*
X654Y616D01*
X656Y616D01*
X656Y614D01*
X658Y614D01*
X658Y612D01*
X660Y612D01*
X660Y610D01*
X662Y610D01*
X662Y608D01*
X664Y608D01*
X664Y606D01*
X666Y606D01*
X666Y604D01*
X668Y604D01*
X668Y602D01*
X670Y602D01*
X670Y600D01*
X672Y600D01*
X672Y598D01*
X674Y598D01*
X674Y596D01*
X676Y596D01*
X676Y594D01*
X678Y594D01*
X678Y592D01*
X680Y592D01*
X680Y590D01*
X682Y590D01*
X682Y588D01*
X684Y588D01*
X684Y586D01*
X686Y586D01*
X686Y584D01*
X688Y584D01*
X688Y582D01*
X690Y582D01*
X690Y580D01*
X692Y580D01*
X692Y578D01*
X694Y578D01*
X694Y576D01*
X696Y576D01*
X696Y574D01*
X698Y574D01*
X698Y572D01*
X700Y572D01*
X700Y570D01*
X702Y570D01*
X702Y568D01*
X704Y568D01*
X704Y566D01*
X706Y566D01*
X706Y564D01*
X708Y564D01*
X708Y562D01*
X710Y562D01*
X710Y560D01*
X712Y560D01*
X712Y558D01*
X714Y558D01*
X714Y556D01*
X716Y556D01*
X716Y554D01*
X718Y554D01*
X718Y552D01*
X720Y552D01*
X720Y550D01*
X722Y550D01*
X722Y548D01*
X724Y548D01*
X724Y546D01*
X726Y546D01*
X726Y544D01*
X728Y544D01*
X728Y542D01*
X730Y542D01*
X730Y540D01*
X732Y540D01*
X732Y538D01*
X734Y538D01*
X734Y536D01*
X736Y536D01*
X736Y534D01*
X738Y534D01*
X738Y532D01*
X740Y532D01*
X740Y530D01*
X742Y530D01*
X742Y528D01*
X744Y528D01*
X744Y526D01*
X746Y526D01*
X746Y524D01*
X748Y524D01*
X748Y522D01*
X750Y522D01*
X750Y520D01*
X752Y520D01*
X752Y518D01*
X754Y518D01*
X754Y516D01*
X756Y516D01*
X756Y514D01*
X758Y514D01*
X758Y512D01*
X760Y512D01*
X760Y510D01*
X762Y510D01*
X762Y508D01*
X764Y508D01*
X764Y506D01*
X766Y506D01*
X766Y504D01*
X768Y504D01*
X768Y502D01*
X770Y502D01*
X770Y500D01*
X772Y500D01*
X772Y498D01*
X774Y498D01*
X774Y496D01*
X776Y496D01*
X776Y494D01*
X778Y494D01*
X778Y492D01*
X780Y492D01*
X780Y490D01*
X782Y490D01*
X782Y488D01*
X784Y488D01*
X784Y486D01*
X786Y486D01*
X786Y484D01*
X788Y484D01*
X788Y482D01*
X790Y482D01*
X790Y480D01*
X792Y480D01*
X792Y478D01*
X794Y478D01*
X794Y476D01*
X796Y476D01*
X796Y474D01*
X798Y474D01*
X798Y472D01*
X800Y472D01*
X800Y470D01*
X802Y470D01*
X802Y468D01*
X804Y468D01*
X804Y466D01*
X806Y466D01*
X806Y464D01*
X808Y464D01*
X808Y462D01*
X810Y462D01*
X810Y460D01*
X812Y460D01*
X812Y458D01*
X814Y458D01*
X814Y456D01*
X816Y456D01*
X816Y454D01*
X818Y454D01*
X818Y452D01*
X820Y452D01*
X820Y450D01*
X822Y450D01*
X822Y448D01*
X824Y448D01*
X824Y446D01*
X844Y446D01*
X844Y450D01*
X842Y450D01*
X842Y466D01*
X844Y466D01*
X844Y472D01*
X846Y472D01*
X846Y478D01*
X848Y478D01*
X848Y482D01*
X850Y482D01*
X850Y484D01*
X852Y484D01*
X852Y486D01*
X854Y486D01*
X854Y488D01*
X856Y488D01*
X856Y490D01*
X858Y490D01*
X858Y492D01*
X860Y492D01*
X860Y494D01*
X862Y494D01*
X862Y496D01*
X866Y496D01*
X866Y498D01*
X868Y498D01*
X868Y518D01*
X864Y518D01*
X864Y520D01*
X862Y520D01*
X862Y522D01*
X858Y522D01*
X858Y524D01*
X856Y524D01*
X856Y526D01*
X854Y526D01*
X854Y528D01*
X852Y528D01*
X852Y532D01*
X850Y532D01*
X850Y534D01*
X848Y534D01*
X848Y538D01*
X846Y538D01*
X846Y542D01*
X844Y542D01*
X844Y550D01*
X842Y550D01*
X842Y566D01*
X844Y566D01*
X844Y572D01*
X846Y572D01*
X846Y578D01*
X848Y578D01*
X848Y582D01*
X850Y582D01*
X850Y584D01*
X852Y584D01*
X852Y586D01*
X854Y586D01*
X854Y588D01*
X856Y588D01*
X856Y590D01*
X858Y590D01*
X858Y592D01*
X860Y592D01*
X860Y594D01*
X862Y594D01*
X862Y596D01*
X866Y596D01*
X866Y598D01*
X868Y598D01*
X868Y618D01*
X864Y618D01*
X864Y620D01*
X862Y620D01*
X862Y622D01*
X858Y622D01*
X858Y624D01*
X856Y624D01*
X856Y626D01*
X854Y626D01*
X854Y628D01*
X852Y628D01*
X852Y632D01*
X850Y632D01*
X850Y634D01*
X848Y634D01*
X848Y638D01*
X846Y638D01*
X846Y642D01*
X844Y642D01*
X844Y650D01*
X842Y650D01*
X842Y666D01*
X844Y666D01*
X844Y672D01*
X846Y672D01*
X846Y678D01*
X848Y678D01*
X848Y682D01*
X850Y682D01*
X850Y684D01*
X852Y684D01*
X852Y686D01*
X854Y686D01*
X854Y688D01*
X856Y688D01*
X856Y690D01*
X858Y690D01*
X858Y692D01*
X860Y692D01*
X860Y694D01*
X862Y694D01*
X862Y696D01*
X866Y696D01*
X866Y698D01*
X868Y698D01*
X868Y718D01*
X864Y718D01*
X864Y720D01*
X862Y720D01*
X862Y722D01*
X858Y722D01*
X858Y724D01*
X856Y724D01*
X856Y726D01*
X854Y726D01*
X854Y728D01*
X852Y728D01*
X852Y732D01*
X850Y732D01*
X850Y734D01*
X848Y734D01*
X848Y738D01*
X846Y738D01*
X846Y742D01*
X844Y742D01*
X844Y750D01*
X842Y750D01*
X842Y780D01*
X840Y780D01*
X840Y782D01*
X838Y782D01*
X838Y786D01*
X836Y786D01*
X836Y788D01*
X834Y788D01*
X834Y790D01*
X832Y790D01*
X832Y792D01*
X830Y792D01*
X830Y794D01*
X828Y794D01*
X828Y796D01*
X826Y796D01*
X826Y798D01*
X824Y798D01*
X824Y800D01*
X822Y800D01*
X822Y802D01*
X820Y802D01*
X820Y804D01*
X818Y804D01*
X818Y806D01*
X816Y806D01*
X816Y808D01*
X814Y808D01*
X814Y810D01*
X812Y810D01*
X812Y814D01*
X810Y814D01*
X810Y816D01*
X808Y816D01*
X808Y818D01*
X806Y818D01*
X806Y820D01*
X804Y820D01*
X804Y822D01*
X802Y822D01*
X802Y824D01*
X800Y824D01*
X800Y826D01*
X798Y826D01*
X798Y828D01*
X796Y828D01*
X796Y830D01*
X794Y830D01*
X794Y832D01*
X792Y832D01*
X792Y834D01*
X790Y834D01*
X790Y836D01*
X788Y836D01*
X788Y838D01*
X786Y838D01*
X786Y842D01*
X784Y842D01*
X784Y844D01*
X782Y844D01*
X782Y846D01*
X780Y846D01*
X780Y848D01*
X778Y848D01*
X778Y850D01*
X776Y850D01*
X776Y852D01*
X774Y852D01*
X774Y854D01*
X772Y854D01*
X772Y856D01*
X770Y856D01*
X770Y858D01*
X768Y858D01*
X768Y860D01*
X766Y860D01*
X766Y862D01*
X764Y862D01*
X764Y864D01*
X762Y864D01*
X762Y866D01*
X760Y866D01*
X760Y870D01*
X758Y870D01*
X758Y872D01*
X756Y872D01*
X756Y874D01*
X754Y874D01*
X754Y876D01*
X752Y876D01*
X752Y878D01*
X750Y878D01*
X750Y880D01*
X748Y880D01*
X748Y882D01*
X746Y882D01*
X746Y884D01*
X744Y884D01*
X744Y886D01*
X742Y886D01*
X742Y888D01*
X740Y888D01*
X740Y890D01*
X738Y890D01*
X738Y892D01*
X736Y892D01*
X736Y894D01*
X734Y894D01*
X734Y898D01*
X732Y898D01*
X732Y900D01*
X730Y900D01*
X730Y902D01*
X728Y902D01*
X728Y904D01*
X726Y904D01*
X726Y906D01*
X724Y906D01*
X724Y908D01*
X722Y908D01*
X722Y910D01*
X720Y910D01*
X720Y912D01*
X718Y912D01*
X718Y914D01*
X716Y914D01*
X716Y916D01*
X714Y916D01*
X714Y918D01*
X712Y918D01*
X712Y920D01*
X710Y920D01*
X710Y922D01*
X708Y922D01*
X708Y926D01*
X706Y926D01*
X706Y928D01*
X704Y928D01*
X704Y930D01*
X702Y930D01*
X702Y932D01*
X700Y932D01*
X700Y934D01*
X698Y934D01*
X698Y936D01*
X696Y936D01*
X696Y938D01*
X694Y938D01*
X694Y940D01*
X692Y940D01*
X692Y942D01*
X690Y942D01*
X690Y944D01*
X688Y944D01*
X688Y946D01*
X686Y946D01*
X686Y948D01*
X684Y948D01*
X684Y950D01*
X682Y950D01*
X682Y954D01*
X680Y954D01*
X680Y956D01*
X678Y956D01*
X678Y958D01*
X676Y958D01*
X676Y960D01*
X674Y960D01*
X674Y962D01*
X672Y962D01*
X672Y964D01*
X670Y964D01*
X670Y966D01*
X668Y966D01*
X668Y968D01*
X666Y968D01*
X666Y970D01*
X664Y970D01*
X664Y972D01*
X662Y972D01*
X662Y974D01*
X660Y974D01*
X660Y976D01*
X658Y976D01*
X658Y978D01*
X656Y978D01*
X656Y982D01*
X654Y982D01*
X654Y984D01*
X652Y984D01*
X652Y986D01*
X650Y986D01*
X650Y988D01*
X648Y988D01*
X648Y990D01*
X646Y990D01*
X646Y992D01*
X644Y992D01*
X644Y994D01*
X642Y994D01*
X642Y996D01*
X640Y996D01*
X640Y998D01*
X638Y998D01*
X638Y1000D01*
X636Y1000D01*
X636Y1002D01*
X634Y1002D01*
X634Y1004D01*
X632Y1004D01*
X632Y1006D01*
X630Y1006D01*
X630Y1010D01*
X628Y1010D01*
X628Y1012D01*
X626Y1012D01*
X626Y1014D01*
X624Y1014D01*
X624Y1016D01*
X622Y1016D01*
X622Y1018D01*
X620Y1018D01*
X620Y1020D01*
X618Y1020D01*
X618Y1022D01*
X616Y1022D01*
X616Y1024D01*
X614Y1024D01*
X614Y1026D01*
X612Y1026D01*
X612Y1028D01*
X610Y1028D01*
X610Y1030D01*
X608Y1030D01*
X608Y1032D01*
X606Y1032D01*
X606Y1034D01*
X604Y1034D01*
X604Y1038D01*
X602Y1038D01*
X602Y1040D01*
X600Y1040D01*
X600Y1042D01*
X598Y1042D01*
X598Y1044D01*
X596Y1044D01*
X596Y1046D01*
X594Y1046D01*
X594Y1048D01*
X592Y1048D01*
X592Y1050D01*
X590Y1050D01*
X590Y1052D01*
X588Y1052D01*
X588Y1054D01*
X586Y1054D01*
X586Y1056D01*
X584Y1056D01*
X584Y1058D01*
X582Y1058D01*
X582Y1060D01*
X580Y1060D01*
X580Y1062D01*
X578Y1062D01*
X578Y1066D01*
X576Y1066D01*
X576Y1068D01*
X574Y1068D01*
X574Y1070D01*
X572Y1070D01*
X572Y1072D01*
X570Y1072D01*
X570Y1074D01*
X568Y1074D01*
X568Y1076D01*
X566Y1076D01*
X566Y1078D01*
X554Y1078D01*
X554Y1080D01*
X550Y1080D01*
X550Y1082D01*
X546Y1082D01*
X546Y1084D01*
X544Y1084D01*
X544Y1086D01*
X540Y1086D01*
X540Y1090D01*
X538Y1090D01*
X538Y1092D01*
X536Y1092D01*
X536Y1096D01*
X534Y1096D01*
X534Y1104D01*
X532Y1104D01*
X532Y1112D01*
X534Y1112D01*
X534Y1120D01*
X536Y1120D01*
X536Y1124D01*
X538Y1124D01*
X538Y1126D01*
X540Y1126D01*
X540Y1128D01*
X542Y1128D01*
X542Y1130D01*
X544Y1130D01*
X544Y1132D01*
X548Y1132D01*
X548Y1134D01*
X550Y1134D01*
X550Y1136D01*
X560Y1136D01*
X560Y1138D01*
X430Y1138D01*
G37*
D02*
G36*
X1730Y1134D02*
X1730Y1132D01*
X2644Y1132D01*
X2644Y1134D01*
X1730Y1134D01*
G37*
D02*
G36*
X1730Y1134D02*
X1730Y1132D01*
X2644Y1132D01*
X2644Y1134D01*
X1730Y1134D01*
G37*
D02*
G36*
X2780Y1134D02*
X2780Y1132D01*
X3044Y1132D01*
X3044Y1134D01*
X2780Y1134D01*
G37*
D02*
G36*
X2780Y1134D02*
X2780Y1132D01*
X3044Y1132D01*
X3044Y1134D01*
X2780Y1134D01*
G37*
D02*
G36*
X2780Y1134D02*
X2780Y1132D01*
X3044Y1132D01*
X3044Y1134D01*
X2780Y1134D01*
G37*
D02*
G36*
X1730Y1132D02*
X1730Y1012D01*
X2446Y1012D01*
X2446Y1010D01*
X2450Y1010D01*
X2450Y1008D01*
X2454Y1008D01*
X2454Y1006D01*
X2456Y1006D01*
X2456Y1004D01*
X2458Y1004D01*
X2458Y1002D01*
X2460Y1002D01*
X2460Y1000D01*
X2462Y1000D01*
X2462Y996D01*
X2464Y996D01*
X2464Y992D01*
X2466Y992D01*
X2466Y972D01*
X2464Y972D01*
X2464Y968D01*
X2462Y968D01*
X2462Y966D01*
X2460Y966D01*
X2460Y962D01*
X2458Y962D01*
X2458Y960D01*
X2456Y960D01*
X2456Y854D01*
X2458Y854D01*
X2458Y852D01*
X2460Y852D01*
X2460Y850D01*
X2462Y850D01*
X2462Y846D01*
X2464Y846D01*
X2464Y842D01*
X2466Y842D01*
X2466Y822D01*
X2464Y822D01*
X2464Y818D01*
X2462Y818D01*
X2462Y816D01*
X2460Y816D01*
X2460Y812D01*
X2458Y812D01*
X2458Y810D01*
X2454Y810D01*
X2454Y808D01*
X2452Y808D01*
X2452Y806D01*
X2448Y806D01*
X2448Y804D01*
X2438Y804D01*
X2438Y802D01*
X2892Y802D01*
X2892Y814D01*
X2890Y814D01*
X2890Y836D01*
X2888Y836D01*
X2888Y838D01*
X2886Y838D01*
X2886Y840D01*
X2884Y840D01*
X2884Y842D01*
X2880Y842D01*
X2880Y844D01*
X2878Y844D01*
X2878Y846D01*
X2876Y846D01*
X2876Y848D01*
X2874Y848D01*
X2874Y850D01*
X2872Y850D01*
X2872Y852D01*
X2868Y852D01*
X2868Y854D01*
X2866Y854D01*
X2866Y856D01*
X2864Y856D01*
X2864Y858D01*
X2862Y858D01*
X2862Y860D01*
X2858Y860D01*
X2858Y862D01*
X2856Y862D01*
X2856Y864D01*
X2854Y864D01*
X2854Y866D01*
X2852Y866D01*
X2852Y868D01*
X2848Y868D01*
X2848Y870D01*
X2846Y870D01*
X2846Y872D01*
X2844Y872D01*
X2844Y874D01*
X2842Y874D01*
X2842Y876D01*
X2838Y876D01*
X2838Y878D01*
X2836Y878D01*
X2836Y880D01*
X2834Y880D01*
X2834Y882D01*
X2832Y882D01*
X2832Y884D01*
X2830Y884D01*
X2830Y886D01*
X2826Y886D01*
X2826Y888D01*
X2824Y888D01*
X2824Y890D01*
X2822Y890D01*
X2822Y892D01*
X2820Y892D01*
X2820Y894D01*
X2816Y894D01*
X2816Y896D01*
X2814Y896D01*
X2814Y898D01*
X2812Y898D01*
X2812Y900D01*
X2810Y900D01*
X2810Y902D01*
X2806Y902D01*
X2806Y904D01*
X2804Y904D01*
X2804Y906D01*
X2802Y906D01*
X2802Y908D01*
X2800Y908D01*
X2800Y910D01*
X2796Y910D01*
X2796Y912D01*
X2794Y912D01*
X2794Y914D01*
X2792Y914D01*
X2792Y916D01*
X2790Y916D01*
X2790Y918D01*
X2788Y918D01*
X2788Y920D01*
X2784Y920D01*
X2784Y922D01*
X2782Y922D01*
X2782Y924D01*
X2780Y924D01*
X2780Y926D01*
X2778Y926D01*
X2778Y928D01*
X2774Y928D01*
X2774Y930D01*
X2772Y930D01*
X2772Y932D01*
X2770Y932D01*
X2770Y934D01*
X2768Y934D01*
X2768Y936D01*
X2764Y936D01*
X2764Y938D01*
X2762Y938D01*
X2762Y940D01*
X2760Y940D01*
X2760Y942D01*
X2758Y942D01*
X2758Y944D01*
X2754Y944D01*
X2754Y946D01*
X2752Y946D01*
X2752Y948D01*
X2750Y948D01*
X2750Y950D01*
X2748Y950D01*
X2748Y952D01*
X2746Y952D01*
X2746Y954D01*
X2742Y954D01*
X2742Y956D01*
X2740Y956D01*
X2740Y958D01*
X2738Y958D01*
X2738Y960D01*
X2736Y960D01*
X2736Y962D01*
X2732Y962D01*
X2732Y964D01*
X2730Y964D01*
X2730Y966D01*
X2728Y966D01*
X2728Y968D01*
X2726Y968D01*
X2726Y970D01*
X2722Y970D01*
X2722Y972D01*
X2720Y972D01*
X2720Y974D01*
X2718Y974D01*
X2718Y976D01*
X2716Y976D01*
X2716Y978D01*
X2712Y978D01*
X2712Y980D01*
X2710Y980D01*
X2710Y982D01*
X2708Y982D01*
X2708Y984D01*
X2706Y984D01*
X2706Y986D01*
X2704Y986D01*
X2704Y988D01*
X2700Y988D01*
X2700Y990D01*
X2698Y990D01*
X2698Y992D01*
X2696Y992D01*
X2696Y994D01*
X2694Y994D01*
X2694Y996D01*
X2690Y996D01*
X2690Y998D01*
X2688Y998D01*
X2688Y1000D01*
X2686Y1000D01*
X2686Y1002D01*
X2684Y1002D01*
X2684Y1004D01*
X2680Y1004D01*
X2680Y1006D01*
X2678Y1006D01*
X2678Y1008D01*
X2676Y1008D01*
X2676Y1010D01*
X2674Y1010D01*
X2674Y1012D01*
X2670Y1012D01*
X2670Y1014D01*
X2668Y1014D01*
X2668Y1016D01*
X2666Y1016D01*
X2666Y1018D01*
X2664Y1018D01*
X2664Y1020D01*
X2662Y1020D01*
X2662Y1022D01*
X2658Y1022D01*
X2658Y1024D01*
X2656Y1024D01*
X2656Y1026D01*
X2654Y1026D01*
X2654Y1028D01*
X2652Y1028D01*
X2652Y1030D01*
X2648Y1030D01*
X2648Y1034D01*
X2646Y1034D01*
X2646Y1036D01*
X2644Y1036D01*
X2644Y1132D01*
X1730Y1132D01*
G37*
D02*
G36*
X2780Y1132D02*
X2780Y1066D01*
X2782Y1066D01*
X2782Y1064D01*
X2784Y1064D01*
X2784Y1062D01*
X2786Y1062D01*
X2786Y1060D01*
X2790Y1060D01*
X2790Y1058D01*
X2792Y1058D01*
X2792Y1056D01*
X2794Y1056D01*
X2794Y1054D01*
X2796Y1054D01*
X2796Y1052D01*
X2798Y1052D01*
X2798Y1050D01*
X2802Y1050D01*
X2802Y1048D01*
X2804Y1048D01*
X2804Y1046D01*
X2806Y1046D01*
X2806Y1044D01*
X2808Y1044D01*
X2808Y1042D01*
X2812Y1042D01*
X2812Y1040D01*
X2814Y1040D01*
X2814Y1038D01*
X2816Y1038D01*
X2816Y1036D01*
X2818Y1036D01*
X2818Y1034D01*
X2820Y1034D01*
X2820Y1032D01*
X2824Y1032D01*
X2824Y1030D01*
X2826Y1030D01*
X2826Y1028D01*
X2828Y1028D01*
X2828Y1026D01*
X2830Y1026D01*
X2830Y1024D01*
X3032Y1024D01*
X3032Y1022D01*
X3036Y1022D01*
X3036Y1020D01*
X3038Y1020D01*
X3038Y1018D01*
X3040Y1018D01*
X3040Y1016D01*
X3042Y1016D01*
X3042Y1010D01*
X3044Y1010D01*
X3044Y958D01*
X3116Y958D01*
X3116Y956D01*
X3122Y956D01*
X3122Y954D01*
X3126Y954D01*
X3126Y952D01*
X3130Y952D01*
X3130Y950D01*
X3132Y950D01*
X3132Y948D01*
X3134Y948D01*
X3134Y946D01*
X3138Y946D01*
X3138Y944D01*
X3140Y944D01*
X3140Y940D01*
X3142Y940D01*
X3142Y938D01*
X3144Y938D01*
X3144Y936D01*
X3146Y936D01*
X3146Y932D01*
X3148Y932D01*
X3148Y928D01*
X3150Y928D01*
X3150Y924D01*
X3152Y924D01*
X3152Y914D01*
X3154Y914D01*
X3154Y902D01*
X3152Y902D01*
X3152Y892D01*
X3150Y892D01*
X3150Y886D01*
X3148Y886D01*
X3148Y884D01*
X3146Y884D01*
X3146Y880D01*
X3144Y880D01*
X3144Y876D01*
X3142Y876D01*
X3142Y874D01*
X3140Y874D01*
X3140Y872D01*
X3138Y872D01*
X3138Y852D01*
X3140Y852D01*
X3140Y850D01*
X3142Y850D01*
X3142Y848D01*
X3144Y848D01*
X3144Y844D01*
X3146Y844D01*
X3146Y842D01*
X3148Y842D01*
X3148Y838D01*
X3150Y838D01*
X3150Y832D01*
X3152Y832D01*
X3152Y822D01*
X3154Y822D01*
X3154Y810D01*
X3152Y810D01*
X3152Y800D01*
X3150Y800D01*
X3150Y796D01*
X3148Y796D01*
X3148Y792D01*
X3146Y792D01*
X3146Y788D01*
X3144Y788D01*
X3144Y786D01*
X3142Y786D01*
X3142Y784D01*
X3140Y784D01*
X3140Y780D01*
X3136Y780D01*
X3136Y778D01*
X3134Y778D01*
X3134Y776D01*
X3132Y776D01*
X3132Y774D01*
X3128Y774D01*
X3128Y772D01*
X3126Y772D01*
X3126Y770D01*
X3122Y770D01*
X3122Y768D01*
X3114Y768D01*
X3114Y766D01*
X3250Y766D01*
X3250Y768D01*
X3242Y768D01*
X3242Y770D01*
X3240Y770D01*
X3240Y772D01*
X3236Y772D01*
X3236Y774D01*
X3232Y774D01*
X3232Y776D01*
X3230Y776D01*
X3230Y778D01*
X3228Y778D01*
X3228Y780D01*
X3226Y780D01*
X3226Y782D01*
X3224Y782D01*
X3224Y784D01*
X3222Y784D01*
X3222Y786D01*
X3220Y786D01*
X3220Y790D01*
X3218Y790D01*
X3218Y792D01*
X3216Y792D01*
X3216Y796D01*
X3214Y796D01*
X3214Y802D01*
X3212Y802D01*
X3212Y814D01*
X3210Y814D01*
X3210Y820D01*
X3212Y820D01*
X3212Y832D01*
X3214Y832D01*
X3214Y836D01*
X3216Y836D01*
X3216Y840D01*
X3218Y840D01*
X3218Y844D01*
X3220Y844D01*
X3220Y846D01*
X3222Y846D01*
X3222Y850D01*
X3224Y850D01*
X3224Y852D01*
X3226Y852D01*
X3226Y872D01*
X3224Y872D01*
X3224Y874D01*
X3222Y874D01*
X3222Y878D01*
X3220Y878D01*
X3220Y880D01*
X3218Y880D01*
X3218Y884D01*
X3216Y884D01*
X3216Y888D01*
X3214Y888D01*
X3214Y894D01*
X3212Y894D01*
X3212Y904D01*
X3210Y904D01*
X3210Y910D01*
X3212Y910D01*
X3212Y922D01*
X3214Y922D01*
X3214Y928D01*
X3216Y928D01*
X3216Y932D01*
X3218Y932D01*
X3218Y936D01*
X3220Y936D01*
X3220Y938D01*
X3222Y938D01*
X3222Y940D01*
X3224Y940D01*
X3224Y942D01*
X3226Y942D01*
X3226Y944D01*
X3228Y944D01*
X3228Y946D01*
X3230Y946D01*
X3230Y948D01*
X3232Y948D01*
X3232Y950D01*
X3236Y950D01*
X3236Y952D01*
X3238Y952D01*
X3238Y954D01*
X3242Y954D01*
X3242Y956D01*
X3244Y956D01*
X3244Y986D01*
X3240Y986D01*
X3240Y988D01*
X3236Y988D01*
X3236Y990D01*
X3232Y990D01*
X3232Y992D01*
X3230Y992D01*
X3230Y994D01*
X3226Y994D01*
X3226Y996D01*
X3222Y996D01*
X3222Y998D01*
X3218Y998D01*
X3218Y1000D01*
X3214Y1000D01*
X3214Y1002D01*
X3212Y1002D01*
X3212Y1004D01*
X3208Y1004D01*
X3208Y1006D01*
X3204Y1006D01*
X3204Y1008D01*
X3200Y1008D01*
X3200Y1010D01*
X3198Y1010D01*
X3198Y1012D01*
X3194Y1012D01*
X3194Y1014D01*
X3190Y1014D01*
X3190Y1016D01*
X3186Y1016D01*
X3186Y1018D01*
X3182Y1018D01*
X3182Y1020D01*
X3180Y1020D01*
X3180Y1022D01*
X3176Y1022D01*
X3176Y1024D01*
X3172Y1024D01*
X3172Y1026D01*
X3168Y1026D01*
X3168Y1028D01*
X3166Y1028D01*
X3166Y1030D01*
X3162Y1030D01*
X3162Y1032D01*
X3158Y1032D01*
X3158Y1034D01*
X3154Y1034D01*
X3154Y1036D01*
X3150Y1036D01*
X3150Y1038D01*
X3148Y1038D01*
X3148Y1040D01*
X3144Y1040D01*
X3144Y1042D01*
X3140Y1042D01*
X3140Y1044D01*
X3136Y1044D01*
X3136Y1046D01*
X3134Y1046D01*
X3134Y1048D01*
X3130Y1048D01*
X3130Y1050D01*
X3126Y1050D01*
X3126Y1052D01*
X3122Y1052D01*
X3122Y1054D01*
X3118Y1054D01*
X3118Y1056D01*
X3116Y1056D01*
X3116Y1058D01*
X3112Y1058D01*
X3112Y1060D01*
X3108Y1060D01*
X3108Y1062D01*
X3104Y1062D01*
X3104Y1064D01*
X3102Y1064D01*
X3102Y1066D01*
X3098Y1066D01*
X3098Y1068D01*
X3094Y1068D01*
X3094Y1070D01*
X3090Y1070D01*
X3090Y1072D01*
X3086Y1072D01*
X3086Y1074D01*
X3084Y1074D01*
X3084Y1076D01*
X3080Y1076D01*
X3080Y1078D01*
X3076Y1078D01*
X3076Y1080D01*
X3072Y1080D01*
X3072Y1082D01*
X3070Y1082D01*
X3070Y1084D01*
X3066Y1084D01*
X3066Y1086D01*
X3062Y1086D01*
X3062Y1088D01*
X3058Y1088D01*
X3058Y1090D01*
X3054Y1090D01*
X3054Y1092D01*
X3052Y1092D01*
X3052Y1094D01*
X3050Y1094D01*
X3050Y1096D01*
X3048Y1096D01*
X3048Y1098D01*
X3046Y1098D01*
X3046Y1102D01*
X3044Y1102D01*
X3044Y1132D01*
X2780Y1132D01*
G37*
D02*
G36*
X40Y1078D02*
X40Y1076D01*
X394Y1076D01*
X394Y1078D01*
X40Y1078D01*
G37*
D02*
G36*
X40Y1078D02*
X40Y1076D01*
X394Y1076D01*
X394Y1078D01*
X40Y1078D01*
G37*
D02*
G36*
X40Y1076D02*
X40Y436D01*
X204Y436D01*
X204Y434D01*
X212Y434D01*
X212Y432D01*
X216Y432D01*
X216Y430D01*
X222Y430D01*
X222Y428D01*
X226Y428D01*
X226Y426D01*
X228Y426D01*
X228Y424D01*
X232Y424D01*
X232Y422D01*
X234Y422D01*
X234Y420D01*
X238Y420D01*
X238Y418D01*
X240Y418D01*
X240Y416D01*
X242Y416D01*
X242Y414D01*
X244Y414D01*
X244Y412D01*
X246Y412D01*
X246Y410D01*
X248Y410D01*
X248Y406D01*
X250Y406D01*
X250Y404D01*
X252Y404D01*
X252Y402D01*
X254Y402D01*
X254Y398D01*
X256Y398D01*
X256Y394D01*
X258Y394D01*
X258Y390D01*
X260Y390D01*
X260Y386D01*
X262Y386D01*
X262Y380D01*
X264Y380D01*
X264Y372D01*
X266Y372D01*
X266Y344D01*
X264Y344D01*
X264Y334D01*
X262Y334D01*
X262Y330D01*
X260Y330D01*
X260Y324D01*
X258Y324D01*
X258Y320D01*
X256Y320D01*
X256Y316D01*
X254Y316D01*
X254Y314D01*
X252Y314D01*
X252Y312D01*
X882Y312D01*
X882Y314D01*
X874Y314D01*
X874Y316D01*
X868Y316D01*
X868Y318D01*
X864Y318D01*
X864Y320D01*
X862Y320D01*
X862Y322D01*
X858Y322D01*
X858Y324D01*
X856Y324D01*
X856Y326D01*
X854Y326D01*
X854Y328D01*
X852Y328D01*
X852Y332D01*
X850Y332D01*
X850Y334D01*
X848Y334D01*
X848Y338D01*
X846Y338D01*
X846Y342D01*
X844Y342D01*
X844Y350D01*
X842Y350D01*
X842Y378D01*
X840Y378D01*
X840Y380D01*
X838Y380D01*
X838Y382D01*
X836Y382D01*
X836Y384D01*
X834Y384D01*
X834Y386D01*
X832Y386D01*
X832Y388D01*
X830Y388D01*
X830Y390D01*
X828Y390D01*
X828Y392D01*
X826Y392D01*
X826Y394D01*
X824Y394D01*
X824Y396D01*
X822Y396D01*
X822Y398D01*
X820Y398D01*
X820Y400D01*
X818Y400D01*
X818Y402D01*
X816Y402D01*
X816Y404D01*
X814Y404D01*
X814Y406D01*
X812Y406D01*
X812Y408D01*
X810Y408D01*
X810Y410D01*
X808Y410D01*
X808Y412D01*
X806Y412D01*
X806Y414D01*
X804Y414D01*
X804Y416D01*
X802Y416D01*
X802Y418D01*
X800Y418D01*
X800Y420D01*
X798Y420D01*
X798Y422D01*
X796Y422D01*
X796Y424D01*
X794Y424D01*
X794Y426D01*
X792Y426D01*
X792Y428D01*
X790Y428D01*
X790Y430D01*
X788Y430D01*
X788Y432D01*
X786Y432D01*
X786Y434D01*
X784Y434D01*
X784Y436D01*
X782Y436D01*
X782Y438D01*
X780Y438D01*
X780Y440D01*
X778Y440D01*
X778Y442D01*
X776Y442D01*
X776Y444D01*
X774Y444D01*
X774Y446D01*
X772Y446D01*
X772Y448D01*
X770Y448D01*
X770Y450D01*
X768Y450D01*
X768Y452D01*
X766Y452D01*
X766Y454D01*
X764Y454D01*
X764Y456D01*
X762Y456D01*
X762Y458D01*
X760Y458D01*
X760Y460D01*
X758Y460D01*
X758Y462D01*
X756Y462D01*
X756Y464D01*
X754Y464D01*
X754Y466D01*
X752Y466D01*
X752Y468D01*
X750Y468D01*
X750Y470D01*
X748Y470D01*
X748Y472D01*
X746Y472D01*
X746Y474D01*
X744Y474D01*
X744Y476D01*
X742Y476D01*
X742Y478D01*
X740Y478D01*
X740Y480D01*
X738Y480D01*
X738Y482D01*
X736Y482D01*
X736Y484D01*
X734Y484D01*
X734Y486D01*
X732Y486D01*
X732Y488D01*
X730Y488D01*
X730Y490D01*
X728Y490D01*
X728Y492D01*
X726Y492D01*
X726Y494D01*
X724Y494D01*
X724Y496D01*
X722Y496D01*
X722Y498D01*
X720Y498D01*
X720Y500D01*
X718Y500D01*
X718Y502D01*
X716Y502D01*
X716Y504D01*
X714Y504D01*
X714Y506D01*
X712Y506D01*
X712Y508D01*
X710Y508D01*
X710Y510D01*
X708Y510D01*
X708Y512D01*
X706Y512D01*
X706Y514D01*
X704Y514D01*
X704Y516D01*
X702Y516D01*
X702Y518D01*
X700Y518D01*
X700Y520D01*
X698Y520D01*
X698Y522D01*
X696Y522D01*
X696Y524D01*
X694Y524D01*
X694Y526D01*
X692Y526D01*
X692Y528D01*
X690Y528D01*
X690Y530D01*
X688Y530D01*
X688Y532D01*
X686Y532D01*
X686Y534D01*
X684Y534D01*
X684Y536D01*
X682Y536D01*
X682Y538D01*
X680Y538D01*
X680Y540D01*
X678Y540D01*
X678Y542D01*
X676Y542D01*
X676Y544D01*
X674Y544D01*
X674Y546D01*
X672Y546D01*
X672Y548D01*
X670Y548D01*
X670Y550D01*
X668Y550D01*
X668Y552D01*
X666Y552D01*
X666Y554D01*
X664Y554D01*
X664Y556D01*
X662Y556D01*
X662Y558D01*
X660Y558D01*
X660Y560D01*
X658Y560D01*
X658Y562D01*
X656Y562D01*
X656Y564D01*
X654Y564D01*
X654Y566D01*
X652Y566D01*
X652Y568D01*
X650Y568D01*
X650Y570D01*
X648Y570D01*
X648Y572D01*
X646Y572D01*
X646Y574D01*
X644Y574D01*
X644Y576D01*
X642Y576D01*
X642Y578D01*
X640Y578D01*
X640Y580D01*
X638Y580D01*
X638Y582D01*
X636Y582D01*
X636Y584D01*
X634Y584D01*
X634Y586D01*
X632Y586D01*
X632Y588D01*
X630Y588D01*
X630Y590D01*
X628Y590D01*
X628Y592D01*
X626Y592D01*
X626Y594D01*
X624Y594D01*
X624Y596D01*
X622Y596D01*
X622Y598D01*
X620Y598D01*
X620Y600D01*
X618Y600D01*
X618Y602D01*
X616Y602D01*
X616Y604D01*
X614Y604D01*
X614Y606D01*
X612Y606D01*
X612Y608D01*
X610Y608D01*
X610Y610D01*
X608Y610D01*
X608Y612D01*
X606Y612D01*
X606Y614D01*
X604Y614D01*
X604Y616D01*
X602Y616D01*
X602Y618D01*
X600Y618D01*
X600Y620D01*
X598Y620D01*
X598Y622D01*
X596Y622D01*
X596Y624D01*
X594Y624D01*
X594Y626D01*
X592Y626D01*
X592Y628D01*
X590Y628D01*
X590Y630D01*
X588Y630D01*
X588Y632D01*
X586Y632D01*
X586Y634D01*
X584Y634D01*
X584Y636D01*
X582Y636D01*
X582Y638D01*
X580Y638D01*
X580Y640D01*
X578Y640D01*
X578Y642D01*
X576Y642D01*
X576Y644D01*
X574Y644D01*
X574Y646D01*
X572Y646D01*
X572Y648D01*
X570Y648D01*
X570Y650D01*
X568Y650D01*
X568Y652D01*
X566Y652D01*
X566Y654D01*
X564Y654D01*
X564Y656D01*
X562Y656D01*
X562Y658D01*
X560Y658D01*
X560Y660D01*
X558Y660D01*
X558Y662D01*
X556Y662D01*
X556Y664D01*
X554Y664D01*
X554Y666D01*
X552Y666D01*
X552Y668D01*
X550Y668D01*
X550Y670D01*
X548Y670D01*
X548Y672D01*
X546Y672D01*
X546Y674D01*
X544Y674D01*
X544Y676D01*
X542Y676D01*
X542Y678D01*
X540Y678D01*
X540Y680D01*
X538Y680D01*
X538Y682D01*
X536Y682D01*
X536Y684D01*
X534Y684D01*
X534Y686D01*
X532Y686D01*
X532Y688D01*
X530Y688D01*
X530Y690D01*
X528Y690D01*
X528Y692D01*
X526Y692D01*
X526Y694D01*
X524Y694D01*
X524Y696D01*
X522Y696D01*
X522Y698D01*
X520Y698D01*
X520Y700D01*
X518Y700D01*
X518Y702D01*
X516Y702D01*
X516Y704D01*
X514Y704D01*
X514Y706D01*
X512Y706D01*
X512Y708D01*
X510Y708D01*
X510Y710D01*
X508Y710D01*
X508Y712D01*
X506Y712D01*
X506Y714D01*
X504Y714D01*
X504Y716D01*
X502Y716D01*
X502Y718D01*
X500Y718D01*
X500Y720D01*
X498Y720D01*
X498Y722D01*
X496Y722D01*
X496Y724D01*
X494Y724D01*
X494Y726D01*
X492Y726D01*
X492Y728D01*
X490Y728D01*
X490Y730D01*
X488Y730D01*
X488Y732D01*
X486Y732D01*
X486Y734D01*
X484Y734D01*
X484Y736D01*
X482Y736D01*
X482Y738D01*
X480Y738D01*
X480Y740D01*
X478Y740D01*
X478Y742D01*
X476Y742D01*
X476Y744D01*
X474Y744D01*
X474Y746D01*
X472Y746D01*
X472Y748D01*
X470Y748D01*
X470Y750D01*
X468Y750D01*
X468Y752D01*
X466Y752D01*
X466Y754D01*
X464Y754D01*
X464Y756D01*
X462Y756D01*
X462Y758D01*
X460Y758D01*
X460Y760D01*
X458Y760D01*
X458Y762D01*
X456Y762D01*
X456Y764D01*
X454Y764D01*
X454Y766D01*
X452Y766D01*
X452Y768D01*
X450Y768D01*
X450Y770D01*
X448Y770D01*
X448Y772D01*
X446Y772D01*
X446Y774D01*
X444Y774D01*
X444Y776D01*
X442Y776D01*
X442Y778D01*
X440Y778D01*
X440Y780D01*
X438Y780D01*
X438Y782D01*
X436Y782D01*
X436Y784D01*
X434Y784D01*
X434Y786D01*
X432Y786D01*
X432Y788D01*
X430Y788D01*
X430Y790D01*
X428Y790D01*
X428Y792D01*
X426Y792D01*
X426Y794D01*
X424Y794D01*
X424Y796D01*
X422Y796D01*
X422Y798D01*
X420Y798D01*
X420Y800D01*
X418Y800D01*
X418Y802D01*
X416Y802D01*
X416Y804D01*
X414Y804D01*
X414Y806D01*
X412Y806D01*
X412Y808D01*
X410Y808D01*
X410Y810D01*
X408Y810D01*
X408Y812D01*
X406Y812D01*
X406Y814D01*
X404Y814D01*
X404Y816D01*
X402Y816D01*
X402Y818D01*
X400Y818D01*
X400Y820D01*
X398Y820D01*
X398Y824D01*
X396Y824D01*
X396Y828D01*
X394Y828D01*
X394Y1076D01*
X40Y1076D01*
G37*
D02*
G36*
X3570Y1048D02*
X3570Y1046D01*
X3926Y1046D01*
X3926Y1048D01*
X3570Y1048D01*
G37*
D02*
G36*
X3570Y1048D02*
X3570Y1046D01*
X3926Y1046D01*
X3926Y1048D01*
X3570Y1048D01*
G37*
D02*
G36*
X3570Y1046D02*
X3570Y1040D01*
X3622Y1040D01*
X3622Y948D01*
X3926Y948D01*
X3926Y1046D01*
X3570Y1046D01*
G37*
D02*
G36*
X1730Y1012D02*
X1730Y802D01*
X2436Y802D01*
X2436Y804D01*
X2426Y804D01*
X2426Y806D01*
X2422Y806D01*
X2422Y808D01*
X2420Y808D01*
X2420Y810D01*
X2416Y810D01*
X2416Y814D01*
X2414Y814D01*
X2414Y816D01*
X2412Y816D01*
X2412Y818D01*
X2410Y818D01*
X2410Y824D01*
X2408Y824D01*
X2408Y842D01*
X2410Y842D01*
X2410Y846D01*
X2412Y846D01*
X2412Y850D01*
X2414Y850D01*
X2414Y852D01*
X2416Y852D01*
X2416Y854D01*
X2418Y854D01*
X2418Y856D01*
X2420Y856D01*
X2420Y960D01*
X2416Y960D01*
X2416Y964D01*
X2414Y964D01*
X2414Y966D01*
X2412Y966D01*
X2412Y968D01*
X2410Y968D01*
X2410Y974D01*
X2408Y974D01*
X2408Y992D01*
X2410Y992D01*
X2410Y996D01*
X2412Y996D01*
X2412Y1000D01*
X2414Y1000D01*
X2414Y1002D01*
X2416Y1002D01*
X2416Y1004D01*
X2418Y1004D01*
X2418Y1006D01*
X2420Y1006D01*
X2420Y1008D01*
X2424Y1008D01*
X2424Y1010D01*
X2430Y1010D01*
X2430Y1012D01*
X1730Y1012D01*
G37*
D02*
G36*
X932Y966D02*
X932Y964D01*
X1394Y964D01*
X1394Y966D01*
X932Y966D01*
G37*
D02*
G36*
X932Y966D02*
X932Y964D01*
X1394Y964D01*
X1394Y966D01*
X932Y966D01*
G37*
D02*
G36*
X932Y964D02*
X932Y948D01*
X930Y948D01*
X930Y942D01*
X928Y942D01*
X928Y938D01*
X926Y938D01*
X926Y934D01*
X924Y934D01*
X924Y930D01*
X922Y930D01*
X922Y928D01*
X920Y928D01*
X920Y926D01*
X918Y926D01*
X918Y924D01*
X916Y924D01*
X916Y922D01*
X914Y922D01*
X914Y920D01*
X910Y920D01*
X910Y918D01*
X906Y918D01*
X906Y898D01*
X908Y898D01*
X908Y896D01*
X912Y896D01*
X912Y894D01*
X914Y894D01*
X914Y892D01*
X918Y892D01*
X918Y890D01*
X920Y890D01*
X920Y886D01*
X922Y886D01*
X922Y884D01*
X924Y884D01*
X924Y882D01*
X926Y882D01*
X926Y878D01*
X928Y878D01*
X928Y874D01*
X930Y874D01*
X930Y868D01*
X932Y868D01*
X932Y848D01*
X930Y848D01*
X930Y842D01*
X928Y842D01*
X928Y838D01*
X926Y838D01*
X926Y834D01*
X924Y834D01*
X924Y830D01*
X922Y830D01*
X922Y828D01*
X920Y828D01*
X920Y826D01*
X918Y826D01*
X918Y824D01*
X916Y824D01*
X916Y822D01*
X914Y822D01*
X914Y820D01*
X910Y820D01*
X910Y818D01*
X906Y818D01*
X906Y798D01*
X908Y798D01*
X908Y796D01*
X912Y796D01*
X912Y794D01*
X914Y794D01*
X914Y792D01*
X918Y792D01*
X918Y790D01*
X920Y790D01*
X920Y786D01*
X922Y786D01*
X922Y784D01*
X924Y784D01*
X924Y782D01*
X926Y782D01*
X926Y778D01*
X928Y778D01*
X928Y774D01*
X930Y774D01*
X930Y768D01*
X932Y768D01*
X932Y748D01*
X930Y748D01*
X930Y742D01*
X928Y742D01*
X928Y738D01*
X926Y738D01*
X926Y734D01*
X924Y734D01*
X924Y730D01*
X922Y730D01*
X922Y728D01*
X920Y728D01*
X920Y726D01*
X918Y726D01*
X918Y724D01*
X916Y724D01*
X916Y722D01*
X914Y722D01*
X914Y720D01*
X910Y720D01*
X910Y718D01*
X906Y718D01*
X906Y698D01*
X908Y698D01*
X908Y696D01*
X912Y696D01*
X912Y694D01*
X914Y694D01*
X914Y692D01*
X918Y692D01*
X918Y690D01*
X920Y690D01*
X920Y686D01*
X922Y686D01*
X922Y684D01*
X924Y684D01*
X924Y682D01*
X926Y682D01*
X926Y678D01*
X928Y678D01*
X928Y674D01*
X930Y674D01*
X930Y668D01*
X932Y668D01*
X932Y648D01*
X930Y648D01*
X930Y642D01*
X928Y642D01*
X928Y638D01*
X926Y638D01*
X926Y634D01*
X924Y634D01*
X924Y630D01*
X922Y630D01*
X922Y628D01*
X920Y628D01*
X920Y626D01*
X918Y626D01*
X918Y624D01*
X916Y624D01*
X916Y622D01*
X914Y622D01*
X914Y620D01*
X910Y620D01*
X910Y618D01*
X906Y618D01*
X906Y598D01*
X908Y598D01*
X908Y596D01*
X1266Y596D01*
X1266Y594D01*
X1272Y594D01*
X1272Y592D01*
X1276Y592D01*
X1276Y590D01*
X1280Y590D01*
X1280Y588D01*
X1284Y588D01*
X1284Y586D01*
X1286Y586D01*
X1286Y584D01*
X1288Y584D01*
X1288Y582D01*
X1290Y582D01*
X1290Y580D01*
X1292Y580D01*
X1292Y578D01*
X1294Y578D01*
X1294Y576D01*
X1296Y576D01*
X1296Y572D01*
X1298Y572D01*
X1298Y568D01*
X1300Y568D01*
X1300Y564D01*
X1302Y564D01*
X1302Y558D01*
X1304Y558D01*
X1304Y532D01*
X1302Y532D01*
X1302Y526D01*
X1300Y526D01*
X1300Y522D01*
X1298Y522D01*
X1298Y518D01*
X1296Y518D01*
X1296Y514D01*
X1294Y514D01*
X1294Y512D01*
X1292Y512D01*
X1292Y510D01*
X1290Y510D01*
X1290Y508D01*
X1288Y508D01*
X1288Y506D01*
X1286Y506D01*
X1286Y504D01*
X1282Y504D01*
X1282Y502D01*
X1280Y502D01*
X1280Y500D01*
X1276Y500D01*
X1276Y498D01*
X1272Y498D01*
X1272Y496D01*
X1396Y496D01*
X1396Y498D01*
X1390Y498D01*
X1390Y500D01*
X1386Y500D01*
X1386Y502D01*
X1382Y502D01*
X1382Y504D01*
X1380Y504D01*
X1380Y506D01*
X1378Y506D01*
X1378Y508D01*
X1374Y508D01*
X1374Y510D01*
X1372Y510D01*
X1372Y512D01*
X1370Y512D01*
X1370Y516D01*
X1368Y516D01*
X1368Y518D01*
X1366Y518D01*
X1366Y522D01*
X1364Y522D01*
X1364Y526D01*
X1362Y526D01*
X1362Y530D01*
X1360Y530D01*
X1360Y540D01*
X1358Y540D01*
X1358Y554D01*
X1360Y554D01*
X1360Y562D01*
X1362Y562D01*
X1362Y568D01*
X1364Y568D01*
X1364Y572D01*
X1366Y572D01*
X1366Y574D01*
X1368Y574D01*
X1368Y578D01*
X1370Y578D01*
X1370Y580D01*
X1372Y580D01*
X1372Y582D01*
X1374Y582D01*
X1374Y584D01*
X1376Y584D01*
X1376Y586D01*
X1378Y586D01*
X1378Y588D01*
X1382Y588D01*
X1382Y590D01*
X1384Y590D01*
X1384Y592D01*
X1388Y592D01*
X1388Y594D01*
X1392Y594D01*
X1392Y606D01*
X1394Y606D01*
X1394Y964D01*
X932Y964D01*
G37*
D02*
G36*
X3044Y958D02*
X3044Y940D01*
X3064Y940D01*
X3064Y942D01*
X3066Y942D01*
X3066Y944D01*
X3068Y944D01*
X3068Y946D01*
X3070Y946D01*
X3070Y948D01*
X3072Y948D01*
X3072Y950D01*
X3076Y950D01*
X3076Y952D01*
X3078Y952D01*
X3078Y954D01*
X3082Y954D01*
X3082Y956D01*
X3088Y956D01*
X3088Y958D01*
X3044Y958D01*
G37*
D02*
G36*
X3356Y958D02*
X3356Y934D01*
X3376Y934D01*
X3376Y936D01*
X3378Y936D01*
X3378Y940D01*
X3380Y940D01*
X3380Y942D01*
X3382Y942D01*
X3382Y944D01*
X3384Y944D01*
X3384Y946D01*
X3386Y946D01*
X3386Y948D01*
X3390Y948D01*
X3390Y950D01*
X3392Y950D01*
X3392Y952D01*
X3396Y952D01*
X3396Y954D01*
X3400Y954D01*
X3400Y956D01*
X3406Y956D01*
X3406Y958D01*
X3356Y958D01*
G37*
D02*
G36*
X3452Y948D02*
X3452Y946D01*
X3926Y946D01*
X3926Y948D01*
X3452Y948D01*
G37*
D02*
G36*
X3452Y948D02*
X3452Y946D01*
X3926Y946D01*
X3926Y948D01*
X3452Y948D01*
G37*
D02*
G36*
X3454Y946D02*
X3454Y944D01*
X3456Y944D01*
X3456Y942D01*
X3458Y942D01*
X3458Y940D01*
X3460Y940D01*
X3460Y936D01*
X3462Y936D01*
X3462Y934D01*
X3464Y934D01*
X3464Y930D01*
X3466Y930D01*
X3466Y926D01*
X3468Y926D01*
X3468Y920D01*
X3622Y920D01*
X3622Y844D01*
X3926Y844D01*
X3926Y946D01*
X3454Y946D01*
G37*
D02*
G36*
X3470Y920D02*
X3470Y896D01*
X3468Y896D01*
X3468Y890D01*
X3466Y890D01*
X3466Y886D01*
X3464Y886D01*
X3464Y882D01*
X3462Y882D01*
X3462Y878D01*
X3460Y878D01*
X3460Y876D01*
X3458Y876D01*
X3458Y874D01*
X3456Y874D01*
X3456Y872D01*
X3454Y872D01*
X3454Y870D01*
X3452Y870D01*
X3452Y868D01*
X3450Y868D01*
X3450Y866D01*
X3448Y866D01*
X3448Y864D01*
X3444Y864D01*
X3444Y862D01*
X3440Y862D01*
X3440Y860D01*
X3436Y860D01*
X3436Y858D01*
X3426Y858D01*
X3426Y856D01*
X3552Y856D01*
X3552Y920D01*
X3470Y920D01*
G37*
D02*
G36*
X3356Y882D02*
X3356Y856D01*
X3412Y856D01*
X3412Y858D01*
X3402Y858D01*
X3402Y860D01*
X3398Y860D01*
X3398Y862D01*
X3394Y862D01*
X3394Y864D01*
X3390Y864D01*
X3390Y866D01*
X3388Y866D01*
X3388Y868D01*
X3386Y868D01*
X3386Y870D01*
X3384Y870D01*
X3384Y872D01*
X3382Y872D01*
X3382Y874D01*
X3380Y874D01*
X3380Y876D01*
X3378Y876D01*
X3378Y878D01*
X3376Y878D01*
X3376Y882D01*
X3356Y882D01*
G37*
D02*
G36*
X3356Y856D02*
X3356Y854D01*
X3552Y854D01*
X3552Y856D01*
X3356Y856D01*
G37*
D02*
G36*
X3356Y856D02*
X3356Y854D01*
X3552Y854D01*
X3552Y856D01*
X3356Y856D01*
G37*
D02*
G36*
X3356Y854D02*
X3356Y844D01*
X3552Y844D01*
X3552Y854D01*
X3356Y854D01*
G37*
D02*
G36*
X3356Y844D02*
X3356Y842D01*
X3926Y842D01*
X3926Y844D01*
X3356Y844D01*
G37*
D02*
G36*
X3356Y844D02*
X3356Y842D01*
X3926Y842D01*
X3926Y844D01*
X3356Y844D01*
G37*
D02*
G36*
X3356Y842D02*
X3356Y818D01*
X3354Y818D01*
X3354Y812D01*
X3352Y812D01*
X3352Y808D01*
X3350Y808D01*
X3350Y806D01*
X3346Y806D01*
X3346Y804D01*
X3342Y804D01*
X3342Y802D01*
X3318Y802D01*
X3318Y780D01*
X3320Y780D01*
X3320Y778D01*
X3322Y778D01*
X3322Y776D01*
X3324Y776D01*
X3324Y774D01*
X3326Y774D01*
X3326Y772D01*
X3328Y772D01*
X3328Y770D01*
X3330Y770D01*
X3330Y768D01*
X3332Y768D01*
X3332Y766D01*
X3334Y766D01*
X3334Y764D01*
X3336Y764D01*
X3336Y762D01*
X3338Y762D01*
X3338Y758D01*
X3340Y758D01*
X3340Y756D01*
X3342Y756D01*
X3342Y754D01*
X3344Y754D01*
X3344Y752D01*
X3346Y752D01*
X3346Y750D01*
X3348Y750D01*
X3348Y748D01*
X3350Y748D01*
X3350Y746D01*
X3352Y746D01*
X3352Y744D01*
X3354Y744D01*
X3354Y742D01*
X3356Y742D01*
X3356Y740D01*
X3358Y740D01*
X3358Y736D01*
X3360Y736D01*
X3360Y734D01*
X3362Y734D01*
X3362Y732D01*
X3364Y732D01*
X3364Y730D01*
X3366Y730D01*
X3366Y728D01*
X3368Y728D01*
X3368Y726D01*
X3370Y726D01*
X3370Y724D01*
X3372Y724D01*
X3372Y722D01*
X3374Y722D01*
X3374Y720D01*
X3376Y720D01*
X3376Y716D01*
X3378Y716D01*
X3378Y712D01*
X3380Y712D01*
X3380Y492D01*
X3592Y492D01*
X3592Y490D01*
X3600Y490D01*
X3600Y488D01*
X3606Y488D01*
X3606Y486D01*
X3610Y486D01*
X3610Y484D01*
X3614Y484D01*
X3614Y482D01*
X3618Y482D01*
X3618Y480D01*
X3622Y480D01*
X3622Y478D01*
X3624Y478D01*
X3624Y476D01*
X3628Y476D01*
X3628Y474D01*
X3630Y474D01*
X3630Y472D01*
X3632Y472D01*
X3632Y470D01*
X3634Y470D01*
X3634Y468D01*
X3636Y468D01*
X3636Y466D01*
X3638Y466D01*
X3638Y464D01*
X3640Y464D01*
X3640Y462D01*
X3642Y462D01*
X3642Y458D01*
X3644Y458D01*
X3644Y456D01*
X3646Y456D01*
X3646Y454D01*
X3648Y454D01*
X3648Y450D01*
X3650Y450D01*
X3650Y446D01*
X3652Y446D01*
X3652Y442D01*
X3654Y442D01*
X3654Y436D01*
X3656Y436D01*
X3656Y430D01*
X3658Y430D01*
X3658Y422D01*
X3660Y422D01*
X3660Y394D01*
X3658Y394D01*
X3658Y386D01*
X3656Y386D01*
X3656Y380D01*
X3654Y380D01*
X3654Y374D01*
X3652Y374D01*
X3652Y370D01*
X3650Y370D01*
X3650Y366D01*
X3648Y366D01*
X3648Y362D01*
X3646Y362D01*
X3646Y360D01*
X3644Y360D01*
X3644Y356D01*
X3642Y356D01*
X3642Y354D01*
X3640Y354D01*
X3640Y352D01*
X3638Y352D01*
X3638Y350D01*
X3636Y350D01*
X3636Y348D01*
X3634Y348D01*
X3634Y346D01*
X3632Y346D01*
X3632Y344D01*
X3630Y344D01*
X3630Y342D01*
X3628Y342D01*
X3628Y340D01*
X3624Y340D01*
X3624Y338D01*
X3622Y338D01*
X3622Y336D01*
X3618Y336D01*
X3618Y334D01*
X3614Y334D01*
X3614Y332D01*
X3610Y332D01*
X3610Y330D01*
X3606Y330D01*
X3606Y328D01*
X3600Y328D01*
X3600Y326D01*
X3594Y326D01*
X3594Y324D01*
X3576Y324D01*
X3576Y322D01*
X3926Y322D01*
X3926Y842D01*
X3356Y842D01*
G37*
D02*
G36*
X2992Y810D02*
X2992Y800D01*
X2990Y800D01*
X2990Y796D01*
X2988Y796D01*
X2988Y792D01*
X2986Y792D01*
X2986Y788D01*
X2984Y788D01*
X2984Y786D01*
X2982Y786D01*
X2982Y784D01*
X2980Y784D01*
X2980Y780D01*
X2976Y780D01*
X2976Y778D01*
X2974Y778D01*
X2974Y776D01*
X2972Y776D01*
X2972Y774D01*
X2968Y774D01*
X2968Y772D01*
X2966Y772D01*
X2966Y770D01*
X2962Y770D01*
X2962Y768D01*
X2954Y768D01*
X2954Y766D01*
X3090Y766D01*
X3090Y768D01*
X3082Y768D01*
X3082Y770D01*
X3080Y770D01*
X3080Y772D01*
X3076Y772D01*
X3076Y774D01*
X3072Y774D01*
X3072Y776D01*
X3070Y776D01*
X3070Y778D01*
X3068Y778D01*
X3068Y780D01*
X3066Y780D01*
X3066Y782D01*
X3064Y782D01*
X3064Y784D01*
X3062Y784D01*
X3062Y786D01*
X3060Y786D01*
X3060Y790D01*
X3058Y790D01*
X3058Y792D01*
X3056Y792D01*
X3056Y796D01*
X3054Y796D01*
X3054Y800D01*
X3046Y800D01*
X3046Y802D01*
X3020Y802D01*
X3020Y804D01*
X3016Y804D01*
X3016Y806D01*
X3014Y806D01*
X3014Y808D01*
X3012Y808D01*
X3012Y810D01*
X2992Y810D01*
G37*
D02*
G36*
X1730Y802D02*
X1730Y800D01*
X2894Y800D01*
X2894Y802D01*
X1730Y802D01*
G37*
D02*
G36*
X1730Y802D02*
X1730Y800D01*
X2894Y800D01*
X2894Y802D01*
X1730Y802D01*
G37*
D02*
G36*
X1730Y800D02*
X1730Y766D01*
X2930Y766D01*
X2930Y768D01*
X2922Y768D01*
X2922Y770D01*
X2920Y770D01*
X2920Y772D01*
X2916Y772D01*
X2916Y774D01*
X2912Y774D01*
X2912Y776D01*
X2910Y776D01*
X2910Y778D01*
X2908Y778D01*
X2908Y780D01*
X2906Y780D01*
X2906Y782D01*
X2904Y782D01*
X2904Y784D01*
X2902Y784D01*
X2902Y786D01*
X2900Y786D01*
X2900Y790D01*
X2898Y790D01*
X2898Y792D01*
X2896Y792D01*
X2896Y796D01*
X2894Y796D01*
X2894Y800D01*
X1730Y800D01*
G37*
D02*
G36*
X1730Y766D02*
X1730Y764D01*
X3284Y764D01*
X3284Y766D01*
X1730Y766D01*
G37*
D02*
G36*
X1730Y766D02*
X1730Y764D01*
X3284Y764D01*
X3284Y766D01*
X1730Y766D01*
G37*
D02*
G36*
X1730Y766D02*
X1730Y764D01*
X3284Y764D01*
X3284Y766D01*
X1730Y766D01*
G37*
D02*
G36*
X1730Y764D02*
X1730Y604D01*
X1728Y604D01*
X1728Y598D01*
X1986Y598D01*
X1986Y596D01*
X2300Y596D01*
X2300Y594D01*
X2310Y594D01*
X2310Y592D01*
X2316Y592D01*
X2316Y590D01*
X2318Y590D01*
X2318Y588D01*
X2322Y588D01*
X2322Y586D01*
X2326Y586D01*
X2326Y584D01*
X2328Y584D01*
X2328Y582D01*
X2330Y582D01*
X2330Y580D01*
X2332Y580D01*
X2332Y578D01*
X2334Y578D01*
X2334Y576D01*
X2336Y576D01*
X2336Y572D01*
X2338Y572D01*
X2338Y570D01*
X2340Y570D01*
X2340Y566D01*
X2342Y566D01*
X2342Y560D01*
X2344Y560D01*
X2344Y552D01*
X2346Y552D01*
X2346Y536D01*
X2344Y536D01*
X2344Y528D01*
X2342Y528D01*
X2342Y522D01*
X2340Y522D01*
X2340Y520D01*
X2338Y520D01*
X2338Y516D01*
X2336Y516D01*
X2336Y512D01*
X2334Y512D01*
X2334Y510D01*
X2332Y510D01*
X2332Y508D01*
X2330Y508D01*
X2330Y506D01*
X2328Y506D01*
X2328Y504D01*
X2324Y504D01*
X2324Y502D01*
X2322Y502D01*
X2322Y500D01*
X2318Y500D01*
X2318Y498D01*
X2314Y498D01*
X2314Y496D01*
X2308Y496D01*
X2308Y494D01*
X2298Y494D01*
X2298Y492D01*
X2806Y492D01*
X2806Y490D01*
X2814Y490D01*
X2814Y488D01*
X2818Y488D01*
X2818Y486D01*
X2824Y486D01*
X2824Y484D01*
X2828Y484D01*
X2828Y482D01*
X2832Y482D01*
X2832Y480D01*
X2834Y480D01*
X2834Y478D01*
X2838Y478D01*
X2838Y476D01*
X2840Y476D01*
X2840Y474D01*
X2842Y474D01*
X2842Y472D01*
X2846Y472D01*
X2846Y470D01*
X2848Y470D01*
X2848Y468D01*
X2850Y468D01*
X2850Y466D01*
X2852Y466D01*
X2852Y462D01*
X2854Y462D01*
X2854Y460D01*
X2856Y460D01*
X2856Y458D01*
X2858Y458D01*
X2858Y454D01*
X2860Y454D01*
X2860Y452D01*
X2862Y452D01*
X2862Y448D01*
X2864Y448D01*
X2864Y444D01*
X2866Y444D01*
X2866Y440D01*
X2868Y440D01*
X2868Y434D01*
X2870Y434D01*
X2870Y426D01*
X2872Y426D01*
X2872Y412D01*
X2874Y412D01*
X2874Y404D01*
X2872Y404D01*
X2872Y390D01*
X2870Y390D01*
X2870Y382D01*
X2868Y382D01*
X2868Y376D01*
X2866Y376D01*
X2866Y372D01*
X2864Y372D01*
X2864Y368D01*
X2862Y368D01*
X2862Y364D01*
X2860Y364D01*
X2860Y362D01*
X2858Y362D01*
X2858Y358D01*
X2856Y358D01*
X2856Y356D01*
X2854Y356D01*
X2854Y354D01*
X2852Y354D01*
X2852Y350D01*
X2850Y350D01*
X2850Y348D01*
X2848Y348D01*
X2848Y346D01*
X2846Y346D01*
X2846Y344D01*
X2842Y344D01*
X2842Y342D01*
X2840Y342D01*
X2840Y340D01*
X2838Y340D01*
X2838Y338D01*
X2834Y338D01*
X2834Y336D01*
X2832Y336D01*
X2832Y334D01*
X2828Y334D01*
X2828Y332D01*
X2824Y332D01*
X2824Y330D01*
X2820Y330D01*
X2820Y328D01*
X2814Y328D01*
X2814Y326D01*
X2806Y326D01*
X2806Y324D01*
X2790Y324D01*
X2790Y322D01*
X3278Y322D01*
X3278Y324D01*
X3280Y324D01*
X3280Y326D01*
X3282Y326D01*
X3282Y328D01*
X3284Y328D01*
X3284Y330D01*
X3286Y330D01*
X3286Y332D01*
X3288Y332D01*
X3288Y334D01*
X3290Y334D01*
X3290Y336D01*
X3292Y336D01*
X3292Y338D01*
X3294Y338D01*
X3294Y340D01*
X3296Y340D01*
X3296Y342D01*
X3298Y342D01*
X3298Y344D01*
X3300Y344D01*
X3300Y346D01*
X3302Y346D01*
X3302Y348D01*
X3304Y348D01*
X3304Y350D01*
X3306Y350D01*
X3306Y352D01*
X3308Y352D01*
X3308Y354D01*
X3310Y354D01*
X3310Y356D01*
X3312Y356D01*
X3312Y358D01*
X3314Y358D01*
X3314Y360D01*
X3316Y360D01*
X3316Y362D01*
X3318Y362D01*
X3318Y364D01*
X3320Y364D01*
X3320Y366D01*
X3322Y366D01*
X3322Y368D01*
X3324Y368D01*
X3324Y370D01*
X3326Y370D01*
X3326Y372D01*
X3328Y372D01*
X3328Y374D01*
X3330Y374D01*
X3330Y376D01*
X3332Y376D01*
X3332Y378D01*
X3334Y378D01*
X3334Y380D01*
X3336Y380D01*
X3336Y382D01*
X3338Y382D01*
X3338Y384D01*
X3340Y384D01*
X3340Y386D01*
X3342Y386D01*
X3342Y388D01*
X3344Y388D01*
X3344Y702D01*
X3342Y702D01*
X3342Y704D01*
X3340Y704D01*
X3340Y706D01*
X3338Y706D01*
X3338Y708D01*
X3336Y708D01*
X3336Y710D01*
X3334Y710D01*
X3334Y712D01*
X3332Y712D01*
X3332Y714D01*
X3330Y714D01*
X3330Y716D01*
X3328Y716D01*
X3328Y718D01*
X3326Y718D01*
X3326Y720D01*
X3324Y720D01*
X3324Y722D01*
X3322Y722D01*
X3322Y726D01*
X3320Y726D01*
X3320Y728D01*
X3318Y728D01*
X3318Y730D01*
X3316Y730D01*
X3316Y732D01*
X3314Y732D01*
X3314Y734D01*
X3312Y734D01*
X3312Y736D01*
X3310Y736D01*
X3310Y738D01*
X3308Y738D01*
X3308Y740D01*
X3306Y740D01*
X3306Y742D01*
X3304Y742D01*
X3304Y744D01*
X3302Y744D01*
X3302Y748D01*
X3300Y748D01*
X3300Y750D01*
X3298Y750D01*
X3298Y752D01*
X3296Y752D01*
X3296Y754D01*
X3294Y754D01*
X3294Y756D01*
X3292Y756D01*
X3292Y758D01*
X3290Y758D01*
X3290Y760D01*
X3288Y760D01*
X3288Y762D01*
X3286Y762D01*
X3286Y764D01*
X1730Y764D01*
G37*
D02*
G36*
X1430Y598D02*
X1430Y592D01*
X1434Y592D01*
X1434Y590D01*
X1438Y590D01*
X1438Y588D01*
X1440Y588D01*
X1440Y586D01*
X1444Y586D01*
X1444Y584D01*
X1446Y584D01*
X1446Y582D01*
X1448Y582D01*
X1448Y578D01*
X1450Y578D01*
X1450Y576D01*
X1452Y576D01*
X1452Y574D01*
X1454Y574D01*
X1454Y570D01*
X1456Y570D01*
X1456Y566D01*
X1458Y566D01*
X1458Y560D01*
X1460Y560D01*
X1460Y532D01*
X1458Y532D01*
X1458Y526D01*
X1456Y526D01*
X1456Y522D01*
X1454Y522D01*
X1454Y520D01*
X1452Y520D01*
X1452Y516D01*
X1450Y516D01*
X1450Y514D01*
X1448Y514D01*
X1448Y512D01*
X1446Y512D01*
X1446Y510D01*
X1444Y510D01*
X1444Y508D01*
X1442Y508D01*
X1442Y506D01*
X1440Y506D01*
X1440Y504D01*
X1436Y504D01*
X1436Y502D01*
X1434Y502D01*
X1434Y500D01*
X1430Y500D01*
X1430Y498D01*
X1424Y498D01*
X1424Y496D01*
X1554Y496D01*
X1554Y498D01*
X1546Y498D01*
X1546Y500D01*
X1544Y500D01*
X1544Y502D01*
X1540Y502D01*
X1540Y504D01*
X1536Y504D01*
X1536Y506D01*
X1534Y506D01*
X1534Y508D01*
X1532Y508D01*
X1532Y510D01*
X1530Y510D01*
X1530Y512D01*
X1528Y512D01*
X1528Y514D01*
X1526Y514D01*
X1526Y516D01*
X1524Y516D01*
X1524Y520D01*
X1522Y520D01*
X1522Y524D01*
X1520Y524D01*
X1520Y526D01*
X1518Y526D01*
X1518Y532D01*
X1516Y532D01*
X1516Y560D01*
X1518Y560D01*
X1518Y566D01*
X1520Y566D01*
X1520Y570D01*
X1522Y570D01*
X1522Y574D01*
X1524Y574D01*
X1524Y576D01*
X1526Y576D01*
X1526Y580D01*
X1528Y580D01*
X1528Y582D01*
X1530Y582D01*
X1530Y584D01*
X1532Y584D01*
X1532Y586D01*
X1536Y586D01*
X1536Y588D01*
X1538Y588D01*
X1538Y590D01*
X1542Y590D01*
X1542Y592D01*
X1544Y592D01*
X1544Y594D01*
X1550Y594D01*
X1550Y596D01*
X1558Y596D01*
X1558Y598D01*
X1430Y598D01*
G37*
D02*
G36*
X1726Y598D02*
X1726Y596D01*
X1830Y596D01*
X1830Y594D01*
X1840Y594D01*
X1840Y592D01*
X1844Y592D01*
X1844Y590D01*
X1848Y590D01*
X1848Y588D01*
X1852Y588D01*
X1852Y586D01*
X1854Y586D01*
X1854Y584D01*
X1856Y584D01*
X1856Y582D01*
X1860Y582D01*
X1860Y580D01*
X1862Y580D01*
X1862Y576D01*
X1864Y576D01*
X1864Y574D01*
X1866Y574D01*
X1866Y572D01*
X1868Y572D01*
X1868Y568D01*
X1870Y568D01*
X1870Y564D01*
X1872Y564D01*
X1872Y558D01*
X1874Y558D01*
X1874Y530D01*
X1872Y530D01*
X1872Y524D01*
X1870Y524D01*
X1870Y520D01*
X1868Y520D01*
X1868Y518D01*
X1866Y518D01*
X1866Y514D01*
X1864Y514D01*
X1864Y512D01*
X1862Y512D01*
X1862Y510D01*
X1860Y510D01*
X1860Y508D01*
X1858Y508D01*
X1858Y506D01*
X1856Y506D01*
X1856Y504D01*
X1854Y504D01*
X1854Y502D01*
X1852Y502D01*
X1852Y500D01*
X1848Y500D01*
X1848Y498D01*
X1844Y498D01*
X1844Y496D01*
X1838Y496D01*
X1838Y494D01*
X1976Y494D01*
X1976Y496D01*
X1966Y496D01*
X1966Y498D01*
X1960Y498D01*
X1960Y500D01*
X1956Y500D01*
X1956Y502D01*
X1954Y502D01*
X1954Y504D01*
X1950Y504D01*
X1950Y506D01*
X1948Y506D01*
X1948Y508D01*
X1946Y508D01*
X1946Y510D01*
X1944Y510D01*
X1944Y512D01*
X1942Y512D01*
X1942Y514D01*
X1940Y514D01*
X1940Y516D01*
X1938Y516D01*
X1938Y520D01*
X1936Y520D01*
X1936Y524D01*
X1934Y524D01*
X1934Y528D01*
X1932Y528D01*
X1932Y536D01*
X1930Y536D01*
X1930Y556D01*
X1932Y556D01*
X1932Y564D01*
X1934Y564D01*
X1934Y568D01*
X1936Y568D01*
X1936Y572D01*
X1938Y572D01*
X1938Y576D01*
X1940Y576D01*
X1940Y578D01*
X1942Y578D01*
X1942Y580D01*
X1944Y580D01*
X1944Y582D01*
X1946Y582D01*
X1946Y584D01*
X1948Y584D01*
X1948Y586D01*
X1950Y586D01*
X1950Y588D01*
X1954Y588D01*
X1954Y590D01*
X1958Y590D01*
X1958Y592D01*
X1960Y592D01*
X1960Y594D01*
X1966Y594D01*
X1966Y596D01*
X1976Y596D01*
X1976Y598D01*
X1726Y598D01*
G37*
D02*
G36*
X912Y596D02*
X912Y594D01*
X914Y594D01*
X914Y592D01*
X918Y592D01*
X918Y590D01*
X920Y590D01*
X920Y586D01*
X922Y586D01*
X922Y584D01*
X924Y584D01*
X924Y582D01*
X926Y582D01*
X926Y578D01*
X928Y578D01*
X928Y574D01*
X930Y574D01*
X930Y568D01*
X932Y568D01*
X932Y548D01*
X930Y548D01*
X930Y542D01*
X928Y542D01*
X928Y538D01*
X926Y538D01*
X926Y534D01*
X924Y534D01*
X924Y530D01*
X922Y530D01*
X922Y528D01*
X920Y528D01*
X920Y526D01*
X918Y526D01*
X918Y524D01*
X916Y524D01*
X916Y522D01*
X914Y522D01*
X914Y520D01*
X910Y520D01*
X910Y518D01*
X906Y518D01*
X906Y498D01*
X908Y498D01*
X908Y496D01*
X912Y496D01*
X912Y494D01*
X1242Y494D01*
X1242Y496D01*
X1236Y496D01*
X1236Y498D01*
X1232Y498D01*
X1232Y500D01*
X1228Y500D01*
X1228Y502D01*
X1224Y502D01*
X1224Y504D01*
X1222Y504D01*
X1222Y506D01*
X1220Y506D01*
X1220Y508D01*
X1218Y508D01*
X1218Y510D01*
X1216Y510D01*
X1216Y512D01*
X1214Y512D01*
X1214Y514D01*
X1212Y514D01*
X1212Y516D01*
X1210Y516D01*
X1210Y520D01*
X1208Y520D01*
X1208Y524D01*
X1206Y524D01*
X1206Y528D01*
X1204Y528D01*
X1204Y538D01*
X1202Y538D01*
X1202Y552D01*
X1204Y552D01*
X1204Y562D01*
X1206Y562D01*
X1206Y566D01*
X1208Y566D01*
X1208Y570D01*
X1210Y570D01*
X1210Y574D01*
X1212Y574D01*
X1212Y576D01*
X1214Y576D01*
X1214Y578D01*
X1216Y578D01*
X1216Y580D01*
X1218Y580D01*
X1218Y582D01*
X1220Y582D01*
X1220Y584D01*
X1222Y584D01*
X1222Y586D01*
X1224Y586D01*
X1224Y588D01*
X1228Y588D01*
X1228Y590D01*
X1232Y590D01*
X1232Y592D01*
X1236Y592D01*
X1236Y594D01*
X1242Y594D01*
X1242Y596D01*
X912Y596D01*
G37*
D02*
G36*
X1724Y596D02*
X1724Y594D01*
X1722Y594D01*
X1722Y592D01*
X1720Y592D01*
X1720Y590D01*
X1718Y590D01*
X1718Y588D01*
X1716Y588D01*
X1716Y586D01*
X1714Y586D01*
X1714Y584D01*
X1712Y584D01*
X1712Y582D01*
X1710Y582D01*
X1710Y580D01*
X1708Y580D01*
X1708Y578D01*
X1706Y578D01*
X1706Y576D01*
X1704Y576D01*
X1704Y574D01*
X1702Y574D01*
X1702Y572D01*
X1700Y572D01*
X1700Y570D01*
X1698Y570D01*
X1698Y568D01*
X1696Y568D01*
X1696Y566D01*
X1694Y566D01*
X1694Y564D01*
X1692Y564D01*
X1692Y560D01*
X1690Y560D01*
X1690Y558D01*
X1688Y558D01*
X1688Y556D01*
X1686Y556D01*
X1686Y554D01*
X1684Y554D01*
X1684Y552D01*
X1682Y552D01*
X1682Y550D01*
X1680Y550D01*
X1680Y548D01*
X1678Y548D01*
X1678Y546D01*
X1676Y546D01*
X1676Y544D01*
X1672Y544D01*
X1672Y542D01*
X1670Y542D01*
X1670Y540D01*
X1658Y540D01*
X1658Y538D01*
X1640Y538D01*
X1640Y536D01*
X1624Y536D01*
X1624Y534D01*
X1616Y534D01*
X1616Y530D01*
X1614Y530D01*
X1614Y526D01*
X1612Y526D01*
X1612Y522D01*
X1610Y522D01*
X1610Y518D01*
X1608Y518D01*
X1608Y516D01*
X1606Y516D01*
X1606Y514D01*
X1604Y514D01*
X1604Y510D01*
X1602Y510D01*
X1602Y508D01*
X1598Y508D01*
X1598Y506D01*
X1596Y506D01*
X1596Y504D01*
X1594Y504D01*
X1594Y502D01*
X1590Y502D01*
X1590Y500D01*
X1586Y500D01*
X1586Y498D01*
X1580Y498D01*
X1580Y496D01*
X1804Y496D01*
X1804Y498D01*
X1800Y498D01*
X1800Y500D01*
X1796Y500D01*
X1796Y502D01*
X1794Y502D01*
X1794Y504D01*
X1790Y504D01*
X1790Y506D01*
X1788Y506D01*
X1788Y508D01*
X1786Y508D01*
X1786Y510D01*
X1784Y510D01*
X1784Y514D01*
X1782Y514D01*
X1782Y516D01*
X1780Y516D01*
X1780Y520D01*
X1778Y520D01*
X1778Y522D01*
X1776Y522D01*
X1776Y528D01*
X1774Y528D01*
X1774Y536D01*
X1772Y536D01*
X1772Y552D01*
X1774Y552D01*
X1774Y560D01*
X1776Y560D01*
X1776Y566D01*
X1778Y566D01*
X1778Y570D01*
X1780Y570D01*
X1780Y572D01*
X1782Y572D01*
X1782Y576D01*
X1784Y576D01*
X1784Y578D01*
X1786Y578D01*
X1786Y580D01*
X1788Y580D01*
X1788Y582D01*
X1790Y582D01*
X1790Y584D01*
X1792Y584D01*
X1792Y586D01*
X1796Y586D01*
X1796Y588D01*
X1800Y588D01*
X1800Y590D01*
X1802Y590D01*
X1802Y592D01*
X1808Y592D01*
X1808Y594D01*
X1818Y594D01*
X1818Y596D01*
X1724Y596D01*
G37*
D02*
G36*
X1996Y596D02*
X1996Y594D01*
X2002Y594D01*
X2002Y592D01*
X2006Y592D01*
X2006Y590D01*
X2008Y590D01*
X2008Y588D01*
X2012Y588D01*
X2012Y586D01*
X2014Y586D01*
X2014Y584D01*
X2016Y584D01*
X2016Y582D01*
X2018Y582D01*
X2018Y580D01*
X2020Y580D01*
X2020Y578D01*
X2022Y578D01*
X2022Y576D01*
X2024Y576D01*
X2024Y572D01*
X2026Y572D01*
X2026Y568D01*
X2028Y568D01*
X2028Y564D01*
X2030Y564D01*
X2030Y558D01*
X2032Y558D01*
X2032Y534D01*
X2030Y534D01*
X2030Y528D01*
X2028Y528D01*
X2028Y524D01*
X2026Y524D01*
X2026Y520D01*
X2024Y520D01*
X2024Y516D01*
X2022Y516D01*
X2022Y514D01*
X2020Y514D01*
X2020Y512D01*
X2018Y512D01*
X2018Y510D01*
X2016Y510D01*
X2016Y508D01*
X2014Y508D01*
X2014Y506D01*
X2012Y506D01*
X2012Y504D01*
X2010Y504D01*
X2010Y502D01*
X2006Y502D01*
X2006Y500D01*
X2002Y500D01*
X2002Y498D01*
X1996Y498D01*
X1996Y496D01*
X1988Y496D01*
X1988Y494D01*
X2128Y494D01*
X2128Y496D01*
X2122Y496D01*
X2122Y498D01*
X2116Y498D01*
X2116Y500D01*
X2114Y500D01*
X2114Y502D01*
X2110Y502D01*
X2110Y504D01*
X2108Y504D01*
X2108Y506D01*
X2104Y506D01*
X2104Y508D01*
X2102Y508D01*
X2102Y510D01*
X2100Y510D01*
X2100Y514D01*
X2098Y514D01*
X2098Y516D01*
X2096Y516D01*
X2096Y518D01*
X2094Y518D01*
X2094Y522D01*
X2092Y522D01*
X2092Y526D01*
X2090Y526D01*
X2090Y532D01*
X2088Y532D01*
X2088Y558D01*
X2090Y558D01*
X2090Y564D01*
X2092Y564D01*
X2092Y568D01*
X2094Y568D01*
X2094Y572D01*
X2096Y572D01*
X2096Y576D01*
X2098Y576D01*
X2098Y578D01*
X2100Y578D01*
X2100Y580D01*
X2102Y580D01*
X2102Y582D01*
X2104Y582D01*
X2104Y584D01*
X2106Y584D01*
X2106Y586D01*
X2108Y586D01*
X2108Y588D01*
X2112Y588D01*
X2112Y590D01*
X2116Y590D01*
X2116Y592D01*
X2120Y592D01*
X2120Y594D01*
X2126Y594D01*
X2126Y596D01*
X1996Y596D01*
G37*
D02*
G36*
X2150Y596D02*
X2150Y594D01*
X2158Y594D01*
X2158Y592D01*
X2162Y592D01*
X2162Y590D01*
X2166Y590D01*
X2166Y588D01*
X2168Y588D01*
X2168Y586D01*
X2170Y586D01*
X2170Y584D01*
X2174Y584D01*
X2174Y582D01*
X2176Y582D01*
X2176Y580D01*
X2178Y580D01*
X2178Y576D01*
X2180Y576D01*
X2180Y574D01*
X2182Y574D01*
X2182Y570D01*
X2184Y570D01*
X2184Y566D01*
X2186Y566D01*
X2186Y562D01*
X2188Y562D01*
X2188Y554D01*
X2190Y554D01*
X2190Y536D01*
X2188Y536D01*
X2188Y528D01*
X2186Y528D01*
X2186Y524D01*
X2184Y524D01*
X2184Y520D01*
X2182Y520D01*
X2182Y516D01*
X2180Y516D01*
X2180Y514D01*
X2178Y514D01*
X2178Y512D01*
X2176Y512D01*
X2176Y510D01*
X2174Y510D01*
X2174Y508D01*
X2172Y508D01*
X2172Y506D01*
X2170Y506D01*
X2170Y504D01*
X2168Y504D01*
X2168Y502D01*
X2164Y502D01*
X2164Y500D01*
X2160Y500D01*
X2160Y498D01*
X2156Y498D01*
X2156Y496D01*
X2148Y496D01*
X2148Y494D01*
X2280Y494D01*
X2280Y496D01*
X2274Y496D01*
X2274Y498D01*
X2270Y498D01*
X2270Y500D01*
X2268Y500D01*
X2268Y502D01*
X2264Y502D01*
X2264Y504D01*
X2262Y504D01*
X2262Y506D01*
X2260Y506D01*
X2260Y508D01*
X2258Y508D01*
X2258Y510D01*
X2256Y510D01*
X2256Y512D01*
X2254Y512D01*
X2254Y514D01*
X2252Y514D01*
X2252Y518D01*
X2250Y518D01*
X2250Y520D01*
X2248Y520D01*
X2248Y524D01*
X2246Y524D01*
X2246Y532D01*
X2244Y532D01*
X2244Y558D01*
X2246Y558D01*
X2246Y564D01*
X2248Y564D01*
X2248Y568D01*
X2250Y568D01*
X2250Y570D01*
X2252Y570D01*
X2252Y574D01*
X2254Y574D01*
X2254Y576D01*
X2256Y576D01*
X2256Y578D01*
X2258Y578D01*
X2258Y582D01*
X2262Y582D01*
X2262Y584D01*
X2264Y584D01*
X2264Y586D01*
X2266Y586D01*
X2266Y588D01*
X2270Y588D01*
X2270Y590D01*
X2274Y590D01*
X2274Y592D01*
X2278Y592D01*
X2278Y594D01*
X2288Y594D01*
X2288Y596D01*
X2150Y596D01*
G37*
D02*
G36*
X1264Y496D02*
X1264Y494D01*
X1810Y494D01*
X1810Y496D01*
X1264Y496D01*
G37*
D02*
G36*
X1264Y496D02*
X1264Y494D01*
X1810Y494D01*
X1810Y496D01*
X1264Y496D01*
G37*
D02*
G36*
X1264Y496D02*
X1264Y494D01*
X1810Y494D01*
X1810Y496D01*
X1264Y496D01*
G37*
D02*
G36*
X914Y494D02*
X914Y492D01*
X1820Y492D01*
X1820Y494D01*
X914Y494D01*
G37*
D02*
G36*
X914Y494D02*
X914Y492D01*
X1820Y492D01*
X1820Y494D01*
X914Y494D01*
G37*
D02*
G36*
X1826Y494D02*
X1826Y492D01*
X2292Y492D01*
X2292Y494D01*
X1826Y494D01*
G37*
D02*
G36*
X1826Y494D02*
X1826Y492D01*
X2292Y492D01*
X2292Y494D01*
X1826Y494D01*
G37*
D02*
G36*
X1826Y494D02*
X1826Y492D01*
X2292Y492D01*
X2292Y494D01*
X1826Y494D01*
G37*
D02*
G36*
X918Y492D02*
X918Y490D01*
X2770Y490D01*
X2770Y492D01*
X918Y492D01*
G37*
D02*
G36*
X918Y492D02*
X918Y490D01*
X2770Y490D01*
X2770Y492D01*
X918Y492D01*
G37*
D02*
G36*
X918Y492D02*
X918Y490D01*
X2770Y490D01*
X2770Y492D01*
X918Y492D01*
G37*
D02*
G36*
X3380Y492D02*
X3380Y376D01*
X3378Y376D01*
X3378Y372D01*
X3376Y372D01*
X3376Y370D01*
X3374Y370D01*
X3374Y368D01*
X3372Y368D01*
X3372Y366D01*
X3370Y366D01*
X3370Y364D01*
X3368Y364D01*
X3368Y362D01*
X3366Y362D01*
X3366Y360D01*
X3364Y360D01*
X3364Y358D01*
X3362Y358D01*
X3362Y356D01*
X3360Y356D01*
X3360Y354D01*
X3358Y354D01*
X3358Y352D01*
X3356Y352D01*
X3356Y350D01*
X3354Y350D01*
X3354Y348D01*
X3352Y348D01*
X3352Y346D01*
X3350Y346D01*
X3350Y344D01*
X3348Y344D01*
X3348Y342D01*
X3346Y342D01*
X3346Y340D01*
X3344Y340D01*
X3344Y338D01*
X3342Y338D01*
X3342Y336D01*
X3340Y336D01*
X3340Y334D01*
X3338Y334D01*
X3338Y332D01*
X3336Y332D01*
X3336Y330D01*
X3334Y330D01*
X3334Y328D01*
X3332Y328D01*
X3332Y326D01*
X3330Y326D01*
X3330Y324D01*
X3328Y324D01*
X3328Y322D01*
X3574Y322D01*
X3574Y324D01*
X3558Y324D01*
X3558Y326D01*
X3550Y326D01*
X3550Y328D01*
X3544Y328D01*
X3544Y330D01*
X3540Y330D01*
X3540Y332D01*
X3536Y332D01*
X3536Y334D01*
X3532Y334D01*
X3532Y336D01*
X3528Y336D01*
X3528Y338D01*
X3526Y338D01*
X3526Y340D01*
X3524Y340D01*
X3524Y342D01*
X3520Y342D01*
X3520Y344D01*
X3518Y344D01*
X3518Y346D01*
X3516Y346D01*
X3516Y348D01*
X3514Y348D01*
X3514Y350D01*
X3512Y350D01*
X3512Y352D01*
X3510Y352D01*
X3510Y354D01*
X3508Y354D01*
X3508Y358D01*
X3506Y358D01*
X3506Y360D01*
X3504Y360D01*
X3504Y364D01*
X3502Y364D01*
X3502Y366D01*
X3500Y366D01*
X3500Y370D01*
X3498Y370D01*
X3498Y376D01*
X3496Y376D01*
X3496Y380D01*
X3494Y380D01*
X3494Y388D01*
X3492Y388D01*
X3492Y398D01*
X3490Y398D01*
X3490Y418D01*
X3492Y418D01*
X3492Y428D01*
X3494Y428D01*
X3494Y436D01*
X3496Y436D01*
X3496Y440D01*
X3498Y440D01*
X3498Y446D01*
X3500Y446D01*
X3500Y450D01*
X3502Y450D01*
X3502Y452D01*
X3504Y452D01*
X3504Y456D01*
X3506Y456D01*
X3506Y458D01*
X3508Y458D01*
X3508Y462D01*
X3510Y462D01*
X3510Y464D01*
X3512Y464D01*
X3512Y466D01*
X3514Y466D01*
X3514Y468D01*
X3516Y468D01*
X3516Y470D01*
X3518Y470D01*
X3518Y472D01*
X3520Y472D01*
X3520Y474D01*
X3524Y474D01*
X3524Y476D01*
X3526Y476D01*
X3526Y478D01*
X3528Y478D01*
X3528Y480D01*
X3532Y480D01*
X3532Y482D01*
X3536Y482D01*
X3536Y484D01*
X3540Y484D01*
X3540Y486D01*
X3544Y486D01*
X3544Y488D01*
X3550Y488D01*
X3550Y490D01*
X3558Y490D01*
X3558Y492D01*
X3380Y492D01*
G37*
D02*
G36*
X920Y490D02*
X920Y486D01*
X922Y486D01*
X922Y484D01*
X924Y484D01*
X924Y482D01*
X926Y482D01*
X926Y478D01*
X928Y478D01*
X928Y474D01*
X930Y474D01*
X930Y468D01*
X932Y468D01*
X932Y448D01*
X930Y448D01*
X930Y442D01*
X928Y442D01*
X928Y438D01*
X926Y438D01*
X926Y434D01*
X924Y434D01*
X924Y430D01*
X922Y430D01*
X922Y428D01*
X920Y428D01*
X920Y426D01*
X918Y426D01*
X918Y424D01*
X916Y424D01*
X916Y422D01*
X914Y422D01*
X914Y420D01*
X910Y420D01*
X910Y418D01*
X906Y418D01*
X906Y398D01*
X908Y398D01*
X908Y396D01*
X912Y396D01*
X912Y394D01*
X914Y394D01*
X914Y392D01*
X918Y392D01*
X918Y390D01*
X920Y390D01*
X920Y386D01*
X922Y386D01*
X922Y384D01*
X924Y384D01*
X924Y382D01*
X926Y382D01*
X926Y378D01*
X928Y378D01*
X928Y376D01*
X1042Y376D01*
X1042Y374D01*
X1048Y374D01*
X1048Y372D01*
X1050Y372D01*
X1050Y370D01*
X1052Y370D01*
X1052Y368D01*
X1056Y368D01*
X1056Y366D01*
X1058Y366D01*
X1058Y364D01*
X1062Y364D01*
X1062Y362D01*
X1064Y362D01*
X1064Y360D01*
X1068Y360D01*
X1068Y358D01*
X1070Y358D01*
X1070Y356D01*
X1072Y356D01*
X1072Y354D01*
X1076Y354D01*
X1076Y352D01*
X1078Y352D01*
X1078Y350D01*
X1082Y350D01*
X1082Y348D01*
X1084Y348D01*
X1084Y346D01*
X1088Y346D01*
X1088Y344D01*
X1090Y344D01*
X1090Y342D01*
X1092Y342D01*
X1092Y340D01*
X1096Y340D01*
X1096Y338D01*
X1098Y338D01*
X1098Y336D01*
X1102Y336D01*
X1102Y334D01*
X1104Y334D01*
X1104Y332D01*
X1108Y332D01*
X1108Y330D01*
X1110Y330D01*
X1110Y328D01*
X1112Y328D01*
X1112Y326D01*
X1116Y326D01*
X1116Y324D01*
X1118Y324D01*
X1118Y322D01*
X2788Y322D01*
X2788Y324D01*
X2770Y324D01*
X2770Y326D01*
X2762Y326D01*
X2762Y328D01*
X2758Y328D01*
X2758Y330D01*
X2752Y330D01*
X2752Y332D01*
X2748Y332D01*
X2748Y334D01*
X2744Y334D01*
X2744Y336D01*
X2742Y336D01*
X2742Y338D01*
X2738Y338D01*
X2738Y340D01*
X2736Y340D01*
X2736Y342D01*
X2734Y342D01*
X2734Y344D01*
X2732Y344D01*
X2732Y346D01*
X2730Y346D01*
X2730Y348D01*
X2728Y348D01*
X2728Y350D01*
X2726Y350D01*
X2726Y352D01*
X2724Y352D01*
X2724Y354D01*
X2722Y354D01*
X2722Y356D01*
X2720Y356D01*
X2720Y358D01*
X2718Y358D01*
X2718Y362D01*
X2716Y362D01*
X2716Y366D01*
X2714Y366D01*
X2714Y368D01*
X2712Y368D01*
X2712Y372D01*
X2710Y372D01*
X2710Y378D01*
X2708Y378D01*
X2708Y384D01*
X2706Y384D01*
X2706Y392D01*
X2704Y392D01*
X2704Y424D01*
X2706Y424D01*
X2706Y432D01*
X2708Y432D01*
X2708Y438D01*
X2710Y438D01*
X2710Y442D01*
X2712Y442D01*
X2712Y448D01*
X2714Y448D01*
X2714Y450D01*
X2716Y450D01*
X2716Y454D01*
X2718Y454D01*
X2718Y458D01*
X2720Y458D01*
X2720Y460D01*
X2722Y460D01*
X2722Y462D01*
X2724Y462D01*
X2724Y464D01*
X2726Y464D01*
X2726Y466D01*
X2728Y466D01*
X2728Y468D01*
X2730Y468D01*
X2730Y470D01*
X2732Y470D01*
X2732Y472D01*
X2734Y472D01*
X2734Y474D01*
X2736Y474D01*
X2736Y476D01*
X2738Y476D01*
X2738Y478D01*
X2742Y478D01*
X2742Y480D01*
X2746Y480D01*
X2746Y482D01*
X2748Y482D01*
X2748Y484D01*
X2752Y484D01*
X2752Y486D01*
X2758Y486D01*
X2758Y488D01*
X2764Y488D01*
X2764Y490D01*
X920Y490D01*
G37*
D02*
G36*
X40Y436D02*
X40Y278D01*
X178Y278D01*
X178Y280D01*
X168Y280D01*
X168Y282D01*
X160Y282D01*
X160Y284D01*
X156Y284D01*
X156Y286D01*
X152Y286D01*
X152Y288D01*
X148Y288D01*
X148Y290D01*
X144Y290D01*
X144Y292D01*
X142Y292D01*
X142Y294D01*
X138Y294D01*
X138Y296D01*
X136Y296D01*
X136Y298D01*
X134Y298D01*
X134Y300D01*
X132Y300D01*
X132Y302D01*
X130Y302D01*
X130Y304D01*
X128Y304D01*
X128Y306D01*
X126Y306D01*
X126Y308D01*
X124Y308D01*
X124Y312D01*
X122Y312D01*
X122Y314D01*
X120Y314D01*
X120Y318D01*
X118Y318D01*
X118Y322D01*
X116Y322D01*
X116Y326D01*
X114Y326D01*
X114Y330D01*
X112Y330D01*
X112Y336D01*
X110Y336D01*
X110Y346D01*
X108Y346D01*
X108Y370D01*
X110Y370D01*
X110Y378D01*
X112Y378D01*
X112Y386D01*
X114Y386D01*
X114Y390D01*
X116Y390D01*
X116Y394D01*
X118Y394D01*
X118Y398D01*
X120Y398D01*
X120Y400D01*
X122Y400D01*
X122Y404D01*
X124Y404D01*
X124Y406D01*
X126Y406D01*
X126Y408D01*
X128Y408D01*
X128Y412D01*
X130Y412D01*
X130Y414D01*
X132Y414D01*
X132Y416D01*
X134Y416D01*
X134Y418D01*
X138Y418D01*
X138Y420D01*
X140Y420D01*
X140Y422D01*
X142Y422D01*
X142Y424D01*
X146Y424D01*
X146Y426D01*
X150Y426D01*
X150Y428D01*
X154Y428D01*
X154Y430D01*
X158Y430D01*
X158Y432D01*
X164Y432D01*
X164Y434D01*
X170Y434D01*
X170Y436D01*
X40Y436D01*
G37*
D02*
G36*
X928Y340D02*
X928Y338D01*
X926Y338D01*
X926Y334D01*
X924Y334D01*
X924Y330D01*
X922Y330D01*
X922Y328D01*
X920Y328D01*
X920Y326D01*
X918Y326D01*
X918Y324D01*
X916Y324D01*
X916Y322D01*
X914Y322D01*
X914Y320D01*
X910Y320D01*
X910Y318D01*
X906Y318D01*
X906Y316D01*
X900Y316D01*
X900Y314D01*
X892Y314D01*
X892Y312D01*
X1070Y312D01*
X1070Y314D01*
X1068Y314D01*
X1068Y316D01*
X1064Y316D01*
X1064Y318D01*
X1062Y318D01*
X1062Y320D01*
X1058Y320D01*
X1058Y322D01*
X1056Y322D01*
X1056Y324D01*
X1052Y324D01*
X1052Y326D01*
X1050Y326D01*
X1050Y328D01*
X1048Y328D01*
X1048Y330D01*
X1044Y330D01*
X1044Y332D01*
X1042Y332D01*
X1042Y334D01*
X1038Y334D01*
X1038Y336D01*
X1036Y336D01*
X1036Y338D01*
X1034Y338D01*
X1034Y340D01*
X928Y340D01*
G37*
D02*
G36*
X1122Y322D02*
X1122Y320D01*
X3276Y320D01*
X3276Y322D01*
X1122Y322D01*
G37*
D02*
G36*
X1122Y322D02*
X1122Y320D01*
X3276Y320D01*
X3276Y322D01*
X1122Y322D01*
G37*
D02*
G36*
X3326Y322D02*
X3326Y320D01*
X3926Y320D01*
X3926Y322D01*
X3326Y322D01*
G37*
D02*
G36*
X3326Y322D02*
X3326Y320D01*
X3926Y320D01*
X3926Y322D01*
X3326Y322D01*
G37*
D02*
G36*
X1124Y320D02*
X1124Y318D01*
X1126Y318D01*
X1126Y316D01*
X1130Y316D01*
X1130Y314D01*
X1132Y314D01*
X1132Y312D01*
X1136Y312D01*
X1136Y310D01*
X1138Y310D01*
X1138Y308D01*
X1142Y308D01*
X1142Y306D01*
X1144Y306D01*
X1144Y304D01*
X1146Y304D01*
X1146Y302D01*
X1150Y302D01*
X1150Y300D01*
X1152Y300D01*
X1152Y298D01*
X1156Y298D01*
X1156Y296D01*
X1158Y296D01*
X1158Y294D01*
X1162Y294D01*
X1162Y292D01*
X1164Y292D01*
X1164Y290D01*
X1166Y290D01*
X1166Y288D01*
X3244Y288D01*
X3244Y290D01*
X3246Y290D01*
X3246Y292D01*
X3248Y292D01*
X3248Y294D01*
X3250Y294D01*
X3250Y296D01*
X3252Y296D01*
X3252Y298D01*
X3254Y298D01*
X3254Y300D01*
X3256Y300D01*
X3256Y302D01*
X3258Y302D01*
X3258Y304D01*
X3260Y304D01*
X3260Y306D01*
X3262Y306D01*
X3262Y308D01*
X3264Y308D01*
X3264Y310D01*
X3266Y310D01*
X3266Y312D01*
X3268Y312D01*
X3268Y314D01*
X3270Y314D01*
X3270Y316D01*
X3272Y316D01*
X3272Y318D01*
X3274Y318D01*
X3274Y320D01*
X1124Y320D01*
G37*
D02*
G36*
X3324Y320D02*
X3324Y318D01*
X3322Y318D01*
X3322Y316D01*
X3320Y316D01*
X3320Y314D01*
X3318Y314D01*
X3318Y312D01*
X3316Y312D01*
X3316Y310D01*
X3314Y310D01*
X3314Y308D01*
X3312Y308D01*
X3312Y306D01*
X3310Y306D01*
X3310Y304D01*
X3308Y304D01*
X3308Y302D01*
X3306Y302D01*
X3306Y300D01*
X3304Y300D01*
X3304Y298D01*
X3302Y298D01*
X3302Y296D01*
X3300Y296D01*
X3300Y294D01*
X3298Y294D01*
X3298Y292D01*
X3296Y292D01*
X3296Y290D01*
X3294Y290D01*
X3294Y288D01*
X3292Y288D01*
X3292Y286D01*
X3290Y286D01*
X3290Y284D01*
X3288Y284D01*
X3288Y282D01*
X3286Y282D01*
X3286Y280D01*
X3284Y280D01*
X3284Y278D01*
X3282Y278D01*
X3282Y276D01*
X3280Y276D01*
X3280Y274D01*
X3278Y274D01*
X3278Y272D01*
X3276Y272D01*
X3276Y270D01*
X3274Y270D01*
X3274Y268D01*
X3272Y268D01*
X3272Y266D01*
X3270Y266D01*
X3270Y264D01*
X3268Y264D01*
X3268Y262D01*
X3266Y262D01*
X3266Y260D01*
X3264Y260D01*
X3264Y258D01*
X3262Y258D01*
X3262Y256D01*
X3260Y256D01*
X3260Y254D01*
X3256Y254D01*
X3256Y252D01*
X3926Y252D01*
X3926Y320D01*
X3324Y320D01*
G37*
D02*
G36*
X252Y312D02*
X252Y310D01*
X1072Y310D01*
X1072Y312D01*
X252Y312D01*
G37*
D02*
G36*
X252Y312D02*
X252Y310D01*
X1072Y310D01*
X1072Y312D01*
X252Y312D01*
G37*
D02*
G36*
X250Y310D02*
X250Y308D01*
X248Y308D01*
X248Y306D01*
X246Y306D01*
X246Y304D01*
X244Y304D01*
X244Y302D01*
X242Y302D01*
X242Y300D01*
X240Y300D01*
X240Y298D01*
X238Y298D01*
X238Y296D01*
X236Y296D01*
X236Y294D01*
X232Y294D01*
X232Y292D01*
X230Y292D01*
X230Y290D01*
X226Y290D01*
X226Y288D01*
X222Y288D01*
X222Y286D01*
X218Y286D01*
X218Y284D01*
X214Y284D01*
X214Y282D01*
X206Y282D01*
X206Y280D01*
X196Y280D01*
X196Y278D01*
X1118Y278D01*
X1118Y280D01*
X1116Y280D01*
X1116Y282D01*
X1112Y282D01*
X1112Y284D01*
X1110Y284D01*
X1110Y286D01*
X1108Y286D01*
X1108Y288D01*
X1104Y288D01*
X1104Y290D01*
X1102Y290D01*
X1102Y292D01*
X1098Y292D01*
X1098Y294D01*
X1096Y294D01*
X1096Y296D01*
X1092Y296D01*
X1092Y298D01*
X1090Y298D01*
X1090Y300D01*
X1088Y300D01*
X1088Y302D01*
X1084Y302D01*
X1084Y304D01*
X1082Y304D01*
X1082Y306D01*
X1078Y306D01*
X1078Y308D01*
X1076Y308D01*
X1076Y310D01*
X250Y310D01*
G37*
D02*
G36*
X40Y278D02*
X40Y276D01*
X1122Y276D01*
X1122Y278D01*
X40Y278D01*
G37*
D02*
G36*
X40Y278D02*
X40Y276D01*
X1122Y276D01*
X1122Y278D01*
X40Y278D01*
G37*
D02*
G36*
X40Y276D02*
X40Y252D01*
X1156Y252D01*
X1156Y254D01*
X1152Y254D01*
X1152Y256D01*
X1150Y256D01*
X1150Y258D01*
X1146Y258D01*
X1146Y260D01*
X1144Y260D01*
X1144Y262D01*
X1142Y262D01*
X1142Y264D01*
X1138Y264D01*
X1138Y266D01*
X1136Y266D01*
X1136Y268D01*
X1132Y268D01*
X1132Y270D01*
X1130Y270D01*
X1130Y272D01*
X1126Y272D01*
X1126Y274D01*
X1124Y274D01*
X1124Y276D01*
X40Y276D01*
G37*
D02*
G36*
X40Y252D02*
X40Y250D01*
X3926Y250D01*
X3926Y252D01*
X40Y252D01*
G37*
D02*
G36*
X40Y252D02*
X40Y250D01*
X3926Y250D01*
X3926Y252D01*
X40Y252D01*
G37*
D02*
G36*
X40Y250D02*
X40Y168D01*
X3886Y168D01*
X3886Y166D01*
X3894Y166D01*
X3894Y164D01*
X3900Y164D01*
X3900Y162D01*
X3906Y162D01*
X3906Y160D01*
X3926Y160D01*
X3926Y250D01*
X40Y250D01*
G37*
D02*
G36*
X40Y168D02*
X40Y156D01*
X62Y156D01*
X62Y158D01*
X64Y158D01*
X64Y160D01*
X68Y160D01*
X68Y162D01*
X74Y162D01*
X74Y164D01*
X80Y164D01*
X80Y166D01*
X88Y166D01*
X88Y168D01*
X40Y168D01*
G37*
D02*
G36*
X112Y168D02*
X112Y166D01*
X120Y166D01*
X120Y164D01*
X126Y164D01*
X126Y162D01*
X130Y162D01*
X130Y160D01*
X134Y160D01*
X134Y158D01*
X138Y158D01*
X138Y156D01*
X142Y156D01*
X142Y154D01*
X144Y154D01*
X144Y152D01*
X146Y152D01*
X146Y150D01*
X148Y150D01*
X148Y148D01*
X150Y148D01*
X150Y146D01*
X152Y146D01*
X152Y144D01*
X154Y144D01*
X154Y142D01*
X156Y142D01*
X156Y140D01*
X158Y140D01*
X158Y138D01*
X160Y138D01*
X160Y134D01*
X162Y134D01*
X162Y130D01*
X164Y130D01*
X164Y128D01*
X166Y128D01*
X166Y122D01*
X168Y122D01*
X168Y118D01*
X170Y118D01*
X170Y110D01*
X172Y110D01*
X172Y80D01*
X170Y80D01*
X170Y72D01*
X168Y72D01*
X168Y68D01*
X166Y68D01*
X166Y64D01*
X164Y64D01*
X164Y60D01*
X162Y60D01*
X162Y40D01*
X3810Y40D01*
X3810Y62D01*
X3808Y62D01*
X3808Y68D01*
X3806Y68D01*
X3806Y72D01*
X3804Y72D01*
X3804Y80D01*
X3802Y80D01*
X3802Y110D01*
X3804Y110D01*
X3804Y118D01*
X3806Y118D01*
X3806Y124D01*
X3808Y124D01*
X3808Y128D01*
X3810Y128D01*
X3810Y132D01*
X3812Y132D01*
X3812Y134D01*
X3814Y134D01*
X3814Y138D01*
X3816Y138D01*
X3816Y140D01*
X3818Y140D01*
X3818Y142D01*
X3820Y142D01*
X3820Y144D01*
X3822Y144D01*
X3822Y148D01*
X3826Y148D01*
X3826Y150D01*
X3828Y150D01*
X3828Y152D01*
X3830Y152D01*
X3830Y154D01*
X3832Y154D01*
X3832Y156D01*
X3836Y156D01*
X3836Y158D01*
X3840Y158D01*
X3840Y160D01*
X3844Y160D01*
X3844Y162D01*
X3848Y162D01*
X3848Y164D01*
X3854Y164D01*
X3854Y166D01*
X3862Y166D01*
X3862Y168D01*
X112Y168D01*
G37*
D02*
G36*
X1229Y600D02*
X1276Y600D01*
X1276Y572D01*
X1229Y572D01*
X1229Y600D01*
G37*
D02*
G36*
X1229Y522D02*
X1276Y522D01*
X1276Y494D01*
X1229Y494D01*
X1229Y522D01*
G37*
D02*
G36*
X1198Y569D02*
X1227Y569D01*
X1227Y522D01*
X1198Y522D01*
X1198Y569D01*
G37*
D02*
G36*
X1277Y569D02*
X1304Y569D01*
X1304Y522D01*
X1277Y522D01*
X1277Y569D01*
G37*
D02*
G36*
X1873Y1816D02*
X1899Y1816D01*
X1899Y1791D01*
X1873Y1791D01*
X1873Y1816D01*
G37*
D02*
G36*
X1873Y1777D02*
X1899Y1777D01*
X1899Y1752D01*
X1873Y1752D01*
X1873Y1777D01*
G37*
D02*
G36*
X1854Y1796D02*
X1878Y1796D01*
X1878Y1771D01*
X1854Y1771D01*
X1854Y1796D01*
G37*
D02*
G36*
X1892Y1796D02*
X1916Y1796D01*
X1916Y1771D01*
X1892Y1771D01*
X1892Y1796D01*
G37*
D02*
G36*
X2679Y1780D02*
X2718Y1780D01*
X2718Y1753D01*
X2679Y1753D01*
X2679Y1780D01*
G37*
D02*
G36*
X2679Y1715D02*
X2718Y1715D01*
X2718Y1690D01*
X2679Y1690D01*
X2679Y1715D01*
G37*
D02*
G36*
X3279Y1780D02*
X3317Y1780D01*
X3317Y1753D01*
X3279Y1753D01*
X3279Y1780D01*
G37*
D02*
G36*
X3279Y1715D02*
X3317Y1715D01*
X3317Y1690D01*
X3279Y1690D01*
X3279Y1715D01*
G37*
D02*
G36*
X2979Y1780D02*
X3017Y1780D01*
X3017Y1753D01*
X2979Y1753D01*
X2979Y1780D01*
G37*
D02*
G36*
X2510Y1206D02*
X2541Y1206D01*
X2541Y1161D01*
X2510Y1161D01*
X2510Y1206D01*
G37*
D02*
G36*
X3394Y962D02*
X3441Y962D01*
X3441Y934D01*
X3394Y934D01*
X3394Y962D01*
G37*
D02*
G36*
X3394Y884D02*
X3441Y884D01*
X3441Y856D01*
X3394Y856D01*
X3394Y884D01*
G37*
D02*
G36*
X3441Y932D02*
X3470Y932D01*
X3470Y885D01*
X3441Y885D01*
X3441Y932D01*
G37*
D02*
G36*
X904Y479D02*
X932Y479D01*
X932Y438D01*
X904Y438D01*
X904Y479D01*
G37*
D02*
G04 End of Copper0*
M02*