G04 MADE WITH FRITZING*
G04 WWW.FRITZING.ORG*
G04 DOUBLE SIDED*
G04 HOLES PLATED*
G04 CONTOUR ON CENTER OF CONTOUR VECTOR*
%ASAXBY*%
%FSLAX23Y23*%
%MOIN*%
%OFA0B0*%
%SFA1.0B1.0*%
%ADD10C,0.078000*%
%ADD11C,0.082677*%
%ADD12C,0.066000*%
%ADD13C,0.138425*%
%ADD14C,0.070000*%
%ADD15C,0.039370*%
%ADD16R,0.078000X0.078000*%
%ADD17R,0.066333X0.138458*%
%ADD18R,0.066000X0.138000*%
%ADD19R,0.066333X0.138000*%
%ADD20R,0.067375X0.138458*%
%ADD21R,0.138708X0.067500*%
%ADD22C,0.016000*%
%ADD23C,0.024000*%
%LNCOPPER1*%
G90*
G70*
G54D10*
X3162Y1183D03*
X3062Y1183D03*
X2962Y1183D03*
X2862Y1183D03*
X2762Y1183D03*
X2662Y1183D03*
X2562Y1183D03*
G54D11*
X3262Y908D03*
X3102Y908D03*
X2942Y908D03*
X3419Y908D03*
X3262Y817D03*
X2942Y817D03*
X3102Y817D03*
G54D12*
X3500Y1933D03*
X3500Y2033D03*
X3500Y2133D03*
X3500Y1733D03*
X3400Y1733D03*
X3300Y1733D03*
X3200Y1733D03*
G54D13*
X3500Y2283D03*
G54D12*
X3100Y1733D03*
X3000Y1733D03*
X2900Y1733D03*
X2800Y1733D03*
X2700Y1733D03*
X2600Y1733D03*
X2500Y1733D03*
G54D13*
X2500Y2283D03*
G54D14*
X887Y358D03*
X887Y458D03*
G54D13*
X187Y358D03*
G54D14*
X887Y558D03*
X887Y658D03*
X887Y758D03*
X887Y858D03*
X887Y958D03*
X887Y1058D03*
X887Y1158D03*
G54D13*
X187Y1158D03*
G54D10*
X587Y2358D03*
X487Y2358D03*
X387Y2358D03*
G54D15*
X1887Y1783D03*
X562Y1958D03*
X562Y1108D03*
X487Y2058D03*
X387Y2008D03*
X1662Y1558D03*
G54D11*
X1254Y545D03*
X2139Y546D03*
X1981Y546D03*
X1824Y545D03*
X2295Y545D03*
X1566Y547D03*
X1410Y547D03*
G54D15*
X2437Y833D03*
X2437Y983D03*
X1262Y995D03*
X1262Y1258D03*
X1462Y1258D03*
G54D16*
X587Y2358D03*
G54D17*
X167Y1394D03*
G54D18*
X268Y1394D03*
X368Y1394D03*
X461Y1394D03*
X561Y1394D03*
X661Y1394D03*
X761Y1394D03*
X861Y1394D03*
X961Y1394D03*
X1061Y1394D03*
X1161Y1394D03*
X1261Y1394D03*
X1361Y1394D03*
X1461Y1394D03*
X1561Y1394D03*
X1661Y1394D03*
X1761Y1394D03*
X1861Y1394D03*
X1961Y1394D03*
G54D19*
X2067Y1394D03*
G54D20*
X2068Y2165D03*
G54D18*
X1961Y2173D03*
X1861Y2173D03*
X1761Y2173D03*
X1661Y2173D03*
X1561Y2173D03*
X1461Y2173D03*
X1361Y2173D03*
X1261Y2173D03*
X1161Y2173D03*
X1061Y2173D03*
X961Y2173D03*
X861Y2173D03*
X761Y2173D03*
X661Y2173D03*
X561Y2173D03*
X461Y2173D03*
X361Y2173D03*
X261Y2173D03*
G54D19*
X167Y2165D03*
G54D21*
X2093Y1679D03*
X2093Y1780D03*
X2093Y1880D03*
G54D22*
X2937Y670D02*
X2575Y670D01*
D02*
X2962Y1058D02*
X2962Y1164D01*
D02*
X3101Y934D02*
X3100Y983D01*
D02*
X3100Y983D02*
X2962Y1058D01*
D02*
X3025Y909D02*
X3025Y733D01*
D02*
X3025Y733D02*
X2937Y670D01*
D02*
X2575Y670D02*
X2442Y827D01*
D02*
X3077Y908D02*
X3025Y909D01*
D02*
X1416Y978D02*
X2429Y983D01*
D02*
X1162Y1283D02*
X1416Y978D01*
D02*
X1162Y1330D02*
X1162Y1283D01*
D02*
X2937Y983D02*
X2862Y1045D01*
D02*
X2940Y933D02*
X2937Y983D01*
D02*
X2862Y1045D02*
X2862Y1164D01*
D02*
X1388Y911D02*
X2917Y908D01*
D02*
X1062Y1330D02*
X1063Y1283D01*
D02*
X1063Y1283D02*
X1388Y911D01*
D02*
X3488Y1717D02*
X3263Y1395D01*
D02*
X3263Y1395D02*
X2095Y1394D01*
D02*
X3212Y1496D02*
X2012Y1495D01*
D02*
X3387Y1718D02*
X3212Y1496D01*
D02*
X2012Y1495D02*
X1989Y1448D01*
D02*
X3087Y1608D02*
X3186Y1718D01*
D02*
X1837Y1608D02*
X3087Y1608D01*
D02*
X1762Y1546D02*
X1837Y1608D01*
D02*
X1762Y1457D02*
X1762Y1546D01*
D02*
X2811Y1895D02*
X2563Y1895D01*
D02*
X2563Y1895D02*
X2224Y2359D01*
D02*
X2890Y1750D02*
X2811Y1895D01*
D02*
X2224Y2359D02*
X1712Y2359D01*
D02*
X1712Y2359D02*
X1662Y2283D01*
D02*
X1662Y2283D02*
X1662Y2236D01*
D02*
X2538Y1845D02*
X2737Y1845D01*
D02*
X2737Y1845D02*
X2790Y1750D01*
D02*
X2187Y2320D02*
X2538Y1845D01*
D02*
X1788Y2320D02*
X2187Y2320D01*
D02*
X1762Y2283D02*
X1788Y2320D01*
D02*
X1762Y2236D02*
X1762Y2283D01*
D02*
X2513Y1795D02*
X2162Y2283D01*
D02*
X2162Y2283D02*
X1987Y2283D01*
D02*
X2563Y1795D02*
X2513Y1795D01*
D02*
X1987Y2283D02*
X1962Y2258D01*
D02*
X2590Y1750D02*
X2563Y1795D01*
D02*
X1962Y2258D02*
X1962Y2236D01*
D02*
X2200Y2157D02*
X2137Y2157D01*
D02*
X2488Y1749D02*
X2200Y2157D01*
D02*
X2137Y2157D02*
X2096Y2162D01*
D02*
X606Y2358D02*
X1061Y2359D01*
D02*
X1061Y2359D02*
X1163Y2257D01*
D02*
X1163Y2257D02*
X1162Y2236D01*
D02*
X762Y982D02*
X873Y872D01*
D02*
X761Y1330D02*
X762Y982D01*
D02*
X462Y1007D02*
X874Y572D01*
D02*
X461Y1330D02*
X462Y1007D01*
D02*
X662Y908D02*
X874Y673D01*
D02*
X661Y1330D02*
X662Y908D01*
D02*
X562Y1330D02*
X562Y1116D01*
D02*
X562Y2110D02*
X562Y1966D01*
G54D23*
D02*
X1895Y1783D02*
X2030Y1781D01*
D02*
X212Y2058D02*
X287Y2058D01*
D02*
X312Y2008D02*
X379Y2008D01*
D02*
X287Y2058D02*
X312Y2008D01*
D02*
X194Y2101D02*
X212Y2058D01*
G54D22*
D02*
X1662Y1550D02*
X1662Y1457D01*
D02*
X3262Y670D02*
X3262Y791D01*
D02*
X3213Y595D02*
X3262Y670D01*
D02*
X2318Y554D02*
X2425Y595D01*
D02*
X2425Y595D02*
X3213Y595D01*
D02*
X2212Y458D02*
X2474Y458D01*
D02*
X2474Y458D02*
X2538Y521D01*
D02*
X3337Y909D02*
X3288Y908D01*
D02*
X3225Y520D02*
X3337Y682D01*
D02*
X2155Y526D02*
X2212Y458D01*
D02*
X3337Y682D02*
X3337Y909D01*
D02*
X2538Y521D02*
X3225Y520D01*
D02*
X1975Y670D02*
X1980Y572D01*
D02*
X2112Y832D02*
X1975Y670D01*
D02*
X2429Y833D02*
X2112Y832D01*
D02*
X1174Y458D02*
X2087Y458D01*
D02*
X1087Y1121D02*
X1087Y533D01*
D02*
X1087Y533D02*
X1174Y458D01*
D02*
X2087Y458D02*
X2126Y524D01*
D02*
X962Y1283D02*
X1087Y1121D01*
D02*
X962Y1330D02*
X962Y1283D01*
D02*
X1674Y832D02*
X1824Y658D01*
D02*
X1824Y658D02*
X1824Y570D01*
D02*
X1388Y911D02*
X1463Y832D01*
D02*
X1463Y832D02*
X1674Y832D01*
D02*
X1263Y949D02*
X1562Y646D01*
D02*
X1562Y646D02*
X1565Y572D01*
D02*
X1263Y949D02*
X1262Y988D01*
D02*
X1462Y1266D02*
X1462Y1330D01*
D02*
X1262Y1266D02*
X1262Y1330D01*
D02*
X2075Y1196D02*
X2199Y1308D01*
D02*
X2199Y1308D02*
X2587Y1308D01*
D02*
X2587Y1308D02*
X2661Y1257D01*
D02*
X2661Y1257D02*
X2662Y1202D01*
D02*
X1466Y1251D02*
X1500Y1195D01*
D02*
X1500Y1195D02*
X2075Y1196D01*
G04 End of Copper1*
M02*