G04 MADE WITH FRITZING*
G04 WWW.FRITZING.ORG*
G04 DOUBLE SIDED*
G04 HOLES PLATED*
G04 CONTOUR ON CENTER OF CONTOUR VECTOR*
%ASAXBY*%
%FSLAX23Y23*%
%MOIN*%
%OFA0B0*%
%SFA1.0B1.0*%
%ADD10C,0.138425*%
%ADD11C,0.070000*%
%ADD12C,0.058000*%
%ADD13R,0.066333X0.138458*%
%ADD14R,0.066000X0.138000*%
%ADD15R,0.066333X0.138000*%
%ADD16R,0.067375X0.138458*%
%ADD17R,0.138708X0.067500*%
%ADD18R,0.001000X0.001000*%
%LNPASTEMASK1*%
G90*
G70*
G54D10*
X3500Y2283D03*
X2500Y2283D03*
X187Y358D03*
X187Y1158D03*
G54D11*
X173Y1886D03*
X173Y1672D03*
G54D12*
X293Y1683D03*
X293Y1874D03*
G54D13*
X167Y1394D03*
G54D14*
X268Y1394D03*
X368Y1394D03*
X461Y1394D03*
X561Y1394D03*
X661Y1394D03*
X761Y1394D03*
X861Y1394D03*
X961Y1394D03*
X1061Y1394D03*
X1161Y1394D03*
X1261Y1394D03*
X1361Y1394D03*
X1461Y1394D03*
X1561Y1394D03*
X1661Y1394D03*
X1761Y1394D03*
X1861Y1394D03*
X1961Y1394D03*
G54D15*
X2067Y1394D03*
G54D16*
X2068Y2165D03*
G54D14*
X1961Y2173D03*
X1861Y2173D03*
X1761Y2173D03*
X1661Y2173D03*
X1561Y2173D03*
X1461Y2173D03*
X1361Y2173D03*
X1261Y2173D03*
X1161Y2173D03*
X1061Y2173D03*
X961Y2173D03*
X861Y2173D03*
X761Y2173D03*
X661Y2173D03*
X561Y2173D03*
X461Y2173D03*
X361Y2173D03*
X261Y2173D03*
G54D15*
X167Y2165D03*
G54D17*
X2093Y1679D03*
X2093Y1780D03*
X2093Y1880D03*
G54D18*
D02*
G04 End of PasteMask1*
M02*