; NON-PLATED HOLES START AT T1
; THROUGH (PLATED) HOLES START AT T100
M48
INCH
T1C0.070000
T2C0.150000
T3C0.125984
T4C0.058000
T5C0.086614
T100C0.098425
T101C0.015748
T102C0.038000
T103C0.051181
T104C0.039370
%
T1
X001727Y016716
X001727Y018862
T2
X027882Y004083
X035752Y004083
T3
X000996Y000954
X038742Y023579
X038742Y000954
X000996Y023579
T4
X002925Y018737
X002925Y016831
T5
X024996Y022829
X001871Y011579
X001871Y003579
X034996Y022829
T100
X024996Y022829
X001871Y011579
X001871Y003579
X034996Y022829
T101
X016621Y015579
X012621Y012579
X024371Y008329
X014621Y012579
X024371Y009829
X005621Y019579
X018871Y017829
X012621Y009954
X005621Y011079
X004871Y020579
X003871Y020079
T102
X005871Y023579
X029621Y011829
X027621Y011829
X026621Y011829
X004871Y023579
X031621Y011829
X030621Y011829
X028621Y011829
X025621Y011829
X003871Y023579
T103
X032621Y008169
X031021Y008169
X012536Y005454
X018235Y005445
X029421Y008169
X022945Y005445
X021386Y005456
X029421Y009079
X034190Y009079
X032621Y009079
X031021Y009079
X014096Y005466
X019811Y005462
X015663Y005468
T104
X008871Y008579
X033996Y017329
X031996Y017329
X008871Y006579
X008871Y003579
X008871Y010579
X025996Y017329
X008871Y009579
X029996Y017329
X008871Y011579
X008871Y007579
X030996Y017329
X034996Y021329
X024996Y017329
X027996Y017329
X034996Y019329
X034996Y017329
X008871Y004579
X008871Y005579
X032996Y017329
X034996Y020329
X026996Y017329
X028996Y017329
T00
M30
