G04 MADE WITH FRITZING*
G04 WWW.FRITZING.ORG*
G04 DOUBLE SIDED*
G04 HOLES PLATED*
G04 CONTOUR ON CENTER OF CONTOUR VECTOR*
%ASAXBY*%
%FSLAX23Y23*%
%MOIN*%
%OFA0B0*%
%SFA1.0B1.0*%
%ADD10C,0.092677*%
%ADD11C,0.160000*%
%ADD12C,0.076000*%
%ADD13C,0.148425*%
%ADD14C,0.080000*%
%ADD15C,0.135984*%
%ADD16C,0.088000*%
%ADD17C,0.096614*%
%ADD18C,0.049370*%
%ADD19R,0.088000X0.088000*%
%LNMASK0*%
G90*
G70*
G54D10*
X1837Y799D03*
X3170Y799D03*
X1677Y799D03*
X3010Y799D03*
X1517Y799D03*
X2851Y708D03*
X1676Y707D03*
X3008Y707D03*
X1516Y705D03*
X2849Y799D03*
X1994Y799D03*
X3331Y797D03*
X1837Y708D03*
X3175Y708D03*
G54D11*
X2150Y299D03*
X3488Y299D03*
X1363Y299D03*
X2701Y299D03*
G54D12*
X3500Y1933D03*
X3500Y2033D03*
X3500Y2133D03*
X3500Y1733D03*
X3400Y1733D03*
X3300Y1733D03*
X3200Y1733D03*
G54D13*
X3500Y2283D03*
G54D12*
X3100Y1733D03*
X3000Y1733D03*
X2900Y1733D03*
X2800Y1733D03*
X2700Y1733D03*
X2600Y1733D03*
X2500Y1733D03*
G54D13*
X2500Y2283D03*
G54D14*
X887Y358D03*
X887Y458D03*
G54D13*
X187Y358D03*
G54D14*
X887Y558D03*
X887Y658D03*
X887Y758D03*
X887Y858D03*
X887Y958D03*
X887Y1058D03*
X887Y1158D03*
G54D13*
X187Y1158D03*
G54D15*
X100Y2358D03*
X100Y95D03*
X3874Y95D03*
X3874Y2358D03*
G54D16*
X587Y2358D03*
X487Y2358D03*
X387Y2358D03*
G54D17*
X3500Y2283D03*
X2500Y2283D03*
X187Y1158D03*
X187Y358D03*
G54D18*
X1887Y1783D03*
X562Y1958D03*
X562Y1108D03*
X487Y2058D03*
X387Y2008D03*
X1662Y1558D03*
X962Y1258D03*
X3175Y945D03*
X1837Y958D03*
X1262Y1258D03*
G54D19*
X587Y2358D03*
G04 End of Mask0*
M02*