G04 MADE WITH FRITZING*
G04 WWW.FRITZING.ORG*
G04 DOUBLE SIDED*
G04 HOLES PLATED*
G04 CONTOUR ON CENTER OF CONTOUR VECTOR*
%ASAXBY*%
%FSLAX23Y23*%
%MOIN*%
%OFA0B0*%
%SFA1.0B1.0*%
%ADD10C,0.075000*%
%ADD11C,0.082677*%
%ADD12C,0.066000*%
%ADD13C,0.138425*%
%ADD14C,0.070000*%
%ADD15C,0.078000*%
%ADD16C,0.039370*%
%ADD17R,0.078000X0.078000*%
%ADD18C,0.016000*%
%ADD19C,0.024000*%
%ADD20C,0.012000*%
%LNCOPPER0*%
G90*
G70*
G54D10*
X3603Y2369D03*
G54D11*
X1837Y799D03*
X3170Y799D03*
X1677Y799D03*
X3010Y799D03*
X1517Y799D03*
X2851Y708D03*
X1676Y707D03*
X2849Y799D03*
X3008Y707D03*
X1516Y705D03*
X1994Y799D03*
X3331Y797D03*
X1837Y708D03*
X3175Y708D03*
G54D12*
X3500Y1933D03*
X3500Y2033D03*
X3500Y2133D03*
X3500Y1733D03*
X3400Y1733D03*
X3300Y1733D03*
X3200Y1733D03*
G54D13*
X3500Y2283D03*
G54D12*
X3100Y1733D03*
X3000Y1733D03*
X2900Y1733D03*
X2800Y1733D03*
X2700Y1733D03*
X2600Y1733D03*
X2500Y1733D03*
G54D13*
X2500Y2283D03*
G54D14*
X887Y358D03*
X887Y458D03*
G54D13*
X187Y358D03*
G54D14*
X887Y558D03*
X887Y658D03*
X887Y758D03*
X887Y858D03*
X887Y958D03*
X887Y1058D03*
X887Y1158D03*
G54D13*
X187Y1158D03*
G54D15*
X587Y2358D03*
X487Y2358D03*
X387Y2358D03*
G54D16*
X1887Y1783D03*
X562Y1958D03*
X562Y1108D03*
X487Y2058D03*
X387Y2008D03*
X1662Y1558D03*
X962Y1258D03*
X3175Y945D03*
X1837Y958D03*
X1262Y1258D03*
G54D17*
X587Y2358D03*
G54D18*
X568Y1102D02*
X874Y772D01*
D02*
X412Y1858D02*
X556Y1954D01*
D02*
X413Y833D02*
X412Y1858D01*
D02*
X873Y372D02*
X413Y833D01*
G54D19*
D02*
X487Y2066D02*
X487Y2339D01*
D02*
X1713Y2009D02*
X395Y2008D01*
D02*
X3188Y1934D02*
X1911Y1934D01*
D02*
X1911Y1934D02*
X1713Y2009D01*
D02*
X3480Y1933D02*
X3188Y1934D01*
G54D18*
D02*
X1724Y1608D02*
X1668Y1563D01*
D02*
X2962Y1608D02*
X1724Y1608D01*
D02*
X3085Y1720D02*
X2962Y1608D01*
G54D20*
D02*
X1163Y1071D02*
X968Y1253D01*
D02*
X1838Y1033D02*
X1800Y1071D01*
D02*
X1800Y1071D02*
X1163Y1071D01*
D02*
X1837Y966D02*
X1838Y1033D01*
G54D18*
D02*
X1437Y1120D02*
X1268Y1253D01*
D02*
X3175Y1045D02*
X3099Y1120D01*
D02*
X3175Y953D02*
X3175Y1045D01*
D02*
X3099Y1120D02*
X1437Y1120D01*
G36*
X152Y2428D02*
X152Y2408D01*
X154Y2408D01*
X154Y2406D01*
X636Y2406D01*
X636Y2362D01*
X3510Y2362D01*
X3510Y2360D01*
X3520Y2360D01*
X3520Y2358D01*
X3526Y2358D01*
X3526Y2356D01*
X3532Y2356D01*
X3532Y2354D01*
X3536Y2354D01*
X3536Y2352D01*
X3540Y2352D01*
X3540Y2350D01*
X3542Y2350D01*
X3542Y2348D01*
X3546Y2348D01*
X3546Y2346D01*
X3548Y2346D01*
X3548Y2344D01*
X3550Y2344D01*
X3550Y2342D01*
X3554Y2342D01*
X3554Y2340D01*
X3556Y2340D01*
X3556Y2338D01*
X3558Y2338D01*
X3558Y2334D01*
X3560Y2334D01*
X3560Y2332D01*
X3562Y2332D01*
X3562Y2330D01*
X3564Y2330D01*
X3564Y2328D01*
X3566Y2328D01*
X3566Y2324D01*
X3568Y2324D01*
X3568Y2320D01*
X3570Y2320D01*
X3570Y2316D01*
X3572Y2316D01*
X3572Y2312D01*
X3574Y2312D01*
X3574Y2306D01*
X3576Y2306D01*
X3576Y2300D01*
X3578Y2300D01*
X3578Y2284D01*
X3868Y2284D01*
X3868Y2286D01*
X3856Y2286D01*
X3856Y2288D01*
X3850Y2288D01*
X3850Y2290D01*
X3844Y2290D01*
X3844Y2292D01*
X3840Y2292D01*
X3840Y2294D01*
X3838Y2294D01*
X3838Y2296D01*
X3834Y2296D01*
X3834Y2298D01*
X3830Y2298D01*
X3830Y2300D01*
X3828Y2300D01*
X3828Y2302D01*
X3826Y2302D01*
X3826Y2304D01*
X3824Y2304D01*
X3824Y2306D01*
X3822Y2306D01*
X3822Y2308D01*
X3820Y2308D01*
X3820Y2310D01*
X3818Y2310D01*
X3818Y2312D01*
X3816Y2312D01*
X3816Y2316D01*
X3814Y2316D01*
X3814Y2318D01*
X3812Y2318D01*
X3812Y2322D01*
X3810Y2322D01*
X3810Y2326D01*
X3808Y2326D01*
X3808Y2330D01*
X3806Y2330D01*
X3806Y2334D01*
X3804Y2334D01*
X3804Y2342D01*
X3802Y2342D01*
X3802Y2374D01*
X3804Y2374D01*
X3804Y2380D01*
X3806Y2380D01*
X3806Y2386D01*
X3808Y2386D01*
X3808Y2390D01*
X3810Y2390D01*
X3810Y2394D01*
X3812Y2394D01*
X3812Y2398D01*
X3814Y2398D01*
X3814Y2400D01*
X3816Y2400D01*
X3816Y2402D01*
X3818Y2402D01*
X3818Y2406D01*
X3820Y2406D01*
X3820Y2408D01*
X3822Y2408D01*
X3822Y2428D01*
X152Y2428D01*
G37*
D02*
G36*
X156Y2406D02*
X156Y2402D01*
X158Y2402D01*
X158Y2400D01*
X160Y2400D01*
X160Y2396D01*
X162Y2396D01*
X162Y2394D01*
X164Y2394D01*
X164Y2390D01*
X166Y2390D01*
X166Y2386D01*
X168Y2386D01*
X168Y2380D01*
X170Y2380D01*
X170Y2372D01*
X172Y2372D01*
X172Y2342D01*
X170Y2342D01*
X170Y2336D01*
X168Y2336D01*
X168Y2330D01*
X166Y2330D01*
X166Y2326D01*
X164Y2326D01*
X164Y2322D01*
X162Y2322D01*
X162Y2318D01*
X160Y2318D01*
X160Y2316D01*
X158Y2316D01*
X158Y2312D01*
X156Y2312D01*
X156Y2310D01*
X154Y2310D01*
X154Y2308D01*
X382Y2308D01*
X382Y2310D01*
X372Y2310D01*
X372Y2312D01*
X368Y2312D01*
X368Y2314D01*
X364Y2314D01*
X364Y2316D01*
X360Y2316D01*
X360Y2318D01*
X358Y2318D01*
X358Y2320D01*
X354Y2320D01*
X354Y2322D01*
X352Y2322D01*
X352Y2324D01*
X350Y2324D01*
X350Y2328D01*
X348Y2328D01*
X348Y2330D01*
X346Y2330D01*
X346Y2334D01*
X344Y2334D01*
X344Y2336D01*
X342Y2336D01*
X342Y2342D01*
X340Y2342D01*
X340Y2350D01*
X338Y2350D01*
X338Y2366D01*
X340Y2366D01*
X340Y2374D01*
X342Y2374D01*
X342Y2378D01*
X344Y2378D01*
X344Y2382D01*
X346Y2382D01*
X346Y2386D01*
X348Y2386D01*
X348Y2388D01*
X350Y2388D01*
X350Y2390D01*
X352Y2390D01*
X352Y2392D01*
X354Y2392D01*
X354Y2394D01*
X356Y2394D01*
X356Y2396D01*
X358Y2396D01*
X358Y2398D01*
X362Y2398D01*
X362Y2400D01*
X364Y2400D01*
X364Y2402D01*
X368Y2402D01*
X368Y2404D01*
X376Y2404D01*
X376Y2406D01*
X156Y2406D01*
G37*
D02*
G36*
X398Y2406D02*
X398Y2404D01*
X406Y2404D01*
X406Y2402D01*
X410Y2402D01*
X410Y2400D01*
X412Y2400D01*
X412Y2398D01*
X416Y2398D01*
X416Y2396D01*
X418Y2396D01*
X418Y2394D01*
X420Y2394D01*
X420Y2392D01*
X422Y2392D01*
X422Y2390D01*
X424Y2390D01*
X424Y2388D01*
X426Y2388D01*
X426Y2386D01*
X448Y2386D01*
X448Y2388D01*
X450Y2388D01*
X450Y2390D01*
X452Y2390D01*
X452Y2392D01*
X454Y2392D01*
X454Y2394D01*
X456Y2394D01*
X456Y2396D01*
X458Y2396D01*
X458Y2398D01*
X462Y2398D01*
X462Y2400D01*
X464Y2400D01*
X464Y2402D01*
X468Y2402D01*
X468Y2404D01*
X476Y2404D01*
X476Y2406D01*
X398Y2406D01*
G37*
D02*
G36*
X498Y2406D02*
X498Y2404D01*
X506Y2404D01*
X506Y2402D01*
X510Y2402D01*
X510Y2400D01*
X512Y2400D01*
X512Y2398D01*
X516Y2398D01*
X516Y2396D01*
X518Y2396D01*
X518Y2394D01*
X538Y2394D01*
X538Y2406D01*
X498Y2406D01*
G37*
D02*
G36*
X636Y2362D02*
X636Y2308D01*
X2426Y2308D01*
X2426Y2314D01*
X2428Y2314D01*
X2428Y2318D01*
X2430Y2318D01*
X2430Y2322D01*
X2432Y2322D01*
X2432Y2326D01*
X2434Y2326D01*
X2434Y2328D01*
X2436Y2328D01*
X2436Y2330D01*
X2438Y2330D01*
X2438Y2334D01*
X2440Y2334D01*
X2440Y2336D01*
X2442Y2336D01*
X2442Y2338D01*
X2444Y2338D01*
X2444Y2340D01*
X2446Y2340D01*
X2446Y2342D01*
X2448Y2342D01*
X2448Y2344D01*
X2452Y2344D01*
X2452Y2346D01*
X2454Y2346D01*
X2454Y2348D01*
X2456Y2348D01*
X2456Y2350D01*
X2460Y2350D01*
X2460Y2352D01*
X2464Y2352D01*
X2464Y2354D01*
X2468Y2354D01*
X2468Y2356D01*
X2472Y2356D01*
X2472Y2358D01*
X2480Y2358D01*
X2480Y2360D01*
X2490Y2360D01*
X2490Y2362D01*
X636Y2362D01*
G37*
D02*
G36*
X2510Y2362D02*
X2510Y2360D01*
X2520Y2360D01*
X2520Y2358D01*
X2526Y2358D01*
X2526Y2356D01*
X2532Y2356D01*
X2532Y2354D01*
X2536Y2354D01*
X2536Y2352D01*
X2540Y2352D01*
X2540Y2350D01*
X2542Y2350D01*
X2542Y2348D01*
X2546Y2348D01*
X2546Y2346D01*
X2548Y2346D01*
X2548Y2344D01*
X2550Y2344D01*
X2550Y2342D01*
X2554Y2342D01*
X2554Y2340D01*
X2556Y2340D01*
X2556Y2338D01*
X2558Y2338D01*
X2558Y2334D01*
X2560Y2334D01*
X2560Y2332D01*
X2562Y2332D01*
X2562Y2330D01*
X2564Y2330D01*
X2564Y2328D01*
X2566Y2328D01*
X2566Y2324D01*
X2568Y2324D01*
X2568Y2320D01*
X2570Y2320D01*
X2570Y2316D01*
X2572Y2316D01*
X2572Y2312D01*
X2574Y2312D01*
X2574Y2306D01*
X2576Y2306D01*
X2576Y2300D01*
X2578Y2300D01*
X2578Y2266D01*
X2576Y2266D01*
X2576Y2258D01*
X2574Y2258D01*
X2574Y2252D01*
X2572Y2252D01*
X2572Y2248D01*
X2570Y2248D01*
X2570Y2244D01*
X2568Y2244D01*
X2568Y2242D01*
X2566Y2242D01*
X2566Y2238D01*
X2564Y2238D01*
X2564Y2236D01*
X2562Y2236D01*
X2562Y2232D01*
X2560Y2232D01*
X2560Y2230D01*
X2558Y2230D01*
X2558Y2228D01*
X2556Y2228D01*
X2556Y2226D01*
X2554Y2226D01*
X2554Y2224D01*
X2552Y2224D01*
X2552Y2222D01*
X2550Y2222D01*
X2550Y2220D01*
X2546Y2220D01*
X2546Y2218D01*
X2544Y2218D01*
X2544Y2216D01*
X2540Y2216D01*
X2540Y2214D01*
X2538Y2214D01*
X2538Y2212D01*
X2534Y2212D01*
X2534Y2210D01*
X2528Y2210D01*
X2528Y2208D01*
X2524Y2208D01*
X2524Y2206D01*
X2516Y2206D01*
X2516Y2204D01*
X3484Y2204D01*
X3484Y2206D01*
X3476Y2206D01*
X3476Y2208D01*
X3470Y2208D01*
X3470Y2210D01*
X3466Y2210D01*
X3466Y2212D01*
X3462Y2212D01*
X3462Y2214D01*
X3458Y2214D01*
X3458Y2216D01*
X3456Y2216D01*
X3456Y2218D01*
X3452Y2218D01*
X3452Y2220D01*
X3450Y2220D01*
X3450Y2222D01*
X3448Y2222D01*
X3448Y2224D01*
X3446Y2224D01*
X3446Y2226D01*
X3444Y2226D01*
X3444Y2228D01*
X3442Y2228D01*
X3442Y2230D01*
X3440Y2230D01*
X3440Y2232D01*
X3438Y2232D01*
X3438Y2234D01*
X3436Y2234D01*
X3436Y2238D01*
X3434Y2238D01*
X3434Y2240D01*
X3432Y2240D01*
X3432Y2244D01*
X3430Y2244D01*
X3430Y2248D01*
X3428Y2248D01*
X3428Y2252D01*
X3426Y2252D01*
X3426Y2256D01*
X3424Y2256D01*
X3424Y2264D01*
X3422Y2264D01*
X3422Y2274D01*
X3420Y2274D01*
X3420Y2292D01*
X3422Y2292D01*
X3422Y2302D01*
X3424Y2302D01*
X3424Y2308D01*
X3426Y2308D01*
X3426Y2314D01*
X3428Y2314D01*
X3428Y2318D01*
X3430Y2318D01*
X3430Y2322D01*
X3432Y2322D01*
X3432Y2326D01*
X3434Y2326D01*
X3434Y2328D01*
X3436Y2328D01*
X3436Y2330D01*
X3438Y2330D01*
X3438Y2334D01*
X3440Y2334D01*
X3440Y2336D01*
X3442Y2336D01*
X3442Y2338D01*
X3444Y2338D01*
X3444Y2340D01*
X3446Y2340D01*
X3446Y2342D01*
X3448Y2342D01*
X3448Y2344D01*
X3452Y2344D01*
X3452Y2346D01*
X3454Y2346D01*
X3454Y2348D01*
X3456Y2348D01*
X3456Y2350D01*
X3460Y2350D01*
X3460Y2352D01*
X3464Y2352D01*
X3464Y2354D01*
X3468Y2354D01*
X3468Y2356D01*
X3472Y2356D01*
X3472Y2358D01*
X3480Y2358D01*
X3480Y2360D01*
X3490Y2360D01*
X3490Y2362D01*
X2510Y2362D01*
G37*
D02*
G36*
X426Y2330D02*
X426Y2326D01*
X424Y2326D01*
X424Y2324D01*
X422Y2324D01*
X422Y2322D01*
X420Y2322D01*
X420Y2320D01*
X416Y2320D01*
X416Y2318D01*
X414Y2318D01*
X414Y2316D01*
X410Y2316D01*
X410Y2314D01*
X408Y2314D01*
X408Y2312D01*
X402Y2312D01*
X402Y2310D01*
X392Y2310D01*
X392Y2308D01*
X482Y2308D01*
X482Y2310D01*
X472Y2310D01*
X472Y2312D01*
X468Y2312D01*
X468Y2314D01*
X464Y2314D01*
X464Y2316D01*
X460Y2316D01*
X460Y2318D01*
X458Y2318D01*
X458Y2320D01*
X454Y2320D01*
X454Y2322D01*
X452Y2322D01*
X452Y2324D01*
X450Y2324D01*
X450Y2328D01*
X448Y2328D01*
X448Y2330D01*
X426Y2330D01*
G37*
D02*
G36*
X516Y2320D02*
X516Y2318D01*
X514Y2318D01*
X514Y2316D01*
X510Y2316D01*
X510Y2314D01*
X508Y2314D01*
X508Y2312D01*
X502Y2312D01*
X502Y2310D01*
X492Y2310D01*
X492Y2308D01*
X538Y2308D01*
X538Y2320D01*
X516Y2320D01*
G37*
D02*
G36*
X152Y2308D02*
X152Y2306D01*
X2424Y2306D01*
X2424Y2308D01*
X152Y2308D01*
G37*
D02*
G36*
X152Y2308D02*
X152Y2306D01*
X2424Y2306D01*
X2424Y2308D01*
X152Y2308D01*
G37*
D02*
G36*
X152Y2308D02*
X152Y2306D01*
X2424Y2306D01*
X2424Y2308D01*
X152Y2308D01*
G37*
D02*
G36*
X152Y2308D02*
X152Y2306D01*
X2424Y2306D01*
X2424Y2308D01*
X152Y2308D01*
G37*
D02*
G36*
X150Y2306D02*
X150Y2304D01*
X148Y2304D01*
X148Y2302D01*
X146Y2302D01*
X146Y2300D01*
X142Y2300D01*
X142Y2298D01*
X140Y2298D01*
X140Y2296D01*
X136Y2296D01*
X136Y2294D01*
X134Y2294D01*
X134Y2292D01*
X130Y2292D01*
X130Y2290D01*
X124Y2290D01*
X124Y2288D01*
X118Y2288D01*
X118Y2286D01*
X106Y2286D01*
X106Y2284D01*
X2420Y2284D01*
X2420Y2292D01*
X2422Y2292D01*
X2422Y2302D01*
X2424Y2302D01*
X2424Y2306D01*
X150Y2306D01*
G37*
D02*
G36*
X40Y2298D02*
X40Y2284D01*
X92Y2284D01*
X92Y2286D01*
X82Y2286D01*
X82Y2288D01*
X76Y2288D01*
X76Y2290D01*
X70Y2290D01*
X70Y2292D01*
X66Y2292D01*
X66Y2294D01*
X62Y2294D01*
X62Y2296D01*
X60Y2296D01*
X60Y2298D01*
X40Y2298D01*
G37*
D02*
G36*
X3904Y2292D02*
X3904Y2290D01*
X3898Y2290D01*
X3898Y2288D01*
X3892Y2288D01*
X3892Y2286D01*
X3882Y2286D01*
X3882Y2284D01*
X3926Y2284D01*
X3926Y2292D01*
X3904Y2292D01*
G37*
D02*
G36*
X40Y2284D02*
X40Y2282D01*
X2420Y2282D01*
X2420Y2284D01*
X40Y2284D01*
G37*
D02*
G36*
X40Y2284D02*
X40Y2282D01*
X2420Y2282D01*
X2420Y2284D01*
X40Y2284D01*
G37*
D02*
G36*
X3578Y2284D02*
X3578Y2282D01*
X3926Y2282D01*
X3926Y2284D01*
X3578Y2284D01*
G37*
D02*
G36*
X3578Y2284D02*
X3578Y2282D01*
X3926Y2282D01*
X3926Y2284D01*
X3578Y2284D01*
G37*
D02*
G36*
X40Y2282D02*
X40Y2204D01*
X2484Y2204D01*
X2484Y2206D01*
X2476Y2206D01*
X2476Y2208D01*
X2470Y2208D01*
X2470Y2210D01*
X2466Y2210D01*
X2466Y2212D01*
X2462Y2212D01*
X2462Y2214D01*
X2458Y2214D01*
X2458Y2216D01*
X2456Y2216D01*
X2456Y2218D01*
X2452Y2218D01*
X2452Y2220D01*
X2450Y2220D01*
X2450Y2222D01*
X2448Y2222D01*
X2448Y2224D01*
X2446Y2224D01*
X2446Y2226D01*
X2444Y2226D01*
X2444Y2228D01*
X2442Y2228D01*
X2442Y2230D01*
X2440Y2230D01*
X2440Y2232D01*
X2438Y2232D01*
X2438Y2234D01*
X2436Y2234D01*
X2436Y2238D01*
X2434Y2238D01*
X2434Y2240D01*
X2432Y2240D01*
X2432Y2244D01*
X2430Y2244D01*
X2430Y2248D01*
X2428Y2248D01*
X2428Y2252D01*
X2426Y2252D01*
X2426Y2256D01*
X2424Y2256D01*
X2424Y2264D01*
X2422Y2264D01*
X2422Y2274D01*
X2420Y2274D01*
X2420Y2282D01*
X40Y2282D01*
G37*
D02*
G36*
X3578Y2282D02*
X3578Y2266D01*
X3576Y2266D01*
X3576Y2258D01*
X3574Y2258D01*
X3574Y2252D01*
X3572Y2252D01*
X3572Y2248D01*
X3570Y2248D01*
X3570Y2244D01*
X3568Y2244D01*
X3568Y2242D01*
X3566Y2242D01*
X3566Y2238D01*
X3564Y2238D01*
X3564Y2236D01*
X3562Y2236D01*
X3562Y2232D01*
X3560Y2232D01*
X3560Y2230D01*
X3558Y2230D01*
X3558Y2228D01*
X3556Y2228D01*
X3556Y2226D01*
X3554Y2226D01*
X3554Y2224D01*
X3552Y2224D01*
X3552Y2222D01*
X3550Y2222D01*
X3550Y2220D01*
X3546Y2220D01*
X3546Y2218D01*
X3544Y2218D01*
X3544Y2216D01*
X3540Y2216D01*
X3540Y2214D01*
X3538Y2214D01*
X3538Y2212D01*
X3534Y2212D01*
X3534Y2210D01*
X3528Y2210D01*
X3528Y2208D01*
X3524Y2208D01*
X3524Y2206D01*
X3516Y2206D01*
X3516Y2204D01*
X3926Y2204D01*
X3926Y2282D01*
X3578Y2282D01*
G37*
D02*
G36*
X40Y2204D02*
X40Y2202D01*
X3926Y2202D01*
X3926Y2204D01*
X40Y2204D01*
G37*
D02*
G36*
X40Y2204D02*
X40Y2202D01*
X3926Y2202D01*
X3926Y2204D01*
X40Y2204D01*
G37*
D02*
G36*
X40Y2204D02*
X40Y2202D01*
X3926Y2202D01*
X3926Y2204D01*
X40Y2204D01*
G37*
D02*
G36*
X40Y2202D02*
X40Y2176D01*
X3506Y2176D01*
X3506Y2174D01*
X3514Y2174D01*
X3514Y2172D01*
X3518Y2172D01*
X3518Y2170D01*
X3522Y2170D01*
X3522Y2168D01*
X3526Y2168D01*
X3526Y2166D01*
X3528Y2166D01*
X3528Y2164D01*
X3530Y2164D01*
X3530Y2162D01*
X3532Y2162D01*
X3532Y2160D01*
X3534Y2160D01*
X3534Y2156D01*
X3536Y2156D01*
X3536Y2154D01*
X3538Y2154D01*
X3538Y2150D01*
X3540Y2150D01*
X3540Y2144D01*
X3542Y2144D01*
X3542Y2122D01*
X3540Y2122D01*
X3540Y2116D01*
X3538Y2116D01*
X3538Y2112D01*
X3536Y2112D01*
X3536Y2108D01*
X3534Y2108D01*
X3534Y2106D01*
X3532Y2106D01*
X3532Y2104D01*
X3530Y2104D01*
X3530Y2102D01*
X3528Y2102D01*
X3528Y2100D01*
X3526Y2100D01*
X3526Y2098D01*
X3524Y2098D01*
X3524Y2096D01*
X3520Y2096D01*
X3520Y2094D01*
X3516Y2094D01*
X3516Y2092D01*
X3514Y2092D01*
X3514Y2072D01*
X3518Y2072D01*
X3518Y2070D01*
X3522Y2070D01*
X3522Y2068D01*
X3526Y2068D01*
X3526Y2066D01*
X3528Y2066D01*
X3528Y2064D01*
X3530Y2064D01*
X3530Y2062D01*
X3532Y2062D01*
X3532Y2060D01*
X3534Y2060D01*
X3534Y2056D01*
X3536Y2056D01*
X3536Y2054D01*
X3538Y2054D01*
X3538Y2050D01*
X3540Y2050D01*
X3540Y2044D01*
X3542Y2044D01*
X3542Y2022D01*
X3540Y2022D01*
X3540Y2016D01*
X3538Y2016D01*
X3538Y2012D01*
X3536Y2012D01*
X3536Y2008D01*
X3534Y2008D01*
X3534Y2006D01*
X3532Y2006D01*
X3532Y2004D01*
X3530Y2004D01*
X3530Y2002D01*
X3528Y2002D01*
X3528Y2000D01*
X3526Y2000D01*
X3526Y1998D01*
X3524Y1998D01*
X3524Y1996D01*
X3520Y1996D01*
X3520Y1994D01*
X3516Y1994D01*
X3516Y1992D01*
X3514Y1992D01*
X3514Y1972D01*
X3518Y1972D01*
X3518Y1970D01*
X3522Y1970D01*
X3522Y1968D01*
X3526Y1968D01*
X3526Y1966D01*
X3528Y1966D01*
X3528Y1964D01*
X3530Y1964D01*
X3530Y1962D01*
X3532Y1962D01*
X3532Y1960D01*
X3534Y1960D01*
X3534Y1956D01*
X3536Y1956D01*
X3536Y1954D01*
X3538Y1954D01*
X3538Y1950D01*
X3540Y1950D01*
X3540Y1944D01*
X3542Y1944D01*
X3542Y1922D01*
X3540Y1922D01*
X3540Y1916D01*
X3538Y1916D01*
X3538Y1912D01*
X3536Y1912D01*
X3536Y1908D01*
X3534Y1908D01*
X3534Y1906D01*
X3532Y1906D01*
X3532Y1904D01*
X3530Y1904D01*
X3530Y1902D01*
X3528Y1902D01*
X3528Y1900D01*
X3526Y1900D01*
X3526Y1898D01*
X3524Y1898D01*
X3524Y1896D01*
X3520Y1896D01*
X3520Y1894D01*
X3516Y1894D01*
X3516Y1892D01*
X3510Y1892D01*
X3510Y1890D01*
X3926Y1890D01*
X3926Y2202D01*
X40Y2202D01*
G37*
D02*
G36*
X40Y2176D02*
X40Y2088D01*
X490Y2088D01*
X490Y2086D01*
X498Y2086D01*
X498Y2084D01*
X502Y2084D01*
X502Y2082D01*
X506Y2082D01*
X506Y2080D01*
X508Y2080D01*
X508Y2078D01*
X510Y2078D01*
X510Y2076D01*
X512Y2076D01*
X512Y2072D01*
X514Y2072D01*
X514Y2068D01*
X516Y2068D01*
X516Y2030D01*
X1720Y2030D01*
X1720Y2028D01*
X1726Y2028D01*
X1726Y2026D01*
X1732Y2026D01*
X1732Y2024D01*
X1736Y2024D01*
X1736Y2022D01*
X1742Y2022D01*
X1742Y2020D01*
X1748Y2020D01*
X1748Y2018D01*
X1752Y2018D01*
X1752Y2016D01*
X1758Y2016D01*
X1758Y2014D01*
X1764Y2014D01*
X1764Y2012D01*
X1768Y2012D01*
X1768Y2010D01*
X1774Y2010D01*
X1774Y2008D01*
X1780Y2008D01*
X1780Y2006D01*
X1784Y2006D01*
X1784Y2004D01*
X1790Y2004D01*
X1790Y2002D01*
X1794Y2002D01*
X1794Y2000D01*
X1800Y2000D01*
X1800Y1998D01*
X1806Y1998D01*
X1806Y1996D01*
X1810Y1996D01*
X1810Y1994D01*
X1816Y1994D01*
X1816Y1992D01*
X1822Y1992D01*
X1822Y1990D01*
X1826Y1990D01*
X1826Y1988D01*
X1832Y1988D01*
X1832Y1986D01*
X1838Y1986D01*
X1838Y1984D01*
X1842Y1984D01*
X1842Y1982D01*
X1848Y1982D01*
X1848Y1980D01*
X1852Y1980D01*
X1852Y1978D01*
X1858Y1978D01*
X1858Y1976D01*
X1864Y1976D01*
X1864Y1974D01*
X1868Y1974D01*
X1868Y1972D01*
X1874Y1972D01*
X1874Y1970D01*
X1880Y1970D01*
X1880Y1968D01*
X1884Y1968D01*
X1884Y1966D01*
X1890Y1966D01*
X1890Y1964D01*
X1896Y1964D01*
X1896Y1962D01*
X1900Y1962D01*
X1900Y1960D01*
X1906Y1960D01*
X1906Y1958D01*
X1910Y1958D01*
X1910Y1956D01*
X3300Y1956D01*
X3300Y1954D01*
X3464Y1954D01*
X3464Y1958D01*
X3466Y1958D01*
X3466Y1960D01*
X3468Y1960D01*
X3468Y1962D01*
X3470Y1962D01*
X3470Y1964D01*
X3472Y1964D01*
X3472Y1966D01*
X3474Y1966D01*
X3474Y1968D01*
X3478Y1968D01*
X3478Y1970D01*
X3480Y1970D01*
X3480Y1972D01*
X3486Y1972D01*
X3486Y1992D01*
X3482Y1992D01*
X3482Y1994D01*
X3480Y1994D01*
X3480Y1996D01*
X3476Y1996D01*
X3476Y1998D01*
X3474Y1998D01*
X3474Y2000D01*
X3470Y2000D01*
X3470Y2002D01*
X3468Y2002D01*
X3468Y2004D01*
X3466Y2004D01*
X3466Y2008D01*
X3464Y2008D01*
X3464Y2010D01*
X3462Y2010D01*
X3462Y2014D01*
X3460Y2014D01*
X3460Y2020D01*
X3458Y2020D01*
X3458Y2028D01*
X3456Y2028D01*
X3456Y2038D01*
X3458Y2038D01*
X3458Y2046D01*
X3460Y2046D01*
X3460Y2052D01*
X3462Y2052D01*
X3462Y2054D01*
X3464Y2054D01*
X3464Y2058D01*
X3466Y2058D01*
X3466Y2060D01*
X3468Y2060D01*
X3468Y2062D01*
X3470Y2062D01*
X3470Y2064D01*
X3472Y2064D01*
X3472Y2066D01*
X3474Y2066D01*
X3474Y2068D01*
X3478Y2068D01*
X3478Y2070D01*
X3480Y2070D01*
X3480Y2072D01*
X3486Y2072D01*
X3486Y2092D01*
X3482Y2092D01*
X3482Y2094D01*
X3480Y2094D01*
X3480Y2096D01*
X3476Y2096D01*
X3476Y2098D01*
X3474Y2098D01*
X3474Y2100D01*
X3470Y2100D01*
X3470Y2102D01*
X3468Y2102D01*
X3468Y2104D01*
X3466Y2104D01*
X3466Y2108D01*
X3464Y2108D01*
X3464Y2110D01*
X3462Y2110D01*
X3462Y2114D01*
X3460Y2114D01*
X3460Y2120D01*
X3458Y2120D01*
X3458Y2128D01*
X3456Y2128D01*
X3456Y2138D01*
X3458Y2138D01*
X3458Y2146D01*
X3460Y2146D01*
X3460Y2152D01*
X3462Y2152D01*
X3462Y2154D01*
X3464Y2154D01*
X3464Y2158D01*
X3466Y2158D01*
X3466Y2160D01*
X3468Y2160D01*
X3468Y2162D01*
X3470Y2162D01*
X3470Y2164D01*
X3472Y2164D01*
X3472Y2166D01*
X3474Y2166D01*
X3474Y2168D01*
X3478Y2168D01*
X3478Y2170D01*
X3480Y2170D01*
X3480Y2172D01*
X3486Y2172D01*
X3486Y2174D01*
X3494Y2174D01*
X3494Y2176D01*
X40Y2176D01*
G37*
D02*
G36*
X40Y2088D02*
X40Y2038D01*
X390Y2038D01*
X390Y2036D01*
X398Y2036D01*
X398Y2034D01*
X402Y2034D01*
X402Y2032D01*
X406Y2032D01*
X406Y2030D01*
X458Y2030D01*
X458Y2066D01*
X460Y2066D01*
X460Y2072D01*
X462Y2072D01*
X462Y2074D01*
X464Y2074D01*
X464Y2078D01*
X466Y2078D01*
X466Y2080D01*
X470Y2080D01*
X470Y2082D01*
X472Y2082D01*
X472Y2084D01*
X476Y2084D01*
X476Y2086D01*
X484Y2086D01*
X484Y2088D01*
X40Y2088D01*
G37*
D02*
G36*
X40Y2038D02*
X40Y1978D01*
X380Y1978D01*
X380Y1980D01*
X374Y1980D01*
X374Y1982D01*
X370Y1982D01*
X370Y1984D01*
X368Y1984D01*
X368Y1986D01*
X366Y1986D01*
X366Y1988D01*
X364Y1988D01*
X364Y1990D01*
X362Y1990D01*
X362Y1994D01*
X360Y1994D01*
X360Y1998D01*
X358Y1998D01*
X358Y2016D01*
X360Y2016D01*
X360Y2022D01*
X362Y2022D01*
X362Y2024D01*
X364Y2024D01*
X364Y2028D01*
X366Y2028D01*
X366Y2030D01*
X370Y2030D01*
X370Y2032D01*
X372Y2032D01*
X372Y2034D01*
X376Y2034D01*
X376Y2036D01*
X384Y2036D01*
X384Y2038D01*
X40Y2038D01*
G37*
D02*
G36*
X406Y1986D02*
X406Y1984D01*
X404Y1984D01*
X404Y1982D01*
X400Y1982D01*
X400Y1980D01*
X394Y1980D01*
X394Y1978D01*
X534Y1978D01*
X534Y1986D01*
X406Y1986D01*
G37*
D02*
G36*
X590Y1986D02*
X590Y1964D01*
X592Y1964D01*
X592Y1952D01*
X590Y1952D01*
X590Y1946D01*
X588Y1946D01*
X588Y1942D01*
X586Y1942D01*
X586Y1938D01*
X584Y1938D01*
X584Y1936D01*
X582Y1936D01*
X582Y1934D01*
X578Y1934D01*
X578Y1932D01*
X576Y1932D01*
X576Y1930D01*
X570Y1930D01*
X570Y1928D01*
X548Y1928D01*
X548Y1926D01*
X546Y1926D01*
X546Y1924D01*
X542Y1924D01*
X542Y1922D01*
X540Y1922D01*
X540Y1920D01*
X536Y1920D01*
X536Y1918D01*
X534Y1918D01*
X534Y1916D01*
X530Y1916D01*
X530Y1914D01*
X528Y1914D01*
X528Y1912D01*
X524Y1912D01*
X524Y1910D01*
X522Y1910D01*
X522Y1908D01*
X518Y1908D01*
X518Y1906D01*
X516Y1906D01*
X516Y1904D01*
X512Y1904D01*
X512Y1902D01*
X510Y1902D01*
X510Y1900D01*
X506Y1900D01*
X506Y1898D01*
X504Y1898D01*
X504Y1896D01*
X500Y1896D01*
X500Y1894D01*
X498Y1894D01*
X498Y1892D01*
X494Y1892D01*
X494Y1890D01*
X3490Y1890D01*
X3490Y1892D01*
X3482Y1892D01*
X3482Y1894D01*
X3480Y1894D01*
X3480Y1896D01*
X3476Y1896D01*
X3476Y1898D01*
X3474Y1898D01*
X3474Y1900D01*
X3470Y1900D01*
X3470Y1902D01*
X3468Y1902D01*
X3468Y1904D01*
X3466Y1904D01*
X3466Y1908D01*
X3464Y1908D01*
X3464Y1910D01*
X3294Y1910D01*
X3294Y1912D01*
X1902Y1912D01*
X1902Y1914D01*
X1898Y1914D01*
X1898Y1916D01*
X1892Y1916D01*
X1892Y1918D01*
X1886Y1918D01*
X1886Y1920D01*
X1882Y1920D01*
X1882Y1922D01*
X1876Y1922D01*
X1876Y1924D01*
X1872Y1924D01*
X1872Y1926D01*
X1866Y1926D01*
X1866Y1928D01*
X1860Y1928D01*
X1860Y1930D01*
X1856Y1930D01*
X1856Y1932D01*
X1850Y1932D01*
X1850Y1934D01*
X1844Y1934D01*
X1844Y1936D01*
X1840Y1936D01*
X1840Y1938D01*
X1834Y1938D01*
X1834Y1940D01*
X1828Y1940D01*
X1828Y1942D01*
X1824Y1942D01*
X1824Y1944D01*
X1818Y1944D01*
X1818Y1946D01*
X1814Y1946D01*
X1814Y1948D01*
X1808Y1948D01*
X1808Y1950D01*
X1802Y1950D01*
X1802Y1952D01*
X1798Y1952D01*
X1798Y1954D01*
X1792Y1954D01*
X1792Y1956D01*
X1786Y1956D01*
X1786Y1958D01*
X1782Y1958D01*
X1782Y1960D01*
X1776Y1960D01*
X1776Y1962D01*
X1770Y1962D01*
X1770Y1964D01*
X1766Y1964D01*
X1766Y1966D01*
X1760Y1966D01*
X1760Y1968D01*
X1756Y1968D01*
X1756Y1970D01*
X1750Y1970D01*
X1750Y1972D01*
X1744Y1972D01*
X1744Y1974D01*
X1740Y1974D01*
X1740Y1976D01*
X1734Y1976D01*
X1734Y1978D01*
X1728Y1978D01*
X1728Y1980D01*
X1724Y1980D01*
X1724Y1982D01*
X1718Y1982D01*
X1718Y1984D01*
X1712Y1984D01*
X1712Y1986D01*
X590Y1986D01*
G37*
D02*
G36*
X40Y1978D02*
X40Y1976D01*
X534Y1976D01*
X534Y1978D01*
X40Y1978D01*
G37*
D02*
G36*
X40Y1978D02*
X40Y1976D01*
X534Y1976D01*
X534Y1978D01*
X40Y1978D01*
G37*
D02*
G36*
X40Y1976D02*
X40Y1236D01*
X204Y1236D01*
X204Y1234D01*
X212Y1234D01*
X212Y1232D01*
X216Y1232D01*
X216Y1230D01*
X222Y1230D01*
X222Y1228D01*
X226Y1228D01*
X226Y1226D01*
X228Y1226D01*
X228Y1224D01*
X232Y1224D01*
X232Y1222D01*
X234Y1222D01*
X234Y1220D01*
X238Y1220D01*
X238Y1218D01*
X240Y1218D01*
X240Y1216D01*
X242Y1216D01*
X242Y1214D01*
X244Y1214D01*
X244Y1212D01*
X246Y1212D01*
X246Y1210D01*
X248Y1210D01*
X248Y1206D01*
X250Y1206D01*
X250Y1204D01*
X252Y1204D01*
X252Y1202D01*
X254Y1202D01*
X254Y1198D01*
X256Y1198D01*
X256Y1194D01*
X258Y1194D01*
X258Y1190D01*
X260Y1190D01*
X260Y1186D01*
X262Y1186D01*
X262Y1180D01*
X264Y1180D01*
X264Y1172D01*
X266Y1172D01*
X266Y1144D01*
X264Y1144D01*
X264Y1134D01*
X262Y1134D01*
X262Y1130D01*
X260Y1130D01*
X260Y1124D01*
X258Y1124D01*
X258Y1120D01*
X256Y1120D01*
X256Y1116D01*
X254Y1116D01*
X254Y1114D01*
X252Y1114D01*
X252Y1110D01*
X250Y1110D01*
X250Y1108D01*
X248Y1108D01*
X248Y1106D01*
X246Y1106D01*
X246Y1104D01*
X244Y1104D01*
X244Y1102D01*
X242Y1102D01*
X242Y1100D01*
X240Y1100D01*
X240Y1098D01*
X238Y1098D01*
X238Y1096D01*
X236Y1096D01*
X236Y1094D01*
X232Y1094D01*
X232Y1092D01*
X230Y1092D01*
X230Y1090D01*
X226Y1090D01*
X226Y1088D01*
X222Y1088D01*
X222Y1086D01*
X218Y1086D01*
X218Y1084D01*
X214Y1084D01*
X214Y1082D01*
X206Y1082D01*
X206Y1080D01*
X196Y1080D01*
X196Y1078D01*
X394Y1078D01*
X394Y1862D01*
X396Y1862D01*
X396Y1866D01*
X398Y1866D01*
X398Y1870D01*
X400Y1870D01*
X400Y1872D01*
X404Y1872D01*
X404Y1874D01*
X406Y1874D01*
X406Y1876D01*
X410Y1876D01*
X410Y1878D01*
X412Y1878D01*
X412Y1880D01*
X416Y1880D01*
X416Y1882D01*
X418Y1882D01*
X418Y1884D01*
X422Y1884D01*
X422Y1886D01*
X424Y1886D01*
X424Y1888D01*
X426Y1888D01*
X426Y1890D01*
X430Y1890D01*
X430Y1892D01*
X432Y1892D01*
X432Y1894D01*
X436Y1894D01*
X436Y1896D01*
X438Y1896D01*
X438Y1898D01*
X442Y1898D01*
X442Y1900D01*
X444Y1900D01*
X444Y1902D01*
X448Y1902D01*
X448Y1904D01*
X450Y1904D01*
X450Y1906D01*
X454Y1906D01*
X454Y1908D01*
X456Y1908D01*
X456Y1910D01*
X460Y1910D01*
X460Y1912D01*
X462Y1912D01*
X462Y1914D01*
X466Y1914D01*
X466Y1916D01*
X468Y1916D01*
X468Y1918D01*
X472Y1918D01*
X472Y1920D01*
X474Y1920D01*
X474Y1922D01*
X478Y1922D01*
X478Y1924D01*
X480Y1924D01*
X480Y1926D01*
X484Y1926D01*
X484Y1928D01*
X486Y1928D01*
X486Y1930D01*
X490Y1930D01*
X490Y1932D01*
X492Y1932D01*
X492Y1934D01*
X496Y1934D01*
X496Y1936D01*
X498Y1936D01*
X498Y1938D01*
X502Y1938D01*
X502Y1940D01*
X504Y1940D01*
X504Y1942D01*
X508Y1942D01*
X508Y1944D01*
X510Y1944D01*
X510Y1946D01*
X514Y1946D01*
X514Y1948D01*
X516Y1948D01*
X516Y1950D01*
X520Y1950D01*
X520Y1952D01*
X522Y1952D01*
X522Y1954D01*
X526Y1954D01*
X526Y1956D01*
X528Y1956D01*
X528Y1958D01*
X532Y1958D01*
X532Y1962D01*
X534Y1962D01*
X534Y1976D01*
X40Y1976D01*
G37*
D02*
G36*
X492Y1890D02*
X492Y1888D01*
X3926Y1888D01*
X3926Y1890D01*
X492Y1890D01*
G37*
D02*
G36*
X492Y1890D02*
X492Y1888D01*
X3926Y1888D01*
X3926Y1890D01*
X492Y1890D01*
G37*
D02*
G36*
X488Y1888D02*
X488Y1886D01*
X486Y1886D01*
X486Y1884D01*
X482Y1884D01*
X482Y1882D01*
X480Y1882D01*
X480Y1880D01*
X476Y1880D01*
X476Y1878D01*
X474Y1878D01*
X474Y1876D01*
X470Y1876D01*
X470Y1874D01*
X468Y1874D01*
X468Y1872D01*
X464Y1872D01*
X464Y1870D01*
X462Y1870D01*
X462Y1868D01*
X458Y1868D01*
X458Y1866D01*
X456Y1866D01*
X456Y1864D01*
X452Y1864D01*
X452Y1862D01*
X450Y1862D01*
X450Y1860D01*
X446Y1860D01*
X446Y1858D01*
X444Y1858D01*
X444Y1856D01*
X440Y1856D01*
X440Y1854D01*
X438Y1854D01*
X438Y1852D01*
X434Y1852D01*
X434Y1850D01*
X432Y1850D01*
X432Y1848D01*
X430Y1848D01*
X430Y1812D01*
X1896Y1812D01*
X1896Y1810D01*
X1900Y1810D01*
X1900Y1808D01*
X1904Y1808D01*
X1904Y1806D01*
X1906Y1806D01*
X1906Y1804D01*
X1908Y1804D01*
X1908Y1802D01*
X1910Y1802D01*
X1910Y1800D01*
X1912Y1800D01*
X1912Y1796D01*
X1914Y1796D01*
X1914Y1792D01*
X1916Y1792D01*
X1916Y1776D01*
X3506Y1776D01*
X3506Y1774D01*
X3514Y1774D01*
X3514Y1772D01*
X3518Y1772D01*
X3518Y1770D01*
X3522Y1770D01*
X3522Y1768D01*
X3526Y1768D01*
X3526Y1766D01*
X3528Y1766D01*
X3528Y1764D01*
X3530Y1764D01*
X3530Y1762D01*
X3532Y1762D01*
X3532Y1760D01*
X3534Y1760D01*
X3534Y1756D01*
X3536Y1756D01*
X3536Y1754D01*
X3538Y1754D01*
X3538Y1750D01*
X3540Y1750D01*
X3540Y1744D01*
X3542Y1744D01*
X3542Y1722D01*
X3540Y1722D01*
X3540Y1716D01*
X3538Y1716D01*
X3538Y1712D01*
X3536Y1712D01*
X3536Y1708D01*
X3534Y1708D01*
X3534Y1706D01*
X3532Y1706D01*
X3532Y1704D01*
X3530Y1704D01*
X3530Y1702D01*
X3528Y1702D01*
X3528Y1700D01*
X3526Y1700D01*
X3526Y1698D01*
X3524Y1698D01*
X3524Y1696D01*
X3520Y1696D01*
X3520Y1694D01*
X3516Y1694D01*
X3516Y1692D01*
X3510Y1692D01*
X3510Y1690D01*
X3926Y1690D01*
X3926Y1888D01*
X488Y1888D01*
G37*
D02*
G36*
X430Y1812D02*
X430Y1752D01*
X1886Y1752D01*
X1886Y1754D01*
X1876Y1754D01*
X1876Y1756D01*
X1872Y1756D01*
X1872Y1758D01*
X1870Y1758D01*
X1870Y1760D01*
X1866Y1760D01*
X1866Y1764D01*
X1864Y1764D01*
X1864Y1766D01*
X1862Y1766D01*
X1862Y1768D01*
X1860Y1768D01*
X1860Y1774D01*
X1858Y1774D01*
X1858Y1792D01*
X1860Y1792D01*
X1860Y1796D01*
X1862Y1796D01*
X1862Y1800D01*
X1864Y1800D01*
X1864Y1802D01*
X1866Y1802D01*
X1866Y1804D01*
X1868Y1804D01*
X1868Y1806D01*
X1870Y1806D01*
X1870Y1808D01*
X1874Y1808D01*
X1874Y1810D01*
X1880Y1810D01*
X1880Y1812D01*
X430Y1812D01*
G37*
D02*
G36*
X1916Y1776D02*
X1916Y1772D01*
X1914Y1772D01*
X1914Y1768D01*
X1912Y1768D01*
X1912Y1766D01*
X1910Y1766D01*
X1910Y1762D01*
X1908Y1762D01*
X1908Y1760D01*
X1904Y1760D01*
X1904Y1758D01*
X1902Y1758D01*
X1902Y1756D01*
X1898Y1756D01*
X1898Y1754D01*
X1888Y1754D01*
X1888Y1752D01*
X2462Y1752D01*
X2462Y1754D01*
X2464Y1754D01*
X2464Y1758D01*
X2466Y1758D01*
X2466Y1760D01*
X2468Y1760D01*
X2468Y1762D01*
X2470Y1762D01*
X2470Y1764D01*
X2472Y1764D01*
X2472Y1766D01*
X2474Y1766D01*
X2474Y1768D01*
X2478Y1768D01*
X2478Y1770D01*
X2480Y1770D01*
X2480Y1772D01*
X2486Y1772D01*
X2486Y1774D01*
X2494Y1774D01*
X2494Y1776D01*
X1916Y1776D01*
G37*
D02*
G36*
X2506Y1776D02*
X2506Y1774D01*
X2514Y1774D01*
X2514Y1772D01*
X2518Y1772D01*
X2518Y1770D01*
X2522Y1770D01*
X2522Y1768D01*
X2526Y1768D01*
X2526Y1766D01*
X2528Y1766D01*
X2528Y1764D01*
X2530Y1764D01*
X2530Y1762D01*
X2532Y1762D01*
X2532Y1760D01*
X2534Y1760D01*
X2534Y1756D01*
X2536Y1756D01*
X2536Y1754D01*
X2538Y1754D01*
X2538Y1750D01*
X2540Y1750D01*
X2540Y1746D01*
X2560Y1746D01*
X2560Y1752D01*
X2562Y1752D01*
X2562Y1754D01*
X2564Y1754D01*
X2564Y1758D01*
X2566Y1758D01*
X2566Y1760D01*
X2568Y1760D01*
X2568Y1762D01*
X2570Y1762D01*
X2570Y1764D01*
X2572Y1764D01*
X2572Y1766D01*
X2574Y1766D01*
X2574Y1768D01*
X2578Y1768D01*
X2578Y1770D01*
X2580Y1770D01*
X2580Y1772D01*
X2586Y1772D01*
X2586Y1774D01*
X2594Y1774D01*
X2594Y1776D01*
X2506Y1776D01*
G37*
D02*
G36*
X2606Y1776D02*
X2606Y1774D01*
X2614Y1774D01*
X2614Y1772D01*
X2618Y1772D01*
X2618Y1770D01*
X2622Y1770D01*
X2622Y1768D01*
X2626Y1768D01*
X2626Y1766D01*
X2628Y1766D01*
X2628Y1764D01*
X2630Y1764D01*
X2630Y1762D01*
X2632Y1762D01*
X2632Y1760D01*
X2634Y1760D01*
X2634Y1756D01*
X2636Y1756D01*
X2636Y1754D01*
X2638Y1754D01*
X2638Y1750D01*
X2640Y1750D01*
X2640Y1746D01*
X2660Y1746D01*
X2660Y1752D01*
X2662Y1752D01*
X2662Y1754D01*
X2664Y1754D01*
X2664Y1758D01*
X2666Y1758D01*
X2666Y1760D01*
X2668Y1760D01*
X2668Y1762D01*
X2670Y1762D01*
X2670Y1764D01*
X2672Y1764D01*
X2672Y1766D01*
X2674Y1766D01*
X2674Y1768D01*
X2678Y1768D01*
X2678Y1770D01*
X2680Y1770D01*
X2680Y1772D01*
X2686Y1772D01*
X2686Y1774D01*
X2694Y1774D01*
X2694Y1776D01*
X2606Y1776D01*
G37*
D02*
G36*
X2706Y1776D02*
X2706Y1774D01*
X2714Y1774D01*
X2714Y1772D01*
X2718Y1772D01*
X2718Y1770D01*
X2722Y1770D01*
X2722Y1768D01*
X2726Y1768D01*
X2726Y1766D01*
X2728Y1766D01*
X2728Y1764D01*
X2730Y1764D01*
X2730Y1762D01*
X2732Y1762D01*
X2732Y1760D01*
X2734Y1760D01*
X2734Y1756D01*
X2736Y1756D01*
X2736Y1754D01*
X2738Y1754D01*
X2738Y1750D01*
X2740Y1750D01*
X2740Y1746D01*
X2760Y1746D01*
X2760Y1752D01*
X2762Y1752D01*
X2762Y1754D01*
X2764Y1754D01*
X2764Y1758D01*
X2766Y1758D01*
X2766Y1760D01*
X2768Y1760D01*
X2768Y1762D01*
X2770Y1762D01*
X2770Y1764D01*
X2772Y1764D01*
X2772Y1766D01*
X2774Y1766D01*
X2774Y1768D01*
X2778Y1768D01*
X2778Y1770D01*
X2780Y1770D01*
X2780Y1772D01*
X2786Y1772D01*
X2786Y1774D01*
X2794Y1774D01*
X2794Y1776D01*
X2706Y1776D01*
G37*
D02*
G36*
X2806Y1776D02*
X2806Y1774D01*
X2814Y1774D01*
X2814Y1772D01*
X2818Y1772D01*
X2818Y1770D01*
X2822Y1770D01*
X2822Y1768D01*
X2826Y1768D01*
X2826Y1766D01*
X2828Y1766D01*
X2828Y1764D01*
X2830Y1764D01*
X2830Y1762D01*
X2832Y1762D01*
X2832Y1760D01*
X2834Y1760D01*
X2834Y1756D01*
X2836Y1756D01*
X2836Y1754D01*
X2838Y1754D01*
X2838Y1750D01*
X2840Y1750D01*
X2840Y1746D01*
X2860Y1746D01*
X2860Y1752D01*
X2862Y1752D01*
X2862Y1754D01*
X2864Y1754D01*
X2864Y1758D01*
X2866Y1758D01*
X2866Y1760D01*
X2868Y1760D01*
X2868Y1762D01*
X2870Y1762D01*
X2870Y1764D01*
X2872Y1764D01*
X2872Y1766D01*
X2874Y1766D01*
X2874Y1768D01*
X2878Y1768D01*
X2878Y1770D01*
X2880Y1770D01*
X2880Y1772D01*
X2886Y1772D01*
X2886Y1774D01*
X2894Y1774D01*
X2894Y1776D01*
X2806Y1776D01*
G37*
D02*
G36*
X2906Y1776D02*
X2906Y1774D01*
X2914Y1774D01*
X2914Y1772D01*
X2918Y1772D01*
X2918Y1770D01*
X2922Y1770D01*
X2922Y1768D01*
X2926Y1768D01*
X2926Y1766D01*
X2928Y1766D01*
X2928Y1764D01*
X2930Y1764D01*
X2930Y1762D01*
X2932Y1762D01*
X2932Y1760D01*
X2934Y1760D01*
X2934Y1756D01*
X2936Y1756D01*
X2936Y1754D01*
X2938Y1754D01*
X2938Y1750D01*
X2940Y1750D01*
X2940Y1746D01*
X2960Y1746D01*
X2960Y1752D01*
X2962Y1752D01*
X2962Y1754D01*
X2964Y1754D01*
X2964Y1758D01*
X2966Y1758D01*
X2966Y1760D01*
X2968Y1760D01*
X2968Y1762D01*
X2970Y1762D01*
X2970Y1764D01*
X2972Y1764D01*
X2972Y1766D01*
X2974Y1766D01*
X2974Y1768D01*
X2978Y1768D01*
X2978Y1770D01*
X2980Y1770D01*
X2980Y1772D01*
X2986Y1772D01*
X2986Y1774D01*
X2994Y1774D01*
X2994Y1776D01*
X2906Y1776D01*
G37*
D02*
G36*
X3006Y1776D02*
X3006Y1774D01*
X3014Y1774D01*
X3014Y1772D01*
X3018Y1772D01*
X3018Y1770D01*
X3022Y1770D01*
X3022Y1768D01*
X3026Y1768D01*
X3026Y1766D01*
X3028Y1766D01*
X3028Y1764D01*
X3030Y1764D01*
X3030Y1762D01*
X3032Y1762D01*
X3032Y1760D01*
X3034Y1760D01*
X3034Y1756D01*
X3036Y1756D01*
X3036Y1754D01*
X3038Y1754D01*
X3038Y1750D01*
X3040Y1750D01*
X3040Y1746D01*
X3060Y1746D01*
X3060Y1752D01*
X3062Y1752D01*
X3062Y1754D01*
X3064Y1754D01*
X3064Y1758D01*
X3066Y1758D01*
X3066Y1760D01*
X3068Y1760D01*
X3068Y1762D01*
X3070Y1762D01*
X3070Y1764D01*
X3072Y1764D01*
X3072Y1766D01*
X3074Y1766D01*
X3074Y1768D01*
X3078Y1768D01*
X3078Y1770D01*
X3080Y1770D01*
X3080Y1772D01*
X3086Y1772D01*
X3086Y1774D01*
X3094Y1774D01*
X3094Y1776D01*
X3006Y1776D01*
G37*
D02*
G36*
X3106Y1776D02*
X3106Y1774D01*
X3114Y1774D01*
X3114Y1772D01*
X3118Y1772D01*
X3118Y1770D01*
X3122Y1770D01*
X3122Y1768D01*
X3126Y1768D01*
X3126Y1766D01*
X3128Y1766D01*
X3128Y1764D01*
X3130Y1764D01*
X3130Y1762D01*
X3132Y1762D01*
X3132Y1760D01*
X3134Y1760D01*
X3134Y1756D01*
X3136Y1756D01*
X3136Y1754D01*
X3138Y1754D01*
X3138Y1750D01*
X3140Y1750D01*
X3140Y1746D01*
X3160Y1746D01*
X3160Y1752D01*
X3162Y1752D01*
X3162Y1754D01*
X3164Y1754D01*
X3164Y1758D01*
X3166Y1758D01*
X3166Y1760D01*
X3168Y1760D01*
X3168Y1762D01*
X3170Y1762D01*
X3170Y1764D01*
X3172Y1764D01*
X3172Y1766D01*
X3174Y1766D01*
X3174Y1768D01*
X3178Y1768D01*
X3178Y1770D01*
X3180Y1770D01*
X3180Y1772D01*
X3186Y1772D01*
X3186Y1774D01*
X3194Y1774D01*
X3194Y1776D01*
X3106Y1776D01*
G37*
D02*
G36*
X3206Y1776D02*
X3206Y1774D01*
X3214Y1774D01*
X3214Y1772D01*
X3218Y1772D01*
X3218Y1770D01*
X3222Y1770D01*
X3222Y1768D01*
X3226Y1768D01*
X3226Y1766D01*
X3228Y1766D01*
X3228Y1764D01*
X3230Y1764D01*
X3230Y1762D01*
X3232Y1762D01*
X3232Y1760D01*
X3234Y1760D01*
X3234Y1756D01*
X3236Y1756D01*
X3236Y1754D01*
X3238Y1754D01*
X3238Y1750D01*
X3240Y1750D01*
X3240Y1746D01*
X3260Y1746D01*
X3260Y1752D01*
X3262Y1752D01*
X3262Y1754D01*
X3264Y1754D01*
X3264Y1758D01*
X3266Y1758D01*
X3266Y1760D01*
X3268Y1760D01*
X3268Y1762D01*
X3270Y1762D01*
X3270Y1764D01*
X3272Y1764D01*
X3272Y1766D01*
X3274Y1766D01*
X3274Y1768D01*
X3278Y1768D01*
X3278Y1770D01*
X3280Y1770D01*
X3280Y1772D01*
X3286Y1772D01*
X3286Y1774D01*
X3294Y1774D01*
X3294Y1776D01*
X3206Y1776D01*
G37*
D02*
G36*
X3306Y1776D02*
X3306Y1774D01*
X3314Y1774D01*
X3314Y1772D01*
X3318Y1772D01*
X3318Y1770D01*
X3322Y1770D01*
X3322Y1768D01*
X3326Y1768D01*
X3326Y1766D01*
X3328Y1766D01*
X3328Y1764D01*
X3330Y1764D01*
X3330Y1762D01*
X3332Y1762D01*
X3332Y1760D01*
X3334Y1760D01*
X3334Y1756D01*
X3336Y1756D01*
X3336Y1754D01*
X3338Y1754D01*
X3338Y1750D01*
X3340Y1750D01*
X3340Y1746D01*
X3360Y1746D01*
X3360Y1752D01*
X3362Y1752D01*
X3362Y1754D01*
X3364Y1754D01*
X3364Y1758D01*
X3366Y1758D01*
X3366Y1760D01*
X3368Y1760D01*
X3368Y1762D01*
X3370Y1762D01*
X3370Y1764D01*
X3372Y1764D01*
X3372Y1766D01*
X3374Y1766D01*
X3374Y1768D01*
X3378Y1768D01*
X3378Y1770D01*
X3380Y1770D01*
X3380Y1772D01*
X3386Y1772D01*
X3386Y1774D01*
X3394Y1774D01*
X3394Y1776D01*
X3306Y1776D01*
G37*
D02*
G36*
X3406Y1776D02*
X3406Y1774D01*
X3414Y1774D01*
X3414Y1772D01*
X3418Y1772D01*
X3418Y1770D01*
X3422Y1770D01*
X3422Y1768D01*
X3426Y1768D01*
X3426Y1766D01*
X3428Y1766D01*
X3428Y1764D01*
X3430Y1764D01*
X3430Y1762D01*
X3432Y1762D01*
X3432Y1760D01*
X3434Y1760D01*
X3434Y1756D01*
X3436Y1756D01*
X3436Y1754D01*
X3438Y1754D01*
X3438Y1750D01*
X3440Y1750D01*
X3440Y1746D01*
X3460Y1746D01*
X3460Y1752D01*
X3462Y1752D01*
X3462Y1754D01*
X3464Y1754D01*
X3464Y1758D01*
X3466Y1758D01*
X3466Y1760D01*
X3468Y1760D01*
X3468Y1762D01*
X3470Y1762D01*
X3470Y1764D01*
X3472Y1764D01*
X3472Y1766D01*
X3474Y1766D01*
X3474Y1768D01*
X3478Y1768D01*
X3478Y1770D01*
X3480Y1770D01*
X3480Y1772D01*
X3486Y1772D01*
X3486Y1774D01*
X3494Y1774D01*
X3494Y1776D01*
X3406Y1776D01*
G37*
D02*
G36*
X430Y1752D02*
X430Y1750D01*
X2460Y1750D01*
X2460Y1752D01*
X430Y1752D01*
G37*
D02*
G36*
X430Y1752D02*
X430Y1750D01*
X2460Y1750D01*
X2460Y1752D01*
X430Y1752D01*
G37*
D02*
G36*
X430Y1750D02*
X430Y1690D01*
X2490Y1690D01*
X2490Y1692D01*
X2484Y1692D01*
X2484Y1694D01*
X2480Y1694D01*
X2480Y1696D01*
X2476Y1696D01*
X2476Y1698D01*
X2474Y1698D01*
X2474Y1700D01*
X2470Y1700D01*
X2470Y1702D01*
X2468Y1702D01*
X2468Y1704D01*
X2466Y1704D01*
X2466Y1708D01*
X2464Y1708D01*
X2464Y1710D01*
X2462Y1710D01*
X2462Y1714D01*
X2460Y1714D01*
X2460Y1720D01*
X2458Y1720D01*
X2458Y1728D01*
X2456Y1728D01*
X2456Y1738D01*
X2458Y1738D01*
X2458Y1746D01*
X2460Y1746D01*
X2460Y1750D01*
X430Y1750D01*
G37*
D02*
G36*
X2540Y1720D02*
X2540Y1716D01*
X2538Y1716D01*
X2538Y1712D01*
X2536Y1712D01*
X2536Y1708D01*
X2534Y1708D01*
X2534Y1706D01*
X2532Y1706D01*
X2532Y1704D01*
X2530Y1704D01*
X2530Y1702D01*
X2528Y1702D01*
X2528Y1700D01*
X2526Y1700D01*
X2526Y1698D01*
X2524Y1698D01*
X2524Y1696D01*
X2520Y1696D01*
X2520Y1694D01*
X2516Y1694D01*
X2516Y1692D01*
X2510Y1692D01*
X2510Y1690D01*
X2590Y1690D01*
X2590Y1692D01*
X2584Y1692D01*
X2584Y1694D01*
X2580Y1694D01*
X2580Y1696D01*
X2576Y1696D01*
X2576Y1698D01*
X2574Y1698D01*
X2574Y1700D01*
X2570Y1700D01*
X2570Y1702D01*
X2568Y1702D01*
X2568Y1704D01*
X2566Y1704D01*
X2566Y1708D01*
X2564Y1708D01*
X2564Y1710D01*
X2562Y1710D01*
X2562Y1714D01*
X2560Y1714D01*
X2560Y1720D01*
X2540Y1720D01*
G37*
D02*
G36*
X2640Y1720D02*
X2640Y1716D01*
X2638Y1716D01*
X2638Y1712D01*
X2636Y1712D01*
X2636Y1708D01*
X2634Y1708D01*
X2634Y1706D01*
X2632Y1706D01*
X2632Y1704D01*
X2630Y1704D01*
X2630Y1702D01*
X2628Y1702D01*
X2628Y1700D01*
X2626Y1700D01*
X2626Y1698D01*
X2624Y1698D01*
X2624Y1696D01*
X2620Y1696D01*
X2620Y1694D01*
X2616Y1694D01*
X2616Y1692D01*
X2610Y1692D01*
X2610Y1690D01*
X2690Y1690D01*
X2690Y1692D01*
X2684Y1692D01*
X2684Y1694D01*
X2680Y1694D01*
X2680Y1696D01*
X2676Y1696D01*
X2676Y1698D01*
X2674Y1698D01*
X2674Y1700D01*
X2670Y1700D01*
X2670Y1702D01*
X2668Y1702D01*
X2668Y1704D01*
X2666Y1704D01*
X2666Y1708D01*
X2664Y1708D01*
X2664Y1710D01*
X2662Y1710D01*
X2662Y1714D01*
X2660Y1714D01*
X2660Y1720D01*
X2640Y1720D01*
G37*
D02*
G36*
X2740Y1720D02*
X2740Y1716D01*
X2738Y1716D01*
X2738Y1712D01*
X2736Y1712D01*
X2736Y1708D01*
X2734Y1708D01*
X2734Y1706D01*
X2732Y1706D01*
X2732Y1704D01*
X2730Y1704D01*
X2730Y1702D01*
X2728Y1702D01*
X2728Y1700D01*
X2726Y1700D01*
X2726Y1698D01*
X2724Y1698D01*
X2724Y1696D01*
X2720Y1696D01*
X2720Y1694D01*
X2716Y1694D01*
X2716Y1692D01*
X2710Y1692D01*
X2710Y1690D01*
X2790Y1690D01*
X2790Y1692D01*
X2784Y1692D01*
X2784Y1694D01*
X2780Y1694D01*
X2780Y1696D01*
X2776Y1696D01*
X2776Y1698D01*
X2774Y1698D01*
X2774Y1700D01*
X2770Y1700D01*
X2770Y1702D01*
X2768Y1702D01*
X2768Y1704D01*
X2766Y1704D01*
X2766Y1708D01*
X2764Y1708D01*
X2764Y1710D01*
X2762Y1710D01*
X2762Y1714D01*
X2760Y1714D01*
X2760Y1720D01*
X2740Y1720D01*
G37*
D02*
G36*
X2840Y1720D02*
X2840Y1716D01*
X2838Y1716D01*
X2838Y1712D01*
X2836Y1712D01*
X2836Y1708D01*
X2834Y1708D01*
X2834Y1706D01*
X2832Y1706D01*
X2832Y1704D01*
X2830Y1704D01*
X2830Y1702D01*
X2828Y1702D01*
X2828Y1700D01*
X2826Y1700D01*
X2826Y1698D01*
X2824Y1698D01*
X2824Y1696D01*
X2820Y1696D01*
X2820Y1694D01*
X2816Y1694D01*
X2816Y1692D01*
X2810Y1692D01*
X2810Y1690D01*
X2890Y1690D01*
X2890Y1692D01*
X2884Y1692D01*
X2884Y1694D01*
X2880Y1694D01*
X2880Y1696D01*
X2876Y1696D01*
X2876Y1698D01*
X2874Y1698D01*
X2874Y1700D01*
X2870Y1700D01*
X2870Y1702D01*
X2868Y1702D01*
X2868Y1704D01*
X2866Y1704D01*
X2866Y1708D01*
X2864Y1708D01*
X2864Y1710D01*
X2862Y1710D01*
X2862Y1714D01*
X2860Y1714D01*
X2860Y1720D01*
X2840Y1720D01*
G37*
D02*
G36*
X2940Y1720D02*
X2940Y1716D01*
X2938Y1716D01*
X2938Y1712D01*
X2936Y1712D01*
X2936Y1708D01*
X2934Y1708D01*
X2934Y1706D01*
X2932Y1706D01*
X2932Y1704D01*
X2930Y1704D01*
X2930Y1702D01*
X2928Y1702D01*
X2928Y1700D01*
X2926Y1700D01*
X2926Y1698D01*
X2924Y1698D01*
X2924Y1696D01*
X2920Y1696D01*
X2920Y1694D01*
X2916Y1694D01*
X2916Y1692D01*
X2910Y1692D01*
X2910Y1690D01*
X2990Y1690D01*
X2990Y1692D01*
X2984Y1692D01*
X2984Y1694D01*
X2980Y1694D01*
X2980Y1696D01*
X2976Y1696D01*
X2976Y1698D01*
X2974Y1698D01*
X2974Y1700D01*
X2970Y1700D01*
X2970Y1702D01*
X2968Y1702D01*
X2968Y1704D01*
X2966Y1704D01*
X2966Y1708D01*
X2964Y1708D01*
X2964Y1710D01*
X2962Y1710D01*
X2962Y1714D01*
X2960Y1714D01*
X2960Y1720D01*
X2940Y1720D01*
G37*
D02*
G36*
X3140Y1720D02*
X3140Y1716D01*
X3138Y1716D01*
X3138Y1712D01*
X3136Y1712D01*
X3136Y1708D01*
X3134Y1708D01*
X3134Y1706D01*
X3132Y1706D01*
X3132Y1704D01*
X3130Y1704D01*
X3130Y1702D01*
X3128Y1702D01*
X3128Y1700D01*
X3126Y1700D01*
X3126Y1698D01*
X3124Y1698D01*
X3124Y1696D01*
X3120Y1696D01*
X3120Y1694D01*
X3116Y1694D01*
X3116Y1692D01*
X3110Y1692D01*
X3110Y1690D01*
X3190Y1690D01*
X3190Y1692D01*
X3184Y1692D01*
X3184Y1694D01*
X3180Y1694D01*
X3180Y1696D01*
X3176Y1696D01*
X3176Y1698D01*
X3174Y1698D01*
X3174Y1700D01*
X3170Y1700D01*
X3170Y1702D01*
X3168Y1702D01*
X3168Y1704D01*
X3166Y1704D01*
X3166Y1708D01*
X3164Y1708D01*
X3164Y1710D01*
X3162Y1710D01*
X3162Y1714D01*
X3160Y1714D01*
X3160Y1720D01*
X3140Y1720D01*
G37*
D02*
G36*
X3240Y1720D02*
X3240Y1716D01*
X3238Y1716D01*
X3238Y1712D01*
X3236Y1712D01*
X3236Y1708D01*
X3234Y1708D01*
X3234Y1706D01*
X3232Y1706D01*
X3232Y1704D01*
X3230Y1704D01*
X3230Y1702D01*
X3228Y1702D01*
X3228Y1700D01*
X3226Y1700D01*
X3226Y1698D01*
X3224Y1698D01*
X3224Y1696D01*
X3220Y1696D01*
X3220Y1694D01*
X3216Y1694D01*
X3216Y1692D01*
X3210Y1692D01*
X3210Y1690D01*
X3290Y1690D01*
X3290Y1692D01*
X3284Y1692D01*
X3284Y1694D01*
X3280Y1694D01*
X3280Y1696D01*
X3276Y1696D01*
X3276Y1698D01*
X3274Y1698D01*
X3274Y1700D01*
X3270Y1700D01*
X3270Y1702D01*
X3268Y1702D01*
X3268Y1704D01*
X3266Y1704D01*
X3266Y1708D01*
X3264Y1708D01*
X3264Y1710D01*
X3262Y1710D01*
X3262Y1714D01*
X3260Y1714D01*
X3260Y1720D01*
X3240Y1720D01*
G37*
D02*
G36*
X3340Y1720D02*
X3340Y1716D01*
X3338Y1716D01*
X3338Y1712D01*
X3336Y1712D01*
X3336Y1708D01*
X3334Y1708D01*
X3334Y1706D01*
X3332Y1706D01*
X3332Y1704D01*
X3330Y1704D01*
X3330Y1702D01*
X3328Y1702D01*
X3328Y1700D01*
X3326Y1700D01*
X3326Y1698D01*
X3324Y1698D01*
X3324Y1696D01*
X3320Y1696D01*
X3320Y1694D01*
X3316Y1694D01*
X3316Y1692D01*
X3310Y1692D01*
X3310Y1690D01*
X3390Y1690D01*
X3390Y1692D01*
X3384Y1692D01*
X3384Y1694D01*
X3380Y1694D01*
X3380Y1696D01*
X3376Y1696D01*
X3376Y1698D01*
X3374Y1698D01*
X3374Y1700D01*
X3370Y1700D01*
X3370Y1702D01*
X3368Y1702D01*
X3368Y1704D01*
X3366Y1704D01*
X3366Y1708D01*
X3364Y1708D01*
X3364Y1710D01*
X3362Y1710D01*
X3362Y1714D01*
X3360Y1714D01*
X3360Y1720D01*
X3340Y1720D01*
G37*
D02*
G36*
X3440Y1720D02*
X3440Y1716D01*
X3438Y1716D01*
X3438Y1712D01*
X3436Y1712D01*
X3436Y1708D01*
X3434Y1708D01*
X3434Y1706D01*
X3432Y1706D01*
X3432Y1704D01*
X3430Y1704D01*
X3430Y1702D01*
X3428Y1702D01*
X3428Y1700D01*
X3426Y1700D01*
X3426Y1698D01*
X3424Y1698D01*
X3424Y1696D01*
X3420Y1696D01*
X3420Y1694D01*
X3416Y1694D01*
X3416Y1692D01*
X3410Y1692D01*
X3410Y1690D01*
X3490Y1690D01*
X3490Y1692D01*
X3484Y1692D01*
X3484Y1694D01*
X3480Y1694D01*
X3480Y1696D01*
X3476Y1696D01*
X3476Y1698D01*
X3474Y1698D01*
X3474Y1700D01*
X3470Y1700D01*
X3470Y1702D01*
X3468Y1702D01*
X3468Y1704D01*
X3466Y1704D01*
X3466Y1708D01*
X3464Y1708D01*
X3464Y1710D01*
X3462Y1710D01*
X3462Y1714D01*
X3460Y1714D01*
X3460Y1720D01*
X3440Y1720D01*
G37*
D02*
G36*
X430Y1690D02*
X430Y1688D01*
X3004Y1688D01*
X3004Y1690D01*
X430Y1690D01*
G37*
D02*
G36*
X430Y1690D02*
X430Y1688D01*
X3004Y1688D01*
X3004Y1690D01*
X430Y1690D01*
G37*
D02*
G36*
X430Y1690D02*
X430Y1688D01*
X3004Y1688D01*
X3004Y1690D01*
X430Y1690D01*
G37*
D02*
G36*
X430Y1690D02*
X430Y1688D01*
X3004Y1688D01*
X3004Y1690D01*
X430Y1690D01*
G37*
D02*
G36*
X430Y1690D02*
X430Y1688D01*
X3004Y1688D01*
X3004Y1690D01*
X430Y1690D01*
G37*
D02*
G36*
X430Y1690D02*
X430Y1688D01*
X3004Y1688D01*
X3004Y1690D01*
X430Y1690D01*
G37*
D02*
G36*
X3078Y1690D02*
X3078Y1688D01*
X3926Y1688D01*
X3926Y1690D01*
X3078Y1690D01*
G37*
D02*
G36*
X3078Y1690D02*
X3078Y1688D01*
X3926Y1688D01*
X3926Y1690D01*
X3078Y1690D01*
G37*
D02*
G36*
X3078Y1690D02*
X3078Y1688D01*
X3926Y1688D01*
X3926Y1690D01*
X3078Y1690D01*
G37*
D02*
G36*
X3078Y1690D02*
X3078Y1688D01*
X3926Y1688D01*
X3926Y1690D01*
X3078Y1690D01*
G37*
D02*
G36*
X3078Y1690D02*
X3078Y1688D01*
X3926Y1688D01*
X3926Y1690D01*
X3078Y1690D01*
G37*
D02*
G36*
X430Y1688D02*
X430Y1528D01*
X1654Y1528D01*
X1654Y1530D01*
X1650Y1530D01*
X1650Y1532D01*
X1646Y1532D01*
X1646Y1534D01*
X1644Y1534D01*
X1644Y1536D01*
X1640Y1536D01*
X1640Y1540D01*
X1638Y1540D01*
X1638Y1542D01*
X1636Y1542D01*
X1636Y1546D01*
X1634Y1546D01*
X1634Y1552D01*
X1632Y1552D01*
X1632Y1562D01*
X1634Y1562D01*
X1634Y1570D01*
X1636Y1570D01*
X1636Y1574D01*
X1638Y1574D01*
X1638Y1576D01*
X1640Y1576D01*
X1640Y1578D01*
X1642Y1578D01*
X1642Y1580D01*
X1644Y1580D01*
X1644Y1582D01*
X1648Y1582D01*
X1648Y1584D01*
X1650Y1584D01*
X1650Y1586D01*
X1660Y1586D01*
X1660Y1588D01*
X1672Y1588D01*
X1672Y1590D01*
X1676Y1590D01*
X1676Y1592D01*
X1678Y1592D01*
X1678Y1594D01*
X1680Y1594D01*
X1680Y1596D01*
X1682Y1596D01*
X1682Y1598D01*
X1686Y1598D01*
X1686Y1600D01*
X1688Y1600D01*
X1688Y1602D01*
X1690Y1602D01*
X1690Y1604D01*
X1692Y1604D01*
X1692Y1606D01*
X1696Y1606D01*
X1696Y1608D01*
X1698Y1608D01*
X1698Y1610D01*
X1700Y1610D01*
X1700Y1612D01*
X1702Y1612D01*
X1702Y1614D01*
X1706Y1614D01*
X1706Y1616D01*
X1708Y1616D01*
X1708Y1618D01*
X1710Y1618D01*
X1710Y1620D01*
X1712Y1620D01*
X1712Y1622D01*
X1716Y1622D01*
X1716Y1624D01*
X1722Y1624D01*
X1722Y1626D01*
X2956Y1626D01*
X2956Y1628D01*
X2958Y1628D01*
X2958Y1630D01*
X2960Y1630D01*
X2960Y1632D01*
X2964Y1632D01*
X2964Y1634D01*
X2966Y1634D01*
X2966Y1636D01*
X2968Y1636D01*
X2968Y1638D01*
X2970Y1638D01*
X2970Y1640D01*
X2972Y1640D01*
X2972Y1642D01*
X2974Y1642D01*
X2974Y1644D01*
X2976Y1644D01*
X2976Y1646D01*
X2978Y1646D01*
X2978Y1648D01*
X2980Y1648D01*
X2980Y1650D01*
X2982Y1650D01*
X2982Y1652D01*
X2986Y1652D01*
X2986Y1654D01*
X2988Y1654D01*
X2988Y1656D01*
X2990Y1656D01*
X2990Y1658D01*
X2992Y1658D01*
X2992Y1660D01*
X2994Y1660D01*
X2994Y1662D01*
X2996Y1662D01*
X2996Y1664D01*
X2998Y1664D01*
X2998Y1666D01*
X3000Y1666D01*
X3000Y1668D01*
X3002Y1668D01*
X3002Y1670D01*
X3004Y1670D01*
X3004Y1688D01*
X430Y1688D01*
G37*
D02*
G36*
X3076Y1688D02*
X3076Y1686D01*
X3074Y1686D01*
X3074Y1684D01*
X3072Y1684D01*
X3072Y1682D01*
X3070Y1682D01*
X3070Y1680D01*
X3068Y1680D01*
X3068Y1678D01*
X3066Y1678D01*
X3066Y1676D01*
X3062Y1676D01*
X3062Y1674D01*
X3060Y1674D01*
X3060Y1672D01*
X3058Y1672D01*
X3058Y1670D01*
X3056Y1670D01*
X3056Y1668D01*
X3054Y1668D01*
X3054Y1666D01*
X3052Y1666D01*
X3052Y1664D01*
X3050Y1664D01*
X3050Y1662D01*
X3048Y1662D01*
X3048Y1660D01*
X3046Y1660D01*
X3046Y1658D01*
X3044Y1658D01*
X3044Y1656D01*
X3040Y1656D01*
X3040Y1654D01*
X3038Y1654D01*
X3038Y1652D01*
X3036Y1652D01*
X3036Y1650D01*
X3034Y1650D01*
X3034Y1648D01*
X3032Y1648D01*
X3032Y1646D01*
X3030Y1646D01*
X3030Y1644D01*
X3028Y1644D01*
X3028Y1642D01*
X3026Y1642D01*
X3026Y1640D01*
X3024Y1640D01*
X3024Y1638D01*
X3022Y1638D01*
X3022Y1636D01*
X3018Y1636D01*
X3018Y1634D01*
X3016Y1634D01*
X3016Y1632D01*
X3014Y1632D01*
X3014Y1630D01*
X3012Y1630D01*
X3012Y1628D01*
X3010Y1628D01*
X3010Y1626D01*
X3008Y1626D01*
X3008Y1624D01*
X3006Y1624D01*
X3006Y1622D01*
X3004Y1622D01*
X3004Y1620D01*
X3002Y1620D01*
X3002Y1618D01*
X3000Y1618D01*
X3000Y1616D01*
X2996Y1616D01*
X2996Y1614D01*
X2994Y1614D01*
X2994Y1612D01*
X2992Y1612D01*
X2992Y1610D01*
X2990Y1610D01*
X2990Y1608D01*
X2988Y1608D01*
X2988Y1606D01*
X2986Y1606D01*
X2986Y1604D01*
X2984Y1604D01*
X2984Y1602D01*
X2982Y1602D01*
X2982Y1600D01*
X2980Y1600D01*
X2980Y1598D01*
X2976Y1598D01*
X2976Y1596D01*
X2974Y1596D01*
X2974Y1594D01*
X2972Y1594D01*
X2972Y1592D01*
X2968Y1592D01*
X2968Y1590D01*
X1730Y1590D01*
X1730Y1588D01*
X1728Y1588D01*
X1728Y1586D01*
X1726Y1586D01*
X1726Y1584D01*
X1722Y1584D01*
X1722Y1582D01*
X1720Y1582D01*
X1720Y1580D01*
X1718Y1580D01*
X1718Y1578D01*
X1716Y1578D01*
X1716Y1576D01*
X1712Y1576D01*
X1712Y1574D01*
X1710Y1574D01*
X1710Y1572D01*
X1708Y1572D01*
X1708Y1570D01*
X1706Y1570D01*
X1706Y1568D01*
X1702Y1568D01*
X1702Y1566D01*
X1700Y1566D01*
X1700Y1564D01*
X1698Y1564D01*
X1698Y1562D01*
X1696Y1562D01*
X1696Y1560D01*
X1692Y1560D01*
X1692Y1552D01*
X1690Y1552D01*
X1690Y1546D01*
X1688Y1546D01*
X1688Y1542D01*
X1686Y1542D01*
X1686Y1538D01*
X1684Y1538D01*
X1684Y1536D01*
X1682Y1536D01*
X1682Y1534D01*
X1678Y1534D01*
X1678Y1532D01*
X1676Y1532D01*
X1676Y1530D01*
X1670Y1530D01*
X1670Y1528D01*
X3926Y1528D01*
X3926Y1688D01*
X3076Y1688D01*
G37*
D02*
G36*
X430Y1528D02*
X430Y1526D01*
X3926Y1526D01*
X3926Y1528D01*
X430Y1528D01*
G37*
D02*
G36*
X430Y1528D02*
X430Y1526D01*
X3926Y1526D01*
X3926Y1528D01*
X430Y1528D01*
G37*
D02*
G36*
X430Y1526D02*
X430Y1288D01*
X1264Y1288D01*
X1264Y1286D01*
X1274Y1286D01*
X1274Y1284D01*
X1278Y1284D01*
X1278Y1282D01*
X1280Y1282D01*
X1280Y1280D01*
X1282Y1280D01*
X1282Y1278D01*
X1284Y1278D01*
X1284Y1276D01*
X1286Y1276D01*
X1286Y1274D01*
X1288Y1274D01*
X1288Y1270D01*
X1290Y1270D01*
X1290Y1264D01*
X1292Y1264D01*
X1292Y1256D01*
X1294Y1256D01*
X1294Y1254D01*
X1298Y1254D01*
X1298Y1252D01*
X1300Y1252D01*
X1300Y1250D01*
X1302Y1250D01*
X1302Y1248D01*
X1304Y1248D01*
X1304Y1246D01*
X1308Y1246D01*
X1308Y1244D01*
X1310Y1244D01*
X1310Y1242D01*
X1312Y1242D01*
X1312Y1240D01*
X1314Y1240D01*
X1314Y1238D01*
X1318Y1238D01*
X1318Y1236D01*
X1320Y1236D01*
X1320Y1234D01*
X1322Y1234D01*
X1322Y1232D01*
X1326Y1232D01*
X1326Y1230D01*
X1328Y1230D01*
X1328Y1228D01*
X1330Y1228D01*
X1330Y1226D01*
X1332Y1226D01*
X1332Y1224D01*
X1336Y1224D01*
X1336Y1222D01*
X1338Y1222D01*
X1338Y1220D01*
X1340Y1220D01*
X1340Y1218D01*
X1342Y1218D01*
X1342Y1216D01*
X1346Y1216D01*
X1346Y1214D01*
X1348Y1214D01*
X1348Y1212D01*
X1350Y1212D01*
X1350Y1210D01*
X1354Y1210D01*
X1354Y1208D01*
X1356Y1208D01*
X1356Y1206D01*
X1358Y1206D01*
X1358Y1204D01*
X1360Y1204D01*
X1360Y1202D01*
X1364Y1202D01*
X1364Y1200D01*
X1366Y1200D01*
X1366Y1198D01*
X1368Y1198D01*
X1368Y1196D01*
X1370Y1196D01*
X1370Y1194D01*
X1374Y1194D01*
X1374Y1192D01*
X1376Y1192D01*
X1376Y1190D01*
X1378Y1190D01*
X1378Y1188D01*
X1382Y1188D01*
X1382Y1186D01*
X1384Y1186D01*
X1384Y1184D01*
X1386Y1184D01*
X1386Y1182D01*
X1388Y1182D01*
X1388Y1180D01*
X1392Y1180D01*
X1392Y1178D01*
X1394Y1178D01*
X1394Y1176D01*
X1396Y1176D01*
X1396Y1174D01*
X1398Y1174D01*
X1398Y1172D01*
X1402Y1172D01*
X1402Y1170D01*
X1404Y1170D01*
X1404Y1168D01*
X1406Y1168D01*
X1406Y1166D01*
X1410Y1166D01*
X1410Y1164D01*
X1412Y1164D01*
X1412Y1162D01*
X1414Y1162D01*
X1414Y1160D01*
X1416Y1160D01*
X1416Y1158D01*
X1420Y1158D01*
X1420Y1156D01*
X1422Y1156D01*
X1422Y1154D01*
X1424Y1154D01*
X1424Y1152D01*
X1426Y1152D01*
X1426Y1150D01*
X1430Y1150D01*
X1430Y1148D01*
X1432Y1148D01*
X1432Y1146D01*
X1434Y1146D01*
X1434Y1144D01*
X1438Y1144D01*
X1438Y1142D01*
X1440Y1142D01*
X1440Y1140D01*
X1442Y1140D01*
X1442Y1138D01*
X3104Y1138D01*
X3104Y1136D01*
X3110Y1136D01*
X3110Y1134D01*
X3112Y1134D01*
X3112Y1132D01*
X3114Y1132D01*
X3114Y1130D01*
X3116Y1130D01*
X3116Y1128D01*
X3118Y1128D01*
X3118Y1126D01*
X3120Y1126D01*
X3120Y1124D01*
X3122Y1124D01*
X3122Y1122D01*
X3124Y1122D01*
X3124Y1120D01*
X3126Y1120D01*
X3126Y1118D01*
X3128Y1118D01*
X3128Y1116D01*
X3130Y1116D01*
X3130Y1114D01*
X3132Y1114D01*
X3132Y1112D01*
X3134Y1112D01*
X3134Y1110D01*
X3136Y1110D01*
X3136Y1108D01*
X3138Y1108D01*
X3138Y1106D01*
X3140Y1106D01*
X3140Y1104D01*
X3142Y1104D01*
X3142Y1102D01*
X3144Y1102D01*
X3144Y1100D01*
X3146Y1100D01*
X3146Y1098D01*
X3148Y1098D01*
X3148Y1096D01*
X3150Y1096D01*
X3150Y1094D01*
X3152Y1094D01*
X3152Y1092D01*
X3154Y1092D01*
X3154Y1090D01*
X3156Y1090D01*
X3156Y1088D01*
X3158Y1088D01*
X3158Y1086D01*
X3160Y1086D01*
X3160Y1084D01*
X3162Y1084D01*
X3162Y1082D01*
X3164Y1082D01*
X3164Y1080D01*
X3166Y1080D01*
X3166Y1078D01*
X3168Y1078D01*
X3168Y1076D01*
X3170Y1076D01*
X3170Y1074D01*
X3172Y1074D01*
X3172Y1072D01*
X3174Y1072D01*
X3174Y1070D01*
X3176Y1070D01*
X3176Y1068D01*
X3178Y1068D01*
X3178Y1066D01*
X3180Y1066D01*
X3180Y1064D01*
X3182Y1064D01*
X3182Y1062D01*
X3184Y1062D01*
X3184Y1060D01*
X3186Y1060D01*
X3186Y1058D01*
X3188Y1058D01*
X3188Y1056D01*
X3190Y1056D01*
X3190Y1052D01*
X3192Y1052D01*
X3192Y968D01*
X3194Y968D01*
X3194Y966D01*
X3196Y966D01*
X3196Y964D01*
X3198Y964D01*
X3198Y962D01*
X3200Y962D01*
X3200Y958D01*
X3202Y958D01*
X3202Y954D01*
X3204Y954D01*
X3204Y936D01*
X3202Y936D01*
X3202Y932D01*
X3200Y932D01*
X3200Y928D01*
X3198Y928D01*
X3198Y926D01*
X3196Y926D01*
X3196Y924D01*
X3194Y924D01*
X3194Y922D01*
X3192Y922D01*
X3192Y920D01*
X3188Y920D01*
X3188Y918D01*
X3184Y918D01*
X3184Y916D01*
X3926Y916D01*
X3926Y1526D01*
X430Y1526D01*
G37*
D02*
G36*
X430Y1288D02*
X430Y1202D01*
X898Y1202D01*
X898Y1200D01*
X904Y1200D01*
X904Y1198D01*
X908Y1198D01*
X908Y1196D01*
X912Y1196D01*
X912Y1194D01*
X914Y1194D01*
X914Y1192D01*
X918Y1192D01*
X918Y1190D01*
X920Y1190D01*
X920Y1186D01*
X922Y1186D01*
X922Y1184D01*
X924Y1184D01*
X924Y1182D01*
X926Y1182D01*
X926Y1178D01*
X928Y1178D01*
X928Y1174D01*
X930Y1174D01*
X930Y1168D01*
X932Y1168D01*
X932Y1148D01*
X930Y1148D01*
X930Y1142D01*
X928Y1142D01*
X928Y1138D01*
X926Y1138D01*
X926Y1134D01*
X924Y1134D01*
X924Y1130D01*
X922Y1130D01*
X922Y1128D01*
X920Y1128D01*
X920Y1126D01*
X918Y1126D01*
X918Y1124D01*
X916Y1124D01*
X916Y1122D01*
X914Y1122D01*
X914Y1120D01*
X910Y1120D01*
X910Y1118D01*
X906Y1118D01*
X906Y1098D01*
X908Y1098D01*
X908Y1096D01*
X912Y1096D01*
X912Y1094D01*
X914Y1094D01*
X914Y1092D01*
X918Y1092D01*
X918Y1090D01*
X920Y1090D01*
X920Y1086D01*
X922Y1086D01*
X922Y1084D01*
X924Y1084D01*
X924Y1082D01*
X926Y1082D01*
X926Y1078D01*
X928Y1078D01*
X928Y1074D01*
X930Y1074D01*
X930Y1068D01*
X932Y1068D01*
X932Y1048D01*
X930Y1048D01*
X930Y1042D01*
X928Y1042D01*
X928Y1038D01*
X926Y1038D01*
X926Y1034D01*
X924Y1034D01*
X924Y1030D01*
X922Y1030D01*
X922Y1028D01*
X920Y1028D01*
X920Y1026D01*
X918Y1026D01*
X918Y1024D01*
X916Y1024D01*
X916Y1022D01*
X914Y1022D01*
X914Y1020D01*
X910Y1020D01*
X910Y1018D01*
X906Y1018D01*
X906Y998D01*
X908Y998D01*
X908Y996D01*
X912Y996D01*
X912Y994D01*
X914Y994D01*
X914Y992D01*
X918Y992D01*
X918Y990D01*
X920Y990D01*
X920Y986D01*
X922Y986D01*
X922Y984D01*
X924Y984D01*
X924Y982D01*
X926Y982D01*
X926Y978D01*
X928Y978D01*
X928Y974D01*
X930Y974D01*
X930Y968D01*
X932Y968D01*
X932Y948D01*
X930Y948D01*
X930Y942D01*
X928Y942D01*
X928Y938D01*
X926Y938D01*
X926Y934D01*
X924Y934D01*
X924Y930D01*
X922Y930D01*
X922Y928D01*
X1830Y928D01*
X1830Y930D01*
X1824Y930D01*
X1824Y932D01*
X1820Y932D01*
X1820Y934D01*
X1818Y934D01*
X1818Y936D01*
X1816Y936D01*
X1816Y938D01*
X1814Y938D01*
X1814Y940D01*
X1812Y940D01*
X1812Y944D01*
X1810Y944D01*
X1810Y948D01*
X1808Y948D01*
X1808Y966D01*
X1810Y966D01*
X1810Y972D01*
X1812Y972D01*
X1812Y974D01*
X1814Y974D01*
X1814Y978D01*
X1816Y978D01*
X1816Y980D01*
X1820Y980D01*
X1820Y982D01*
X1822Y982D01*
X1822Y1026D01*
X1820Y1026D01*
X1820Y1028D01*
X1818Y1028D01*
X1818Y1030D01*
X1816Y1030D01*
X1816Y1032D01*
X1814Y1032D01*
X1814Y1034D01*
X1812Y1034D01*
X1812Y1036D01*
X1810Y1036D01*
X1810Y1038D01*
X1808Y1038D01*
X1808Y1040D01*
X1806Y1040D01*
X1806Y1042D01*
X1804Y1042D01*
X1804Y1044D01*
X1802Y1044D01*
X1802Y1046D01*
X1800Y1046D01*
X1800Y1048D01*
X1798Y1048D01*
X1798Y1050D01*
X1796Y1050D01*
X1796Y1052D01*
X1794Y1052D01*
X1794Y1054D01*
X1160Y1054D01*
X1160Y1056D01*
X1154Y1056D01*
X1154Y1058D01*
X1152Y1058D01*
X1152Y1060D01*
X1150Y1060D01*
X1150Y1062D01*
X1148Y1062D01*
X1148Y1064D01*
X1146Y1064D01*
X1146Y1066D01*
X1144Y1066D01*
X1144Y1068D01*
X1140Y1068D01*
X1140Y1070D01*
X1138Y1070D01*
X1138Y1072D01*
X1136Y1072D01*
X1136Y1074D01*
X1134Y1074D01*
X1134Y1076D01*
X1132Y1076D01*
X1132Y1078D01*
X1130Y1078D01*
X1130Y1080D01*
X1128Y1080D01*
X1128Y1082D01*
X1126Y1082D01*
X1126Y1084D01*
X1124Y1084D01*
X1124Y1086D01*
X1122Y1086D01*
X1122Y1088D01*
X1120Y1088D01*
X1120Y1090D01*
X1118Y1090D01*
X1118Y1092D01*
X1116Y1092D01*
X1116Y1094D01*
X1114Y1094D01*
X1114Y1096D01*
X1110Y1096D01*
X1110Y1098D01*
X1108Y1098D01*
X1108Y1100D01*
X1106Y1100D01*
X1106Y1102D01*
X1104Y1102D01*
X1104Y1104D01*
X1102Y1104D01*
X1102Y1106D01*
X1100Y1106D01*
X1100Y1108D01*
X1098Y1108D01*
X1098Y1110D01*
X1096Y1110D01*
X1096Y1112D01*
X1094Y1112D01*
X1094Y1114D01*
X1092Y1114D01*
X1092Y1116D01*
X1090Y1116D01*
X1090Y1118D01*
X1088Y1118D01*
X1088Y1120D01*
X1086Y1120D01*
X1086Y1122D01*
X1082Y1122D01*
X1082Y1124D01*
X1080Y1124D01*
X1080Y1126D01*
X1078Y1126D01*
X1078Y1128D01*
X1076Y1128D01*
X1076Y1130D01*
X1074Y1130D01*
X1074Y1132D01*
X1072Y1132D01*
X1072Y1134D01*
X1070Y1134D01*
X1070Y1136D01*
X1068Y1136D01*
X1068Y1138D01*
X1066Y1138D01*
X1066Y1140D01*
X1064Y1140D01*
X1064Y1142D01*
X1062Y1142D01*
X1062Y1144D01*
X1060Y1144D01*
X1060Y1146D01*
X1058Y1146D01*
X1058Y1148D01*
X1056Y1148D01*
X1056Y1150D01*
X1052Y1150D01*
X1052Y1152D01*
X1050Y1152D01*
X1050Y1154D01*
X1048Y1154D01*
X1048Y1156D01*
X1046Y1156D01*
X1046Y1158D01*
X1044Y1158D01*
X1044Y1160D01*
X1042Y1160D01*
X1042Y1162D01*
X1040Y1162D01*
X1040Y1164D01*
X1038Y1164D01*
X1038Y1166D01*
X1036Y1166D01*
X1036Y1168D01*
X1034Y1168D01*
X1034Y1170D01*
X1032Y1170D01*
X1032Y1172D01*
X1030Y1172D01*
X1030Y1174D01*
X1028Y1174D01*
X1028Y1176D01*
X1026Y1176D01*
X1026Y1178D01*
X1022Y1178D01*
X1022Y1180D01*
X1020Y1180D01*
X1020Y1182D01*
X1018Y1182D01*
X1018Y1184D01*
X1016Y1184D01*
X1016Y1186D01*
X1014Y1186D01*
X1014Y1188D01*
X1012Y1188D01*
X1012Y1190D01*
X1010Y1190D01*
X1010Y1192D01*
X1008Y1192D01*
X1008Y1194D01*
X1006Y1194D01*
X1006Y1196D01*
X1004Y1196D01*
X1004Y1198D01*
X1002Y1198D01*
X1002Y1200D01*
X1000Y1200D01*
X1000Y1202D01*
X998Y1202D01*
X998Y1204D01*
X996Y1204D01*
X996Y1206D01*
X992Y1206D01*
X992Y1208D01*
X990Y1208D01*
X990Y1210D01*
X988Y1210D01*
X988Y1212D01*
X986Y1212D01*
X986Y1214D01*
X984Y1214D01*
X984Y1216D01*
X982Y1216D01*
X982Y1218D01*
X980Y1218D01*
X980Y1220D01*
X978Y1220D01*
X978Y1222D01*
X976Y1222D01*
X976Y1224D01*
X974Y1224D01*
X974Y1226D01*
X972Y1226D01*
X972Y1228D01*
X954Y1228D01*
X954Y1230D01*
X950Y1230D01*
X950Y1232D01*
X946Y1232D01*
X946Y1234D01*
X944Y1234D01*
X944Y1236D01*
X940Y1236D01*
X940Y1240D01*
X938Y1240D01*
X938Y1242D01*
X936Y1242D01*
X936Y1246D01*
X934Y1246D01*
X934Y1254D01*
X932Y1254D01*
X932Y1262D01*
X934Y1262D01*
X934Y1270D01*
X936Y1270D01*
X936Y1274D01*
X938Y1274D01*
X938Y1276D01*
X940Y1276D01*
X940Y1278D01*
X942Y1278D01*
X942Y1280D01*
X944Y1280D01*
X944Y1282D01*
X948Y1282D01*
X948Y1284D01*
X950Y1284D01*
X950Y1286D01*
X960Y1286D01*
X960Y1288D01*
X430Y1288D01*
G37*
D02*
G36*
X964Y1288D02*
X964Y1286D01*
X974Y1286D01*
X974Y1284D01*
X978Y1284D01*
X978Y1282D01*
X980Y1282D01*
X980Y1280D01*
X982Y1280D01*
X982Y1278D01*
X984Y1278D01*
X984Y1276D01*
X986Y1276D01*
X986Y1274D01*
X988Y1274D01*
X988Y1270D01*
X990Y1270D01*
X990Y1264D01*
X992Y1264D01*
X992Y1250D01*
X994Y1250D01*
X994Y1248D01*
X996Y1248D01*
X996Y1246D01*
X1000Y1246D01*
X1000Y1244D01*
X1002Y1244D01*
X1002Y1242D01*
X1004Y1242D01*
X1004Y1240D01*
X1006Y1240D01*
X1006Y1238D01*
X1008Y1238D01*
X1008Y1236D01*
X1010Y1236D01*
X1010Y1234D01*
X1012Y1234D01*
X1012Y1232D01*
X1014Y1232D01*
X1014Y1230D01*
X1016Y1230D01*
X1016Y1228D01*
X1018Y1228D01*
X1018Y1226D01*
X1020Y1226D01*
X1020Y1224D01*
X1022Y1224D01*
X1022Y1222D01*
X1024Y1222D01*
X1024Y1220D01*
X1026Y1220D01*
X1026Y1218D01*
X1030Y1218D01*
X1030Y1216D01*
X1032Y1216D01*
X1032Y1214D01*
X1034Y1214D01*
X1034Y1212D01*
X1036Y1212D01*
X1036Y1210D01*
X1038Y1210D01*
X1038Y1208D01*
X1040Y1208D01*
X1040Y1206D01*
X1042Y1206D01*
X1042Y1204D01*
X1044Y1204D01*
X1044Y1202D01*
X1046Y1202D01*
X1046Y1200D01*
X1048Y1200D01*
X1048Y1198D01*
X1050Y1198D01*
X1050Y1196D01*
X1052Y1196D01*
X1052Y1194D01*
X1054Y1194D01*
X1054Y1192D01*
X1058Y1192D01*
X1058Y1190D01*
X1060Y1190D01*
X1060Y1188D01*
X1062Y1188D01*
X1062Y1186D01*
X1064Y1186D01*
X1064Y1184D01*
X1066Y1184D01*
X1066Y1182D01*
X1068Y1182D01*
X1068Y1180D01*
X1070Y1180D01*
X1070Y1178D01*
X1072Y1178D01*
X1072Y1176D01*
X1074Y1176D01*
X1074Y1174D01*
X1076Y1174D01*
X1076Y1172D01*
X1078Y1172D01*
X1078Y1170D01*
X1080Y1170D01*
X1080Y1168D01*
X1082Y1168D01*
X1082Y1166D01*
X1084Y1166D01*
X1084Y1164D01*
X1088Y1164D01*
X1088Y1162D01*
X1090Y1162D01*
X1090Y1160D01*
X1092Y1160D01*
X1092Y1158D01*
X1094Y1158D01*
X1094Y1156D01*
X1096Y1156D01*
X1096Y1154D01*
X1098Y1154D01*
X1098Y1152D01*
X1100Y1152D01*
X1100Y1150D01*
X1102Y1150D01*
X1102Y1148D01*
X1104Y1148D01*
X1104Y1146D01*
X1106Y1146D01*
X1106Y1144D01*
X1108Y1144D01*
X1108Y1142D01*
X1110Y1142D01*
X1110Y1140D01*
X1112Y1140D01*
X1112Y1138D01*
X1114Y1138D01*
X1114Y1136D01*
X1118Y1136D01*
X1118Y1134D01*
X1120Y1134D01*
X1120Y1132D01*
X1122Y1132D01*
X1122Y1130D01*
X1124Y1130D01*
X1124Y1128D01*
X1126Y1128D01*
X1126Y1126D01*
X1128Y1126D01*
X1128Y1124D01*
X1130Y1124D01*
X1130Y1122D01*
X1132Y1122D01*
X1132Y1120D01*
X1134Y1120D01*
X1134Y1118D01*
X1136Y1118D01*
X1136Y1116D01*
X1138Y1116D01*
X1138Y1114D01*
X1140Y1114D01*
X1140Y1112D01*
X1142Y1112D01*
X1142Y1110D01*
X1144Y1110D01*
X1144Y1108D01*
X1148Y1108D01*
X1148Y1106D01*
X1150Y1106D01*
X1150Y1104D01*
X1152Y1104D01*
X1152Y1102D01*
X1154Y1102D01*
X1154Y1100D01*
X1156Y1100D01*
X1156Y1098D01*
X1158Y1098D01*
X1158Y1096D01*
X1160Y1096D01*
X1160Y1094D01*
X1162Y1094D01*
X1162Y1092D01*
X1164Y1092D01*
X1164Y1090D01*
X1166Y1090D01*
X1166Y1088D01*
X1168Y1088D01*
X1168Y1086D01*
X1428Y1086D01*
X1428Y1106D01*
X1424Y1106D01*
X1424Y1108D01*
X1422Y1108D01*
X1422Y1110D01*
X1420Y1110D01*
X1420Y1112D01*
X1416Y1112D01*
X1416Y1114D01*
X1414Y1114D01*
X1414Y1116D01*
X1412Y1116D01*
X1412Y1118D01*
X1410Y1118D01*
X1410Y1120D01*
X1406Y1120D01*
X1406Y1122D01*
X1404Y1122D01*
X1404Y1124D01*
X1402Y1124D01*
X1402Y1126D01*
X1400Y1126D01*
X1400Y1128D01*
X1396Y1128D01*
X1396Y1130D01*
X1394Y1130D01*
X1394Y1132D01*
X1392Y1132D01*
X1392Y1134D01*
X1388Y1134D01*
X1388Y1136D01*
X1386Y1136D01*
X1386Y1138D01*
X1384Y1138D01*
X1384Y1140D01*
X1382Y1140D01*
X1382Y1142D01*
X1378Y1142D01*
X1378Y1144D01*
X1376Y1144D01*
X1376Y1146D01*
X1374Y1146D01*
X1374Y1148D01*
X1372Y1148D01*
X1372Y1150D01*
X1368Y1150D01*
X1368Y1152D01*
X1366Y1152D01*
X1366Y1154D01*
X1364Y1154D01*
X1364Y1156D01*
X1360Y1156D01*
X1360Y1158D01*
X1358Y1158D01*
X1358Y1160D01*
X1356Y1160D01*
X1356Y1162D01*
X1354Y1162D01*
X1354Y1164D01*
X1350Y1164D01*
X1350Y1166D01*
X1348Y1166D01*
X1348Y1168D01*
X1346Y1168D01*
X1346Y1170D01*
X1344Y1170D01*
X1344Y1172D01*
X1340Y1172D01*
X1340Y1174D01*
X1338Y1174D01*
X1338Y1176D01*
X1336Y1176D01*
X1336Y1178D01*
X1332Y1178D01*
X1332Y1180D01*
X1330Y1180D01*
X1330Y1182D01*
X1328Y1182D01*
X1328Y1184D01*
X1326Y1184D01*
X1326Y1186D01*
X1322Y1186D01*
X1322Y1188D01*
X1320Y1188D01*
X1320Y1190D01*
X1318Y1190D01*
X1318Y1192D01*
X1316Y1192D01*
X1316Y1194D01*
X1312Y1194D01*
X1312Y1196D01*
X1310Y1196D01*
X1310Y1198D01*
X1308Y1198D01*
X1308Y1200D01*
X1306Y1200D01*
X1306Y1202D01*
X1302Y1202D01*
X1302Y1204D01*
X1300Y1204D01*
X1300Y1206D01*
X1298Y1206D01*
X1298Y1208D01*
X1294Y1208D01*
X1294Y1210D01*
X1292Y1210D01*
X1292Y1212D01*
X1290Y1212D01*
X1290Y1214D01*
X1288Y1214D01*
X1288Y1216D01*
X1284Y1216D01*
X1284Y1218D01*
X1282Y1218D01*
X1282Y1220D01*
X1280Y1220D01*
X1280Y1222D01*
X1278Y1222D01*
X1278Y1224D01*
X1274Y1224D01*
X1274Y1226D01*
X1272Y1226D01*
X1272Y1228D01*
X1254Y1228D01*
X1254Y1230D01*
X1250Y1230D01*
X1250Y1232D01*
X1246Y1232D01*
X1246Y1234D01*
X1244Y1234D01*
X1244Y1236D01*
X1240Y1236D01*
X1240Y1240D01*
X1238Y1240D01*
X1238Y1242D01*
X1236Y1242D01*
X1236Y1246D01*
X1234Y1246D01*
X1234Y1252D01*
X1232Y1252D01*
X1232Y1262D01*
X1234Y1262D01*
X1234Y1270D01*
X1236Y1270D01*
X1236Y1274D01*
X1238Y1274D01*
X1238Y1276D01*
X1240Y1276D01*
X1240Y1278D01*
X1242Y1278D01*
X1242Y1280D01*
X1244Y1280D01*
X1244Y1282D01*
X1248Y1282D01*
X1248Y1284D01*
X1250Y1284D01*
X1250Y1286D01*
X1260Y1286D01*
X1260Y1288D01*
X964Y1288D01*
G37*
D02*
G36*
X40Y1236D02*
X40Y1078D01*
X178Y1078D01*
X178Y1080D01*
X168Y1080D01*
X168Y1082D01*
X160Y1082D01*
X160Y1084D01*
X156Y1084D01*
X156Y1086D01*
X152Y1086D01*
X152Y1088D01*
X148Y1088D01*
X148Y1090D01*
X144Y1090D01*
X144Y1092D01*
X142Y1092D01*
X142Y1094D01*
X138Y1094D01*
X138Y1096D01*
X136Y1096D01*
X136Y1098D01*
X134Y1098D01*
X134Y1100D01*
X132Y1100D01*
X132Y1102D01*
X130Y1102D01*
X130Y1104D01*
X128Y1104D01*
X128Y1106D01*
X126Y1106D01*
X126Y1108D01*
X124Y1108D01*
X124Y1112D01*
X122Y1112D01*
X122Y1114D01*
X120Y1114D01*
X120Y1118D01*
X118Y1118D01*
X118Y1122D01*
X116Y1122D01*
X116Y1126D01*
X114Y1126D01*
X114Y1130D01*
X112Y1130D01*
X112Y1136D01*
X110Y1136D01*
X110Y1146D01*
X108Y1146D01*
X108Y1170D01*
X110Y1170D01*
X110Y1178D01*
X112Y1178D01*
X112Y1186D01*
X114Y1186D01*
X114Y1190D01*
X116Y1190D01*
X116Y1194D01*
X118Y1194D01*
X118Y1198D01*
X120Y1198D01*
X120Y1200D01*
X122Y1200D01*
X122Y1204D01*
X124Y1204D01*
X124Y1206D01*
X126Y1206D01*
X126Y1208D01*
X128Y1208D01*
X128Y1212D01*
X130Y1212D01*
X130Y1214D01*
X132Y1214D01*
X132Y1216D01*
X134Y1216D01*
X134Y1218D01*
X138Y1218D01*
X138Y1220D01*
X140Y1220D01*
X140Y1222D01*
X142Y1222D01*
X142Y1224D01*
X146Y1224D01*
X146Y1226D01*
X150Y1226D01*
X150Y1228D01*
X154Y1228D01*
X154Y1230D01*
X158Y1230D01*
X158Y1232D01*
X164Y1232D01*
X164Y1234D01*
X170Y1234D01*
X170Y1236D01*
X40Y1236D01*
G37*
D02*
G36*
X430Y1202D02*
X430Y1138D01*
X564Y1138D01*
X564Y1136D01*
X574Y1136D01*
X574Y1134D01*
X578Y1134D01*
X578Y1132D01*
X580Y1132D01*
X580Y1130D01*
X582Y1130D01*
X582Y1128D01*
X584Y1128D01*
X584Y1126D01*
X586Y1126D01*
X586Y1124D01*
X588Y1124D01*
X588Y1120D01*
X590Y1120D01*
X590Y1114D01*
X592Y1114D01*
X592Y1100D01*
X594Y1100D01*
X594Y1098D01*
X596Y1098D01*
X596Y1096D01*
X598Y1096D01*
X598Y1094D01*
X600Y1094D01*
X600Y1092D01*
X602Y1092D01*
X602Y1090D01*
X604Y1090D01*
X604Y1088D01*
X606Y1088D01*
X606Y1086D01*
X608Y1086D01*
X608Y1084D01*
X610Y1084D01*
X610Y1082D01*
X612Y1082D01*
X612Y1080D01*
X614Y1080D01*
X614Y1078D01*
X616Y1078D01*
X616Y1074D01*
X618Y1074D01*
X618Y1072D01*
X620Y1072D01*
X620Y1070D01*
X622Y1070D01*
X622Y1068D01*
X624Y1068D01*
X624Y1066D01*
X626Y1066D01*
X626Y1064D01*
X628Y1064D01*
X628Y1062D01*
X630Y1062D01*
X630Y1060D01*
X632Y1060D01*
X632Y1058D01*
X634Y1058D01*
X634Y1056D01*
X636Y1056D01*
X636Y1054D01*
X638Y1054D01*
X638Y1052D01*
X640Y1052D01*
X640Y1050D01*
X642Y1050D01*
X642Y1046D01*
X644Y1046D01*
X644Y1044D01*
X646Y1044D01*
X646Y1042D01*
X648Y1042D01*
X648Y1040D01*
X650Y1040D01*
X650Y1038D01*
X652Y1038D01*
X652Y1036D01*
X654Y1036D01*
X654Y1034D01*
X656Y1034D01*
X656Y1032D01*
X658Y1032D01*
X658Y1030D01*
X660Y1030D01*
X660Y1028D01*
X662Y1028D01*
X662Y1026D01*
X664Y1026D01*
X664Y1024D01*
X666Y1024D01*
X666Y1022D01*
X668Y1022D01*
X668Y1018D01*
X670Y1018D01*
X670Y1016D01*
X672Y1016D01*
X672Y1014D01*
X674Y1014D01*
X674Y1012D01*
X676Y1012D01*
X676Y1010D01*
X678Y1010D01*
X678Y1008D01*
X680Y1008D01*
X680Y1006D01*
X682Y1006D01*
X682Y1004D01*
X684Y1004D01*
X684Y1002D01*
X686Y1002D01*
X686Y1000D01*
X688Y1000D01*
X688Y998D01*
X690Y998D01*
X690Y996D01*
X692Y996D01*
X692Y994D01*
X694Y994D01*
X694Y990D01*
X696Y990D01*
X696Y988D01*
X698Y988D01*
X698Y986D01*
X700Y986D01*
X700Y984D01*
X702Y984D01*
X702Y982D01*
X704Y982D01*
X704Y980D01*
X706Y980D01*
X706Y978D01*
X708Y978D01*
X708Y976D01*
X710Y976D01*
X710Y974D01*
X712Y974D01*
X712Y972D01*
X714Y972D01*
X714Y970D01*
X716Y970D01*
X716Y968D01*
X718Y968D01*
X718Y966D01*
X720Y966D01*
X720Y962D01*
X722Y962D01*
X722Y960D01*
X724Y960D01*
X724Y958D01*
X726Y958D01*
X726Y956D01*
X728Y956D01*
X728Y954D01*
X730Y954D01*
X730Y952D01*
X732Y952D01*
X732Y950D01*
X734Y950D01*
X734Y948D01*
X736Y948D01*
X736Y946D01*
X738Y946D01*
X738Y944D01*
X740Y944D01*
X740Y942D01*
X742Y942D01*
X742Y940D01*
X744Y940D01*
X744Y938D01*
X746Y938D01*
X746Y934D01*
X748Y934D01*
X748Y932D01*
X750Y932D01*
X750Y930D01*
X752Y930D01*
X752Y928D01*
X754Y928D01*
X754Y926D01*
X756Y926D01*
X756Y924D01*
X758Y924D01*
X758Y922D01*
X760Y922D01*
X760Y920D01*
X762Y920D01*
X762Y918D01*
X764Y918D01*
X764Y916D01*
X766Y916D01*
X766Y914D01*
X768Y914D01*
X768Y912D01*
X770Y912D01*
X770Y910D01*
X772Y910D01*
X772Y906D01*
X774Y906D01*
X774Y904D01*
X776Y904D01*
X776Y902D01*
X778Y902D01*
X778Y900D01*
X780Y900D01*
X780Y898D01*
X782Y898D01*
X782Y896D01*
X784Y896D01*
X784Y894D01*
X786Y894D01*
X786Y892D01*
X788Y892D01*
X788Y890D01*
X790Y890D01*
X790Y888D01*
X792Y888D01*
X792Y886D01*
X794Y886D01*
X794Y884D01*
X796Y884D01*
X796Y882D01*
X798Y882D01*
X798Y878D01*
X800Y878D01*
X800Y876D01*
X802Y876D01*
X802Y874D01*
X804Y874D01*
X804Y872D01*
X806Y872D01*
X806Y870D01*
X808Y870D01*
X808Y868D01*
X810Y868D01*
X810Y866D01*
X812Y866D01*
X812Y864D01*
X814Y864D01*
X814Y862D01*
X816Y862D01*
X816Y860D01*
X818Y860D01*
X818Y858D01*
X820Y858D01*
X820Y856D01*
X822Y856D01*
X822Y854D01*
X842Y854D01*
X842Y866D01*
X844Y866D01*
X844Y872D01*
X846Y872D01*
X846Y878D01*
X848Y878D01*
X848Y882D01*
X850Y882D01*
X850Y884D01*
X852Y884D01*
X852Y886D01*
X854Y886D01*
X854Y888D01*
X856Y888D01*
X856Y890D01*
X858Y890D01*
X858Y892D01*
X860Y892D01*
X860Y894D01*
X862Y894D01*
X862Y896D01*
X866Y896D01*
X866Y898D01*
X868Y898D01*
X868Y918D01*
X864Y918D01*
X864Y920D01*
X862Y920D01*
X862Y922D01*
X858Y922D01*
X858Y924D01*
X856Y924D01*
X856Y926D01*
X854Y926D01*
X854Y928D01*
X852Y928D01*
X852Y932D01*
X850Y932D01*
X850Y934D01*
X848Y934D01*
X848Y938D01*
X846Y938D01*
X846Y942D01*
X844Y942D01*
X844Y950D01*
X842Y950D01*
X842Y966D01*
X844Y966D01*
X844Y972D01*
X846Y972D01*
X846Y978D01*
X848Y978D01*
X848Y982D01*
X850Y982D01*
X850Y984D01*
X852Y984D01*
X852Y986D01*
X854Y986D01*
X854Y988D01*
X856Y988D01*
X856Y990D01*
X858Y990D01*
X858Y992D01*
X860Y992D01*
X860Y994D01*
X862Y994D01*
X862Y996D01*
X866Y996D01*
X866Y998D01*
X868Y998D01*
X868Y1018D01*
X864Y1018D01*
X864Y1020D01*
X862Y1020D01*
X862Y1022D01*
X858Y1022D01*
X858Y1024D01*
X856Y1024D01*
X856Y1026D01*
X854Y1026D01*
X854Y1028D01*
X852Y1028D01*
X852Y1032D01*
X850Y1032D01*
X850Y1034D01*
X848Y1034D01*
X848Y1038D01*
X846Y1038D01*
X846Y1042D01*
X844Y1042D01*
X844Y1050D01*
X842Y1050D01*
X842Y1066D01*
X844Y1066D01*
X844Y1072D01*
X846Y1072D01*
X846Y1078D01*
X848Y1078D01*
X848Y1082D01*
X850Y1082D01*
X850Y1084D01*
X852Y1084D01*
X852Y1086D01*
X854Y1086D01*
X854Y1088D01*
X856Y1088D01*
X856Y1090D01*
X858Y1090D01*
X858Y1092D01*
X860Y1092D01*
X860Y1094D01*
X862Y1094D01*
X862Y1096D01*
X866Y1096D01*
X866Y1098D01*
X868Y1098D01*
X868Y1118D01*
X864Y1118D01*
X864Y1120D01*
X862Y1120D01*
X862Y1122D01*
X858Y1122D01*
X858Y1124D01*
X856Y1124D01*
X856Y1126D01*
X854Y1126D01*
X854Y1128D01*
X852Y1128D01*
X852Y1132D01*
X850Y1132D01*
X850Y1134D01*
X848Y1134D01*
X848Y1138D01*
X846Y1138D01*
X846Y1142D01*
X844Y1142D01*
X844Y1150D01*
X842Y1150D01*
X842Y1166D01*
X844Y1166D01*
X844Y1172D01*
X846Y1172D01*
X846Y1178D01*
X848Y1178D01*
X848Y1182D01*
X850Y1182D01*
X850Y1184D01*
X852Y1184D01*
X852Y1186D01*
X854Y1186D01*
X854Y1188D01*
X856Y1188D01*
X856Y1190D01*
X858Y1190D01*
X858Y1192D01*
X860Y1192D01*
X860Y1194D01*
X862Y1194D01*
X862Y1196D01*
X866Y1196D01*
X866Y1198D01*
X870Y1198D01*
X870Y1200D01*
X876Y1200D01*
X876Y1202D01*
X430Y1202D01*
G37*
D02*
G36*
X430Y1138D02*
X430Y840D01*
X432Y840D01*
X432Y838D01*
X434Y838D01*
X434Y836D01*
X436Y836D01*
X436Y834D01*
X438Y834D01*
X438Y832D01*
X440Y832D01*
X440Y830D01*
X442Y830D01*
X442Y828D01*
X444Y828D01*
X444Y826D01*
X446Y826D01*
X446Y824D01*
X448Y824D01*
X448Y822D01*
X450Y822D01*
X450Y820D01*
X452Y820D01*
X452Y818D01*
X454Y818D01*
X454Y816D01*
X456Y816D01*
X456Y814D01*
X458Y814D01*
X458Y812D01*
X460Y812D01*
X460Y810D01*
X462Y810D01*
X462Y808D01*
X464Y808D01*
X464Y806D01*
X466Y806D01*
X466Y804D01*
X468Y804D01*
X468Y802D01*
X470Y802D01*
X470Y800D01*
X472Y800D01*
X472Y798D01*
X474Y798D01*
X474Y796D01*
X476Y796D01*
X476Y794D01*
X478Y794D01*
X478Y792D01*
X480Y792D01*
X480Y790D01*
X482Y790D01*
X482Y788D01*
X484Y788D01*
X484Y786D01*
X486Y786D01*
X486Y784D01*
X488Y784D01*
X488Y782D01*
X490Y782D01*
X490Y780D01*
X492Y780D01*
X492Y778D01*
X494Y778D01*
X494Y776D01*
X496Y776D01*
X496Y774D01*
X498Y774D01*
X498Y772D01*
X500Y772D01*
X500Y770D01*
X502Y770D01*
X502Y768D01*
X504Y768D01*
X504Y766D01*
X506Y766D01*
X506Y764D01*
X508Y764D01*
X508Y762D01*
X510Y762D01*
X510Y760D01*
X512Y760D01*
X512Y758D01*
X514Y758D01*
X514Y756D01*
X516Y756D01*
X516Y754D01*
X518Y754D01*
X518Y752D01*
X520Y752D01*
X520Y750D01*
X522Y750D01*
X522Y748D01*
X524Y748D01*
X524Y746D01*
X526Y746D01*
X526Y744D01*
X528Y744D01*
X528Y742D01*
X530Y742D01*
X530Y740D01*
X532Y740D01*
X532Y738D01*
X534Y738D01*
X534Y736D01*
X536Y736D01*
X536Y734D01*
X538Y734D01*
X538Y732D01*
X540Y732D01*
X540Y730D01*
X542Y730D01*
X542Y728D01*
X544Y728D01*
X544Y726D01*
X546Y726D01*
X546Y724D01*
X548Y724D01*
X548Y722D01*
X550Y722D01*
X550Y720D01*
X552Y720D01*
X552Y718D01*
X554Y718D01*
X554Y716D01*
X556Y716D01*
X556Y714D01*
X558Y714D01*
X558Y712D01*
X560Y712D01*
X560Y710D01*
X562Y710D01*
X562Y708D01*
X564Y708D01*
X564Y706D01*
X566Y706D01*
X566Y704D01*
X568Y704D01*
X568Y702D01*
X570Y702D01*
X570Y700D01*
X572Y700D01*
X572Y698D01*
X574Y698D01*
X574Y696D01*
X576Y696D01*
X576Y694D01*
X578Y694D01*
X578Y692D01*
X580Y692D01*
X580Y690D01*
X582Y690D01*
X582Y688D01*
X584Y688D01*
X584Y686D01*
X586Y686D01*
X586Y684D01*
X588Y684D01*
X588Y682D01*
X590Y682D01*
X590Y680D01*
X592Y680D01*
X592Y678D01*
X594Y678D01*
X594Y676D01*
X596Y676D01*
X596Y674D01*
X598Y674D01*
X598Y672D01*
X600Y672D01*
X600Y670D01*
X602Y670D01*
X602Y668D01*
X604Y668D01*
X604Y666D01*
X606Y666D01*
X606Y664D01*
X608Y664D01*
X608Y662D01*
X610Y662D01*
X610Y660D01*
X612Y660D01*
X612Y658D01*
X614Y658D01*
X614Y656D01*
X616Y656D01*
X616Y654D01*
X618Y654D01*
X618Y652D01*
X620Y652D01*
X620Y650D01*
X622Y650D01*
X622Y648D01*
X624Y648D01*
X624Y646D01*
X626Y646D01*
X626Y644D01*
X628Y644D01*
X628Y642D01*
X630Y642D01*
X630Y640D01*
X632Y640D01*
X632Y638D01*
X634Y638D01*
X634Y636D01*
X636Y636D01*
X636Y634D01*
X638Y634D01*
X638Y632D01*
X640Y632D01*
X640Y630D01*
X642Y630D01*
X642Y628D01*
X644Y628D01*
X644Y626D01*
X646Y626D01*
X646Y624D01*
X648Y624D01*
X648Y622D01*
X650Y622D01*
X650Y620D01*
X652Y620D01*
X652Y618D01*
X654Y618D01*
X654Y616D01*
X656Y616D01*
X656Y614D01*
X658Y614D01*
X658Y612D01*
X660Y612D01*
X660Y610D01*
X662Y610D01*
X662Y608D01*
X664Y608D01*
X664Y606D01*
X666Y606D01*
X666Y604D01*
X668Y604D01*
X668Y602D01*
X670Y602D01*
X670Y600D01*
X672Y600D01*
X672Y598D01*
X674Y598D01*
X674Y596D01*
X676Y596D01*
X676Y594D01*
X678Y594D01*
X678Y592D01*
X680Y592D01*
X680Y590D01*
X682Y590D01*
X682Y588D01*
X684Y588D01*
X684Y586D01*
X686Y586D01*
X686Y584D01*
X688Y584D01*
X688Y582D01*
X690Y582D01*
X690Y580D01*
X692Y580D01*
X692Y578D01*
X694Y578D01*
X694Y576D01*
X696Y576D01*
X696Y574D01*
X698Y574D01*
X698Y572D01*
X700Y572D01*
X700Y570D01*
X702Y570D01*
X702Y568D01*
X704Y568D01*
X704Y566D01*
X706Y566D01*
X706Y564D01*
X708Y564D01*
X708Y562D01*
X710Y562D01*
X710Y560D01*
X712Y560D01*
X712Y558D01*
X714Y558D01*
X714Y556D01*
X716Y556D01*
X716Y554D01*
X718Y554D01*
X718Y552D01*
X720Y552D01*
X720Y550D01*
X722Y550D01*
X722Y548D01*
X724Y548D01*
X724Y546D01*
X726Y546D01*
X726Y544D01*
X728Y544D01*
X728Y542D01*
X730Y542D01*
X730Y540D01*
X732Y540D01*
X732Y538D01*
X734Y538D01*
X734Y536D01*
X736Y536D01*
X736Y534D01*
X738Y534D01*
X738Y532D01*
X740Y532D01*
X740Y530D01*
X742Y530D01*
X742Y528D01*
X744Y528D01*
X744Y526D01*
X746Y526D01*
X746Y524D01*
X748Y524D01*
X748Y522D01*
X750Y522D01*
X750Y520D01*
X752Y520D01*
X752Y518D01*
X754Y518D01*
X754Y516D01*
X756Y516D01*
X756Y514D01*
X758Y514D01*
X758Y512D01*
X760Y512D01*
X760Y510D01*
X762Y510D01*
X762Y508D01*
X764Y508D01*
X764Y506D01*
X766Y506D01*
X766Y504D01*
X768Y504D01*
X768Y502D01*
X770Y502D01*
X770Y500D01*
X772Y500D01*
X772Y498D01*
X774Y498D01*
X774Y496D01*
X776Y496D01*
X776Y494D01*
X778Y494D01*
X778Y492D01*
X780Y492D01*
X780Y490D01*
X782Y490D01*
X782Y488D01*
X784Y488D01*
X784Y486D01*
X786Y486D01*
X786Y484D01*
X788Y484D01*
X788Y482D01*
X790Y482D01*
X790Y480D01*
X792Y480D01*
X792Y478D01*
X794Y478D01*
X794Y476D01*
X796Y476D01*
X796Y474D01*
X798Y474D01*
X798Y472D01*
X800Y472D01*
X800Y470D01*
X802Y470D01*
X802Y468D01*
X804Y468D01*
X804Y466D01*
X806Y466D01*
X806Y464D01*
X808Y464D01*
X808Y462D01*
X810Y462D01*
X810Y460D01*
X812Y460D01*
X812Y458D01*
X814Y458D01*
X814Y456D01*
X816Y456D01*
X816Y454D01*
X818Y454D01*
X818Y452D01*
X820Y452D01*
X820Y450D01*
X822Y450D01*
X822Y448D01*
X824Y448D01*
X824Y446D01*
X844Y446D01*
X844Y450D01*
X842Y450D01*
X842Y466D01*
X844Y466D01*
X844Y472D01*
X846Y472D01*
X846Y478D01*
X848Y478D01*
X848Y482D01*
X850Y482D01*
X850Y484D01*
X852Y484D01*
X852Y486D01*
X854Y486D01*
X854Y488D01*
X856Y488D01*
X856Y490D01*
X858Y490D01*
X858Y492D01*
X860Y492D01*
X860Y494D01*
X862Y494D01*
X862Y496D01*
X866Y496D01*
X866Y498D01*
X868Y498D01*
X868Y518D01*
X864Y518D01*
X864Y520D01*
X862Y520D01*
X862Y522D01*
X858Y522D01*
X858Y524D01*
X856Y524D01*
X856Y526D01*
X854Y526D01*
X854Y528D01*
X852Y528D01*
X852Y532D01*
X850Y532D01*
X850Y534D01*
X848Y534D01*
X848Y538D01*
X846Y538D01*
X846Y542D01*
X844Y542D01*
X844Y550D01*
X842Y550D01*
X842Y566D01*
X844Y566D01*
X844Y572D01*
X846Y572D01*
X846Y578D01*
X848Y578D01*
X848Y582D01*
X850Y582D01*
X850Y584D01*
X852Y584D01*
X852Y586D01*
X854Y586D01*
X854Y588D01*
X856Y588D01*
X856Y590D01*
X858Y590D01*
X858Y592D01*
X860Y592D01*
X860Y594D01*
X862Y594D01*
X862Y596D01*
X866Y596D01*
X866Y598D01*
X868Y598D01*
X868Y618D01*
X864Y618D01*
X864Y620D01*
X862Y620D01*
X862Y622D01*
X858Y622D01*
X858Y624D01*
X856Y624D01*
X856Y626D01*
X854Y626D01*
X854Y628D01*
X852Y628D01*
X852Y632D01*
X850Y632D01*
X850Y634D01*
X848Y634D01*
X848Y638D01*
X846Y638D01*
X846Y642D01*
X844Y642D01*
X844Y650D01*
X842Y650D01*
X842Y666D01*
X844Y666D01*
X844Y672D01*
X846Y672D01*
X846Y678D01*
X848Y678D01*
X848Y682D01*
X850Y682D01*
X850Y684D01*
X852Y684D01*
X852Y686D01*
X854Y686D01*
X854Y688D01*
X856Y688D01*
X856Y690D01*
X858Y690D01*
X858Y692D01*
X860Y692D01*
X860Y694D01*
X862Y694D01*
X862Y696D01*
X866Y696D01*
X866Y698D01*
X868Y698D01*
X868Y718D01*
X864Y718D01*
X864Y720D01*
X862Y720D01*
X862Y722D01*
X858Y722D01*
X858Y724D01*
X856Y724D01*
X856Y726D01*
X854Y726D01*
X854Y728D01*
X852Y728D01*
X852Y732D01*
X850Y732D01*
X850Y734D01*
X848Y734D01*
X848Y738D01*
X846Y738D01*
X846Y742D01*
X844Y742D01*
X844Y750D01*
X842Y750D01*
X842Y780D01*
X840Y780D01*
X840Y782D01*
X838Y782D01*
X838Y786D01*
X836Y786D01*
X836Y788D01*
X834Y788D01*
X834Y790D01*
X832Y790D01*
X832Y792D01*
X830Y792D01*
X830Y794D01*
X828Y794D01*
X828Y796D01*
X826Y796D01*
X826Y798D01*
X824Y798D01*
X824Y800D01*
X822Y800D01*
X822Y802D01*
X820Y802D01*
X820Y804D01*
X818Y804D01*
X818Y806D01*
X816Y806D01*
X816Y808D01*
X814Y808D01*
X814Y810D01*
X812Y810D01*
X812Y814D01*
X810Y814D01*
X810Y816D01*
X808Y816D01*
X808Y818D01*
X806Y818D01*
X806Y820D01*
X804Y820D01*
X804Y822D01*
X802Y822D01*
X802Y824D01*
X800Y824D01*
X800Y826D01*
X798Y826D01*
X798Y828D01*
X796Y828D01*
X796Y830D01*
X794Y830D01*
X794Y832D01*
X792Y832D01*
X792Y834D01*
X790Y834D01*
X790Y836D01*
X788Y836D01*
X788Y838D01*
X786Y838D01*
X786Y842D01*
X784Y842D01*
X784Y844D01*
X782Y844D01*
X782Y846D01*
X780Y846D01*
X780Y848D01*
X778Y848D01*
X778Y850D01*
X776Y850D01*
X776Y852D01*
X774Y852D01*
X774Y854D01*
X772Y854D01*
X772Y856D01*
X770Y856D01*
X770Y858D01*
X768Y858D01*
X768Y860D01*
X766Y860D01*
X766Y862D01*
X764Y862D01*
X764Y864D01*
X762Y864D01*
X762Y866D01*
X760Y866D01*
X760Y870D01*
X758Y870D01*
X758Y872D01*
X756Y872D01*
X756Y874D01*
X754Y874D01*
X754Y876D01*
X752Y876D01*
X752Y878D01*
X750Y878D01*
X750Y880D01*
X748Y880D01*
X748Y882D01*
X746Y882D01*
X746Y884D01*
X744Y884D01*
X744Y886D01*
X742Y886D01*
X742Y888D01*
X740Y888D01*
X740Y890D01*
X738Y890D01*
X738Y892D01*
X736Y892D01*
X736Y894D01*
X734Y894D01*
X734Y898D01*
X732Y898D01*
X732Y900D01*
X730Y900D01*
X730Y902D01*
X728Y902D01*
X728Y904D01*
X726Y904D01*
X726Y906D01*
X724Y906D01*
X724Y908D01*
X722Y908D01*
X722Y910D01*
X720Y910D01*
X720Y912D01*
X718Y912D01*
X718Y914D01*
X716Y914D01*
X716Y916D01*
X714Y916D01*
X714Y918D01*
X712Y918D01*
X712Y920D01*
X710Y920D01*
X710Y922D01*
X708Y922D01*
X708Y926D01*
X706Y926D01*
X706Y928D01*
X704Y928D01*
X704Y930D01*
X702Y930D01*
X702Y932D01*
X700Y932D01*
X700Y934D01*
X698Y934D01*
X698Y936D01*
X696Y936D01*
X696Y938D01*
X694Y938D01*
X694Y940D01*
X692Y940D01*
X692Y942D01*
X690Y942D01*
X690Y944D01*
X688Y944D01*
X688Y946D01*
X686Y946D01*
X686Y948D01*
X684Y948D01*
X684Y950D01*
X682Y950D01*
X682Y954D01*
X680Y954D01*
X680Y956D01*
X678Y956D01*
X678Y958D01*
X676Y958D01*
X676Y960D01*
X674Y960D01*
X674Y962D01*
X672Y962D01*
X672Y964D01*
X670Y964D01*
X670Y966D01*
X668Y966D01*
X668Y968D01*
X666Y968D01*
X666Y970D01*
X664Y970D01*
X664Y972D01*
X662Y972D01*
X662Y974D01*
X660Y974D01*
X660Y976D01*
X658Y976D01*
X658Y978D01*
X656Y978D01*
X656Y982D01*
X654Y982D01*
X654Y984D01*
X652Y984D01*
X652Y986D01*
X650Y986D01*
X650Y988D01*
X648Y988D01*
X648Y990D01*
X646Y990D01*
X646Y992D01*
X644Y992D01*
X644Y994D01*
X642Y994D01*
X642Y996D01*
X640Y996D01*
X640Y998D01*
X638Y998D01*
X638Y1000D01*
X636Y1000D01*
X636Y1002D01*
X634Y1002D01*
X634Y1004D01*
X632Y1004D01*
X632Y1006D01*
X630Y1006D01*
X630Y1010D01*
X628Y1010D01*
X628Y1012D01*
X626Y1012D01*
X626Y1014D01*
X624Y1014D01*
X624Y1016D01*
X622Y1016D01*
X622Y1018D01*
X620Y1018D01*
X620Y1020D01*
X618Y1020D01*
X618Y1022D01*
X616Y1022D01*
X616Y1024D01*
X614Y1024D01*
X614Y1026D01*
X612Y1026D01*
X612Y1028D01*
X610Y1028D01*
X610Y1030D01*
X608Y1030D01*
X608Y1032D01*
X606Y1032D01*
X606Y1034D01*
X604Y1034D01*
X604Y1038D01*
X602Y1038D01*
X602Y1040D01*
X600Y1040D01*
X600Y1042D01*
X598Y1042D01*
X598Y1044D01*
X596Y1044D01*
X596Y1046D01*
X594Y1046D01*
X594Y1048D01*
X592Y1048D01*
X592Y1050D01*
X590Y1050D01*
X590Y1052D01*
X588Y1052D01*
X588Y1054D01*
X586Y1054D01*
X586Y1056D01*
X584Y1056D01*
X584Y1058D01*
X582Y1058D01*
X582Y1060D01*
X580Y1060D01*
X580Y1062D01*
X578Y1062D01*
X578Y1066D01*
X576Y1066D01*
X576Y1068D01*
X574Y1068D01*
X574Y1070D01*
X572Y1070D01*
X572Y1072D01*
X570Y1072D01*
X570Y1074D01*
X568Y1074D01*
X568Y1076D01*
X566Y1076D01*
X566Y1078D01*
X554Y1078D01*
X554Y1080D01*
X550Y1080D01*
X550Y1082D01*
X546Y1082D01*
X546Y1084D01*
X544Y1084D01*
X544Y1086D01*
X540Y1086D01*
X540Y1090D01*
X538Y1090D01*
X538Y1092D01*
X536Y1092D01*
X536Y1096D01*
X534Y1096D01*
X534Y1104D01*
X532Y1104D01*
X532Y1112D01*
X534Y1112D01*
X534Y1120D01*
X536Y1120D01*
X536Y1124D01*
X538Y1124D01*
X538Y1126D01*
X540Y1126D01*
X540Y1128D01*
X542Y1128D01*
X542Y1130D01*
X544Y1130D01*
X544Y1132D01*
X548Y1132D01*
X548Y1134D01*
X550Y1134D01*
X550Y1136D01*
X560Y1136D01*
X560Y1138D01*
X430Y1138D01*
G37*
D02*
G36*
X1810Y1102D02*
X1810Y1082D01*
X1812Y1082D01*
X1812Y1080D01*
X1814Y1080D01*
X1814Y1078D01*
X1816Y1078D01*
X1816Y1076D01*
X1818Y1076D01*
X1818Y1074D01*
X1820Y1074D01*
X1820Y1072D01*
X1822Y1072D01*
X1822Y1070D01*
X1824Y1070D01*
X1824Y1068D01*
X1826Y1068D01*
X1826Y1066D01*
X1828Y1066D01*
X1828Y1064D01*
X1830Y1064D01*
X1830Y1062D01*
X1832Y1062D01*
X1832Y1060D01*
X1834Y1060D01*
X1834Y1058D01*
X1836Y1058D01*
X1836Y1056D01*
X1838Y1056D01*
X1838Y1054D01*
X1840Y1054D01*
X1840Y1052D01*
X1842Y1052D01*
X1842Y1050D01*
X1844Y1050D01*
X1844Y1048D01*
X1846Y1048D01*
X1846Y1046D01*
X1848Y1046D01*
X1848Y1044D01*
X1850Y1044D01*
X1850Y1042D01*
X1852Y1042D01*
X1852Y1038D01*
X1854Y1038D01*
X1854Y982D01*
X1856Y982D01*
X1856Y980D01*
X1858Y980D01*
X1858Y978D01*
X1860Y978D01*
X1860Y976D01*
X1862Y976D01*
X1862Y972D01*
X1864Y972D01*
X1864Y968D01*
X1866Y968D01*
X1866Y948D01*
X1864Y948D01*
X1864Y944D01*
X1862Y944D01*
X1862Y940D01*
X1860Y940D01*
X1860Y938D01*
X1858Y938D01*
X1858Y936D01*
X1856Y936D01*
X1856Y934D01*
X1854Y934D01*
X1854Y932D01*
X1850Y932D01*
X1850Y930D01*
X1844Y930D01*
X1844Y928D01*
X3150Y928D01*
X3150Y930D01*
X3148Y930D01*
X3148Y934D01*
X3146Y934D01*
X3146Y956D01*
X3148Y956D01*
X3148Y960D01*
X3150Y960D01*
X3150Y962D01*
X3152Y962D01*
X3152Y966D01*
X3154Y966D01*
X3154Y968D01*
X3156Y968D01*
X3156Y1038D01*
X3154Y1038D01*
X3154Y1040D01*
X3152Y1040D01*
X3152Y1042D01*
X3150Y1042D01*
X3150Y1044D01*
X3148Y1044D01*
X3148Y1046D01*
X3146Y1046D01*
X3146Y1048D01*
X3144Y1048D01*
X3144Y1050D01*
X3142Y1050D01*
X3142Y1052D01*
X3140Y1052D01*
X3140Y1054D01*
X3138Y1054D01*
X3138Y1056D01*
X3136Y1056D01*
X3136Y1058D01*
X3134Y1058D01*
X3134Y1060D01*
X3132Y1060D01*
X3132Y1062D01*
X3130Y1062D01*
X3130Y1064D01*
X3128Y1064D01*
X3128Y1066D01*
X3126Y1066D01*
X3126Y1068D01*
X3124Y1068D01*
X3124Y1070D01*
X3122Y1070D01*
X3122Y1072D01*
X3120Y1072D01*
X3120Y1074D01*
X3118Y1074D01*
X3118Y1076D01*
X3116Y1076D01*
X3116Y1078D01*
X3114Y1078D01*
X3114Y1080D01*
X3112Y1080D01*
X3112Y1082D01*
X3110Y1082D01*
X3110Y1084D01*
X3108Y1084D01*
X3108Y1086D01*
X3106Y1086D01*
X3106Y1088D01*
X3104Y1088D01*
X3104Y1090D01*
X3102Y1090D01*
X3102Y1092D01*
X3100Y1092D01*
X3100Y1094D01*
X3098Y1094D01*
X3098Y1096D01*
X3096Y1096D01*
X3096Y1098D01*
X3094Y1098D01*
X3094Y1100D01*
X3092Y1100D01*
X3092Y1102D01*
X1810Y1102D01*
G37*
D02*
G36*
X40Y1078D02*
X40Y1076D01*
X394Y1076D01*
X394Y1078D01*
X40Y1078D01*
G37*
D02*
G36*
X40Y1078D02*
X40Y1076D01*
X394Y1076D01*
X394Y1078D01*
X40Y1078D01*
G37*
D02*
G36*
X40Y1076D02*
X40Y436D01*
X204Y436D01*
X204Y434D01*
X212Y434D01*
X212Y432D01*
X216Y432D01*
X216Y430D01*
X222Y430D01*
X222Y428D01*
X226Y428D01*
X226Y426D01*
X228Y426D01*
X228Y424D01*
X232Y424D01*
X232Y422D01*
X234Y422D01*
X234Y420D01*
X238Y420D01*
X238Y418D01*
X240Y418D01*
X240Y416D01*
X242Y416D01*
X242Y414D01*
X244Y414D01*
X244Y412D01*
X246Y412D01*
X246Y410D01*
X248Y410D01*
X248Y406D01*
X250Y406D01*
X250Y404D01*
X252Y404D01*
X252Y402D01*
X254Y402D01*
X254Y398D01*
X256Y398D01*
X256Y394D01*
X258Y394D01*
X258Y390D01*
X260Y390D01*
X260Y386D01*
X262Y386D01*
X262Y380D01*
X264Y380D01*
X264Y372D01*
X266Y372D01*
X266Y344D01*
X264Y344D01*
X264Y334D01*
X262Y334D01*
X262Y330D01*
X260Y330D01*
X260Y324D01*
X258Y324D01*
X258Y320D01*
X256Y320D01*
X256Y316D01*
X254Y316D01*
X254Y314D01*
X252Y314D01*
X252Y312D01*
X882Y312D01*
X882Y314D01*
X874Y314D01*
X874Y316D01*
X868Y316D01*
X868Y318D01*
X864Y318D01*
X864Y320D01*
X862Y320D01*
X862Y322D01*
X858Y322D01*
X858Y324D01*
X856Y324D01*
X856Y326D01*
X854Y326D01*
X854Y328D01*
X852Y328D01*
X852Y332D01*
X850Y332D01*
X850Y334D01*
X848Y334D01*
X848Y338D01*
X846Y338D01*
X846Y342D01*
X844Y342D01*
X844Y350D01*
X842Y350D01*
X842Y378D01*
X840Y378D01*
X840Y380D01*
X838Y380D01*
X838Y382D01*
X836Y382D01*
X836Y384D01*
X834Y384D01*
X834Y386D01*
X832Y386D01*
X832Y388D01*
X830Y388D01*
X830Y390D01*
X828Y390D01*
X828Y392D01*
X826Y392D01*
X826Y394D01*
X824Y394D01*
X824Y396D01*
X822Y396D01*
X822Y398D01*
X820Y398D01*
X820Y400D01*
X818Y400D01*
X818Y402D01*
X816Y402D01*
X816Y404D01*
X814Y404D01*
X814Y406D01*
X812Y406D01*
X812Y408D01*
X810Y408D01*
X810Y410D01*
X808Y410D01*
X808Y412D01*
X806Y412D01*
X806Y414D01*
X804Y414D01*
X804Y416D01*
X802Y416D01*
X802Y418D01*
X800Y418D01*
X800Y420D01*
X798Y420D01*
X798Y422D01*
X796Y422D01*
X796Y424D01*
X794Y424D01*
X794Y426D01*
X792Y426D01*
X792Y428D01*
X790Y428D01*
X790Y430D01*
X788Y430D01*
X788Y432D01*
X786Y432D01*
X786Y434D01*
X784Y434D01*
X784Y436D01*
X782Y436D01*
X782Y438D01*
X780Y438D01*
X780Y440D01*
X778Y440D01*
X778Y442D01*
X776Y442D01*
X776Y444D01*
X774Y444D01*
X774Y446D01*
X772Y446D01*
X772Y448D01*
X770Y448D01*
X770Y450D01*
X768Y450D01*
X768Y452D01*
X766Y452D01*
X766Y454D01*
X764Y454D01*
X764Y456D01*
X762Y456D01*
X762Y458D01*
X760Y458D01*
X760Y460D01*
X758Y460D01*
X758Y462D01*
X756Y462D01*
X756Y464D01*
X754Y464D01*
X754Y466D01*
X752Y466D01*
X752Y468D01*
X750Y468D01*
X750Y470D01*
X748Y470D01*
X748Y472D01*
X746Y472D01*
X746Y474D01*
X744Y474D01*
X744Y476D01*
X742Y476D01*
X742Y478D01*
X740Y478D01*
X740Y480D01*
X738Y480D01*
X738Y482D01*
X736Y482D01*
X736Y484D01*
X734Y484D01*
X734Y486D01*
X732Y486D01*
X732Y488D01*
X730Y488D01*
X730Y490D01*
X728Y490D01*
X728Y492D01*
X726Y492D01*
X726Y494D01*
X724Y494D01*
X724Y496D01*
X722Y496D01*
X722Y498D01*
X720Y498D01*
X720Y500D01*
X718Y500D01*
X718Y502D01*
X716Y502D01*
X716Y504D01*
X714Y504D01*
X714Y506D01*
X712Y506D01*
X712Y508D01*
X710Y508D01*
X710Y510D01*
X708Y510D01*
X708Y512D01*
X706Y512D01*
X706Y514D01*
X704Y514D01*
X704Y516D01*
X702Y516D01*
X702Y518D01*
X700Y518D01*
X700Y520D01*
X698Y520D01*
X698Y522D01*
X696Y522D01*
X696Y524D01*
X694Y524D01*
X694Y526D01*
X692Y526D01*
X692Y528D01*
X690Y528D01*
X690Y530D01*
X688Y530D01*
X688Y532D01*
X686Y532D01*
X686Y534D01*
X684Y534D01*
X684Y536D01*
X682Y536D01*
X682Y538D01*
X680Y538D01*
X680Y540D01*
X678Y540D01*
X678Y542D01*
X676Y542D01*
X676Y544D01*
X674Y544D01*
X674Y546D01*
X672Y546D01*
X672Y548D01*
X670Y548D01*
X670Y550D01*
X668Y550D01*
X668Y552D01*
X666Y552D01*
X666Y554D01*
X664Y554D01*
X664Y556D01*
X662Y556D01*
X662Y558D01*
X660Y558D01*
X660Y560D01*
X658Y560D01*
X658Y562D01*
X656Y562D01*
X656Y564D01*
X654Y564D01*
X654Y566D01*
X652Y566D01*
X652Y568D01*
X650Y568D01*
X650Y570D01*
X648Y570D01*
X648Y572D01*
X646Y572D01*
X646Y574D01*
X644Y574D01*
X644Y576D01*
X642Y576D01*
X642Y578D01*
X640Y578D01*
X640Y580D01*
X638Y580D01*
X638Y582D01*
X636Y582D01*
X636Y584D01*
X634Y584D01*
X634Y586D01*
X632Y586D01*
X632Y588D01*
X630Y588D01*
X630Y590D01*
X628Y590D01*
X628Y592D01*
X626Y592D01*
X626Y594D01*
X624Y594D01*
X624Y596D01*
X622Y596D01*
X622Y598D01*
X620Y598D01*
X620Y600D01*
X618Y600D01*
X618Y602D01*
X616Y602D01*
X616Y604D01*
X614Y604D01*
X614Y606D01*
X612Y606D01*
X612Y608D01*
X610Y608D01*
X610Y610D01*
X608Y610D01*
X608Y612D01*
X606Y612D01*
X606Y614D01*
X604Y614D01*
X604Y616D01*
X602Y616D01*
X602Y618D01*
X600Y618D01*
X600Y620D01*
X598Y620D01*
X598Y622D01*
X596Y622D01*
X596Y624D01*
X594Y624D01*
X594Y626D01*
X592Y626D01*
X592Y628D01*
X590Y628D01*
X590Y630D01*
X588Y630D01*
X588Y632D01*
X586Y632D01*
X586Y634D01*
X584Y634D01*
X584Y636D01*
X582Y636D01*
X582Y638D01*
X580Y638D01*
X580Y640D01*
X578Y640D01*
X578Y642D01*
X576Y642D01*
X576Y644D01*
X574Y644D01*
X574Y646D01*
X572Y646D01*
X572Y648D01*
X570Y648D01*
X570Y650D01*
X568Y650D01*
X568Y652D01*
X566Y652D01*
X566Y654D01*
X564Y654D01*
X564Y656D01*
X562Y656D01*
X562Y658D01*
X560Y658D01*
X560Y660D01*
X558Y660D01*
X558Y662D01*
X556Y662D01*
X556Y664D01*
X554Y664D01*
X554Y666D01*
X552Y666D01*
X552Y668D01*
X550Y668D01*
X550Y670D01*
X548Y670D01*
X548Y672D01*
X546Y672D01*
X546Y674D01*
X544Y674D01*
X544Y676D01*
X542Y676D01*
X542Y678D01*
X540Y678D01*
X540Y680D01*
X538Y680D01*
X538Y682D01*
X536Y682D01*
X536Y684D01*
X534Y684D01*
X534Y686D01*
X532Y686D01*
X532Y688D01*
X530Y688D01*
X530Y690D01*
X528Y690D01*
X528Y692D01*
X526Y692D01*
X526Y694D01*
X524Y694D01*
X524Y696D01*
X522Y696D01*
X522Y698D01*
X520Y698D01*
X520Y700D01*
X518Y700D01*
X518Y702D01*
X516Y702D01*
X516Y704D01*
X514Y704D01*
X514Y706D01*
X512Y706D01*
X512Y708D01*
X510Y708D01*
X510Y710D01*
X508Y710D01*
X508Y712D01*
X506Y712D01*
X506Y714D01*
X504Y714D01*
X504Y716D01*
X502Y716D01*
X502Y718D01*
X500Y718D01*
X500Y720D01*
X498Y720D01*
X498Y722D01*
X496Y722D01*
X496Y724D01*
X494Y724D01*
X494Y726D01*
X492Y726D01*
X492Y728D01*
X490Y728D01*
X490Y730D01*
X488Y730D01*
X488Y732D01*
X486Y732D01*
X486Y734D01*
X484Y734D01*
X484Y736D01*
X482Y736D01*
X482Y738D01*
X480Y738D01*
X480Y740D01*
X478Y740D01*
X478Y742D01*
X476Y742D01*
X476Y744D01*
X474Y744D01*
X474Y746D01*
X472Y746D01*
X472Y748D01*
X470Y748D01*
X470Y750D01*
X468Y750D01*
X468Y752D01*
X466Y752D01*
X466Y754D01*
X464Y754D01*
X464Y756D01*
X462Y756D01*
X462Y758D01*
X460Y758D01*
X460Y760D01*
X458Y760D01*
X458Y762D01*
X456Y762D01*
X456Y764D01*
X454Y764D01*
X454Y766D01*
X452Y766D01*
X452Y768D01*
X450Y768D01*
X450Y770D01*
X448Y770D01*
X448Y772D01*
X446Y772D01*
X446Y774D01*
X444Y774D01*
X444Y776D01*
X442Y776D01*
X442Y778D01*
X440Y778D01*
X440Y780D01*
X438Y780D01*
X438Y782D01*
X436Y782D01*
X436Y784D01*
X434Y784D01*
X434Y786D01*
X432Y786D01*
X432Y788D01*
X430Y788D01*
X430Y790D01*
X428Y790D01*
X428Y792D01*
X426Y792D01*
X426Y794D01*
X424Y794D01*
X424Y796D01*
X422Y796D01*
X422Y798D01*
X420Y798D01*
X420Y800D01*
X418Y800D01*
X418Y802D01*
X416Y802D01*
X416Y804D01*
X414Y804D01*
X414Y806D01*
X412Y806D01*
X412Y808D01*
X410Y808D01*
X410Y810D01*
X408Y810D01*
X408Y812D01*
X406Y812D01*
X406Y814D01*
X404Y814D01*
X404Y816D01*
X402Y816D01*
X402Y818D01*
X400Y818D01*
X400Y820D01*
X398Y820D01*
X398Y824D01*
X396Y824D01*
X396Y828D01*
X394Y828D01*
X394Y1076D01*
X40Y1076D01*
G37*
D02*
G36*
X920Y928D02*
X920Y926D01*
X3152Y926D01*
X3152Y928D01*
X920Y928D01*
G37*
D02*
G36*
X920Y928D02*
X920Y926D01*
X3152Y926D01*
X3152Y928D01*
X920Y928D01*
G37*
D02*
G36*
X918Y926D02*
X918Y924D01*
X916Y924D01*
X916Y922D01*
X914Y922D01*
X914Y920D01*
X910Y920D01*
X910Y918D01*
X906Y918D01*
X906Y916D01*
X3166Y916D01*
X3166Y918D01*
X3160Y918D01*
X3160Y920D01*
X3158Y920D01*
X3158Y922D01*
X3156Y922D01*
X3156Y924D01*
X3152Y924D01*
X3152Y926D01*
X918Y926D01*
G37*
D02*
G36*
X906Y916D02*
X906Y914D01*
X3926Y914D01*
X3926Y916D01*
X906Y916D01*
G37*
D02*
G36*
X906Y916D02*
X906Y914D01*
X3926Y914D01*
X3926Y916D01*
X906Y916D01*
G37*
D02*
G36*
X906Y914D02*
X906Y898D01*
X908Y898D01*
X908Y896D01*
X912Y896D01*
X912Y894D01*
X914Y894D01*
X914Y892D01*
X918Y892D01*
X918Y890D01*
X920Y890D01*
X920Y886D01*
X922Y886D01*
X922Y884D01*
X924Y884D01*
X924Y882D01*
X926Y882D01*
X926Y878D01*
X928Y878D01*
X928Y874D01*
X930Y874D01*
X930Y868D01*
X932Y868D01*
X932Y850D01*
X3180Y850D01*
X3180Y848D01*
X3342Y848D01*
X3342Y846D01*
X3348Y846D01*
X3348Y844D01*
X3352Y844D01*
X3352Y842D01*
X3356Y842D01*
X3356Y840D01*
X3360Y840D01*
X3360Y838D01*
X3362Y838D01*
X3362Y836D01*
X3364Y836D01*
X3364Y834D01*
X3368Y834D01*
X3368Y830D01*
X3370Y830D01*
X3370Y828D01*
X3372Y828D01*
X3372Y826D01*
X3374Y826D01*
X3374Y822D01*
X3376Y822D01*
X3376Y818D01*
X3378Y818D01*
X3378Y814D01*
X3380Y814D01*
X3380Y806D01*
X3382Y806D01*
X3382Y788D01*
X3380Y788D01*
X3380Y780D01*
X3378Y780D01*
X3378Y776D01*
X3376Y776D01*
X3376Y772D01*
X3374Y772D01*
X3374Y768D01*
X3372Y768D01*
X3372Y766D01*
X3370Y766D01*
X3370Y764D01*
X3368Y764D01*
X3368Y762D01*
X3366Y762D01*
X3366Y760D01*
X3364Y760D01*
X3364Y758D01*
X3362Y758D01*
X3362Y756D01*
X3360Y756D01*
X3360Y754D01*
X3356Y754D01*
X3356Y752D01*
X3352Y752D01*
X3352Y750D01*
X3348Y750D01*
X3348Y748D01*
X3342Y748D01*
X3342Y746D01*
X3926Y746D01*
X3926Y914D01*
X906Y914D01*
G37*
D02*
G36*
X932Y850D02*
X932Y848D01*
X930Y848D01*
X930Y842D01*
X928Y842D01*
X928Y838D01*
X926Y838D01*
X926Y834D01*
X924Y834D01*
X924Y830D01*
X922Y830D01*
X922Y828D01*
X920Y828D01*
X920Y826D01*
X918Y826D01*
X918Y824D01*
X916Y824D01*
X916Y822D01*
X914Y822D01*
X914Y820D01*
X910Y820D01*
X910Y818D01*
X906Y818D01*
X906Y798D01*
X908Y798D01*
X908Y796D01*
X912Y796D01*
X912Y794D01*
X914Y794D01*
X914Y792D01*
X918Y792D01*
X918Y790D01*
X920Y790D01*
X920Y786D01*
X922Y786D01*
X922Y784D01*
X924Y784D01*
X924Y782D01*
X926Y782D01*
X926Y778D01*
X928Y778D01*
X928Y774D01*
X930Y774D01*
X930Y768D01*
X932Y768D01*
X932Y748D01*
X930Y748D01*
X930Y742D01*
X928Y742D01*
X928Y738D01*
X926Y738D01*
X926Y734D01*
X924Y734D01*
X924Y730D01*
X922Y730D01*
X922Y728D01*
X920Y728D01*
X920Y726D01*
X918Y726D01*
X918Y724D01*
X916Y724D01*
X916Y722D01*
X914Y722D01*
X914Y720D01*
X910Y720D01*
X910Y718D01*
X906Y718D01*
X906Y698D01*
X908Y698D01*
X908Y696D01*
X912Y696D01*
X912Y694D01*
X914Y694D01*
X914Y692D01*
X918Y692D01*
X918Y690D01*
X920Y690D01*
X920Y686D01*
X922Y686D01*
X922Y684D01*
X924Y684D01*
X924Y682D01*
X926Y682D01*
X926Y678D01*
X928Y678D01*
X928Y674D01*
X930Y674D01*
X930Y668D01*
X932Y668D01*
X932Y654D01*
X1504Y654D01*
X1504Y656D01*
X1498Y656D01*
X1498Y658D01*
X1494Y658D01*
X1494Y660D01*
X1490Y660D01*
X1490Y662D01*
X1486Y662D01*
X1486Y664D01*
X1484Y664D01*
X1484Y666D01*
X1482Y666D01*
X1482Y668D01*
X1480Y668D01*
X1480Y670D01*
X1478Y670D01*
X1478Y672D01*
X1476Y672D01*
X1476Y674D01*
X1474Y674D01*
X1474Y678D01*
X1472Y678D01*
X1472Y680D01*
X1470Y680D01*
X1470Y684D01*
X1468Y684D01*
X1468Y690D01*
X1466Y690D01*
X1466Y700D01*
X1464Y700D01*
X1464Y710D01*
X1466Y710D01*
X1466Y720D01*
X1468Y720D01*
X1468Y726D01*
X1470Y726D01*
X1470Y730D01*
X1472Y730D01*
X1472Y732D01*
X1474Y732D01*
X1474Y736D01*
X1476Y736D01*
X1476Y738D01*
X1478Y738D01*
X1478Y740D01*
X1480Y740D01*
X1480Y742D01*
X1482Y742D01*
X1482Y762D01*
X1480Y762D01*
X1480Y764D01*
X1478Y764D01*
X1478Y768D01*
X1476Y768D01*
X1476Y770D01*
X1474Y770D01*
X1474Y772D01*
X1472Y772D01*
X1472Y776D01*
X1470Y776D01*
X1470Y782D01*
X1468Y782D01*
X1468Y788D01*
X1466Y788D01*
X1466Y810D01*
X1468Y810D01*
X1468Y816D01*
X1470Y816D01*
X1470Y820D01*
X1472Y820D01*
X1472Y824D01*
X1474Y824D01*
X1474Y828D01*
X1476Y828D01*
X1476Y830D01*
X1478Y830D01*
X1478Y832D01*
X1480Y832D01*
X1480Y834D01*
X1482Y834D01*
X1482Y836D01*
X1484Y836D01*
X1484Y838D01*
X1486Y838D01*
X1486Y840D01*
X1488Y840D01*
X1488Y842D01*
X1492Y842D01*
X1492Y844D01*
X1496Y844D01*
X1496Y846D01*
X1500Y846D01*
X1500Y848D01*
X1508Y848D01*
X1508Y850D01*
X932Y850D01*
G37*
D02*
G36*
X1526Y850D02*
X1526Y848D01*
X1534Y848D01*
X1534Y846D01*
X1538Y846D01*
X1538Y844D01*
X1542Y844D01*
X1542Y842D01*
X1546Y842D01*
X1546Y840D01*
X1548Y840D01*
X1548Y838D01*
X1550Y838D01*
X1550Y836D01*
X1554Y836D01*
X1554Y834D01*
X1556Y834D01*
X1556Y830D01*
X1558Y830D01*
X1558Y828D01*
X1560Y828D01*
X1560Y824D01*
X1562Y824D01*
X1562Y822D01*
X1564Y822D01*
X1564Y818D01*
X1566Y818D01*
X1566Y810D01*
X1568Y810D01*
X1568Y786D01*
X1566Y786D01*
X1566Y780D01*
X1564Y780D01*
X1564Y776D01*
X1562Y776D01*
X1562Y772D01*
X1560Y772D01*
X1560Y770D01*
X1558Y770D01*
X1558Y766D01*
X1556Y766D01*
X1556Y764D01*
X1554Y764D01*
X1554Y762D01*
X1552Y762D01*
X1552Y740D01*
X1554Y740D01*
X1554Y738D01*
X1556Y738D01*
X1556Y736D01*
X1558Y736D01*
X1558Y732D01*
X1560Y732D01*
X1560Y728D01*
X1562Y728D01*
X1562Y726D01*
X1564Y726D01*
X1564Y720D01*
X1566Y720D01*
X1566Y710D01*
X1568Y710D01*
X1568Y700D01*
X1566Y700D01*
X1566Y690D01*
X1564Y690D01*
X1564Y684D01*
X1562Y684D01*
X1562Y680D01*
X1560Y680D01*
X1560Y678D01*
X1558Y678D01*
X1558Y674D01*
X1556Y674D01*
X1556Y672D01*
X1554Y672D01*
X1554Y670D01*
X1552Y670D01*
X1552Y668D01*
X1550Y668D01*
X1550Y666D01*
X1548Y666D01*
X1548Y664D01*
X1546Y664D01*
X1546Y662D01*
X1542Y662D01*
X1542Y660D01*
X1538Y660D01*
X1538Y658D01*
X1534Y658D01*
X1534Y656D01*
X1664Y656D01*
X1664Y658D01*
X1658Y658D01*
X1658Y660D01*
X1654Y660D01*
X1654Y662D01*
X1650Y662D01*
X1650Y664D01*
X1646Y664D01*
X1646Y666D01*
X1644Y666D01*
X1644Y668D01*
X1642Y668D01*
X1642Y670D01*
X1640Y670D01*
X1640Y672D01*
X1638Y672D01*
X1638Y674D01*
X1636Y674D01*
X1636Y676D01*
X1634Y676D01*
X1634Y680D01*
X1632Y680D01*
X1632Y684D01*
X1630Y684D01*
X1630Y688D01*
X1628Y688D01*
X1628Y692D01*
X1626Y692D01*
X1626Y706D01*
X1624Y706D01*
X1624Y708D01*
X1626Y708D01*
X1626Y720D01*
X1628Y720D01*
X1628Y726D01*
X1630Y726D01*
X1630Y730D01*
X1632Y730D01*
X1632Y734D01*
X1634Y734D01*
X1634Y736D01*
X1636Y736D01*
X1636Y740D01*
X1638Y740D01*
X1638Y742D01*
X1640Y742D01*
X1640Y764D01*
X1638Y764D01*
X1638Y768D01*
X1636Y768D01*
X1636Y770D01*
X1634Y770D01*
X1634Y772D01*
X1632Y772D01*
X1632Y776D01*
X1630Y776D01*
X1630Y782D01*
X1628Y782D01*
X1628Y788D01*
X1626Y788D01*
X1626Y810D01*
X1628Y810D01*
X1628Y816D01*
X1630Y816D01*
X1630Y820D01*
X1632Y820D01*
X1632Y824D01*
X1634Y824D01*
X1634Y828D01*
X1636Y828D01*
X1636Y830D01*
X1638Y830D01*
X1638Y832D01*
X1640Y832D01*
X1640Y834D01*
X1642Y834D01*
X1642Y836D01*
X1644Y836D01*
X1644Y838D01*
X1646Y838D01*
X1646Y840D01*
X1648Y840D01*
X1648Y842D01*
X1652Y842D01*
X1652Y844D01*
X1656Y844D01*
X1656Y846D01*
X1660Y846D01*
X1660Y848D01*
X1668Y848D01*
X1668Y850D01*
X1526Y850D01*
G37*
D02*
G36*
X1686Y850D02*
X1686Y848D01*
X1694Y848D01*
X1694Y846D01*
X1698Y846D01*
X1698Y844D01*
X1702Y844D01*
X1702Y842D01*
X1706Y842D01*
X1706Y840D01*
X1708Y840D01*
X1708Y838D01*
X1710Y838D01*
X1710Y836D01*
X1714Y836D01*
X1714Y834D01*
X1716Y834D01*
X1716Y830D01*
X1718Y830D01*
X1718Y828D01*
X1720Y828D01*
X1720Y824D01*
X1722Y824D01*
X1722Y822D01*
X1724Y822D01*
X1724Y818D01*
X1726Y818D01*
X1726Y810D01*
X1728Y810D01*
X1728Y786D01*
X1726Y786D01*
X1726Y780D01*
X1724Y780D01*
X1724Y776D01*
X1722Y776D01*
X1722Y772D01*
X1720Y772D01*
X1720Y770D01*
X1718Y770D01*
X1718Y766D01*
X1716Y766D01*
X1716Y764D01*
X1714Y764D01*
X1714Y762D01*
X1712Y762D01*
X1712Y742D01*
X1714Y742D01*
X1714Y740D01*
X1716Y740D01*
X1716Y738D01*
X1718Y738D01*
X1718Y736D01*
X1720Y736D01*
X1720Y732D01*
X1722Y732D01*
X1722Y728D01*
X1724Y728D01*
X1724Y722D01*
X1726Y722D01*
X1726Y714D01*
X1728Y714D01*
X1728Y700D01*
X1726Y700D01*
X1726Y690D01*
X1724Y690D01*
X1724Y686D01*
X1722Y686D01*
X1722Y682D01*
X1720Y682D01*
X1720Y678D01*
X1718Y678D01*
X1718Y676D01*
X1716Y676D01*
X1716Y674D01*
X1714Y674D01*
X1714Y672D01*
X1712Y672D01*
X1712Y670D01*
X1710Y670D01*
X1710Y668D01*
X1708Y668D01*
X1708Y666D01*
X1706Y666D01*
X1706Y664D01*
X1702Y664D01*
X1702Y662D01*
X1698Y662D01*
X1698Y660D01*
X1694Y660D01*
X1694Y658D01*
X1688Y658D01*
X1688Y656D01*
X1830Y656D01*
X1830Y658D01*
X1820Y658D01*
X1820Y660D01*
X1816Y660D01*
X1816Y662D01*
X1812Y662D01*
X1812Y664D01*
X1808Y664D01*
X1808Y666D01*
X1806Y666D01*
X1806Y668D01*
X1804Y668D01*
X1804Y670D01*
X1802Y670D01*
X1802Y672D01*
X1800Y672D01*
X1800Y674D01*
X1798Y674D01*
X1798Y676D01*
X1796Y676D01*
X1796Y678D01*
X1794Y678D01*
X1794Y682D01*
X1792Y682D01*
X1792Y686D01*
X1790Y686D01*
X1790Y690D01*
X1788Y690D01*
X1788Y698D01*
X1786Y698D01*
X1786Y718D01*
X1788Y718D01*
X1788Y726D01*
X1790Y726D01*
X1790Y730D01*
X1792Y730D01*
X1792Y734D01*
X1794Y734D01*
X1794Y736D01*
X1796Y736D01*
X1796Y740D01*
X1798Y740D01*
X1798Y742D01*
X1800Y742D01*
X1800Y764D01*
X1798Y764D01*
X1798Y768D01*
X1796Y768D01*
X1796Y770D01*
X1794Y770D01*
X1794Y772D01*
X1792Y772D01*
X1792Y776D01*
X1790Y776D01*
X1790Y782D01*
X1788Y782D01*
X1788Y788D01*
X1786Y788D01*
X1786Y810D01*
X1788Y810D01*
X1788Y816D01*
X1790Y816D01*
X1790Y820D01*
X1792Y820D01*
X1792Y824D01*
X1794Y824D01*
X1794Y828D01*
X1796Y828D01*
X1796Y830D01*
X1798Y830D01*
X1798Y832D01*
X1800Y832D01*
X1800Y834D01*
X1802Y834D01*
X1802Y836D01*
X1804Y836D01*
X1804Y838D01*
X1806Y838D01*
X1806Y840D01*
X1808Y840D01*
X1808Y842D01*
X1812Y842D01*
X1812Y844D01*
X1816Y844D01*
X1816Y846D01*
X1820Y846D01*
X1820Y848D01*
X1828Y848D01*
X1828Y850D01*
X1686Y850D01*
G37*
D02*
G36*
X1846Y850D02*
X1846Y848D01*
X1854Y848D01*
X1854Y846D01*
X1858Y846D01*
X1858Y844D01*
X1862Y844D01*
X1862Y842D01*
X1866Y842D01*
X1866Y840D01*
X1868Y840D01*
X1868Y838D01*
X1870Y838D01*
X1870Y836D01*
X1874Y836D01*
X1874Y834D01*
X1876Y834D01*
X1876Y830D01*
X1878Y830D01*
X1878Y828D01*
X1880Y828D01*
X1880Y824D01*
X1882Y824D01*
X1882Y822D01*
X1884Y822D01*
X1884Y818D01*
X1886Y818D01*
X1886Y810D01*
X1888Y810D01*
X1888Y786D01*
X1886Y786D01*
X1886Y780D01*
X1884Y780D01*
X1884Y776D01*
X1882Y776D01*
X1882Y772D01*
X1880Y772D01*
X1880Y770D01*
X1878Y770D01*
X1878Y766D01*
X1876Y766D01*
X1876Y764D01*
X1874Y764D01*
X1874Y748D01*
X1982Y748D01*
X1982Y750D01*
X1974Y750D01*
X1974Y752D01*
X1972Y752D01*
X1972Y754D01*
X1968Y754D01*
X1968Y756D01*
X1964Y756D01*
X1964Y758D01*
X1962Y758D01*
X1962Y760D01*
X1960Y760D01*
X1960Y762D01*
X1958Y762D01*
X1958Y764D01*
X1956Y764D01*
X1956Y766D01*
X1954Y766D01*
X1954Y768D01*
X1952Y768D01*
X1952Y770D01*
X1950Y770D01*
X1950Y774D01*
X1948Y774D01*
X1948Y778D01*
X1946Y778D01*
X1946Y784D01*
X1944Y784D01*
X1944Y794D01*
X1942Y794D01*
X1942Y804D01*
X1944Y804D01*
X1944Y814D01*
X1946Y814D01*
X1946Y818D01*
X1948Y818D01*
X1948Y822D01*
X1950Y822D01*
X1950Y826D01*
X1952Y826D01*
X1952Y830D01*
X1954Y830D01*
X1954Y832D01*
X1956Y832D01*
X1956Y834D01*
X1958Y834D01*
X1958Y836D01*
X1960Y836D01*
X1960Y838D01*
X1962Y838D01*
X1962Y840D01*
X1966Y840D01*
X1966Y842D01*
X1968Y842D01*
X1968Y844D01*
X1972Y844D01*
X1972Y846D01*
X1978Y846D01*
X1978Y848D01*
X1984Y848D01*
X1984Y850D01*
X1846Y850D01*
G37*
D02*
G36*
X2004Y850D02*
X2004Y848D01*
X2012Y848D01*
X2012Y846D01*
X2016Y846D01*
X2016Y844D01*
X2020Y844D01*
X2020Y842D01*
X2022Y842D01*
X2022Y840D01*
X2026Y840D01*
X2026Y838D01*
X2028Y838D01*
X2028Y836D01*
X2030Y836D01*
X2030Y834D01*
X2032Y834D01*
X2032Y832D01*
X2034Y832D01*
X2034Y830D01*
X2036Y830D01*
X2036Y826D01*
X2038Y826D01*
X2038Y822D01*
X2040Y822D01*
X2040Y820D01*
X2042Y820D01*
X2042Y814D01*
X2044Y814D01*
X2044Y804D01*
X2046Y804D01*
X2046Y792D01*
X2044Y792D01*
X2044Y784D01*
X2042Y784D01*
X2042Y778D01*
X2040Y778D01*
X2040Y774D01*
X2038Y774D01*
X2038Y770D01*
X2036Y770D01*
X2036Y768D01*
X2034Y768D01*
X2034Y766D01*
X2032Y766D01*
X2032Y764D01*
X2030Y764D01*
X2030Y762D01*
X2028Y762D01*
X2028Y760D01*
X2026Y760D01*
X2026Y758D01*
X2024Y758D01*
X2024Y756D01*
X2020Y756D01*
X2020Y754D01*
X2018Y754D01*
X2018Y752D01*
X2014Y752D01*
X2014Y750D01*
X2006Y750D01*
X2006Y748D01*
X2814Y748D01*
X2814Y762D01*
X2812Y762D01*
X2812Y766D01*
X2810Y766D01*
X2810Y768D01*
X2808Y768D01*
X2808Y770D01*
X2806Y770D01*
X2806Y774D01*
X2804Y774D01*
X2804Y778D01*
X2802Y778D01*
X2802Y782D01*
X2800Y782D01*
X2800Y790D01*
X2798Y790D01*
X2798Y808D01*
X2800Y808D01*
X2800Y816D01*
X2802Y816D01*
X2802Y820D01*
X2804Y820D01*
X2804Y824D01*
X2806Y824D01*
X2806Y828D01*
X2808Y828D01*
X2808Y830D01*
X2810Y830D01*
X2810Y832D01*
X2812Y832D01*
X2812Y834D01*
X2814Y834D01*
X2814Y836D01*
X2816Y836D01*
X2816Y838D01*
X2818Y838D01*
X2818Y840D01*
X2820Y840D01*
X2820Y842D01*
X2824Y842D01*
X2824Y844D01*
X2828Y844D01*
X2828Y846D01*
X2832Y846D01*
X2832Y848D01*
X2840Y848D01*
X2840Y850D01*
X2004Y850D01*
G37*
D02*
G36*
X2860Y850D02*
X2860Y848D01*
X2866Y848D01*
X2866Y846D01*
X2872Y846D01*
X2872Y844D01*
X2874Y844D01*
X2874Y842D01*
X2878Y842D01*
X2878Y840D01*
X2880Y840D01*
X2880Y838D01*
X2884Y838D01*
X2884Y836D01*
X2886Y836D01*
X2886Y834D01*
X2888Y834D01*
X2888Y832D01*
X2890Y832D01*
X2890Y828D01*
X2892Y828D01*
X2892Y826D01*
X2894Y826D01*
X2894Y822D01*
X2896Y822D01*
X2896Y818D01*
X2898Y818D01*
X2898Y812D01*
X2900Y812D01*
X2900Y786D01*
X2898Y786D01*
X2898Y780D01*
X2896Y780D01*
X2896Y776D01*
X2894Y776D01*
X2894Y772D01*
X2892Y772D01*
X2892Y768D01*
X2890Y768D01*
X2890Y766D01*
X2888Y766D01*
X2888Y764D01*
X2886Y764D01*
X2886Y744D01*
X2888Y744D01*
X2888Y742D01*
X2890Y742D01*
X2890Y738D01*
X2892Y738D01*
X2892Y736D01*
X2894Y736D01*
X2894Y732D01*
X2896Y732D01*
X2896Y730D01*
X2898Y730D01*
X2898Y724D01*
X2900Y724D01*
X2900Y718D01*
X2902Y718D01*
X2902Y698D01*
X2900Y698D01*
X2900Y690D01*
X2898Y690D01*
X2898Y686D01*
X2896Y686D01*
X2896Y682D01*
X2894Y682D01*
X2894Y678D01*
X2892Y678D01*
X2892Y676D01*
X2890Y676D01*
X2890Y674D01*
X2888Y674D01*
X2888Y672D01*
X2886Y672D01*
X2886Y670D01*
X2884Y670D01*
X2884Y668D01*
X2882Y668D01*
X2882Y666D01*
X2880Y666D01*
X2880Y664D01*
X2876Y664D01*
X2876Y662D01*
X2872Y662D01*
X2872Y660D01*
X2868Y660D01*
X2868Y658D01*
X2860Y658D01*
X2860Y656D01*
X2994Y656D01*
X2994Y658D01*
X2988Y658D01*
X2988Y660D01*
X2984Y660D01*
X2984Y662D01*
X2982Y662D01*
X2982Y664D01*
X2978Y664D01*
X2978Y666D01*
X2976Y666D01*
X2976Y668D01*
X2974Y668D01*
X2974Y670D01*
X2972Y670D01*
X2972Y672D01*
X2970Y672D01*
X2970Y674D01*
X2968Y674D01*
X2968Y676D01*
X2966Y676D01*
X2966Y680D01*
X2964Y680D01*
X2964Y682D01*
X2962Y682D01*
X2962Y686D01*
X2960Y686D01*
X2960Y692D01*
X2958Y692D01*
X2958Y720D01*
X2960Y720D01*
X2960Y726D01*
X2962Y726D01*
X2962Y730D01*
X2964Y730D01*
X2964Y734D01*
X2966Y734D01*
X2966Y736D01*
X2968Y736D01*
X2968Y738D01*
X2970Y738D01*
X2970Y742D01*
X2972Y742D01*
X2972Y744D01*
X2974Y744D01*
X2974Y764D01*
X2972Y764D01*
X2972Y766D01*
X2970Y766D01*
X2970Y768D01*
X2968Y768D01*
X2968Y770D01*
X2966Y770D01*
X2966Y774D01*
X2964Y774D01*
X2964Y778D01*
X2962Y778D01*
X2962Y782D01*
X2960Y782D01*
X2960Y792D01*
X2958Y792D01*
X2958Y806D01*
X2960Y806D01*
X2960Y814D01*
X2962Y814D01*
X2962Y820D01*
X2964Y820D01*
X2964Y824D01*
X2966Y824D01*
X2966Y826D01*
X2968Y826D01*
X2968Y830D01*
X2970Y830D01*
X2970Y832D01*
X2972Y832D01*
X2972Y834D01*
X2974Y834D01*
X2974Y836D01*
X2976Y836D01*
X2976Y838D01*
X2978Y838D01*
X2978Y840D01*
X2980Y840D01*
X2980Y842D01*
X2984Y842D01*
X2984Y844D01*
X2988Y844D01*
X2988Y846D01*
X2992Y846D01*
X2992Y848D01*
X3000Y848D01*
X3000Y850D01*
X2860Y850D01*
G37*
D02*
G36*
X3020Y850D02*
X3020Y848D01*
X3028Y848D01*
X3028Y846D01*
X3032Y846D01*
X3032Y844D01*
X3036Y844D01*
X3036Y842D01*
X3038Y842D01*
X3038Y840D01*
X3042Y840D01*
X3042Y838D01*
X3044Y838D01*
X3044Y836D01*
X3046Y836D01*
X3046Y834D01*
X3048Y834D01*
X3048Y832D01*
X3050Y832D01*
X3050Y828D01*
X3052Y828D01*
X3052Y826D01*
X3054Y826D01*
X3054Y822D01*
X3056Y822D01*
X3056Y818D01*
X3058Y818D01*
X3058Y812D01*
X3060Y812D01*
X3060Y800D01*
X3062Y800D01*
X3062Y796D01*
X3060Y796D01*
X3060Y784D01*
X3058Y784D01*
X3058Y778D01*
X3056Y778D01*
X3056Y776D01*
X3054Y776D01*
X3054Y772D01*
X3052Y772D01*
X3052Y768D01*
X3050Y768D01*
X3050Y766D01*
X3048Y766D01*
X3048Y764D01*
X3046Y764D01*
X3046Y762D01*
X3044Y762D01*
X3044Y742D01*
X3046Y742D01*
X3046Y740D01*
X3048Y740D01*
X3048Y738D01*
X3050Y738D01*
X3050Y734D01*
X3052Y734D01*
X3052Y732D01*
X3054Y732D01*
X3054Y728D01*
X3056Y728D01*
X3056Y722D01*
X3058Y722D01*
X3058Y714D01*
X3060Y714D01*
X3060Y698D01*
X3058Y698D01*
X3058Y690D01*
X3056Y690D01*
X3056Y684D01*
X3054Y684D01*
X3054Y682D01*
X3052Y682D01*
X3052Y678D01*
X3050Y678D01*
X3050Y676D01*
X3048Y676D01*
X3048Y672D01*
X3046Y672D01*
X3046Y670D01*
X3044Y670D01*
X3044Y668D01*
X3042Y668D01*
X3042Y666D01*
X3038Y666D01*
X3038Y664D01*
X3036Y664D01*
X3036Y662D01*
X3032Y662D01*
X3032Y660D01*
X3028Y660D01*
X3028Y658D01*
X3022Y658D01*
X3022Y656D01*
X3166Y656D01*
X3166Y658D01*
X3158Y658D01*
X3158Y660D01*
X3154Y660D01*
X3154Y662D01*
X3150Y662D01*
X3150Y664D01*
X3146Y664D01*
X3146Y666D01*
X3144Y666D01*
X3144Y668D01*
X3142Y668D01*
X3142Y670D01*
X3138Y670D01*
X3138Y672D01*
X3136Y672D01*
X3136Y676D01*
X3134Y676D01*
X3134Y678D01*
X3132Y678D01*
X3132Y682D01*
X3130Y682D01*
X3130Y684D01*
X3128Y684D01*
X3128Y688D01*
X3126Y688D01*
X3126Y696D01*
X3124Y696D01*
X3124Y720D01*
X3126Y720D01*
X3126Y726D01*
X3128Y726D01*
X3128Y730D01*
X3130Y730D01*
X3130Y734D01*
X3132Y734D01*
X3132Y738D01*
X3134Y738D01*
X3134Y740D01*
X3136Y740D01*
X3136Y762D01*
X3134Y762D01*
X3134Y764D01*
X3132Y764D01*
X3132Y766D01*
X3130Y766D01*
X3130Y768D01*
X3128Y768D01*
X3128Y772D01*
X3126Y772D01*
X3126Y774D01*
X3124Y774D01*
X3124Y778D01*
X3122Y778D01*
X3122Y784D01*
X3120Y784D01*
X3120Y794D01*
X3118Y794D01*
X3118Y802D01*
X3120Y802D01*
X3120Y814D01*
X3122Y814D01*
X3122Y820D01*
X3124Y820D01*
X3124Y822D01*
X3126Y822D01*
X3126Y826D01*
X3128Y826D01*
X3128Y830D01*
X3130Y830D01*
X3130Y832D01*
X3132Y832D01*
X3132Y834D01*
X3134Y834D01*
X3134Y836D01*
X3136Y836D01*
X3136Y838D01*
X3138Y838D01*
X3138Y840D01*
X3142Y840D01*
X3142Y842D01*
X3144Y842D01*
X3144Y844D01*
X3148Y844D01*
X3148Y846D01*
X3152Y846D01*
X3152Y848D01*
X3160Y848D01*
X3160Y850D01*
X3020Y850D01*
G37*
D02*
G36*
X3188Y848D02*
X3188Y846D01*
X3192Y846D01*
X3192Y844D01*
X3196Y844D01*
X3196Y842D01*
X3200Y842D01*
X3200Y840D01*
X3202Y840D01*
X3202Y838D01*
X3204Y838D01*
X3204Y836D01*
X3206Y836D01*
X3206Y834D01*
X3208Y834D01*
X3208Y832D01*
X3210Y832D01*
X3210Y830D01*
X3212Y830D01*
X3212Y826D01*
X3214Y826D01*
X3214Y824D01*
X3216Y824D01*
X3216Y820D01*
X3218Y820D01*
X3218Y814D01*
X3220Y814D01*
X3220Y804D01*
X3222Y804D01*
X3222Y792D01*
X3220Y792D01*
X3220Y784D01*
X3218Y784D01*
X3218Y778D01*
X3216Y778D01*
X3216Y774D01*
X3214Y774D01*
X3214Y770D01*
X3212Y770D01*
X3212Y768D01*
X3210Y768D01*
X3210Y766D01*
X3208Y766D01*
X3208Y746D01*
X3320Y746D01*
X3320Y748D01*
X3312Y748D01*
X3312Y750D01*
X3308Y750D01*
X3308Y752D01*
X3304Y752D01*
X3304Y754D01*
X3302Y754D01*
X3302Y756D01*
X3298Y756D01*
X3298Y758D01*
X3296Y758D01*
X3296Y760D01*
X3294Y760D01*
X3294Y762D01*
X3292Y762D01*
X3292Y764D01*
X3290Y764D01*
X3290Y768D01*
X3288Y768D01*
X3288Y770D01*
X3286Y770D01*
X3286Y774D01*
X3284Y774D01*
X3284Y778D01*
X3282Y778D01*
X3282Y784D01*
X3280Y784D01*
X3280Y810D01*
X3282Y810D01*
X3282Y816D01*
X3284Y816D01*
X3284Y820D01*
X3286Y820D01*
X3286Y824D01*
X3288Y824D01*
X3288Y826D01*
X3290Y826D01*
X3290Y830D01*
X3292Y830D01*
X3292Y832D01*
X3294Y832D01*
X3294Y834D01*
X3296Y834D01*
X3296Y836D01*
X3298Y836D01*
X3298Y838D01*
X3302Y838D01*
X3302Y840D01*
X3304Y840D01*
X3304Y842D01*
X3308Y842D01*
X3308Y844D01*
X3312Y844D01*
X3312Y846D01*
X3320Y846D01*
X3320Y848D01*
X3188Y848D01*
G37*
D02*
G36*
X1874Y748D02*
X1874Y746D01*
X2814Y746D01*
X2814Y748D01*
X1874Y748D01*
G37*
D02*
G36*
X1874Y748D02*
X1874Y746D01*
X2814Y746D01*
X2814Y748D01*
X1874Y748D01*
G37*
D02*
G36*
X1874Y746D02*
X1874Y742D01*
X1876Y742D01*
X1876Y740D01*
X1878Y740D01*
X1878Y738D01*
X1880Y738D01*
X1880Y734D01*
X1882Y734D01*
X1882Y730D01*
X1884Y730D01*
X1884Y726D01*
X1886Y726D01*
X1886Y720D01*
X1888Y720D01*
X1888Y696D01*
X1886Y696D01*
X1886Y690D01*
X1884Y690D01*
X1884Y684D01*
X1882Y684D01*
X1882Y682D01*
X1880Y682D01*
X1880Y678D01*
X1878Y678D01*
X1878Y676D01*
X1876Y676D01*
X1876Y674D01*
X1874Y674D01*
X1874Y670D01*
X1870Y670D01*
X1870Y668D01*
X1868Y668D01*
X1868Y666D01*
X1866Y666D01*
X1866Y664D01*
X1862Y664D01*
X1862Y662D01*
X1858Y662D01*
X1858Y660D01*
X1854Y660D01*
X1854Y658D01*
X1846Y658D01*
X1846Y656D01*
X2842Y656D01*
X2842Y658D01*
X2834Y658D01*
X2834Y660D01*
X2830Y660D01*
X2830Y662D01*
X2826Y662D01*
X2826Y664D01*
X2822Y664D01*
X2822Y666D01*
X2820Y666D01*
X2820Y668D01*
X2818Y668D01*
X2818Y670D01*
X2814Y670D01*
X2814Y672D01*
X2812Y672D01*
X2812Y676D01*
X2810Y676D01*
X2810Y678D01*
X2808Y678D01*
X2808Y682D01*
X2806Y682D01*
X2806Y684D01*
X2804Y684D01*
X2804Y688D01*
X2802Y688D01*
X2802Y696D01*
X2800Y696D01*
X2800Y720D01*
X2802Y720D01*
X2802Y726D01*
X2804Y726D01*
X2804Y730D01*
X2806Y730D01*
X2806Y734D01*
X2808Y734D01*
X2808Y738D01*
X2810Y738D01*
X2810Y740D01*
X2812Y740D01*
X2812Y742D01*
X2814Y742D01*
X2814Y746D01*
X1874Y746D01*
G37*
D02*
G36*
X3210Y746D02*
X3210Y744D01*
X3926Y744D01*
X3926Y746D01*
X3210Y746D01*
G37*
D02*
G36*
X3210Y746D02*
X3210Y744D01*
X3926Y744D01*
X3926Y746D01*
X3210Y746D01*
G37*
D02*
G36*
X3212Y744D02*
X3212Y742D01*
X3214Y742D01*
X3214Y738D01*
X3216Y738D01*
X3216Y736D01*
X3218Y736D01*
X3218Y732D01*
X3220Y732D01*
X3220Y730D01*
X3222Y730D01*
X3222Y724D01*
X3224Y724D01*
X3224Y718D01*
X3226Y718D01*
X3226Y698D01*
X3224Y698D01*
X3224Y690D01*
X3222Y690D01*
X3222Y686D01*
X3220Y686D01*
X3220Y682D01*
X3218Y682D01*
X3218Y678D01*
X3216Y678D01*
X3216Y676D01*
X3214Y676D01*
X3214Y674D01*
X3212Y674D01*
X3212Y672D01*
X3210Y672D01*
X3210Y670D01*
X3208Y670D01*
X3208Y668D01*
X3206Y668D01*
X3206Y666D01*
X3204Y666D01*
X3204Y664D01*
X3200Y664D01*
X3200Y662D01*
X3196Y662D01*
X3196Y660D01*
X3192Y660D01*
X3192Y658D01*
X3182Y658D01*
X3182Y656D01*
X3926Y656D01*
X3926Y744D01*
X3212Y744D01*
G37*
D02*
G36*
X1528Y656D02*
X1528Y654D01*
X3006Y654D01*
X3006Y656D01*
X1528Y656D01*
G37*
D02*
G36*
X1528Y656D02*
X1528Y654D01*
X3006Y654D01*
X3006Y656D01*
X1528Y656D01*
G37*
D02*
G36*
X1528Y656D02*
X1528Y654D01*
X3006Y654D01*
X3006Y656D01*
X1528Y656D01*
G37*
D02*
G36*
X1528Y656D02*
X1528Y654D01*
X3006Y654D01*
X3006Y656D01*
X1528Y656D01*
G37*
D02*
G36*
X3010Y656D02*
X3010Y654D01*
X3926Y654D01*
X3926Y656D01*
X3010Y656D01*
G37*
D02*
G36*
X3010Y656D02*
X3010Y654D01*
X3926Y654D01*
X3926Y656D01*
X3010Y656D01*
G37*
D02*
G36*
X932Y654D02*
X932Y652D01*
X3926Y652D01*
X3926Y654D01*
X932Y654D01*
G37*
D02*
G36*
X932Y654D02*
X932Y652D01*
X3926Y652D01*
X3926Y654D01*
X932Y654D01*
G37*
D02*
G36*
X932Y654D02*
X932Y652D01*
X3926Y652D01*
X3926Y654D01*
X932Y654D01*
G37*
D02*
G36*
X932Y652D02*
X932Y648D01*
X930Y648D01*
X930Y642D01*
X928Y642D01*
X928Y638D01*
X926Y638D01*
X926Y634D01*
X924Y634D01*
X924Y630D01*
X922Y630D01*
X922Y628D01*
X920Y628D01*
X920Y626D01*
X918Y626D01*
X918Y624D01*
X916Y624D01*
X916Y622D01*
X914Y622D01*
X914Y620D01*
X910Y620D01*
X910Y618D01*
X906Y618D01*
X906Y598D01*
X908Y598D01*
X908Y596D01*
X912Y596D01*
X912Y594D01*
X914Y594D01*
X914Y592D01*
X918Y592D01*
X918Y590D01*
X920Y590D01*
X920Y586D01*
X922Y586D01*
X922Y584D01*
X924Y584D01*
X924Y582D01*
X926Y582D01*
X926Y578D01*
X928Y578D01*
X928Y574D01*
X930Y574D01*
X930Y568D01*
X932Y568D01*
X932Y548D01*
X930Y548D01*
X930Y542D01*
X928Y542D01*
X928Y538D01*
X926Y538D01*
X926Y534D01*
X924Y534D01*
X924Y530D01*
X922Y530D01*
X922Y528D01*
X920Y528D01*
X920Y526D01*
X918Y526D01*
X918Y524D01*
X916Y524D01*
X916Y522D01*
X914Y522D01*
X914Y520D01*
X910Y520D01*
X910Y518D01*
X906Y518D01*
X906Y498D01*
X908Y498D01*
X908Y496D01*
X912Y496D01*
X912Y494D01*
X914Y494D01*
X914Y492D01*
X918Y492D01*
X918Y490D01*
X920Y490D01*
X920Y486D01*
X922Y486D01*
X922Y484D01*
X924Y484D01*
X924Y482D01*
X926Y482D01*
X926Y478D01*
X928Y478D01*
X928Y474D01*
X930Y474D01*
X930Y468D01*
X932Y468D01*
X932Y448D01*
X930Y448D01*
X930Y442D01*
X928Y442D01*
X928Y438D01*
X926Y438D01*
X926Y434D01*
X924Y434D01*
X924Y430D01*
X922Y430D01*
X922Y428D01*
X920Y428D01*
X920Y426D01*
X918Y426D01*
X918Y424D01*
X916Y424D01*
X916Y422D01*
X914Y422D01*
X914Y420D01*
X910Y420D01*
X910Y418D01*
X906Y418D01*
X906Y398D01*
X908Y398D01*
X908Y396D01*
X912Y396D01*
X912Y394D01*
X914Y394D01*
X914Y392D01*
X918Y392D01*
X918Y390D01*
X920Y390D01*
X920Y386D01*
X922Y386D01*
X922Y384D01*
X3500Y384D01*
X3500Y382D01*
X3510Y382D01*
X3510Y380D01*
X3516Y380D01*
X3516Y378D01*
X3520Y378D01*
X3520Y376D01*
X3526Y376D01*
X3526Y374D01*
X3530Y374D01*
X3530Y372D01*
X3532Y372D01*
X3532Y370D01*
X3536Y370D01*
X3536Y368D01*
X3538Y368D01*
X3538Y366D01*
X3542Y366D01*
X3542Y364D01*
X3544Y364D01*
X3544Y362D01*
X3546Y362D01*
X3546Y360D01*
X3548Y360D01*
X3548Y358D01*
X3550Y358D01*
X3550Y356D01*
X3552Y356D01*
X3552Y354D01*
X3554Y354D01*
X3554Y350D01*
X3556Y350D01*
X3556Y348D01*
X3558Y348D01*
X3558Y344D01*
X3560Y344D01*
X3560Y342D01*
X3562Y342D01*
X3562Y338D01*
X3564Y338D01*
X3564Y334D01*
X3566Y334D01*
X3566Y328D01*
X3568Y328D01*
X3568Y324D01*
X3570Y324D01*
X3570Y316D01*
X3572Y316D01*
X3572Y282D01*
X3570Y282D01*
X3570Y274D01*
X3568Y274D01*
X3568Y270D01*
X3566Y270D01*
X3566Y264D01*
X3564Y264D01*
X3564Y260D01*
X3562Y260D01*
X3562Y256D01*
X3560Y256D01*
X3560Y254D01*
X3558Y254D01*
X3558Y250D01*
X3556Y250D01*
X3556Y248D01*
X3554Y248D01*
X3554Y244D01*
X3552Y244D01*
X3552Y242D01*
X3550Y242D01*
X3550Y240D01*
X3548Y240D01*
X3548Y238D01*
X3546Y238D01*
X3546Y236D01*
X3544Y236D01*
X3544Y234D01*
X3542Y234D01*
X3542Y232D01*
X3538Y232D01*
X3538Y230D01*
X3536Y230D01*
X3536Y228D01*
X3532Y228D01*
X3532Y226D01*
X3530Y226D01*
X3530Y224D01*
X3526Y224D01*
X3526Y222D01*
X3522Y222D01*
X3522Y220D01*
X3516Y220D01*
X3516Y218D01*
X3510Y218D01*
X3510Y216D01*
X3500Y216D01*
X3500Y214D01*
X3926Y214D01*
X3926Y652D01*
X932Y652D01*
G37*
D02*
G36*
X40Y436D02*
X40Y278D01*
X178Y278D01*
X178Y280D01*
X168Y280D01*
X168Y282D01*
X160Y282D01*
X160Y284D01*
X156Y284D01*
X156Y286D01*
X152Y286D01*
X152Y288D01*
X148Y288D01*
X148Y290D01*
X144Y290D01*
X144Y292D01*
X142Y292D01*
X142Y294D01*
X138Y294D01*
X138Y296D01*
X136Y296D01*
X136Y298D01*
X134Y298D01*
X134Y300D01*
X132Y300D01*
X132Y302D01*
X130Y302D01*
X130Y304D01*
X128Y304D01*
X128Y306D01*
X126Y306D01*
X126Y308D01*
X124Y308D01*
X124Y312D01*
X122Y312D01*
X122Y314D01*
X120Y314D01*
X120Y318D01*
X118Y318D01*
X118Y322D01*
X116Y322D01*
X116Y326D01*
X114Y326D01*
X114Y330D01*
X112Y330D01*
X112Y336D01*
X110Y336D01*
X110Y346D01*
X108Y346D01*
X108Y370D01*
X110Y370D01*
X110Y378D01*
X112Y378D01*
X112Y386D01*
X114Y386D01*
X114Y390D01*
X116Y390D01*
X116Y394D01*
X118Y394D01*
X118Y398D01*
X120Y398D01*
X120Y400D01*
X122Y400D01*
X122Y404D01*
X124Y404D01*
X124Y406D01*
X126Y406D01*
X126Y408D01*
X128Y408D01*
X128Y412D01*
X130Y412D01*
X130Y414D01*
X132Y414D01*
X132Y416D01*
X134Y416D01*
X134Y418D01*
X138Y418D01*
X138Y420D01*
X140Y420D01*
X140Y422D01*
X142Y422D01*
X142Y424D01*
X146Y424D01*
X146Y426D01*
X150Y426D01*
X150Y428D01*
X154Y428D01*
X154Y430D01*
X158Y430D01*
X158Y432D01*
X164Y432D01*
X164Y434D01*
X170Y434D01*
X170Y436D01*
X40Y436D01*
G37*
D02*
G36*
X924Y384D02*
X924Y382D01*
X926Y382D01*
X926Y378D01*
X928Y378D01*
X928Y374D01*
X930Y374D01*
X930Y368D01*
X932Y368D01*
X932Y348D01*
X930Y348D01*
X930Y342D01*
X928Y342D01*
X928Y338D01*
X926Y338D01*
X926Y334D01*
X924Y334D01*
X924Y330D01*
X922Y330D01*
X922Y328D01*
X920Y328D01*
X920Y326D01*
X918Y326D01*
X918Y324D01*
X916Y324D01*
X916Y322D01*
X914Y322D01*
X914Y320D01*
X910Y320D01*
X910Y318D01*
X906Y318D01*
X906Y316D01*
X900Y316D01*
X900Y314D01*
X892Y314D01*
X892Y312D01*
X1280Y312D01*
X1280Y320D01*
X1282Y320D01*
X1282Y326D01*
X1284Y326D01*
X1284Y332D01*
X1286Y332D01*
X1286Y336D01*
X1288Y336D01*
X1288Y340D01*
X1290Y340D01*
X1290Y344D01*
X1292Y344D01*
X1292Y346D01*
X1294Y346D01*
X1294Y350D01*
X1296Y350D01*
X1296Y352D01*
X1298Y352D01*
X1298Y354D01*
X1300Y354D01*
X1300Y356D01*
X1302Y356D01*
X1302Y358D01*
X1304Y358D01*
X1304Y360D01*
X1306Y360D01*
X1306Y362D01*
X1308Y362D01*
X1308Y364D01*
X1310Y364D01*
X1310Y366D01*
X1312Y366D01*
X1312Y368D01*
X1316Y368D01*
X1316Y370D01*
X1318Y370D01*
X1318Y372D01*
X1322Y372D01*
X1322Y374D01*
X1326Y374D01*
X1326Y376D01*
X1330Y376D01*
X1330Y378D01*
X1336Y378D01*
X1336Y380D01*
X1342Y380D01*
X1342Y382D01*
X1352Y382D01*
X1352Y384D01*
X924Y384D01*
G37*
D02*
G36*
X1374Y384D02*
X1374Y382D01*
X1384Y382D01*
X1384Y380D01*
X1392Y380D01*
X1392Y378D01*
X1396Y378D01*
X1396Y376D01*
X1400Y376D01*
X1400Y374D01*
X1404Y374D01*
X1404Y372D01*
X1408Y372D01*
X1408Y370D01*
X1412Y370D01*
X1412Y368D01*
X1414Y368D01*
X1414Y366D01*
X1416Y366D01*
X1416Y364D01*
X1418Y364D01*
X1418Y362D01*
X1422Y362D01*
X1422Y360D01*
X1424Y360D01*
X1424Y358D01*
X1426Y358D01*
X1426Y354D01*
X1428Y354D01*
X1428Y352D01*
X1430Y352D01*
X1430Y350D01*
X1432Y350D01*
X1432Y348D01*
X1434Y348D01*
X1434Y344D01*
X1436Y344D01*
X1436Y340D01*
X1438Y340D01*
X1438Y336D01*
X1440Y336D01*
X1440Y332D01*
X1442Y332D01*
X1442Y328D01*
X1444Y328D01*
X1444Y322D01*
X1446Y322D01*
X1446Y312D01*
X1448Y312D01*
X1448Y286D01*
X1446Y286D01*
X1446Y276D01*
X1444Y276D01*
X1444Y270D01*
X1442Y270D01*
X1442Y266D01*
X1440Y266D01*
X1440Y262D01*
X1438Y262D01*
X1438Y258D01*
X1436Y258D01*
X1436Y254D01*
X1434Y254D01*
X1434Y250D01*
X1432Y250D01*
X1432Y248D01*
X1430Y248D01*
X1430Y246D01*
X1428Y246D01*
X1428Y242D01*
X1426Y242D01*
X1426Y240D01*
X1424Y240D01*
X1424Y238D01*
X1422Y238D01*
X1422Y236D01*
X1420Y236D01*
X1420Y234D01*
X1416Y234D01*
X1416Y232D01*
X1414Y232D01*
X1414Y230D01*
X1412Y230D01*
X1412Y228D01*
X1408Y228D01*
X1408Y226D01*
X1404Y226D01*
X1404Y224D01*
X1400Y224D01*
X1400Y222D01*
X1396Y222D01*
X1396Y220D01*
X1392Y220D01*
X1392Y218D01*
X1384Y218D01*
X1384Y216D01*
X1376Y216D01*
X1376Y214D01*
X2138Y214D01*
X2138Y216D01*
X2128Y216D01*
X2128Y218D01*
X2122Y218D01*
X2122Y220D01*
X2116Y220D01*
X2116Y222D01*
X2112Y222D01*
X2112Y224D01*
X2108Y224D01*
X2108Y226D01*
X2106Y226D01*
X2106Y228D01*
X2102Y228D01*
X2102Y230D01*
X2100Y230D01*
X2100Y232D01*
X2096Y232D01*
X2096Y234D01*
X2094Y234D01*
X2094Y236D01*
X2092Y236D01*
X2092Y238D01*
X2090Y238D01*
X2090Y240D01*
X2088Y240D01*
X2088Y242D01*
X2086Y242D01*
X2086Y244D01*
X2084Y244D01*
X2084Y248D01*
X2082Y248D01*
X2082Y250D01*
X2080Y250D01*
X2080Y252D01*
X2078Y252D01*
X2078Y256D01*
X2076Y256D01*
X2076Y260D01*
X2074Y260D01*
X2074Y264D01*
X2072Y264D01*
X2072Y268D01*
X2070Y268D01*
X2070Y274D01*
X2068Y274D01*
X2068Y282D01*
X2066Y282D01*
X2066Y316D01*
X2068Y316D01*
X2068Y324D01*
X2070Y324D01*
X2070Y330D01*
X2072Y330D01*
X2072Y334D01*
X2074Y334D01*
X2074Y338D01*
X2076Y338D01*
X2076Y342D01*
X2078Y342D01*
X2078Y346D01*
X2080Y346D01*
X2080Y348D01*
X2082Y348D01*
X2082Y350D01*
X2084Y350D01*
X2084Y354D01*
X2086Y354D01*
X2086Y356D01*
X2088Y356D01*
X2088Y358D01*
X2090Y358D01*
X2090Y360D01*
X2092Y360D01*
X2092Y362D01*
X2094Y362D01*
X2094Y364D01*
X2096Y364D01*
X2096Y366D01*
X2100Y366D01*
X2100Y368D01*
X2102Y368D01*
X2102Y370D01*
X2106Y370D01*
X2106Y372D01*
X2108Y372D01*
X2108Y374D01*
X2112Y374D01*
X2112Y376D01*
X2116Y376D01*
X2116Y378D01*
X2122Y378D01*
X2122Y380D01*
X2128Y380D01*
X2128Y382D01*
X2138Y382D01*
X2138Y384D01*
X1374Y384D01*
G37*
D02*
G36*
X2162Y384D02*
X2162Y382D01*
X2172Y382D01*
X2172Y380D01*
X2178Y380D01*
X2178Y378D01*
X2184Y378D01*
X2184Y376D01*
X2188Y376D01*
X2188Y374D01*
X2192Y374D01*
X2192Y372D01*
X2194Y372D01*
X2194Y370D01*
X2198Y370D01*
X2198Y368D01*
X2200Y368D01*
X2200Y366D01*
X2204Y366D01*
X2204Y364D01*
X2206Y364D01*
X2206Y362D01*
X2208Y362D01*
X2208Y360D01*
X2210Y360D01*
X2210Y358D01*
X2212Y358D01*
X2212Y356D01*
X2214Y356D01*
X2214Y354D01*
X2216Y354D01*
X2216Y352D01*
X2218Y352D01*
X2218Y348D01*
X2220Y348D01*
X2220Y346D01*
X2222Y346D01*
X2222Y342D01*
X2224Y342D01*
X2224Y338D01*
X2226Y338D01*
X2226Y334D01*
X2228Y334D01*
X2228Y330D01*
X2230Y330D01*
X2230Y324D01*
X2232Y324D01*
X2232Y318D01*
X2234Y318D01*
X2234Y302D01*
X2236Y302D01*
X2236Y294D01*
X2234Y294D01*
X2234Y280D01*
X2232Y280D01*
X2232Y274D01*
X2230Y274D01*
X2230Y268D01*
X2228Y268D01*
X2228Y264D01*
X2226Y264D01*
X2226Y258D01*
X2224Y258D01*
X2224Y256D01*
X2222Y256D01*
X2222Y252D01*
X2220Y252D01*
X2220Y250D01*
X2218Y250D01*
X2218Y246D01*
X2216Y246D01*
X2216Y244D01*
X2214Y244D01*
X2214Y242D01*
X2212Y242D01*
X2212Y240D01*
X2210Y240D01*
X2210Y238D01*
X2208Y238D01*
X2208Y236D01*
X2206Y236D01*
X2206Y234D01*
X2204Y234D01*
X2204Y232D01*
X2200Y232D01*
X2200Y230D01*
X2198Y230D01*
X2198Y228D01*
X2196Y228D01*
X2196Y226D01*
X2192Y226D01*
X2192Y224D01*
X2188Y224D01*
X2188Y222D01*
X2184Y222D01*
X2184Y220D01*
X2178Y220D01*
X2178Y218D01*
X2172Y218D01*
X2172Y216D01*
X2162Y216D01*
X2162Y214D01*
X2688Y214D01*
X2688Y216D01*
X2680Y216D01*
X2680Y218D01*
X2672Y218D01*
X2672Y220D01*
X2668Y220D01*
X2668Y222D01*
X2664Y222D01*
X2664Y224D01*
X2660Y224D01*
X2660Y226D01*
X2656Y226D01*
X2656Y228D01*
X2652Y228D01*
X2652Y230D01*
X2650Y230D01*
X2650Y232D01*
X2648Y232D01*
X2648Y234D01*
X2644Y234D01*
X2644Y236D01*
X2642Y236D01*
X2642Y238D01*
X2640Y238D01*
X2640Y240D01*
X2638Y240D01*
X2638Y242D01*
X2636Y242D01*
X2636Y246D01*
X2634Y246D01*
X2634Y248D01*
X2632Y248D01*
X2632Y250D01*
X2630Y250D01*
X2630Y254D01*
X2628Y254D01*
X2628Y258D01*
X2626Y258D01*
X2626Y260D01*
X2624Y260D01*
X2624Y264D01*
X2622Y264D01*
X2622Y270D01*
X2620Y270D01*
X2620Y276D01*
X2618Y276D01*
X2618Y286D01*
X2616Y286D01*
X2616Y312D01*
X2618Y312D01*
X2618Y322D01*
X2620Y322D01*
X2620Y328D01*
X2622Y328D01*
X2622Y332D01*
X2624Y332D01*
X2624Y338D01*
X2626Y338D01*
X2626Y340D01*
X2628Y340D01*
X2628Y344D01*
X2630Y344D01*
X2630Y348D01*
X2632Y348D01*
X2632Y350D01*
X2634Y350D01*
X2634Y352D01*
X2636Y352D01*
X2636Y356D01*
X2638Y356D01*
X2638Y358D01*
X2640Y358D01*
X2640Y360D01*
X2642Y360D01*
X2642Y362D01*
X2644Y362D01*
X2644Y364D01*
X2648Y364D01*
X2648Y366D01*
X2650Y366D01*
X2650Y368D01*
X2652Y368D01*
X2652Y370D01*
X2656Y370D01*
X2656Y372D01*
X2660Y372D01*
X2660Y374D01*
X2664Y374D01*
X2664Y376D01*
X2668Y376D01*
X2668Y378D01*
X2672Y378D01*
X2672Y380D01*
X2680Y380D01*
X2680Y382D01*
X2688Y382D01*
X2688Y384D01*
X2162Y384D01*
G37*
D02*
G36*
X2712Y384D02*
X2712Y382D01*
X2722Y382D01*
X2722Y380D01*
X2728Y380D01*
X2728Y378D01*
X2734Y378D01*
X2734Y376D01*
X2738Y376D01*
X2738Y374D01*
X2742Y374D01*
X2742Y372D01*
X2746Y372D01*
X2746Y370D01*
X2748Y370D01*
X2748Y368D01*
X2752Y368D01*
X2752Y366D01*
X2754Y366D01*
X2754Y364D01*
X2756Y364D01*
X2756Y362D01*
X2758Y362D01*
X2758Y360D01*
X2760Y360D01*
X2760Y358D01*
X2762Y358D01*
X2762Y356D01*
X2764Y356D01*
X2764Y354D01*
X2766Y354D01*
X2766Y352D01*
X2768Y352D01*
X2768Y350D01*
X2770Y350D01*
X2770Y346D01*
X2772Y346D01*
X2772Y344D01*
X2774Y344D01*
X2774Y340D01*
X2776Y340D01*
X2776Y336D01*
X2778Y336D01*
X2778Y332D01*
X2780Y332D01*
X2780Y326D01*
X2782Y326D01*
X2782Y320D01*
X2784Y320D01*
X2784Y310D01*
X2786Y310D01*
X2786Y288D01*
X2784Y288D01*
X2784Y278D01*
X2782Y278D01*
X2782Y272D01*
X2780Y272D01*
X2780Y266D01*
X2778Y266D01*
X2778Y262D01*
X2776Y262D01*
X2776Y258D01*
X2774Y258D01*
X2774Y254D01*
X2772Y254D01*
X2772Y252D01*
X2770Y252D01*
X2770Y248D01*
X2768Y248D01*
X2768Y246D01*
X2766Y246D01*
X2766Y244D01*
X2764Y244D01*
X2764Y242D01*
X2762Y242D01*
X2762Y240D01*
X2760Y240D01*
X2760Y238D01*
X2758Y238D01*
X2758Y236D01*
X2756Y236D01*
X2756Y234D01*
X2754Y234D01*
X2754Y232D01*
X2752Y232D01*
X2752Y230D01*
X2748Y230D01*
X2748Y228D01*
X2746Y228D01*
X2746Y226D01*
X2742Y226D01*
X2742Y224D01*
X2738Y224D01*
X2738Y222D01*
X2734Y222D01*
X2734Y220D01*
X2728Y220D01*
X2728Y218D01*
X2722Y218D01*
X2722Y216D01*
X2712Y216D01*
X2712Y214D01*
X3476Y214D01*
X3476Y216D01*
X3466Y216D01*
X3466Y218D01*
X3460Y218D01*
X3460Y220D01*
X3454Y220D01*
X3454Y222D01*
X3450Y222D01*
X3450Y224D01*
X3446Y224D01*
X3446Y226D01*
X3442Y226D01*
X3442Y228D01*
X3440Y228D01*
X3440Y230D01*
X3436Y230D01*
X3436Y232D01*
X3434Y232D01*
X3434Y234D01*
X3432Y234D01*
X3432Y236D01*
X3430Y236D01*
X3430Y238D01*
X3428Y238D01*
X3428Y240D01*
X3426Y240D01*
X3426Y242D01*
X3424Y242D01*
X3424Y244D01*
X3422Y244D01*
X3422Y246D01*
X3420Y246D01*
X3420Y250D01*
X3418Y250D01*
X3418Y252D01*
X3416Y252D01*
X3416Y256D01*
X3414Y256D01*
X3414Y258D01*
X3412Y258D01*
X3412Y262D01*
X3410Y262D01*
X3410Y268D01*
X3408Y268D01*
X3408Y272D01*
X3406Y272D01*
X3406Y280D01*
X3404Y280D01*
X3404Y294D01*
X3402Y294D01*
X3402Y304D01*
X3404Y304D01*
X3404Y318D01*
X3406Y318D01*
X3406Y326D01*
X3408Y326D01*
X3408Y330D01*
X3410Y330D01*
X3410Y336D01*
X3412Y336D01*
X3412Y340D01*
X3414Y340D01*
X3414Y342D01*
X3416Y342D01*
X3416Y346D01*
X3418Y346D01*
X3418Y348D01*
X3420Y348D01*
X3420Y352D01*
X3422Y352D01*
X3422Y354D01*
X3424Y354D01*
X3424Y356D01*
X3426Y356D01*
X3426Y358D01*
X3428Y358D01*
X3428Y360D01*
X3430Y360D01*
X3430Y362D01*
X3432Y362D01*
X3432Y364D01*
X3434Y364D01*
X3434Y366D01*
X3438Y366D01*
X3438Y368D01*
X3440Y368D01*
X3440Y370D01*
X3444Y370D01*
X3444Y372D01*
X3446Y372D01*
X3446Y374D01*
X3450Y374D01*
X3450Y376D01*
X3454Y376D01*
X3454Y378D01*
X3460Y378D01*
X3460Y380D01*
X3466Y380D01*
X3466Y382D01*
X3476Y382D01*
X3476Y384D01*
X2712Y384D01*
G37*
D02*
G36*
X252Y312D02*
X252Y310D01*
X1280Y310D01*
X1280Y312D01*
X252Y312D01*
G37*
D02*
G36*
X252Y312D02*
X252Y310D01*
X1280Y310D01*
X1280Y312D01*
X252Y312D01*
G37*
D02*
G36*
X250Y310D02*
X250Y308D01*
X248Y308D01*
X248Y306D01*
X246Y306D01*
X246Y304D01*
X244Y304D01*
X244Y302D01*
X242Y302D01*
X242Y300D01*
X240Y300D01*
X240Y298D01*
X238Y298D01*
X238Y296D01*
X236Y296D01*
X236Y294D01*
X232Y294D01*
X232Y292D01*
X230Y292D01*
X230Y290D01*
X226Y290D01*
X226Y288D01*
X222Y288D01*
X222Y286D01*
X218Y286D01*
X218Y284D01*
X214Y284D01*
X214Y282D01*
X206Y282D01*
X206Y280D01*
X196Y280D01*
X196Y278D01*
X1280Y278D01*
X1280Y288D01*
X1278Y288D01*
X1278Y310D01*
X250Y310D01*
G37*
D02*
G36*
X40Y278D02*
X40Y276D01*
X1282Y276D01*
X1282Y278D01*
X40Y278D01*
G37*
D02*
G36*
X40Y278D02*
X40Y276D01*
X1282Y276D01*
X1282Y278D01*
X40Y278D01*
G37*
D02*
G36*
X40Y276D02*
X40Y214D01*
X1350Y214D01*
X1350Y216D01*
X1342Y216D01*
X1342Y218D01*
X1336Y218D01*
X1336Y220D01*
X1330Y220D01*
X1330Y222D01*
X1326Y222D01*
X1326Y224D01*
X1322Y224D01*
X1322Y226D01*
X1318Y226D01*
X1318Y228D01*
X1316Y228D01*
X1316Y230D01*
X1312Y230D01*
X1312Y232D01*
X1310Y232D01*
X1310Y234D01*
X1308Y234D01*
X1308Y236D01*
X1306Y236D01*
X1306Y238D01*
X1302Y238D01*
X1302Y242D01*
X1300Y242D01*
X1300Y244D01*
X1298Y244D01*
X1298Y246D01*
X1296Y246D01*
X1296Y248D01*
X1294Y248D01*
X1294Y252D01*
X1292Y252D01*
X1292Y254D01*
X1290Y254D01*
X1290Y258D01*
X1288Y258D01*
X1288Y262D01*
X1286Y262D01*
X1286Y266D01*
X1284Y266D01*
X1284Y272D01*
X1282Y272D01*
X1282Y276D01*
X40Y276D01*
G37*
D02*
G36*
X40Y214D02*
X40Y212D01*
X3926Y212D01*
X3926Y214D01*
X40Y214D01*
G37*
D02*
G36*
X40Y214D02*
X40Y212D01*
X3926Y212D01*
X3926Y214D01*
X40Y214D01*
G37*
D02*
G36*
X40Y214D02*
X40Y212D01*
X3926Y212D01*
X3926Y214D01*
X40Y214D01*
G37*
D02*
G36*
X40Y214D02*
X40Y212D01*
X3926Y212D01*
X3926Y214D01*
X40Y214D01*
G37*
D02*
G36*
X40Y214D02*
X40Y212D01*
X3926Y212D01*
X3926Y214D01*
X40Y214D01*
G37*
D02*
G36*
X40Y212D02*
X40Y168D01*
X3886Y168D01*
X3886Y166D01*
X3894Y166D01*
X3894Y164D01*
X3900Y164D01*
X3900Y162D01*
X3906Y162D01*
X3906Y160D01*
X3926Y160D01*
X3926Y212D01*
X40Y212D01*
G37*
D02*
G36*
X40Y168D02*
X40Y156D01*
X62Y156D01*
X62Y158D01*
X64Y158D01*
X64Y160D01*
X68Y160D01*
X68Y162D01*
X74Y162D01*
X74Y164D01*
X80Y164D01*
X80Y166D01*
X88Y166D01*
X88Y168D01*
X40Y168D01*
G37*
D02*
G36*
X112Y168D02*
X112Y166D01*
X120Y166D01*
X120Y164D01*
X126Y164D01*
X126Y162D01*
X130Y162D01*
X130Y160D01*
X134Y160D01*
X134Y158D01*
X138Y158D01*
X138Y156D01*
X142Y156D01*
X142Y154D01*
X144Y154D01*
X144Y152D01*
X146Y152D01*
X146Y150D01*
X148Y150D01*
X148Y148D01*
X150Y148D01*
X150Y146D01*
X152Y146D01*
X152Y144D01*
X154Y144D01*
X154Y142D01*
X156Y142D01*
X156Y140D01*
X158Y140D01*
X158Y138D01*
X160Y138D01*
X160Y134D01*
X162Y134D01*
X162Y130D01*
X164Y130D01*
X164Y128D01*
X166Y128D01*
X166Y122D01*
X168Y122D01*
X168Y118D01*
X170Y118D01*
X170Y110D01*
X172Y110D01*
X172Y80D01*
X170Y80D01*
X170Y72D01*
X168Y72D01*
X168Y68D01*
X166Y68D01*
X166Y64D01*
X164Y64D01*
X164Y60D01*
X162Y60D01*
X162Y40D01*
X3810Y40D01*
X3810Y62D01*
X3808Y62D01*
X3808Y68D01*
X3806Y68D01*
X3806Y72D01*
X3804Y72D01*
X3804Y80D01*
X3802Y80D01*
X3802Y110D01*
X3804Y110D01*
X3804Y118D01*
X3806Y118D01*
X3806Y124D01*
X3808Y124D01*
X3808Y128D01*
X3810Y128D01*
X3810Y132D01*
X3812Y132D01*
X3812Y134D01*
X3814Y134D01*
X3814Y138D01*
X3816Y138D01*
X3816Y140D01*
X3818Y140D01*
X3818Y142D01*
X3820Y142D01*
X3820Y144D01*
X3822Y144D01*
X3822Y148D01*
X3826Y148D01*
X3826Y150D01*
X3828Y150D01*
X3828Y152D01*
X3830Y152D01*
X3830Y154D01*
X3832Y154D01*
X3832Y156D01*
X3836Y156D01*
X3836Y158D01*
X3840Y158D01*
X3840Y160D01*
X3844Y160D01*
X3844Y162D01*
X3848Y162D01*
X3848Y164D01*
X3854Y164D01*
X3854Y166D01*
X3862Y166D01*
X3862Y168D01*
X112Y168D01*
G37*
D02*
G36*
X1969Y854D02*
X2016Y854D01*
X2016Y825D01*
X1969Y825D01*
X1969Y854D01*
G37*
D02*
G36*
X1969Y775D02*
X2016Y775D01*
X2016Y748D01*
X1969Y748D01*
X1969Y775D01*
G37*
D02*
G36*
X1938Y823D02*
X1967Y823D01*
X1967Y776D01*
X1938Y776D01*
X1938Y823D01*
G37*
D02*
G36*
X2017Y823D02*
X2046Y823D01*
X2046Y776D01*
X2017Y776D01*
X2017Y823D01*
G37*
D02*
G36*
X1873Y1816D02*
X1899Y1816D01*
X1899Y1791D01*
X1873Y1791D01*
X1873Y1816D01*
G37*
D02*
G36*
X1873Y1777D02*
X1899Y1777D01*
X1899Y1752D01*
X1873Y1752D01*
X1873Y1777D01*
G37*
D02*
G36*
X1854Y1796D02*
X1878Y1796D01*
X1878Y1771D01*
X1854Y1771D01*
X1854Y1796D01*
G37*
D02*
G36*
X1892Y1796D02*
X1916Y1796D01*
X1916Y1771D01*
X1892Y1771D01*
X1892Y1796D01*
G37*
D02*
G36*
X2679Y1780D02*
X2718Y1780D01*
X2718Y1753D01*
X2679Y1753D01*
X2679Y1780D01*
G37*
D02*
G36*
X2679Y1715D02*
X2718Y1715D01*
X2718Y1690D01*
X2679Y1690D01*
X2679Y1715D01*
G37*
D02*
G36*
X904Y479D02*
X932Y479D01*
X932Y438D01*
X904Y438D01*
X904Y479D01*
G37*
D02*
G36*
X2979Y1780D02*
X3017Y1780D01*
X3017Y1753D01*
X2979Y1753D01*
X2979Y1780D01*
G37*
D02*
G36*
X3279Y1780D02*
X3317Y1780D01*
X3317Y1753D01*
X3279Y1753D01*
X3279Y1780D01*
G37*
D02*
G36*
X3279Y1715D02*
X3317Y1715D01*
X3317Y1690D01*
X3279Y1690D01*
X3279Y1715D01*
G37*
D02*
G36*
X3305Y852D02*
X3352Y852D01*
X3352Y824D01*
X3305Y824D01*
X3305Y852D01*
G37*
D02*
G36*
X3305Y774D02*
X3352Y774D01*
X3352Y746D01*
X3305Y746D01*
X3305Y774D01*
G37*
D02*
G36*
X3276Y821D02*
X3303Y821D01*
X3303Y774D01*
X3276Y774D01*
X3276Y821D01*
G37*
D02*
G36*
X3353Y821D02*
X3382Y821D01*
X3382Y774D01*
X3353Y774D01*
X3353Y821D01*
G37*
D02*
G04 End of Copper0*
M02*