; NON-PLATED HOLES START AT T1
; THROUGH (PLATED) HOLES START AT T100
M48
INCH
T1C0.058000
T2C0.086614
T3C0.125984
T4C0.150000
T5C0.070000
T100C0.038000
T101C0.051181
T102C0.015748
T103C0.098425
T104C0.039370
%
T1
X002925Y018737
X002925Y016831
T2
X024996Y022829
X001871Y011579
X034996Y022829
X001871Y003579
T3
X038741Y023579
X000996Y023579
X000996Y000954
X038741Y000954
T4
X027007Y002993
X034877Y002993
X013632Y002993
X021502Y002993
T5
X001727Y018862
X001727Y016716
T100
X003871Y023579
X004871Y023579
X005871Y023579
T101
X015171Y007989
X028507Y007078
X030084Y007065
X019940Y007989
X031701Y007990
X030097Y007990
X033305Y007974
X015159Y007052
X016771Y007989
X028494Y007990
X018371Y007079
X016763Y007072
X031746Y007079
X018371Y007989
T102
X018371Y009579
X005621Y011079
X005621Y019579
X031746Y009454
X016621Y015579
X009621Y012579
X004871Y020579
X012621Y012579
X003871Y020079
X018871Y017829
T103
X024996Y022829
X001871Y011579
X034996Y022829
X001871Y003579
T104
X028996Y017329
X034996Y021329
X034996Y019329
X008871Y006579
X025996Y017329
X008871Y008579
X031996Y017329
X032996Y017329
X008871Y011579
X029996Y017329
X026996Y017329
X008871Y009579
X024996Y017329
X030996Y017329
X008871Y010579
X008871Y005579
X033996Y017329
X034996Y020329
X008871Y003579
X008871Y004579
X027996Y017329
X034996Y017329
X008871Y007579
T00
M30
