G04 MADE WITH FRITZING*
G04 WWW.FRITZING.ORG*
G04 DOUBLE SIDED*
G04 HOLES PLATED*
G04 CONTOUR ON CENTER OF CONTOUR VECTOR*
%ASAXBY*%
%FSLAX23Y23*%
%MOIN*%
%OFA0B0*%
%SFA1.0B1.0*%
%ADD10C,0.082677*%
%ADD11C,0.066000*%
%ADD12C,0.138425*%
%ADD13C,0.070000*%
%ADD14C,0.078000*%
%ADD15C,0.039370*%
%ADD16R,0.078000X0.078000*%
%ADD17R,0.066333X0.138458*%
%ADD18R,0.066000X0.138000*%
%ADD19R,0.066333X0.138000*%
%ADD20R,0.067375X0.138458*%
%ADD21R,0.138708X0.067500*%
%ADD22C,0.016000*%
%ADD23C,0.024000*%
%LNCOPPER1*%
G90*
G70*
G54D10*
X1837Y799D03*
X1677Y799D03*
X1517Y799D03*
X1994Y799D03*
X1837Y708D03*
G54D11*
X3500Y1933D03*
X3500Y2033D03*
X3500Y2133D03*
X3500Y1733D03*
X3400Y1733D03*
X3300Y1733D03*
X3200Y1733D03*
G54D12*
X3500Y2283D03*
G54D11*
X3100Y1733D03*
X3000Y1733D03*
X2900Y1733D03*
X2800Y1733D03*
X2700Y1733D03*
X2600Y1733D03*
X2500Y1733D03*
G54D12*
X2500Y2283D03*
G54D13*
X887Y358D03*
X887Y458D03*
G54D12*
X187Y358D03*
G54D13*
X887Y558D03*
X887Y658D03*
X887Y758D03*
X887Y858D03*
X887Y958D03*
X887Y1058D03*
X887Y1158D03*
G54D12*
X187Y1158D03*
G54D14*
X587Y2358D03*
X487Y2358D03*
X387Y2358D03*
G54D15*
X1887Y1783D03*
X562Y1958D03*
X562Y1108D03*
X487Y2058D03*
X387Y2008D03*
X1662Y1558D03*
G54D10*
X3175Y708D03*
X3331Y797D03*
X3170Y799D03*
X3010Y799D03*
X2849Y799D03*
X1516Y705D03*
X1676Y707D03*
X2851Y708D03*
X3008Y707D03*
G54D15*
X1837Y958D03*
X1262Y1258D03*
X3175Y945D03*
X962Y1258D03*
G54D16*
X587Y2358D03*
G54D17*
X167Y1394D03*
G54D18*
X268Y1394D03*
X368Y1394D03*
X461Y1394D03*
X561Y1394D03*
X661Y1394D03*
X761Y1394D03*
X861Y1394D03*
X961Y1394D03*
X1061Y1394D03*
X1161Y1394D03*
X1261Y1394D03*
X1361Y1394D03*
X1461Y1394D03*
X1561Y1394D03*
X1661Y1394D03*
X1761Y1394D03*
X1861Y1394D03*
X1961Y1394D03*
G54D19*
X2067Y1394D03*
G54D20*
X2068Y2165D03*
G54D18*
X1961Y2173D03*
X1861Y2173D03*
X1761Y2173D03*
X1661Y2173D03*
X1561Y2173D03*
X1461Y2173D03*
X1361Y2173D03*
X1261Y2173D03*
X1161Y2173D03*
X1061Y2173D03*
X961Y2173D03*
X861Y2173D03*
X761Y2173D03*
X661Y2173D03*
X561Y2173D03*
X461Y2173D03*
X361Y2173D03*
X261Y2173D03*
G54D19*
X167Y2165D03*
G54D21*
X2093Y1679D03*
X2093Y1780D03*
X2093Y1880D03*
G54D22*
X3488Y1717D02*
X3263Y1395D01*
D02*
X3263Y1395D02*
X2095Y1394D01*
D02*
X3212Y1496D02*
X2012Y1495D01*
D02*
X3387Y1718D02*
X3212Y1496D01*
D02*
X2012Y1495D02*
X1989Y1448D01*
D02*
X3087Y1608D02*
X3186Y1718D01*
D02*
X1837Y1608D02*
X3087Y1608D01*
D02*
X1762Y1546D02*
X1837Y1608D01*
D02*
X1762Y1457D02*
X1762Y1546D01*
D02*
X2811Y1895D02*
X2563Y1895D01*
D02*
X2563Y1895D02*
X2224Y2359D01*
D02*
X2890Y1750D02*
X2811Y1895D01*
D02*
X2224Y2359D02*
X1712Y2359D01*
D02*
X1712Y2359D02*
X1662Y2283D01*
D02*
X1662Y2283D02*
X1662Y2236D01*
D02*
X2538Y1845D02*
X2737Y1845D01*
D02*
X2737Y1845D02*
X2790Y1750D01*
D02*
X2187Y2320D02*
X2538Y1845D01*
D02*
X1788Y2320D02*
X2187Y2320D01*
D02*
X1762Y2283D02*
X1788Y2320D01*
D02*
X1762Y2236D02*
X1762Y2283D01*
D02*
X2513Y1795D02*
X2162Y2283D01*
D02*
X2162Y2283D02*
X1987Y2283D01*
D02*
X2563Y1795D02*
X2513Y1795D01*
D02*
X1987Y2283D02*
X1962Y2258D01*
D02*
X2590Y1750D02*
X2563Y1795D01*
D02*
X1962Y2258D02*
X1962Y2236D01*
D02*
X2200Y2157D02*
X2137Y2157D01*
D02*
X2488Y1749D02*
X2200Y2157D01*
D02*
X2137Y2157D02*
X2096Y2162D01*
D02*
X606Y2358D02*
X1061Y2359D01*
D02*
X1061Y2359D02*
X1163Y2257D01*
D02*
X1163Y2257D02*
X1162Y2236D01*
D02*
X762Y982D02*
X873Y872D01*
D02*
X761Y1330D02*
X762Y982D01*
D02*
X462Y1007D02*
X874Y572D01*
D02*
X461Y1330D02*
X462Y1007D01*
D02*
X662Y908D02*
X874Y673D01*
D02*
X661Y1330D02*
X662Y908D01*
D02*
X562Y1330D02*
X562Y1116D01*
D02*
X562Y2110D02*
X562Y1966D01*
G54D23*
D02*
X1895Y1783D02*
X2030Y1781D01*
D02*
X212Y2058D02*
X287Y2058D01*
D02*
X312Y2008D02*
X379Y2008D01*
D02*
X287Y2058D02*
X312Y2008D01*
D02*
X194Y2101D02*
X212Y2058D01*
G54D22*
D02*
X1662Y1550D02*
X1662Y1457D01*
G54D23*
D02*
X1088Y357D02*
X907Y358D01*
D02*
X1837Y559D02*
X1712Y496D01*
D02*
X1313Y496D02*
X1088Y357D01*
D02*
X1712Y496D02*
X1313Y496D01*
D02*
X1837Y682D02*
X1837Y559D01*
D02*
X1975Y645D02*
X1860Y697D01*
D02*
X1975Y559D02*
X1975Y645D01*
D02*
X2037Y495D02*
X1975Y559D01*
D02*
X3025Y496D02*
X2037Y495D01*
D02*
X3160Y687D02*
X3025Y496D01*
G54D22*
D02*
X1462Y1245D02*
X1462Y1330D01*
D02*
X2850Y1120D02*
X2787Y1158D01*
D02*
X2787Y1158D02*
X1550Y1171D01*
D02*
X2849Y825D02*
X2850Y882D01*
D02*
X1550Y1171D02*
X1462Y1245D01*
D02*
X2850Y882D02*
X2850Y1120D01*
D02*
X1562Y1270D02*
X1562Y1330D01*
D02*
X3012Y1145D02*
X2900Y1220D01*
D02*
X2900Y1220D02*
X1613Y1220D01*
D02*
X3012Y908D02*
X3012Y1145D01*
D02*
X1613Y1220D02*
X1562Y1270D01*
D02*
X3010Y825D02*
X3012Y908D01*
D02*
X1524Y908D02*
X1519Y824D01*
D02*
X1063Y1258D02*
X1524Y908D01*
D02*
X1062Y1330D02*
X1063Y1258D01*
D02*
X1675Y895D02*
X1677Y825D01*
D02*
X1163Y1258D02*
X1675Y895D01*
D02*
X1162Y1330D02*
X1163Y1258D01*
D02*
X1837Y825D02*
X1837Y950D01*
D02*
X3171Y825D02*
X3174Y938D01*
D02*
X962Y1330D02*
X962Y1266D01*
D02*
X1262Y1266D02*
X1262Y1330D01*
G04 End of Copper1*
M02*